{
    "header": {
      "keySignatures": [
        {
          "key": "Eb",
          "scale": "major",
          "ticks": 0
        },
        {
          "key": "G",
          "scale": "major",
          "ticks": 31200
        },
        {
          "key": "Eb",
          "scale": "major",
          "ticks": 37920
        },
        {
          "key": "Bb",
          "scale": "major",
          "ticks": 40800
        },
        {
          "key": "Eb",
          "scale": "major",
          "ticks": 48480
        },
        {
          "key": "G",
          "scale": "major",
          "ticks": 56160
        },
        {
          "key": "Eb",
          "scale": "major",
          "ticks": 62640
        },
        {
          "key": "G",
          "scale": "major",
          "ticks": 95520
        },
        {
          "key": "Eb",
          "scale": "major",
          "ticks": 0
        },
        {
          "key": "G",
          "scale": "major",
          "ticks": 31200
        },
        {
          "key": "Eb",
          "scale": "major",
          "ticks": 37920
        },
        {
          "key": "Bb",
          "scale": "major",
          "ticks": 40800
        },
        {
          "key": "Eb",
          "scale": "major",
          "ticks": 48480
        },
        {
          "key": "G",
          "scale": "major",
          "ticks": 56160
        },
        {
          "key": "Eb",
          "scale": "major",
          "ticks": 62640
        },
        {
          "key": "G",
          "scale": "major",
          "ticks": 95520
        }
      ],
      "meta": [],
      "name": "Piano",
      "ppq": 480,
      "tempos": [
        {
          "bpm": 150,
          "ticks": 0
        },
        {
          "bpm": 75,
          "ticks": 31200
        },
        {
          "bpm": 37.5,
          "ticks": 37800
        },
        {
          "bpm": 75,
          "ticks": 37919
        },
        {
          "bpm": 37.5,
          "ticks": 56040
        },
        {
          "bpm": 75,
          "ticks": 56159
        },
        {
          "bpm": 100,
          "ticks": 60480
        },
        {
          "bpm": 75,
          "ticks": 62640
        },
        {
          "bpm": 150,
          "ticks": 64800
        },
        {
          "bpm": 75,
          "ticks": 95520
        },
        {
          "bpm": 37.5,
          "ticks": 102120
        },
        {
          "bpm": 75,
          "ticks": 102239
        }
      ],
      "timeSignatures": [
        {
          "ticks": 0,
          "timeSignature": [
            1,
            4
          ],
          "measures": 0
        },
        {
          "ticks": 480,
          "timeSignature": [
            4,
            4
          ],
          "measures": 1
        },
        {
          "ticks": 36960,
          "timeSignature": [
            2,
            4
          ],
          "measures": 20
        },
        {
          "ticks": 37920,
          "timeSignature": [
            4,
            4
          ],
          "measures": 21
        },
        {
          "ticks": 39840,
          "timeSignature": [
            2,
            4
          ],
          "measures": 22
        },
        {
          "ticks": 40800,
          "timeSignature": [
            4,
            4
          ],
          "measures": 23
        },
        {
          "ticks": 56160,
          "timeSignature": [
            3,
            4
          ],
          "measures": 31
        },
        {
          "ticks": 60480,
          "timeSignature": [
            9,
            8
          ],
          "measures": 34
        },
        {
          "ticks": 64800,
          "timeSignature": [
            4,
            4
          ],
          "measures": 34.5
        },
        {
          "ticks": 101280,
          "timeSignature": [
            2,
            4
          ],
          "measures": 53.5
        },
        {
          "ticks": 102240,
          "timeSignature": [
            4,
            4
          ],
          "measures": 54.5
        }
      ]
    },
    "tracks": [
      {
        "channel": 0,
        "controlChanges": {
          "6": [
            {
              "number": 6,
              "ticks": 0,
              "time": 0,
              "value": 0.09448818897637795
            }
          ],
          "7": [
            {
              "number": 7,
              "ticks": 0,
              "time": 0,
              "value": 0.7874015748031497
            }
          ],
          "10": [
            {
              "number": 10,
              "ticks": 0,
              "time": 0,
              "value": 0.5039370078740157
            }
          ],
          "91": [
            {
              "number": 91,
              "ticks": 0,
              "time": 0,
              "value": 0
            }
          ],
          "93": [
            {
              "number": 93,
              "ticks": 0,
              "time": 0,
              "value": 0
            }
          ],
          "100": [
            {
              "number": 100,
              "ticks": 0,
              "time": 0,
              "value": 0
            },
            {
              "number": 100,
              "ticks": 0,
              "time": 0,
              "value": 1
            }
          ],
          "101": [
            {
              "number": 101,
              "ticks": 0,
              "time": 0,
              "value": 0
            },
            {
              "number": 101,
              "ticks": 0,
              "time": 0,
              "value": 1
            }
          ],
          "121": [
            {
              "number": 121,
              "ticks": 0,
              "time": 0,
              "value": 0
            }
          ]
        },
        "pitchBends": [],
        "instrument": {
          "family": "piano",
          "number": 0,
          "name": "acoustic grand piano"
        },
        "name": "Piano",
        "notes": [
          {
            "duration": 0.18916666666666668,
            "durationTicks": 227,
            "midi": 75,
            "name": "D#5",
            "ticks": 0,
            "time": 0,
            "velocity": 0.6299212598425197
          },
          {
            "duration": 0.18916666666666668,
            "durationTicks": 227,
            "midi": 87,
            "name": "D#6",
            "ticks": 0,
            "time": 0,
            "velocity": 0.6299212598425197
          },
          {
            "duration": 0.18916666666666665,
            "durationTicks": 227,
            "midi": 77,
            "name": "F5",
            "ticks": 240,
            "time": 0.2,
            "velocity": 0.6299212598425197
          },
          {
            "duration": 0.18916666666666665,
            "durationTicks": 227,
            "midi": 89,
            "name": "F6",
            "ticks": 240,
            "time": 0.2,
            "velocity": 0.6299212598425197
          },
          {
            "duration": 0.12583333333333335,
            "durationTicks": 151,
            "midi": 79,
            "name": "G5",
            "ticks": 480,
            "time": 0.4,
            "velocity": 0.6299212598425197
          },
          {
            "duration": 0.12583333333333335,
            "durationTicks": 151,
            "midi": 87,
            "name": "D#6",
            "ticks": 480,
            "time": 0.4,
            "velocity": 0.6299212598425197
          },
          {
            "duration": 0.12583333333333335,
            "durationTicks": 151,
            "midi": 91,
            "name": "G6",
            "ticks": 480,
            "time": 0.4,
            "velocity": 0.6299212598425197
          },
          {
            "duration": 0.12583333333333335,
            "durationTicks": 151,
            "midi": 86,
            "name": "D6",
            "ticks": 640,
            "time": 0.5333333333333333,
            "velocity": 0.6299212598425197
          },
          {
            "duration": 0.12583333333333324,
            "durationTicks": 151,
            "midi": 79,
            "name": "G5",
            "ticks": 800,
            "time": 0.6666666666666667,
            "velocity": 0.6299212598425197
          },
          {
            "duration": 0.12583333333333324,
            "durationTicks": 151,
            "midi": 75,
            "name": "D#5",
            "ticks": 960,
            "time": 0.8,
            "velocity": 0.6299212598425197
          },
          {
            "duration": 0.12583333333333324,
            "durationTicks": 151,
            "midi": 79,
            "name": "G5",
            "ticks": 960,
            "time": 0.8,
            "velocity": 0.6299212598425197
          },
          {
            "duration": 0.12583333333333335,
            "durationTicks": 151,
            "midi": 74,
            "name": "D5",
            "ticks": 1120,
            "time": 0.9333333333333335,
            "velocity": 0.6299212598425197
          },
          {
            "duration": 0.12583333333333346,
            "durationTicks": 151,
            "midi": 67,
            "name": "G4",
            "ticks": 1280,
            "time": 1.0666666666666667,
            "velocity": 0.6299212598425197
          },
          {
            "duration": 0.18916666666666648,
            "durationTicks": 227,
            "midi": 86,
            "name": "D6",
            "ticks": 1920,
            "time": 1.6,
            "velocity": 0.6299212598425197
          },
          {
            "duration": 0.18916666666666648,
            "durationTicks": 227,
            "midi": 98,
            "name": "D7",
            "ticks": 1920,
            "time": 1.6,
            "velocity": 0.6299212598425197
          },
          {
            "duration": 0.31583333333333363,
            "durationTicks": 379,
            "midi": 86,
            "name": "D6",
            "ticks": 2160,
            "time": 1.8,
            "velocity": 0.6299212598425197
          },
          {
            "duration": 0.31583333333333363,
            "durationTicks": 379,
            "midi": 98,
            "name": "D7",
            "ticks": 2160,
            "time": 1.8,
            "velocity": 0.6299212598425197
          },
          {
            "duration": 0.12583333333333346,
            "durationTicks": 151,
            "midi": 94,
            "name": "A#6",
            "ticks": 2400,
            "time": 2,
            "velocity": 0.6299212598425197
          },
          {
            "duration": 0.12583333333333346,
            "durationTicks": 151,
            "midi": 93,
            "name": "A6",
            "ticks": 2560,
            "time": 2.1333333333333333,
            "velocity": 0.6299212598425197
          },
          {
            "duration": 0.12583333333333302,
            "durationTicks": 151,
            "midi": 86,
            "name": "D6",
            "ticks": 2720,
            "time": 2.266666666666667,
            "velocity": 0.6299212598425197
          },
          {
            "duration": 0.12583333333333302,
            "durationTicks": 151,
            "midi": 82,
            "name": "A#5",
            "ticks": 2880,
            "time": 2.4000000000000004,
            "velocity": 0.6299212598425197
          },
          {
            "duration": 0.12583333333333302,
            "durationTicks": 151,
            "midi": 86,
            "name": "D6",
            "ticks": 2880,
            "time": 2.4000000000000004,
            "velocity": 0.6299212598425197
          },
          {
            "duration": 0.12583333333333346,
            "durationTicks": 151,
            "midi": 81,
            "name": "A5",
            "ticks": 3040,
            "time": 2.533333333333333,
            "velocity": 0.6299212598425197
          },
          {
            "duration": 0.12583333333333346,
            "durationTicks": 151,
            "midi": 74,
            "name": "D5",
            "ticks": 3200,
            "time": 2.666666666666667,
            "velocity": 0.6299212598425197
          },
          {
            "duration": 0.18916666666666648,
            "durationTicks": 227,
            "midi": 79,
            "name": "G5",
            "ticks": 3840,
            "time": 3.2,
            "velocity": 0.6299212598425197
          },
          {
            "duration": 0.18916666666666648,
            "durationTicks": 227,
            "midi": 91,
            "name": "G6",
            "ticks": 3840,
            "time": 3.2,
            "velocity": 0.6299212598425197
          },
          {
            "duration": 0.31583333333333297,
            "durationTicks": 379,
            "midi": 77,
            "name": "F5",
            "ticks": 4080,
            "time": 3.4000000000000004,
            "velocity": 0.6299212598425197
          },
          {
            "duration": 0.31583333333333297,
            "durationTicks": 379,
            "midi": 89,
            "name": "F6",
            "ticks": 4080,
            "time": 3.4000000000000004,
            "velocity": 0.6299212598425197
          },
          {
            "duration": 0.12583333333333346,
            "durationTicks": 151,
            "midi": 84,
            "name": "C6",
            "ticks": 4320,
            "time": 3.6,
            "velocity": 0.6299212598425197
          },
          {
            "duration": 0.12583333333333302,
            "durationTicks": 151,
            "midi": 80,
            "name": "G#5",
            "ticks": 4480,
            "time": 3.733333333333334,
            "velocity": 0.6299212598425197
          },
          {
            "duration": 0.12583333333333302,
            "durationTicks": 151,
            "midi": 77,
            "name": "F5",
            "ticks": 4640,
            "time": 3.8666666666666667,
            "velocity": 0.6299212598425197
          },
          {
            "duration": 0.18916666666666693,
            "durationTicks": 227,
            "midi": 75,
            "name": "D#5",
            "ticks": 4800,
            "time": 4,
            "velocity": 0.6299212598425197
          },
          {
            "duration": 0.18916666666666693,
            "durationTicks": 227,
            "midi": 87,
            "name": "D#6",
            "ticks": 4800,
            "time": 4,
            "velocity": 0.6299212598425197
          },
          {
            "duration": 0.37916666666666643,
            "durationTicks": 455,
            "midi": 77,
            "name": "F5",
            "ticks": 5040,
            "time": 4.2,
            "velocity": 0.6299212598425197
          },
          {
            "duration": 0.37916666666666643,
            "durationTicks": 455,
            "midi": 89,
            "name": "F6",
            "ticks": 5040,
            "time": 4.2,
            "velocity": 0.6299212598425197
          },
          {
            "duration": 0.37916666666666643,
            "durationTicks": 455,
            "midi": 82,
            "name": "A#5",
            "ticks": 5520,
            "time": 4.6000000000000005,
            "velocity": 0.6299212598425197
          },
          {
            "duration": 0.37916666666666643,
            "durationTicks": 455,
            "midi": 94,
            "name": "A#6",
            "ticks": 5520,
            "time": 4.6000000000000005,
            "velocity": 0.6299212598425197
          },
          {
            "duration": 0.31583333333333385,
            "durationTicks": 379,
            "midi": 79,
            "name": "G5",
            "ticks": 6000,
            "time": 5,
            "velocity": 0.6299212598425197
          },
          {
            "duration": 0.31583333333333385,
            "durationTicks": 379,
            "midi": 91,
            "name": "G6",
            "ticks": 6000,
            "time": 5,
            "velocity": 0.6299212598425197
          },
          {
            "duration": 0.12583333333333346,
            "durationTicks": 151,
            "midi": 87,
            "name": "D#6",
            "ticks": 6240,
            "time": 5.2,
            "velocity": 0.6299212598425197
          },
          {
            "duration": 0.12583333333333346,
            "durationTicks": 151,
            "midi": 82,
            "name": "A#5",
            "ticks": 6400,
            "time": 5.333333333333334,
            "velocity": 0.6299212598425197
          },
          {
            "duration": 0.12583333333333346,
            "durationTicks": 151,
            "midi": 79,
            "name": "G5",
            "ticks": 6560,
            "time": 5.466666666666667,
            "velocity": 0.6299212598425197
          },
          {
            "duration": 0.12583333333333346,
            "durationTicks": 151,
            "midi": 79,
            "name": "G5",
            "ticks": 6720,
            "time": 5.6000000000000005,
            "velocity": 0.6299212598425197
          },
          {
            "duration": 0.12583333333333346,
            "durationTicks": 151,
            "midi": 82,
            "name": "A#5",
            "ticks": 6720,
            "time": 5.6000000000000005,
            "velocity": 0.6299212598425197
          },
          {
            "duration": 0.12583333333333258,
            "durationTicks": 151,
            "midi": 75,
            "name": "D#5",
            "ticks": 6880,
            "time": 5.733333333333334,
            "velocity": 0.6299212598425197
          },
          {
            "duration": 0.12583333333333258,
            "durationTicks": 151,
            "midi": 70,
            "name": "A#4",
            "ticks": 7040,
            "time": 5.866666666666667,
            "velocity": 0.6299212598425197
          },
          {
            "duration": 0.12583333333333346,
            "durationTicks": 151,
            "midi": 67,
            "name": "G4",
            "ticks": 7200,
            "time": 6,
            "velocity": 0.6299212598425197
          },
          {
            "duration": 0.12583333333333346,
            "durationTicks": 151,
            "midi": 70,
            "name": "A#4",
            "ticks": 7200,
            "time": 6,
            "velocity": 0.6299212598425197
          },
          {
            "duration": 0.12583333333333346,
            "durationTicks": 151,
            "midi": 63,
            "name": "D#4",
            "ticks": 7360,
            "time": 6.133333333333334,
            "velocity": 0.6299212598425197
          },
          {
            "duration": 0.12583333333333346,
            "durationTicks": 151,
            "midi": 58,
            "name": "A#3",
            "ticks": 7520,
            "time": 6.266666666666667,
            "velocity": 0.6299212598425197
          },
          {
            "duration": 0.12583333333333346,
            "durationTicks": 151,
            "midi": 75,
            "name": "D#5",
            "ticks": 8160,
            "time": 6.800000000000001,
            "velocity": 0.6299212598425197
          },
          {
            "duration": 0.12583333333333346,
            "durationTicks": 151,
            "midi": 80,
            "name": "G#5",
            "ticks": 8160,
            "time": 6.800000000000001,
            "velocity": 0.6299212598425197
          },
          {
            "duration": 0.12583333333333346,
            "durationTicks": 151,
            "midi": 72,
            "name": "C5",
            "ticks": 8320,
            "time": 6.933333333333334,
            "velocity": 0.6299212598425197
          },
          {
            "duration": 0.12583333333333258,
            "durationTicks": 151,
            "midi": 68,
            "name": "G#4",
            "ticks": 8480,
            "time": 7.066666666666667,
            "velocity": 0.6299212598425197
          },
          {
            "duration": 0.12583333333333435,
            "durationTicks": 151,
            "midi": 63,
            "name": "D#4",
            "ticks": 8640,
            "time": 7.2,
            "velocity": 0.6299212598425197
          },
          {
            "duration": 0.12583333333333435,
            "durationTicks": 151,
            "midi": 68,
            "name": "G#4",
            "ticks": 8640,
            "time": 7.2,
            "velocity": 0.6299212598425197
          },
          {
            "duration": 0.12583333333333435,
            "durationTicks": 151,
            "midi": 60,
            "name": "C4",
            "ticks": 8800,
            "time": 7.333333333333333,
            "velocity": 0.6299212598425197
          },
          {
            "duration": 0.12583333333333258,
            "durationTicks": 151,
            "midi": 56,
            "name": "G#3",
            "ticks": 8960,
            "time": 7.466666666666668,
            "velocity": 0.6299212598425197
          },
          {
            "duration": 0.3791666666666673,
            "durationTicks": 455,
            "midi": 72,
            "name": "C5",
            "ticks": 9120,
            "time": 7.6000000000000005,
            "velocity": 0.6299212598425197
          },
          {
            "duration": 0.3791666666666673,
            "durationTicks": 455,
            "midi": 79,
            "name": "G5",
            "ticks": 9120,
            "time": 7.6000000000000005,
            "velocity": 0.6299212598425197
          },
          {
            "duration": 0.3791666666666673,
            "durationTicks": 455,
            "midi": 84,
            "name": "C6",
            "ticks": 9120,
            "time": 7.6000000000000005,
            "velocity": 0.6299212598425197
          },
          {
            "duration": 0.3791666666666682,
            "durationTicks": 455,
            "midi": 75,
            "name": "D#5",
            "ticks": 9600,
            "time": 8,
            "velocity": 0.6299212598425197
          },
          {
            "duration": 0.3791666666666682,
            "durationTicks": 455,
            "midi": 87,
            "name": "D#6",
            "ticks": 9600,
            "time": 8,
            "velocity": 0.6299212598425197
          },
          {
            "duration": 0.12583333333333435,
            "durationTicks": 151,
            "midi": 80,
            "name": "G#5",
            "ticks": 10080,
            "time": 8.4,
            "velocity": 0.6299212598425197
          },
          {
            "duration": 0.12583333333333435,
            "durationTicks": 151,
            "midi": 87,
            "name": "D#6",
            "ticks": 10080,
            "time": 8.4,
            "velocity": 0.6299212598425197
          },
          {
            "duration": 0.12583333333333435,
            "durationTicks": 151,
            "midi": 92,
            "name": "G#6",
            "ticks": 10080,
            "time": 8.4,
            "velocity": 0.6299212598425197
          },
          {
            "duration": 0.12583333333333435,
            "durationTicks": 151,
            "midi": 82,
            "name": "A#5",
            "ticks": 10240,
            "time": 8.533333333333333,
            "velocity": 0.6299212598425197
          },
          {
            "duration": 0.12583333333333258,
            "durationTicks": 151,
            "midi": 75,
            "name": "D#5",
            "ticks": 10400,
            "time": 8.666666666666668,
            "velocity": 0.6299212598425197
          },
          {
            "duration": 0.3791666666666682,
            "durationTicks": 455,
            "midi": 82,
            "name": "A#5",
            "ticks": 10800,
            "time": 9,
            "velocity": 0.6299212598425197
          },
          {
            "duration": 0.3791666666666682,
            "durationTicks": 455,
            "midi": 94,
            "name": "A#6",
            "ticks": 10800,
            "time": 9,
            "velocity": 0.6299212598425197
          },
          {
            "duration": 0.18916666666666693,
            "durationTicks": 227,
            "midi": 79,
            "name": "G5",
            "ticks": 11280,
            "time": 9.4,
            "velocity": 0.6299212598425197
          },
          {
            "duration": 0.18916666666666693,
            "durationTicks": 227,
            "midi": 91,
            "name": "G6",
            "ticks": 11280,
            "time": 9.4,
            "velocity": 0.6299212598425197
          },
          {
            "duration": 0.18916666666666515,
            "durationTicks": 227,
            "midi": 77,
            "name": "F5",
            "ticks": 11520,
            "time": 9.600000000000001,
            "velocity": 0.6299212598425197
          },
          {
            "duration": 0.18916666666666515,
            "durationTicks": 227,
            "midi": 89,
            "name": "F6",
            "ticks": 11520,
            "time": 9.600000000000001,
            "velocity": 0.6299212598425197
          },
          {
            "duration": 0.18916666666666693,
            "durationTicks": 227,
            "midi": 75,
            "name": "D#5",
            "ticks": 11760,
            "time": 9.8,
            "velocity": 0.6299212598425197
          },
          {
            "duration": 0.18916666666666693,
            "durationTicks": 227,
            "midi": 87,
            "name": "D#6",
            "ticks": 11760,
            "time": 9.8,
            "velocity": 0.6299212598425197
          },
          {
            "duration": 0.12583333333333435,
            "durationTicks": 151,
            "midi": 77,
            "name": "F5",
            "ticks": 12000,
            "time": 10,
            "velocity": 0.6299212598425197
          },
          {
            "duration": 0.12583333333333435,
            "durationTicks": 151,
            "midi": 84,
            "name": "C6",
            "ticks": 12000,
            "time": 10,
            "velocity": 0.6299212598425197
          },
          {
            "duration": 0.12583333333333435,
            "durationTicks": 151,
            "midi": 89,
            "name": "F6",
            "ticks": 12000,
            "time": 10,
            "velocity": 0.6299212598425197
          },
          {
            "duration": 0.12583333333333435,
            "durationTicks": 151,
            "midi": 80,
            "name": "G#5",
            "ticks": 12160,
            "time": 10.133333333333333,
            "velocity": 0.6299212598425197
          },
          {
            "duration": 0.12583333333333258,
            "durationTicks": 151,
            "midi": 77,
            "name": "F5",
            "ticks": 12320,
            "time": 10.266666666666667,
            "velocity": 0.6299212598425197
          },
          {
            "duration": 0.12583333333333435,
            "durationTicks": 151,
            "midi": 68,
            "name": "G#4",
            "ticks": 12480,
            "time": 10.4,
            "velocity": 0.6299212598425197
          },
          {
            "duration": 0.12583333333333435,
            "durationTicks": 151,
            "midi": 72,
            "name": "C5",
            "ticks": 12480,
            "time": 10.4,
            "velocity": 0.6299212598425197
          },
          {
            "duration": 0.12583333333333435,
            "durationTicks": 151,
            "midi": 65,
            "name": "F4",
            "ticks": 12640,
            "time": 10.533333333333333,
            "velocity": 0.6299212598425197
          },
          {
            "duration": 0.12583333333333258,
            "durationTicks": 151,
            "midi": 60,
            "name": "C4",
            "ticks": 12800,
            "time": 10.666666666666668,
            "velocity": 0.6299212598425197
          },
          {
            "duration": 0.37916666666666643,
            "durationTicks": 455,
            "midi": 62,
            "name": "D4",
            "ticks": 12960,
            "time": 10.8,
            "velocity": 0.6299212598425197
          },
          {
            "duration": 0.37916666666666643,
            "durationTicks": 455,
            "midi": 65,
            "name": "F4",
            "ticks": 12960,
            "time": 10.8,
            "velocity": 0.6299212598425197
          },
          {
            "duration": 0.37916666666666643,
            "durationTicks": 455,
            "midi": 69,
            "name": "A4",
            "ticks": 12960,
            "time": 10.8,
            "velocity": 0.6299212598425197
          },
          {
            "duration": 0.37916666666666643,
            "durationTicks": 455,
            "midi": 74,
            "name": "D5",
            "ticks": 12960,
            "time": 10.8,
            "velocity": 0.6299212598425197
          },
          {
            "duration": 0.37916666666666643,
            "durationTicks": 455,
            "midi": 63,
            "name": "D#4",
            "ticks": 13440,
            "time": 11.200000000000001,
            "velocity": 0.6299212598425197
          },
          {
            "duration": 0.37916666666666643,
            "durationTicks": 455,
            "midi": 65,
            "name": "F4",
            "ticks": 13440,
            "time": 11.200000000000001,
            "velocity": 0.6299212598425197
          },
          {
            "duration": 0.37916666666666643,
            "durationTicks": 455,
            "midi": 69,
            "name": "A4",
            "ticks": 13440,
            "time": 11.200000000000001,
            "velocity": 0.6299212598425197
          },
          {
            "duration": 0.37916666666666643,
            "durationTicks": 455,
            "midi": 75,
            "name": "D#5",
            "ticks": 13440,
            "time": 11.200000000000001,
            "velocity": 0.6299212598425197
          },
          {
            "duration": 0.12583333333333258,
            "durationTicks": 151,
            "midi": 68,
            "name": "G#4",
            "ticks": 13920,
            "time": 11.600000000000001,
            "velocity": 0.6299212598425197
          },
          {
            "duration": 0.12583333333333258,
            "durationTicks": 151,
            "midi": 75,
            "name": "D#5",
            "ticks": 13920,
            "time": 11.600000000000001,
            "velocity": 0.6299212598425197
          },
          {
            "duration": 0.12583333333333258,
            "durationTicks": 151,
            "midi": 65,
            "name": "F4",
            "ticks": 14080,
            "time": 11.733333333333334,
            "velocity": 0.6299212598425197
          },
          {
            "duration": 0.12583333333333258,
            "durationTicks": 151,
            "midi": 63,
            "name": "D#4",
            "ticks": 14240,
            "time": 11.866666666666667,
            "velocity": 0.6299212598425197
          },
          {
            "duration": 0.12583333333333435,
            "durationTicks": 151,
            "midi": 71,
            "name": "B4",
            "ticks": 14880,
            "time": 12.4,
            "velocity": 0.6299212598425197
          },
          {
            "duration": 0.12583333333333435,
            "durationTicks": 151,
            "midi": 74,
            "name": "D5",
            "ticks": 14880,
            "time": 12.4,
            "velocity": 0.6299212598425197
          },
          {
            "duration": 0.12583333333333435,
            "durationTicks": 151,
            "midi": 67,
            "name": "G4",
            "ticks": 15040,
            "time": 12.533333333333333,
            "velocity": 0.6299212598425197
          },
          {
            "duration": 0.12583333333333258,
            "durationTicks": 151,
            "midi": 62,
            "name": "D4",
            "ticks": 15200,
            "time": 12.666666666666668,
            "velocity": 0.6299212598425197
          },
          {
            "duration": 0.1891666666666687,
            "durationTicks": 227,
            "midi": 75,
            "name": "D#5",
            "ticks": 15360,
            "time": 12.8,
            "velocity": 0.6299212598425197
          },
          {
            "duration": 0.1891666666666687,
            "durationTicks": 227,
            "midi": 87,
            "name": "D#6",
            "ticks": 15360,
            "time": 12.8,
            "velocity": 0.6299212598425197
          },
          {
            "duration": 0.1891666666666687,
            "durationTicks": 227,
            "midi": 77,
            "name": "F5",
            "ticks": 15600,
            "time": 13,
            "velocity": 0.6299212598425197
          },
          {
            "duration": 0.1891666666666687,
            "durationTicks": 227,
            "midi": 89,
            "name": "F6",
            "ticks": 15600,
            "time": 13,
            "velocity": 0.6299212598425197
          },
          {
            "duration": 0.12583333333333258,
            "durationTicks": 151,
            "midi": 79,
            "name": "G5",
            "ticks": 15840,
            "time": 13.200000000000001,
            "velocity": 0.6299212598425197
          },
          {
            "duration": 0.12583333333333258,
            "durationTicks": 151,
            "midi": 87,
            "name": "D#6",
            "ticks": 15840,
            "time": 13.200000000000001,
            "velocity": 0.6299212598425197
          },
          {
            "duration": 0.12583333333333258,
            "durationTicks": 151,
            "midi": 91,
            "name": "G6",
            "ticks": 15840,
            "time": 13.200000000000001,
            "velocity": 0.6299212598425197
          },
          {
            "duration": 0.12583333333333258,
            "durationTicks": 151,
            "midi": 86,
            "name": "D6",
            "ticks": 16000,
            "time": 13.333333333333336,
            "velocity": 0.6299212598425197
          },
          {
            "duration": 0.12583333333333435,
            "durationTicks": 151,
            "midi": 79,
            "name": "G5",
            "ticks": 16160,
            "time": 13.466666666666667,
            "velocity": 0.6299212598425197
          },
          {
            "duration": 0.12583333333333258,
            "durationTicks": 151,
            "midi": 75,
            "name": "D#5",
            "ticks": 16320,
            "time": 13.600000000000001,
            "velocity": 0.6299212598425197
          },
          {
            "duration": 0.12583333333333258,
            "durationTicks": 151,
            "midi": 79,
            "name": "G5",
            "ticks": 16320,
            "time": 13.600000000000001,
            "velocity": 0.6299212598425197
          },
          {
            "duration": 0.12583333333333258,
            "durationTicks": 151,
            "midi": 74,
            "name": "D5",
            "ticks": 16480,
            "time": 13.733333333333334,
            "velocity": 0.6299212598425197
          },
          {
            "duration": 0.12583333333333435,
            "durationTicks": 151,
            "midi": 67,
            "name": "G4",
            "ticks": 16640,
            "time": 13.866666666666667,
            "velocity": 0.6299212598425197
          },
          {
            "duration": 0.1891666666666687,
            "durationTicks": 227,
            "midi": 86,
            "name": "D6",
            "ticks": 17280,
            "time": 14.4,
            "velocity": 0.6299212598425197
          },
          {
            "duration": 0.1891666666666687,
            "durationTicks": 227,
            "midi": 98,
            "name": "D7",
            "ticks": 17280,
            "time": 14.4,
            "velocity": 0.6299212598425197
          },
          {
            "duration": 0.3158333333333321,
            "durationTicks": 379,
            "midi": 86,
            "name": "D6",
            "ticks": 17520,
            "time": 14.600000000000001,
            "velocity": 0.6299212598425197
          },
          {
            "duration": 0.3158333333333321,
            "durationTicks": 379,
            "midi": 98,
            "name": "D7",
            "ticks": 17520,
            "time": 14.600000000000001,
            "velocity": 0.6299212598425197
          },
          {
            "duration": 0.12583333333333258,
            "durationTicks": 151,
            "midi": 94,
            "name": "A#6",
            "ticks": 17760,
            "time": 14.8,
            "velocity": 0.6299212598425197
          },
          {
            "duration": 0.12583333333333258,
            "durationTicks": 151,
            "midi": 93,
            "name": "A6",
            "ticks": 17920,
            "time": 14.933333333333335,
            "velocity": 0.6299212598425197
          },
          {
            "duration": 0.12583333333333613,
            "durationTicks": 151,
            "midi": 86,
            "name": "D6",
            "ticks": 18080,
            "time": 15.066666666666666,
            "velocity": 0.6299212598425197
          },
          {
            "duration": 0.12583333333333258,
            "durationTicks": 151,
            "midi": 82,
            "name": "A#5",
            "ticks": 18240,
            "time": 15.200000000000001,
            "velocity": 0.6299212598425197
          },
          {
            "duration": 0.12583333333333258,
            "durationTicks": 151,
            "midi": 86,
            "name": "D6",
            "ticks": 18240,
            "time": 15.200000000000001,
            "velocity": 0.6299212598425197
          },
          {
            "duration": 0.12583333333333258,
            "durationTicks": 151,
            "midi": 81,
            "name": "A5",
            "ticks": 18400,
            "time": 15.333333333333336,
            "velocity": 0.6299212598425197
          },
          {
            "duration": 0.12583333333333435,
            "durationTicks": 151,
            "midi": 74,
            "name": "D5",
            "ticks": 18560,
            "time": 15.466666666666667,
            "velocity": 0.6299212598425197
          },
          {
            "duration": 0.1891666666666687,
            "durationTicks": 227,
            "midi": 79,
            "name": "G5",
            "ticks": 19200,
            "time": 16,
            "velocity": 0.6299212598425197
          },
          {
            "duration": 0.1891666666666687,
            "durationTicks": 227,
            "midi": 91,
            "name": "G6",
            "ticks": 19200,
            "time": 16,
            "velocity": 0.6299212598425197
          },
          {
            "duration": 0.31583333333333385,
            "durationTicks": 379,
            "midi": 84,
            "name": "C6",
            "ticks": 19440,
            "time": 16.2,
            "velocity": 0.6299212598425197
          },
          {
            "duration": 0.31583333333333385,
            "durationTicks": 379,
            "midi": 96,
            "name": "C7",
            "ticks": 19440,
            "time": 16.2,
            "velocity": 0.6299212598425197
          },
          {
            "duration": 0.12583333333333258,
            "durationTicks": 151,
            "midi": 92,
            "name": "G#6",
            "ticks": 19680,
            "time": 16.400000000000002,
            "velocity": 0.6299212598425197
          },
          {
            "duration": 0.12583333333333258,
            "durationTicks": 151,
            "midi": 87,
            "name": "D#6",
            "ticks": 19840,
            "time": 16.533333333333335,
            "velocity": 0.6299212598425197
          },
          {
            "duration": 0.12583333333333258,
            "durationTicks": 151,
            "midi": 84,
            "name": "C6",
            "ticks": 20000,
            "time": 16.666666666666668,
            "velocity": 0.6299212598425197
          },
          {
            "duration": 0.37916666666666643,
            "durationTicks": 455,
            "midi": 75,
            "name": "D#5",
            "ticks": 20160,
            "time": 16.8,
            "velocity": 0.6299212598425197
          },
          {
            "duration": 0.37916666666666643,
            "durationTicks": 455,
            "midi": 87,
            "name": "D#6",
            "ticks": 20160,
            "time": 16.8,
            "velocity": 0.6299212598425197
          },
          {
            "duration": 0.37916666666666643,
            "durationTicks": 455,
            "midi": 75,
            "name": "D#5",
            "ticks": 20640,
            "time": 17.2,
            "velocity": 0.6299212598425197
          },
          {
            "duration": 0.37916666666666643,
            "durationTicks": 455,
            "midi": 87,
            "name": "D#6",
            "ticks": 20640,
            "time": 17.2,
            "velocity": 0.6299212598425197
          },
          {
            "duration": 0.1891666666666687,
            "durationTicks": 227,
            "midi": 77,
            "name": "F5",
            "ticks": 21120,
            "time": 17.6,
            "velocity": 0.6299212598425197
          },
          {
            "duration": 0.1891666666666687,
            "durationTicks": 227,
            "midi": 89,
            "name": "F6",
            "ticks": 21120,
            "time": 17.6,
            "velocity": 0.6299212598425197
          },
          {
            "duration": 0.31583333333333385,
            "durationTicks": 379,
            "midi": 79,
            "name": "G5",
            "ticks": 21360,
            "time": 17.8,
            "velocity": 0.6299212598425197
          },
          {
            "duration": 0.31583333333333385,
            "durationTicks": 379,
            "midi": 91,
            "name": "G6",
            "ticks": 21360,
            "time": 17.8,
            "velocity": 0.6299212598425197
          },
          {
            "duration": 0.12583333333333258,
            "durationTicks": 151,
            "midi": 87,
            "name": "D#6",
            "ticks": 21600,
            "time": 18,
            "velocity": 0.6299212598425197
          },
          {
            "duration": 0.12583333333333258,
            "durationTicks": 151,
            "midi": 82,
            "name": "A#5",
            "ticks": 21760,
            "time": 18.133333333333336,
            "velocity": 0.6299212598425197
          },
          {
            "duration": 0.12583333333333613,
            "durationTicks": 151,
            "midi": 79,
            "name": "G5",
            "ticks": 21920,
            "time": 18.266666666666666,
            "velocity": 0.6299212598425197
          },
          {
            "duration": 0.12583333333333258,
            "durationTicks": 151,
            "midi": 79,
            "name": "G5",
            "ticks": 22080,
            "time": 18.400000000000002,
            "velocity": 0.6299212598425197
          },
          {
            "duration": 0.12583333333333258,
            "durationTicks": 151,
            "midi": 82,
            "name": "A#5",
            "ticks": 22080,
            "time": 18.400000000000002,
            "velocity": 0.6299212598425197
          },
          {
            "duration": 0.12583333333333258,
            "durationTicks": 151,
            "midi": 75,
            "name": "D#5",
            "ticks": 22240,
            "time": 18.533333333333335,
            "velocity": 0.6299212598425197
          },
          {
            "duration": 0.12583333333333258,
            "durationTicks": 151,
            "midi": 70,
            "name": "A#4",
            "ticks": 22400,
            "time": 18.666666666666668,
            "velocity": 0.6299212598425197
          },
          {
            "duration": 0.12583333333333258,
            "durationTicks": 151,
            "midi": 67,
            "name": "G4",
            "ticks": 22560,
            "time": 18.8,
            "velocity": 0.6299212598425197
          },
          {
            "duration": 0.12583333333333258,
            "durationTicks": 151,
            "midi": 70,
            "name": "A#4",
            "ticks": 22560,
            "time": 18.8,
            "velocity": 0.6299212598425197
          },
          {
            "duration": 0.12583333333333258,
            "durationTicks": 151,
            "midi": 63,
            "name": "D#4",
            "ticks": 22720,
            "time": 18.933333333333334,
            "velocity": 0.6299212598425197
          },
          {
            "duration": 0.12583333333333613,
            "durationTicks": 151,
            "midi": 58,
            "name": "A#3",
            "ticks": 22880,
            "time": 19.066666666666666,
            "velocity": 0.6299212598425197
          },
          {
            "duration": 0.12583333333333258,
            "durationTicks": 151,
            "midi": 75,
            "name": "D#5",
            "ticks": 23520,
            "time": 19.6,
            "velocity": 0.6299212598425197
          },
          {
            "duration": 0.12583333333333258,
            "durationTicks": 151,
            "midi": 80,
            "name": "G#5",
            "ticks": 23520,
            "time": 19.6,
            "velocity": 0.6299212598425197
          },
          {
            "duration": 0.12583333333333258,
            "durationTicks": 151,
            "midi": 72,
            "name": "C5",
            "ticks": 23680,
            "time": 19.733333333333334,
            "velocity": 0.6299212598425197
          },
          {
            "duration": 0.12583333333333613,
            "durationTicks": 151,
            "midi": 68,
            "name": "G#4",
            "ticks": 23840,
            "time": 19.866666666666667,
            "velocity": 0.6299212598425197
          },
          {
            "duration": 0.37916666666666643,
            "durationTicks": 455,
            "midi": 72,
            "name": "C5",
            "ticks": 24480,
            "time": 20.400000000000002,
            "velocity": 0.6299212598425197
          },
          {
            "duration": 0.37916666666666643,
            "durationTicks": 455,
            "midi": 79,
            "name": "G5",
            "ticks": 24480,
            "time": 20.400000000000002,
            "velocity": 0.6299212598425197
          },
          {
            "duration": 0.37916666666666643,
            "durationTicks": 455,
            "midi": 84,
            "name": "C6",
            "ticks": 24480,
            "time": 20.400000000000002,
            "velocity": 0.6299212598425197
          },
          {
            "duration": 0.37916666666666643,
            "durationTicks": 455,
            "midi": 75,
            "name": "D#5",
            "ticks": 24960,
            "time": 20.8,
            "velocity": 0.6299212598425197
          },
          {
            "duration": 0.37916666666666643,
            "durationTicks": 455,
            "midi": 87,
            "name": "D#6",
            "ticks": 24960,
            "time": 20.8,
            "velocity": 0.6299212598425197
          },
          {
            "duration": 0.3791666666666629,
            "durationTicks": 455,
            "midi": 82,
            "name": "A#5",
            "ticks": 25440,
            "time": 21.200000000000003,
            "velocity": 0.6299212598425197
          },
          {
            "duration": 0.3791666666666629,
            "durationTicks": 455,
            "midi": 87,
            "name": "D#6",
            "ticks": 25440,
            "time": 21.200000000000003,
            "velocity": 0.6299212598425197
          },
          {
            "duration": 0.3791666666666629,
            "durationTicks": 455,
            "midi": 94,
            "name": "A#6",
            "ticks": 25440,
            "time": 21.200000000000003,
            "velocity": 0.6299212598425197
          },
          {
            "duration": 0.37916666666666643,
            "durationTicks": 455,
            "midi": 80,
            "name": "G#5",
            "ticks": 26160,
            "time": 21.8,
            "velocity": 0.6299212598425197
          },
          {
            "duration": 0.37916666666666643,
            "durationTicks": 455,
            "midi": 92,
            "name": "G#6",
            "ticks": 26160,
            "time": 21.8,
            "velocity": 0.6299212598425197
          },
          {
            "duration": 0.18916666666666515,
            "durationTicks": 227,
            "midi": 79,
            "name": "G5",
            "ticks": 26640,
            "time": 22.200000000000003,
            "velocity": 0.6299212598425197
          },
          {
            "duration": 0.18916666666666515,
            "durationTicks": 227,
            "midi": 91,
            "name": "G6",
            "ticks": 26640,
            "time": 22.200000000000003,
            "velocity": 0.6299212598425197
          },
          {
            "duration": 0.1891666666666687,
            "durationTicks": 227,
            "midi": 77,
            "name": "F5",
            "ticks": 26880,
            "time": 22.400000000000002,
            "velocity": 0.6299212598425197
          },
          {
            "duration": 0.1891666666666687,
            "durationTicks": 227,
            "midi": 89,
            "name": "F6",
            "ticks": 26880,
            "time": 22.400000000000002,
            "velocity": 0.6299212598425197
          },
          {
            "duration": 0.1891666666666687,
            "durationTicks": 227,
            "midi": 75,
            "name": "D#5",
            "ticks": 27120,
            "time": 22.6,
            "velocity": 0.6299212598425197
          },
          {
            "duration": 0.1891666666666687,
            "durationTicks": 227,
            "midi": 87,
            "name": "D#6",
            "ticks": 27120,
            "time": 22.6,
            "velocity": 0.6299212598425197
          },
          {
            "duration": 0.12583333333333258,
            "durationTicks": 151,
            "midi": 77,
            "name": "F5",
            "ticks": 27360,
            "time": 22.8,
            "velocity": 0.6299212598425197
          },
          {
            "duration": 0.12583333333333258,
            "durationTicks": 151,
            "midi": 84,
            "name": "C6",
            "ticks": 27360,
            "time": 22.8,
            "velocity": 0.6299212598425197
          },
          {
            "duration": 0.12583333333333258,
            "durationTicks": 151,
            "midi": 89,
            "name": "F6",
            "ticks": 27360,
            "time": 22.8,
            "velocity": 0.6299212598425197
          },
          {
            "duration": 0.12583333333333258,
            "durationTicks": 151,
            "midi": 81,
            "name": "A5",
            "ticks": 27520,
            "time": 22.933333333333337,
            "velocity": 0.6299212598425197
          },
          {
            "duration": 0.12583333333333613,
            "durationTicks": 151,
            "midi": 77,
            "name": "F5",
            "ticks": 27680,
            "time": 23.066666666666666,
            "velocity": 0.6299212598425197
          },
          {
            "duration": 0.12583333333333258,
            "durationTicks": 151,
            "midi": 69,
            "name": "A4",
            "ticks": 27840,
            "time": 23.200000000000003,
            "velocity": 0.6299212598425197
          },
          {
            "duration": 0.12583333333333258,
            "durationTicks": 151,
            "midi": 72,
            "name": "C5",
            "ticks": 27840,
            "time": 23.200000000000003,
            "velocity": 0.6299212598425197
          },
          {
            "duration": 0.12583333333333258,
            "durationTicks": 151,
            "midi": 65,
            "name": "F4",
            "ticks": 28000,
            "time": 23.333333333333336,
            "velocity": 0.6299212598425197
          },
          {
            "duration": 0.12583333333333258,
            "durationTicks": 151,
            "midi": 60,
            "name": "C4",
            "ticks": 28160,
            "time": 23.46666666666667,
            "velocity": 0.6299212598425197
          },
          {
            "duration": 0.1891666666666687,
            "durationTicks": 227,
            "midi": 65,
            "name": "F4",
            "ticks": 28320,
            "time": 23.6,
            "velocity": 0.6299212598425197
          },
          {
            "duration": 0.1891666666666687,
            "durationTicks": 227,
            "midi": 69,
            "name": "A4",
            "ticks": 28320,
            "time": 23.6,
            "velocity": 0.6299212598425197
          },
          {
            "duration": 0.1891666666666687,
            "durationTicks": 227,
            "midi": 74,
            "name": "D5",
            "ticks": 28320,
            "time": 23.6,
            "velocity": 0.6299212598425197
          },
          {
            "duration": 0.1891666666666687,
            "durationTicks": 227,
            "midi": 72,
            "name": "C5",
            "ticks": 28560,
            "time": 23.8,
            "velocity": 0.6299212598425197
          },
          {
            "duration": 0.1891666666666687,
            "durationTicks": 227,
            "midi": 71,
            "name": "B4",
            "ticks": 28800,
            "time": 24,
            "velocity": 0.6299212598425197
          },
          {
            "duration": 0.18916666666666515,
            "durationTicks": 227,
            "midi": 72,
            "name": "C5",
            "ticks": 29040,
            "time": 24.200000000000003,
            "velocity": 0.6299212598425197
          },
          {
            "duration": 0.12583333333333258,
            "durationTicks": 151,
            "midi": 71,
            "name": "B4",
            "ticks": 29280,
            "time": 24.400000000000002,
            "velocity": 0.6299212598425197
          },
          {
            "duration": 0.12583333333333258,
            "durationTicks": 151,
            "midi": 74,
            "name": "D5",
            "ticks": 29280,
            "time": 24.400000000000002,
            "velocity": 0.6299212598425197
          },
          {
            "duration": 0.12583333333333258,
            "durationTicks": 151,
            "midi": 67,
            "name": "G4",
            "ticks": 29440,
            "time": 24.533333333333335,
            "velocity": 0.6299212598425197
          },
          {
            "duration": 0.12583333333333613,
            "durationTicks": 151,
            "midi": 62,
            "name": "D4",
            "ticks": 29600,
            "time": 24.666666666666668,
            "velocity": 0.6299212598425197
          },
          {
            "duration": 0.37916666666667,
            "durationTicks": 455,
            "midi": 65,
            "name": "F4",
            "ticks": 30720,
            "time": 25.6,
            "velocity": 0.6299212598425197
          },
          {
            "duration": 0.37916666666667,
            "durationTicks": 455,
            "midi": 71,
            "name": "B4",
            "ticks": 30720,
            "time": 25.6,
            "velocity": 0.6299212598425197
          },
          {
            "duration": 0.37916666666667,
            "durationTicks": 455,
            "midi": 74,
            "name": "D5",
            "ticks": 30720,
            "time": 25.6,
            "velocity": 0.6299212598425197
          },
          {
            "duration": 0.37916666666667,
            "durationTicks": 455,
            "midi": 77,
            "name": "F5",
            "ticks": 30720,
            "time": 25.6,
            "velocity": 0.6299212598425197
          },
          {
            "duration": 1.1383333333333319,
            "durationTicks": 683,
            "midi": 69,
            "name": "A4",
            "ticks": 31200,
            "time": 26,
            "velocity": 0.6299212598425197
          },
          {
            "duration": 1.1383333333333319,
            "durationTicks": 683,
            "midi": 72,
            "name": "C5",
            "ticks": 31200,
            "time": 26,
            "velocity": 0.6299212598425197
          },
          {
            "duration": 1.1383333333333319,
            "durationTicks": 683,
            "midi": 76,
            "name": "E5",
            "ticks": 31200,
            "time": 26,
            "velocity": 0.6299212598425197
          },
          {
            "duration": 0.37833333333333385,
            "durationTicks": 227,
            "midi": 72,
            "name": "C5",
            "ticks": 31920,
            "time": 27.2,
            "velocity": 0.6299212598425197
          },
          {
            "duration": 0.37833333333333385,
            "durationTicks": 227,
            "midi": 76,
            "name": "E5",
            "ticks": 31920,
            "time": 27.2,
            "velocity": 0.6299212598425197
          },
          {
            "duration": 0.37833333333333385,
            "durationTicks": 227,
            "midi": 81,
            "name": "A5",
            "ticks": 31920,
            "time": 27.2,
            "velocity": 0.6299212598425197
          },
          {
            "duration": 0.37833333333333385,
            "durationTicks": 227,
            "midi": 84,
            "name": "C6",
            "ticks": 31920,
            "time": 27.2,
            "velocity": 0.6299212598425197
          },
          {
            "duration": 0.3783333333333303,
            "durationTicks": 227,
            "midi": 71,
            "name": "B4",
            "ticks": 32160,
            "time": 27.6,
            "velocity": 0.6299212598425197
          },
          {
            "duration": 0.3783333333333303,
            "durationTicks": 227,
            "midi": 76,
            "name": "E5",
            "ticks": 32160,
            "time": 27.6,
            "velocity": 0.6299212598425197
          },
          {
            "duration": 0.3783333333333303,
            "durationTicks": 227,
            "midi": 80,
            "name": "G#5",
            "ticks": 32160,
            "time": 27.6,
            "velocity": 0.6299212598425197
          },
          {
            "duration": 0.3783333333333303,
            "durationTicks": 227,
            "midi": 83,
            "name": "B5",
            "ticks": 32160,
            "time": 27.6,
            "velocity": 0.6299212598425197
          },
          {
            "duration": 0.3999999999999986,
            "durationTicks": 240,
            "midi": 59,
            "name": "B3",
            "ticks": 32400,
            "time": 28,
            "velocity": 0.6299212598425197
          },
          {
            "duration": 0.3999999999999986,
            "durationTicks": 240,
            "midi": 64,
            "name": "E4",
            "ticks": 32400,
            "time": 28,
            "velocity": 0.6299212598425197
          },
          {
            "duration": 0.7583333333333329,
            "durationTicks": 455,
            "midi": 71,
            "name": "B4",
            "ticks": 32400,
            "time": 28,
            "velocity": 0.6299212598425197
          },
          {
            "duration": 0.18833333333333258,
            "durationTicks": 113,
            "midi": 72,
            "name": "C5",
            "ticks": 32880,
            "time": 28.8,
            "velocity": 0.6299212598425197
          },
          {
            "duration": 0.18833333333333258,
            "durationTicks": 113,
            "midi": 74,
            "name": "D5",
            "ticks": 33000,
            "time": 29,
            "velocity": 0.6299212598425197
          },
          {
            "duration": 0.7583333333333364,
            "durationTicks": 455,
            "midi": 64,
            "name": "E4",
            "ticks": 33120,
            "time": 29.2,
            "velocity": 0.6299212598425197
          },
          {
            "duration": 0.7583333333333364,
            "durationTicks": 455,
            "midi": 72,
            "name": "C5",
            "ticks": 33120,
            "time": 29.2,
            "velocity": 0.6299212598425197
          },
          {
            "duration": 0.7583333333333364,
            "durationTicks": 455,
            "midi": 76,
            "name": "E5",
            "ticks": 33120,
            "time": 29.2,
            "velocity": 0.6299212598425197
          },
          {
            "duration": 0.18833333333333613,
            "durationTicks": 113,
            "midi": 72,
            "name": "C5",
            "ticks": 33720,
            "time": 30.2,
            "velocity": 0.6299212598425197
          },
          {
            "duration": 0.18833333333333613,
            "durationTicks": 113,
            "midi": 84,
            "name": "C6",
            "ticks": 33720,
            "time": 30.2,
            "velocity": 0.6299212598425197
          },
          {
            "duration": 0.18833333333333613,
            "durationTicks": 113,
            "midi": 71,
            "name": "B4",
            "ticks": 33840,
            "time": 30.4,
            "velocity": 0.6299212598425197
          },
          {
            "duration": 0.18833333333333613,
            "durationTicks": 113,
            "midi": 83,
            "name": "B5",
            "ticks": 33840,
            "time": 30.4,
            "velocity": 0.6299212598425197
          },
          {
            "duration": 0.18833333333333258,
            "durationTicks": 113,
            "midi": 72,
            "name": "C5",
            "ticks": 33960,
            "time": 30.6,
            "velocity": 0.6299212598425197
          },
          {
            "duration": 0.18833333333333258,
            "durationTicks": 113,
            "midi": 84,
            "name": "C6",
            "ticks": 33960,
            "time": 30.6,
            "velocity": 0.6299212598425197
          },
          {
            "duration": 0.37833333333333385,
            "durationTicks": 227,
            "midi": 74,
            "name": "D5",
            "ticks": 34080,
            "time": 30.8,
            "velocity": 0.6299212598425197
          },
          {
            "duration": 0.37833333333333385,
            "durationTicks": 227,
            "midi": 81,
            "name": "A5",
            "ticks": 34080,
            "time": 30.8,
            "velocity": 0.6299212598425197
          },
          {
            "duration": 0.37833333333333385,
            "durationTicks": 227,
            "midi": 86,
            "name": "D6",
            "ticks": 34080,
            "time": 30.8,
            "velocity": 0.6299212598425197
          },
          {
            "duration": 0.37833333333333385,
            "durationTicks": 227,
            "midi": 76,
            "name": "E5",
            "ticks": 34320,
            "time": 31.2,
            "velocity": 0.6299212598425197
          },
          {
            "duration": 0.37833333333333385,
            "durationTicks": 227,
            "midi": 81,
            "name": "A5",
            "ticks": 34320,
            "time": 31.2,
            "velocity": 0.6299212598425197
          },
          {
            "duration": 0.37833333333333385,
            "durationTicks": 227,
            "midi": 88,
            "name": "E6",
            "ticks": 34320,
            "time": 31.2,
            "velocity": 0.6299212598425197
          },
          {
            "duration": 0.3783333333333303,
            "durationTicks": 227,
            "midi": 76,
            "name": "E5",
            "ticks": 34560,
            "time": 31.6,
            "velocity": 0.6299212598425197
          },
          {
            "duration": 0.3783333333333303,
            "durationTicks": 227,
            "midi": 81,
            "name": "A5",
            "ticks": 34560,
            "time": 31.6,
            "velocity": 0.6299212598425197
          },
          {
            "duration": 0.3783333333333303,
            "durationTicks": 227,
            "midi": 88,
            "name": "E6",
            "ticks": 34560,
            "time": 31.6,
            "velocity": 0.6299212598425197
          },
          {
            "duration": 0.3783333333333303,
            "durationTicks": 227,
            "midi": 74,
            "name": "D5",
            "ticks": 34800,
            "time": 32,
            "velocity": 0.6299212598425197
          },
          {
            "duration": 0.3783333333333303,
            "durationTicks": 227,
            "midi": 86,
            "name": "D6",
            "ticks": 34800,
            "time": 32,
            "velocity": 0.6299212598425197
          },
          {
            "duration": 0.18833333333333968,
            "durationTicks": 113,
            "midi": 76,
            "name": "E5",
            "ticks": 35040,
            "time": 32.4,
            "velocity": 0.6299212598425197
          },
          {
            "duration": 0.18833333333333968,
            "durationTicks": 113,
            "midi": 88,
            "name": "E6",
            "ticks": 35040,
            "time": 32.4,
            "velocity": 0.6299212598425197
          },
          {
            "duration": 0.18833333333333258,
            "durationTicks": 113,
            "midi": 74,
            "name": "D5",
            "ticks": 35160,
            "time": 32.6,
            "velocity": 0.6299212598425197
          },
          {
            "duration": 0.18833333333333968,
            "durationTicks": 113,
            "midi": 74,
            "name": "D5",
            "ticks": 35280,
            "time": 32.8,
            "velocity": 0.6299212598425197
          },
          {
            "duration": 0.18833333333333968,
            "durationTicks": 113,
            "midi": 81,
            "name": "A5",
            "ticks": 35280,
            "time": 32.8,
            "velocity": 0.6299212598425197
          },
          {
            "duration": 0.18833333333333258,
            "durationTicks": 113,
            "midi": 76,
            "name": "E5",
            "ticks": 35400,
            "time": 33,
            "velocity": 0.6299212598425197
          },
          {
            "duration": 0.3783333333333303,
            "durationTicks": 227,
            "midi": 76,
            "name": "E5",
            "ticks": 35520,
            "time": 33.2,
            "velocity": 0.6299212598425197
          },
          {
            "duration": 0.3783333333333303,
            "durationTicks": 227,
            "midi": 81,
            "name": "A5",
            "ticks": 35520,
            "time": 33.2,
            "velocity": 0.6299212598425197
          },
          {
            "duration": 0.3783333333333303,
            "durationTicks": 227,
            "midi": 84,
            "name": "C6",
            "ticks": 35760,
            "time": 33.6,
            "velocity": 0.6299212598425197
          },
          {
            "duration": 0.18833333333333258,
            "durationTicks": 113,
            "midi": 74,
            "name": "D5",
            "ticks": 36000,
            "time": 34,
            "velocity": 0.6299212598425197
          },
          {
            "duration": 0.18833333333333258,
            "durationTicks": 113,
            "midi": 83,
            "name": "B5",
            "ticks": 36000,
            "time": 34,
            "velocity": 0.6299212598425197
          },
          {
            "duration": 0.18833333333333258,
            "durationTicks": 113,
            "midi": 73,
            "name": "C#5",
            "ticks": 36120,
            "time": 34.2,
            "velocity": 0.6299212598425197
          },
          {
            "duration": 0.18833333333333968,
            "durationTicks": 113,
            "midi": 74,
            "name": "D5",
            "ticks": 36240,
            "time": 34.4,
            "velocity": 0.6299212598425197
          },
          {
            "duration": 0.18833333333333968,
            "durationTicks": 113,
            "midi": 84,
            "name": "C6",
            "ticks": 36240,
            "time": 34.4,
            "velocity": 0.6299212598425197
          },
          {
            "duration": 0.18833333333333258,
            "durationTicks": 113,
            "midi": 73,
            "name": "C#5",
            "ticks": 36360,
            "time": 34.6,
            "velocity": 0.6299212598425197
          },
          {
            "duration": 0.18833333333333968,
            "durationTicks": 113,
            "midi": 79,
            "name": "G5",
            "ticks": 36480,
            "time": 34.8,
            "velocity": 0.6299212598425197
          },
          {
            "duration": 0.18833333333333258,
            "durationTicks": 113,
            "midi": 72,
            "name": "C5",
            "ticks": 36600,
            "time": 35,
            "velocity": 0.6299212598425197
          },
          {
            "duration": 0.3783333333333303,
            "durationTicks": 227,
            "midi": 73,
            "name": "C#5",
            "ticks": 36720,
            "time": 35.2,
            "velocity": 0.6299212598425197
          },
          {
            "duration": 0.3783333333333303,
            "durationTicks": 227,
            "midi": 79,
            "name": "G5",
            "ticks": 36720,
            "time": 35.2,
            "velocity": 0.6299212598425197
          },
          {
            "duration": 0.3783333333333303,
            "durationTicks": 227,
            "midi": 72,
            "name": "C5",
            "ticks": 36960,
            "time": 35.6,
            "velocity": 0.6299212598425197
          },
          {
            "duration": 0.3783333333333303,
            "durationTicks": 227,
            "midi": 77,
            "name": "F5",
            "ticks": 36960,
            "time": 35.6,
            "velocity": 0.6299212598425197
          },
          {
            "duration": 0.3783333333333303,
            "durationTicks": 227,
            "midi": 81,
            "name": "A5",
            "ticks": 36960,
            "time": 35.6,
            "velocity": 0.6299212598425197
          },
          {
            "duration": 0.3783333333333303,
            "durationTicks": 227,
            "midi": 84,
            "name": "C6",
            "ticks": 37200,
            "time": 36,
            "velocity": 0.6299212598425197
          },
          {
            "duration": 0.18833333333333968,
            "durationTicks": 113,
            "midi": 74,
            "name": "D5",
            "ticks": 37440,
            "time": 36.4,
            "velocity": 0.6299212598425197
          },
          {
            "duration": 0.18833333333333968,
            "durationTicks": 113,
            "midi": 77,
            "name": "F5",
            "ticks": 37440,
            "time": 36.4,
            "velocity": 0.6299212598425197
          },
          {
            "duration": 0.18833333333333968,
            "durationTicks": 113,
            "midi": 84,
            "name": "C6",
            "ticks": 37440,
            "time": 36.4,
            "velocity": 0.6299212598425197
          },
          {
            "duration": 0.3783333333333303,
            "durationTicks": 227,
            "midi": 83,
            "name": "B5",
            "ticks": 37560,
            "time": 36.6,
            "velocity": 0.6299212598425197
          },
          {
            "duration": 0.7666666666666657,
            "durationTicks": 341,
            "midi": 84,
            "name": "C6",
            "ticks": 37800,
            "time": 37,
            "velocity": 0.6299212598425197
          },
          {
            "duration": 0.3783333333333374,
            "durationTicks": 227,
            "midi": 72,
            "name": "C5",
            "ticks": 37920,
            "time": 37.39833333333333,
            "velocity": 0.6299212598425197
          },
          {
            "duration": 0.3783333333333374,
            "durationTicks": 227,
            "midi": 75,
            "name": "D#5",
            "ticks": 37920,
            "time": 37.39833333333333,
            "velocity": 0.6299212598425197
          },
          {
            "duration": 0.3783333333333374,
            "durationTicks": 227,
            "midi": 80,
            "name": "G#5",
            "ticks": 37920,
            "time": 37.39833333333333,
            "velocity": 0.6299212598425197
          },
          {
            "duration": 0.3783333333333374,
            "durationTicks": 227,
            "midi": 63,
            "name": "D#4",
            "ticks": 38160,
            "time": 37.79833333333333,
            "velocity": 0.6299212598425197
          },
          {
            "duration": 0.3783333333333374,
            "durationTicks": 227,
            "midi": 68,
            "name": "G#4",
            "ticks": 38160,
            "time": 37.79833333333333,
            "velocity": 0.6299212598425197
          },
          {
            "duration": 0.3783333333333374,
            "durationTicks": 227,
            "midi": 72,
            "name": "C5",
            "ticks": 38160,
            "time": 37.79833333333333,
            "velocity": 0.6299212598425197
          },
          {
            "duration": 0.3783333333333374,
            "durationTicks": 227,
            "midi": 75,
            "name": "D#5",
            "ticks": 38160,
            "time": 37.79833333333333,
            "velocity": 0.6299212598425197
          },
          {
            "duration": 0.3783333333333303,
            "durationTicks": 227,
            "midi": 68,
            "name": "G#4",
            "ticks": 38400,
            "time": 38.19833333333334,
            "velocity": 0.6299212598425197
          },
          {
            "duration": 0.3783333333333303,
            "durationTicks": 227,
            "midi": 72,
            "name": "C5",
            "ticks": 38400,
            "time": 38.19833333333334,
            "velocity": 0.6299212598425197
          },
          {
            "duration": 0.3783333333333303,
            "durationTicks": 227,
            "midi": 75,
            "name": "D#5",
            "ticks": 38400,
            "time": 38.19833333333334,
            "velocity": 0.6299212598425197
          },
          {
            "duration": 0.3783333333333303,
            "durationTicks": 227,
            "midi": 80,
            "name": "G#5",
            "ticks": 38400,
            "time": 38.19833333333334,
            "velocity": 0.6299212598425197
          },
          {
            "duration": 0.3783333333333303,
            "durationTicks": 227,
            "midi": 70,
            "name": "A#4",
            "ticks": 38640,
            "time": 38.598333333333336,
            "velocity": 0.6299212598425197
          },
          {
            "duration": 0.3783333333333303,
            "durationTicks": 227,
            "midi": 75,
            "name": "D#5",
            "ticks": 38640,
            "time": 38.598333333333336,
            "velocity": 0.6299212598425197
          },
          {
            "duration": 0.3783333333333303,
            "durationTicks": 227,
            "midi": 80,
            "name": "G#5",
            "ticks": 38640,
            "time": 38.598333333333336,
            "velocity": 0.6299212598425197
          },
          {
            "duration": 0.3783333333333303,
            "durationTicks": 227,
            "midi": 82,
            "name": "A#5",
            "ticks": 38640,
            "time": 38.598333333333336,
            "velocity": 0.6299212598425197
          },
          {
            "duration": 0.3783333333333303,
            "durationTicks": 227,
            "midi": 72,
            "name": "C5",
            "ticks": 38880,
            "time": 38.998333333333335,
            "velocity": 0.6299212598425197
          },
          {
            "duration": 0.3783333333333303,
            "durationTicks": 227,
            "midi": 75,
            "name": "D#5",
            "ticks": 38880,
            "time": 38.998333333333335,
            "velocity": 0.6299212598425197
          },
          {
            "duration": 0.3783333333333303,
            "durationTicks": 227,
            "midi": 80,
            "name": "G#5",
            "ticks": 38880,
            "time": 38.998333333333335,
            "velocity": 0.6299212598425197
          },
          {
            "duration": 0.3783333333333303,
            "durationTicks": 227,
            "midi": 84,
            "name": "C6",
            "ticks": 38880,
            "time": 38.998333333333335,
            "velocity": 0.6299212598425197
          },
          {
            "duration": 0.3783333333333374,
            "durationTicks": 227,
            "midi": 75,
            "name": "D#5",
            "ticks": 39120,
            "time": 39.39833333333333,
            "velocity": 0.6299212598425197
          },
          {
            "duration": 0.3783333333333374,
            "durationTicks": 227,
            "midi": 80,
            "name": "G#5",
            "ticks": 39120,
            "time": 39.39833333333333,
            "velocity": 0.6299212598425197
          },
          {
            "duration": 0.3783333333333374,
            "durationTicks": 227,
            "midi": 84,
            "name": "C6",
            "ticks": 39120,
            "time": 39.39833333333333,
            "velocity": 0.6299212598425197
          },
          {
            "duration": 0.3783333333333374,
            "durationTicks": 227,
            "midi": 87,
            "name": "D#6",
            "ticks": 39120,
            "time": 39.39833333333333,
            "velocity": 0.6299212598425197
          },
          {
            "duration": 0.3783333333333374,
            "durationTicks": 227,
            "midi": 80,
            "name": "G#5",
            "ticks": 39360,
            "time": 39.79833333333333,
            "velocity": 0.6299212598425197
          },
          {
            "duration": 0.3783333333333374,
            "durationTicks": 227,
            "midi": 84,
            "name": "C6",
            "ticks": 39360,
            "time": 39.79833333333333,
            "velocity": 0.6299212598425197
          },
          {
            "duration": 0.3783333333333374,
            "durationTicks": 227,
            "midi": 87,
            "name": "D#6",
            "ticks": 39360,
            "time": 39.79833333333333,
            "velocity": 0.6299212598425197
          },
          {
            "duration": 0.3783333333333374,
            "durationTicks": 227,
            "midi": 92,
            "name": "G#6",
            "ticks": 39360,
            "time": 39.79833333333333,
            "velocity": 0.6299212598425197
          },
          {
            "duration": 0.3783333333333303,
            "durationTicks": 227,
            "midi": 84,
            "name": "C6",
            "ticks": 39600,
            "time": 40.19833333333334,
            "velocity": 0.6299212598425197
          },
          {
            "duration": 0.3783333333333303,
            "durationTicks": 227,
            "midi": 87,
            "name": "D#6",
            "ticks": 39600,
            "time": 40.19833333333334,
            "velocity": 0.6299212598425197
          },
          {
            "duration": 0.3783333333333303,
            "durationTicks": 227,
            "midi": 92,
            "name": "G#6",
            "ticks": 39600,
            "time": 40.19833333333334,
            "velocity": 0.6299212598425197
          },
          {
            "duration": 0.3783333333333303,
            "durationTicks": 227,
            "midi": 96,
            "name": "C7",
            "ticks": 39600,
            "time": 40.19833333333334,
            "velocity": 0.6299212598425197
          },
          {
            "duration": 0.3783333333333303,
            "durationTicks": 227,
            "midi": 86,
            "name": "D6",
            "ticks": 39840,
            "time": 40.598333333333336,
            "velocity": 0.6299212598425197
          },
          {
            "duration": 0.3783333333333303,
            "durationTicks": 227,
            "midi": 93,
            "name": "A6",
            "ticks": 39840,
            "time": 40.598333333333336,
            "velocity": 0.6299212598425197
          },
          {
            "duration": 0.3783333333333303,
            "durationTicks": 227,
            "midi": 98,
            "name": "D7",
            "ticks": 39840,
            "time": 40.598333333333336,
            "velocity": 0.6299212598425197
          },
          {
            "duration": 0.09833333333332916,
            "durationTicks": 59,
            "midi": 79,
            "name": "G5",
            "ticks": 40800,
            "time": 42.19833333333334,
            "velocity": 0.5039370078740157
          },
          {
            "duration": 0.09833333333332916,
            "durationTicks": 59,
            "midi": 82,
            "name": "A#5",
            "ticks": 40800,
            "time": 42.19833333333334,
            "velocity": 0.5039370078740157
          },
          {
            "duration": 0.09833333333333627,
            "durationTicks": 59,
            "midi": 81,
            "name": "A5",
            "ticks": 40920,
            "time": 42.39833333333333,
            "velocity": 0.5039370078740157
          },
          {
            "duration": 0.09833333333333627,
            "durationTicks": 59,
            "midi": 84,
            "name": "C6",
            "ticks": 40920,
            "time": 42.39833333333333,
            "velocity": 0.5039370078740157
          },
          {
            "duration": 0.09833333333333627,
            "durationTicks": 59,
            "midi": 82,
            "name": "A#5",
            "ticks": 41040,
            "time": 42.598333333333336,
            "velocity": 0.5039370078740157
          },
          {
            "duration": 0.09833333333333627,
            "durationTicks": 59,
            "midi": 86,
            "name": "D6",
            "ticks": 41040,
            "time": 42.598333333333336,
            "velocity": 0.5039370078740157
          },
          {
            "duration": 0.18833333333333258,
            "durationTicks": 113,
            "midi": 84,
            "name": "C6",
            "ticks": 41160,
            "time": 42.79833333333333,
            "velocity": 0.5039370078740157
          },
          {
            "duration": 0.18833333333333258,
            "durationTicks": 113,
            "midi": 87,
            "name": "D#6",
            "ticks": 41160,
            "time": 42.79833333333333,
            "velocity": 0.5039370078740157
          },
          {
            "duration": 0.09833333333332916,
            "durationTicks": 59,
            "midi": 82,
            "name": "A#5",
            "ticks": 41400,
            "time": 43.19833333333334,
            "velocity": 0.5039370078740157
          },
          {
            "duration": 0.09833333333332916,
            "durationTicks": 59,
            "midi": 86,
            "name": "D6",
            "ticks": 41400,
            "time": 43.19833333333334,
            "velocity": 0.5039370078740157
          },
          {
            "duration": 0.09833333333333627,
            "durationTicks": 59,
            "midi": 79,
            "name": "G5",
            "ticks": 41520,
            "time": 43.39833333333333,
            "velocity": 0.5039370078740157
          },
          {
            "duration": 0.09833333333333627,
            "durationTicks": 59,
            "midi": 82,
            "name": "A#5",
            "ticks": 41520,
            "time": 43.39833333333333,
            "velocity": 0.5039370078740157
          },
          {
            "duration": 0.09833333333333627,
            "durationTicks": 59,
            "midi": 72,
            "name": "C5",
            "ticks": 41640,
            "time": 43.598333333333336,
            "velocity": 0.5039370078740157
          },
          {
            "duration": 0.09833333333333627,
            "durationTicks": 59,
            "midi": 81,
            "name": "A5",
            "ticks": 41640,
            "time": 43.598333333333336,
            "velocity": 0.5039370078740157
          },
          {
            "duration": 0.09833333333333627,
            "durationTicks": 59,
            "midi": 82,
            "name": "A#5",
            "ticks": 41760,
            "time": 43.79833333333333,
            "velocity": 0.5039370078740157
          },
          {
            "duration": 0.09833333333333627,
            "durationTicks": 59,
            "midi": 77,
            "name": "F5",
            "ticks": 41880,
            "time": 43.998333333333335,
            "velocity": 0.5039370078740157
          },
          {
            "duration": 0.09833333333333627,
            "durationTicks": 59,
            "midi": 84,
            "name": "C6",
            "ticks": 41880,
            "time": 43.998333333333335,
            "velocity": 0.5039370078740157
          },
          {
            "duration": 0.09833333333332916,
            "durationTicks": 59,
            "midi": 89,
            "name": "F6",
            "ticks": 42000,
            "time": 44.19833333333334,
            "velocity": 0.5039370078740157
          },
          {
            "duration": 0.18833333333333968,
            "durationTicks": 113,
            "midi": 77,
            "name": "F5",
            "ticks": 42120,
            "time": 44.39833333333333,
            "velocity": 0.5039370078740157
          },
          {
            "duration": 0.18833333333333968,
            "durationTicks": 113,
            "midi": 87,
            "name": "D#6",
            "ticks": 42120,
            "time": 44.39833333333333,
            "velocity": 0.5039370078740157
          },
          {
            "duration": 0.3783333333333374,
            "durationTicks": 227,
            "midi": 77,
            "name": "F5",
            "ticks": 42360,
            "time": 44.79833333333333,
            "velocity": 0.5039370078740157
          },
          {
            "duration": 0.3783333333333374,
            "durationTicks": 227,
            "midi": 86,
            "name": "D6",
            "ticks": 42360,
            "time": 44.79833333333333,
            "velocity": 0.5039370078740157
          },
          {
            "duration": 0.09833333333332916,
            "durationTicks": 59,
            "midi": 67,
            "name": "G4",
            "ticks": 42600,
            "time": 45.19833333333334,
            "velocity": 0.5039370078740157
          },
          {
            "duration": 0.09833333333333627,
            "durationTicks": 59,
            "midi": 77,
            "name": "F5",
            "ticks": 42720,
            "time": 45.39833333333333,
            "velocity": 0.5039370078740157
          },
          {
            "duration": 0.09833333333333627,
            "durationTicks": 59,
            "midi": 79,
            "name": "G5",
            "ticks": 42720,
            "time": 45.39833333333333,
            "velocity": 0.5039370078740157
          },
          {
            "duration": 0.09833333333333627,
            "durationTicks": 59,
            "midi": 81,
            "name": "A5",
            "ticks": 42840,
            "time": 45.598333333333336,
            "velocity": 0.5039370078740157
          },
          {
            "duration": 0.18833333333333968,
            "durationTicks": 113,
            "midi": 74,
            "name": "D5",
            "ticks": 42960,
            "time": 45.79833333333333,
            "velocity": 0.5039370078740157
          },
          {
            "duration": 0.18833333333333968,
            "durationTicks": 113,
            "midi": 82,
            "name": "A#5",
            "ticks": 42960,
            "time": 45.79833333333333,
            "velocity": 0.5039370078740157
          },
          {
            "duration": 0.3783333333333303,
            "durationTicks": 227,
            "midi": 84,
            "name": "C6",
            "ticks": 43080,
            "time": 45.998333333333335,
            "velocity": 0.5039370078740157
          },
          {
            "duration": 0.18833333333333968,
            "durationTicks": 113,
            "midi": 86,
            "name": "D6",
            "ticks": 43320,
            "time": 46.39833333333333,
            "velocity": 0.5039370078740157
          },
          {
            "duration": 0.09833333333333627,
            "durationTicks": 59,
            "midi": 67,
            "name": "G4",
            "ticks": 43440,
            "time": 46.598333333333336,
            "velocity": 0.5039370078740157
          },
          {
            "duration": 0.18833333333333968,
            "durationTicks": 113,
            "midi": 82,
            "name": "A#5",
            "ticks": 43560,
            "time": 46.79833333333333,
            "velocity": 0.5039370078740157
          },
          {
            "duration": 0.3783333333333303,
            "durationTicks": 227,
            "midi": 73,
            "name": "C#5",
            "ticks": 43680,
            "time": 46.998333333333335,
            "velocity": 0.5039370078740157
          },
          {
            "duration": 0.3783333333333303,
            "durationTicks": 227,
            "midi": 81,
            "name": "A5",
            "ticks": 43680,
            "time": 46.998333333333335,
            "velocity": 0.5039370078740157
          },
          {
            "duration": 0.09833333333333627,
            "durationTicks": 59,
            "midi": 81,
            "name": "A5",
            "ticks": 43920,
            "time": 47.39833333333333,
            "velocity": 0.5039370078740157
          },
          {
            "duration": 0.18833333333333258,
            "durationTicks": 113,
            "midi": 79,
            "name": "G5",
            "ticks": 44040,
            "time": 47.598333333333336,
            "velocity": 0.5039370078740157
          },
          {
            "duration": 0.18833333333333968,
            "durationTicks": 113,
            "midi": 74,
            "name": "D5",
            "ticks": 44160,
            "time": 47.79833333333333,
            "velocity": 0.5039370078740157
          },
          {
            "duration": 0.18833333333333968,
            "durationTicks": 113,
            "midi": 79,
            "name": "G5",
            "ticks": 44160,
            "time": 47.79833333333333,
            "velocity": 0.5039370078740157
          },
          {
            "duration": 0.3783333333333303,
            "durationTicks": 227,
            "midi": 74,
            "name": "D5",
            "ticks": 44400,
            "time": 48.19833333333334,
            "velocity": 0.5039370078740157
          },
          {
            "duration": 0.3783333333333303,
            "durationTicks": 227,
            "midi": 78,
            "name": "F#5",
            "ticks": 44400,
            "time": 48.19833333333334,
            "velocity": 0.5039370078740157
          },
          {
            "duration": 0.09833333333333627,
            "durationTicks": 59,
            "midi": 67,
            "name": "G4",
            "ticks": 44760,
            "time": 48.79833333333333,
            "velocity": 0.5039370078740157
          },
          {
            "duration": 0.09833333333333627,
            "durationTicks": 59,
            "midi": 70,
            "name": "A#4",
            "ticks": 44760,
            "time": 48.79833333333333,
            "velocity": 0.5039370078740157
          },
          {
            "duration": 0.09833333333333627,
            "durationTicks": 59,
            "midi": 69,
            "name": "A4",
            "ticks": 44880,
            "time": 48.998333333333335,
            "velocity": 0.5039370078740157
          },
          {
            "duration": 0.09833333333333627,
            "durationTicks": 59,
            "midi": 72,
            "name": "C5",
            "ticks": 44880,
            "time": 48.998333333333335,
            "velocity": 0.5039370078740157
          },
          {
            "duration": 0.09833333333332916,
            "durationTicks": 59,
            "midi": 70,
            "name": "A#4",
            "ticks": 45000,
            "time": 49.19833333333334,
            "velocity": 0.5039370078740157
          },
          {
            "duration": 0.09833333333332916,
            "durationTicks": 59,
            "midi": 74,
            "name": "D5",
            "ticks": 45000,
            "time": 49.19833333333334,
            "velocity": 0.5039370078740157
          },
          {
            "duration": 0.18833333333333968,
            "durationTicks": 113,
            "midi": 72,
            "name": "C5",
            "ticks": 45120,
            "time": 49.39833333333333,
            "velocity": 0.5039370078740157
          },
          {
            "duration": 0.18833333333333968,
            "durationTicks": 113,
            "midi": 75,
            "name": "D#5",
            "ticks": 45120,
            "time": 49.39833333333333,
            "velocity": 0.5039370078740157
          },
          {
            "duration": 0.09833333333333627,
            "durationTicks": 59,
            "midi": 70,
            "name": "A#4",
            "ticks": 45360,
            "time": 49.79833333333333,
            "velocity": 0.5039370078740157
          },
          {
            "duration": 0.09833333333333627,
            "durationTicks": 59,
            "midi": 74,
            "name": "D5",
            "ticks": 45360,
            "time": 49.79833333333333,
            "velocity": 0.5039370078740157
          },
          {
            "duration": 0.09833333333333627,
            "durationTicks": 59,
            "midi": 67,
            "name": "G4",
            "ticks": 45480,
            "time": 49.998333333333335,
            "velocity": 0.5039370078740157
          },
          {
            "duration": 0.09833333333333627,
            "durationTicks": 59,
            "midi": 70,
            "name": "A#4",
            "ticks": 45480,
            "time": 49.998333333333335,
            "velocity": 0.5039370078740157
          },
          {
            "duration": 0.09833333333332916,
            "durationTicks": 59,
            "midi": 60,
            "name": "C4",
            "ticks": 45600,
            "time": 50.19833333333334,
            "velocity": 0.5039370078740157
          },
          {
            "duration": 0.09833333333332916,
            "durationTicks": 59,
            "midi": 69,
            "name": "A4",
            "ticks": 45600,
            "time": 50.19833333333334,
            "velocity": 0.5039370078740157
          },
          {
            "duration": 0.09833333333332916,
            "durationTicks": 59,
            "midi": 70,
            "name": "A#4",
            "ticks": 45720,
            "time": 50.39833333333334,
            "velocity": 0.5039370078740157
          },
          {
            "duration": 0.09833333333333627,
            "durationTicks": 59,
            "midi": 65,
            "name": "F4",
            "ticks": 45840,
            "time": 50.598333333333336,
            "velocity": 0.5039370078740157
          },
          {
            "duration": 0.09833333333333627,
            "durationTicks": 59,
            "midi": 72,
            "name": "C5",
            "ticks": 45840,
            "time": 50.598333333333336,
            "velocity": 0.5039370078740157
          },
          {
            "duration": 0.09833333333332916,
            "durationTicks": 59,
            "midi": 77,
            "name": "F5",
            "ticks": 45960,
            "time": 50.79833333333334,
            "velocity": 0.5039370078740157
          },
          {
            "duration": 0.18833333333333258,
            "durationTicks": 113,
            "midi": 65,
            "name": "F4",
            "ticks": 46080,
            "time": 50.998333333333335,
            "velocity": 0.5039370078740157
          },
          {
            "duration": 0.18833333333333258,
            "durationTicks": 113,
            "midi": 75,
            "name": "D#5",
            "ticks": 46080,
            "time": 50.998333333333335,
            "velocity": 0.5039370078740157
          },
          {
            "duration": 0.18833333333333258,
            "durationTicks": 113,
            "midi": 65,
            "name": "F4",
            "ticks": 46320,
            "time": 51.39833333333334,
            "velocity": 0.5039370078740157
          },
          {
            "duration": 0.18833333333333258,
            "durationTicks": 113,
            "midi": 74,
            "name": "D5",
            "ticks": 46320,
            "time": 51.39833333333334,
            "velocity": 0.5039370078740157
          },
          {
            "duration": 0.18833333333333258,
            "durationTicks": 113,
            "midi": 67,
            "name": "G4",
            "ticks": 46440,
            "time": 51.598333333333336,
            "velocity": 0.5039370078740157
          },
          {
            "duration": 0.09833333333332916,
            "durationTicks": 59,
            "midi": 63,
            "name": "D#4",
            "ticks": 46560,
            "time": 51.79833333333334,
            "velocity": 0.5039370078740157
          },
          {
            "duration": 0.09833333333332916,
            "durationTicks": 59,
            "midi": 69,
            "name": "A4",
            "ticks": 46560,
            "time": 51.79833333333334,
            "velocity": 0.5039370078740157
          },
          {
            "duration": 0.09833333333333627,
            "durationTicks": 59,
            "midi": 70,
            "name": "A#4",
            "ticks": 46680,
            "time": 51.998333333333335,
            "velocity": 0.5039370078740157
          },
          {
            "duration": 0.09833333333332916,
            "durationTicks": 59,
            "midi": 63,
            "name": "D#4",
            "ticks": 46800,
            "time": 52.19833333333334,
            "velocity": 0.5039370078740157
          },
          {
            "duration": 0.09833333333332916,
            "durationTicks": 59,
            "midi": 72,
            "name": "C5",
            "ticks": 46800,
            "time": 52.19833333333334,
            "velocity": 0.5039370078740157
          },
          {
            "duration": 0.18833333333333258,
            "durationTicks": 113,
            "midi": 74,
            "name": "D5",
            "ticks": 46920,
            "time": 52.39833333333334,
            "velocity": 0.5039370078740157
          },
          {
            "duration": 0.18833333333333258,
            "durationTicks": 113,
            "midi": 70,
            "name": "A#4",
            "ticks": 47160,
            "time": 52.79833333333334,
            "velocity": 0.5039370078740157
          },
          {
            "duration": 0.18833333333333258,
            "durationTicks": 113,
            "midi": 64,
            "name": "E4",
            "ticks": 47280,
            "time": 52.998333333333335,
            "velocity": 0.5039370078740157
          },
          {
            "duration": 0.18833333333333258,
            "durationTicks": 113,
            "midi": 69,
            "name": "A4",
            "ticks": 47280,
            "time": 52.998333333333335,
            "velocity": 0.5039370078740157
          },
          {
            "duration": 0.09833333333332916,
            "durationTicks": 59,
            "midi": 64,
            "name": "E4",
            "ticks": 47400,
            "time": 53.19833333333334,
            "velocity": 0.5039370078740157
          },
          {
            "duration": 0.09833333333332916,
            "durationTicks": 59,
            "midi": 61,
            "name": "C#4",
            "ticks": 47520,
            "time": 53.39833333333334,
            "velocity": 0.5039370078740157
          },
          {
            "duration": 0.09833333333332916,
            "durationTicks": 59,
            "midi": 69,
            "name": "A4",
            "ticks": 47520,
            "time": 53.39833333333334,
            "velocity": 0.5039370078740157
          },
          {
            "duration": 0.09833333333333627,
            "durationTicks": 59,
            "midi": 62,
            "name": "D4",
            "ticks": 47640,
            "time": 53.598333333333336,
            "velocity": 0.5039370078740157
          },
          {
            "duration": 0.09833333333333627,
            "durationTicks": 59,
            "midi": 67,
            "name": "G4",
            "ticks": 47640,
            "time": 53.598333333333336,
            "velocity": 0.5039370078740157
          },
          {
            "duration": 0.1983333333333377,
            "durationTicks": 119,
            "midi": 62,
            "name": "D4",
            "ticks": 47760,
            "time": 53.79833333333333,
            "velocity": 0.5039370078740157
          },
          {
            "duration": 0.1983333333333377,
            "durationTicks": 119,
            "midi": 66,
            "name": "F#4",
            "ticks": 47760,
            "time": 53.79833333333333,
            "velocity": 0.5039370078740157
          },
          {
            "duration": 0.7583333333333258,
            "durationTicks": 455,
            "midi": 58,
            "name": "A#3",
            "ticks": 48000,
            "time": 54.19833333333334,
            "velocity": 0.5039370078740157
          },
          {
            "duration": 0.7583333333333258,
            "durationTicks": 455,
            "midi": 67,
            "name": "G4",
            "ticks": 48000,
            "time": 54.19833333333334,
            "velocity": 0.5039370078740157
          },
          {
            "duration": 0.18833333333333258,
            "durationTicks": 113,
            "midi": 72,
            "name": "C5",
            "ticks": 48600,
            "time": 55.19833333333334,
            "velocity": 0.5039370078740157
          },
          {
            "duration": 0.18833333333333258,
            "durationTicks": 113,
            "midi": 75,
            "name": "D#5",
            "ticks": 48600,
            "time": 55.19833333333334,
            "velocity": 0.5039370078740157
          },
          {
            "duration": 0.18833333333333258,
            "durationTicks": 113,
            "midi": 74,
            "name": "D5",
            "ticks": 48720,
            "time": 55.39833333333334,
            "velocity": 0.5039370078740157
          },
          {
            "duration": 0.18833333333333258,
            "durationTicks": 113,
            "midi": 77,
            "name": "F5",
            "ticks": 48720,
            "time": 55.39833333333334,
            "velocity": 0.5039370078740157
          },
          {
            "duration": 0.18833333333333258,
            "durationTicks": 113,
            "midi": 75,
            "name": "D#5",
            "ticks": 48840,
            "time": 55.598333333333336,
            "velocity": 0.5039370078740157
          },
          {
            "duration": 0.18833333333333258,
            "durationTicks": 113,
            "midi": 79,
            "name": "G5",
            "ticks": 48840,
            "time": 55.598333333333336,
            "velocity": 0.5039370078740157
          },
          {
            "duration": 0.18833333333333258,
            "durationTicks": 113,
            "midi": 77,
            "name": "F5",
            "ticks": 48960,
            "time": 55.79833333333333,
            "velocity": 0.5039370078740157
          },
          {
            "duration": 0.18833333333333258,
            "durationTicks": 113,
            "midi": 80,
            "name": "G#5",
            "ticks": 48960,
            "time": 55.79833333333333,
            "velocity": 0.5039370078740157
          },
          {
            "duration": 0.18833333333333258,
            "durationTicks": 113,
            "midi": 65,
            "name": "F4",
            "ticks": 49080,
            "time": 55.998333333333335,
            "velocity": 0.5039370078740157
          },
          {
            "duration": 0.18833333333333258,
            "durationTicks": 113,
            "midi": 67,
            "name": "G4",
            "ticks": 49200,
            "time": 56.19833333333334,
            "velocity": 0.5039370078740157
          },
          {
            "duration": 0.18833333333333258,
            "durationTicks": 113,
            "midi": 75,
            "name": "D#5",
            "ticks": 49200,
            "time": 56.19833333333334,
            "velocity": 0.5039370078740157
          },
          {
            "duration": 0.18833333333333258,
            "durationTicks": 113,
            "midi": 79,
            "name": "G5",
            "ticks": 49200,
            "time": 56.19833333333334,
            "velocity": 0.5039370078740157
          },
          {
            "duration": 0.18833333333333258,
            "durationTicks": 113,
            "midi": 75,
            "name": "D#5",
            "ticks": 49320,
            "time": 56.39833333333334,
            "velocity": 0.5039370078740157
          },
          {
            "duration": 0.18833333333333258,
            "durationTicks": 113,
            "midi": 70,
            "name": "A#4",
            "ticks": 49440,
            "time": 56.598333333333336,
            "velocity": 0.5039370078740157
          },
          {
            "duration": 0.18833333333333258,
            "durationTicks": 113,
            "midi": 74,
            "name": "D5",
            "ticks": 49440,
            "time": 56.598333333333336,
            "velocity": 0.5039370078740157
          },
          {
            "duration": 0.18833333333333258,
            "durationTicks": 113,
            "midi": 75,
            "name": "D#5",
            "ticks": 49560,
            "time": 56.79833333333334,
            "velocity": 0.5039370078740157
          },
          {
            "duration": 0.18833333333333258,
            "durationTicks": 113,
            "midi": 74,
            "name": "D5",
            "ticks": 49680,
            "time": 56.998333333333335,
            "velocity": 0.5039370078740157
          },
          {
            "duration": 0.18833333333333258,
            "durationTicks": 113,
            "midi": 77,
            "name": "F5",
            "ticks": 49680,
            "time": 56.998333333333335,
            "velocity": 0.5039370078740157
          },
          {
            "duration": 0.18833333333333258,
            "durationTicks": 113,
            "midi": 82,
            "name": "A#5",
            "ticks": 49800,
            "time": 57.19833333333334,
            "velocity": 0.5039370078740157
          },
          {
            "duration": 0.3783333333333303,
            "durationTicks": 227,
            "midi": 68,
            "name": "G#4",
            "ticks": 49920,
            "time": 57.39833333333334,
            "velocity": 0.5039370078740157
          },
          {
            "duration": 0.3783333333333303,
            "durationTicks": 227,
            "midi": 75,
            "name": "D#5",
            "ticks": 49920,
            "time": 57.39833333333334,
            "velocity": 0.5039370078740157
          },
          {
            "duration": 0.3783333333333303,
            "durationTicks": 227,
            "midi": 80,
            "name": "G#5",
            "ticks": 49920,
            "time": 57.39833333333334,
            "velocity": 0.5039370078740157
          },
          {
            "duration": 0.18833333333333258,
            "durationTicks": 113,
            "midi": 67,
            "name": "G4",
            "ticks": 50160,
            "time": 57.79833333333334,
            "velocity": 0.5039370078740157
          },
          {
            "duration": 0.18833333333333258,
            "durationTicks": 113,
            "midi": 75,
            "name": "D#5",
            "ticks": 50160,
            "time": 57.79833333333334,
            "velocity": 0.5039370078740157
          },
          {
            "duration": 0.18833333333333258,
            "durationTicks": 113,
            "midi": 79,
            "name": "G5",
            "ticks": 50160,
            "time": 57.79833333333334,
            "velocity": 0.5039370078740157
          },
          {
            "duration": 0.18833333333333258,
            "durationTicks": 113,
            "midi": 70,
            "name": "A#4",
            "ticks": 50280,
            "time": 57.998333333333335,
            "velocity": 0.5039370078740157
          },
          {
            "duration": 0.18833333333333258,
            "durationTicks": 113,
            "midi": 68,
            "name": "G#4",
            "ticks": 50400,
            "time": 58.19833333333334,
            "velocity": 0.5039370078740157
          },
          {
            "duration": 0.18833333333333258,
            "durationTicks": 113,
            "midi": 72,
            "name": "C5",
            "ticks": 50520,
            "time": 58.39833333333334,
            "velocity": 0.5039370078740157
          },
          {
            "duration": 0.18833333333333258,
            "durationTicks": 113,
            "midi": 70,
            "name": "A#4",
            "ticks": 50640,
            "time": 58.598333333333336,
            "velocity": 0.5039370078740157
          },
          {
            "duration": 0.18833333333333258,
            "durationTicks": 113,
            "midi": 74,
            "name": "D5",
            "ticks": 50640,
            "time": 58.598333333333336,
            "velocity": 0.5039370078740157
          },
          {
            "duration": 0.18833333333333258,
            "durationTicks": 113,
            "midi": 75,
            "name": "D#5",
            "ticks": 50760,
            "time": 58.79833333333334,
            "velocity": 0.5039370078740157
          },
          {
            "duration": 0.18833333333333258,
            "durationTicks": 113,
            "midi": 68,
            "name": "G#4",
            "ticks": 50880,
            "time": 58.998333333333335,
            "velocity": 0.5039370078740157
          },
          {
            "duration": 0.18833333333333258,
            "durationTicks": 113,
            "midi": 72,
            "name": "C5",
            "ticks": 50880,
            "time": 58.998333333333335,
            "velocity": 0.5039370078740157
          },
          {
            "duration": 0.18833333333333258,
            "durationTicks": 113,
            "midi": 77,
            "name": "F5",
            "ticks": 50880,
            "time": 58.998333333333335,
            "velocity": 0.5039370078740157
          },
          {
            "duration": 0.18833333333333258,
            "durationTicks": 113,
            "midi": 79,
            "name": "G5",
            "ticks": 51000,
            "time": 59.19833333333334,
            "velocity": 0.5039370078740157
          },
          {
            "duration": 0.18833333333333258,
            "durationTicks": 113,
            "midi": 68,
            "name": "G#4",
            "ticks": 51120,
            "time": 59.39833333333334,
            "velocity": 0.5039370078740157
          },
          {
            "duration": 0.18833333333333258,
            "durationTicks": 113,
            "midi": 72,
            "name": "C5",
            "ticks": 51120,
            "time": 59.39833333333334,
            "velocity": 0.5039370078740157
          },
          {
            "duration": 0.18833333333333258,
            "durationTicks": 113,
            "midi": 75,
            "name": "D#5",
            "ticks": 51240,
            "time": 59.598333333333336,
            "velocity": 0.5039370078740157
          },
          {
            "duration": 0.3783333333333303,
            "durationTicks": 227,
            "midi": 69,
            "name": "A4",
            "ticks": 51360,
            "time": 59.79833333333334,
            "velocity": 0.5039370078740157
          },
          {
            "duration": 0.3783333333333303,
            "durationTicks": 227,
            "midi": 74,
            "name": "D5",
            "ticks": 51360,
            "time": 59.79833333333334,
            "velocity": 0.5039370078740157
          },
          {
            "duration": 0.18833333333333258,
            "durationTicks": 113,
            "midi": 66,
            "name": "F#4",
            "ticks": 51600,
            "time": 60.19833333333334,
            "velocity": 0.5039370078740157
          },
          {
            "duration": 0.18833333333333258,
            "durationTicks": 113,
            "midi": 74,
            "name": "D5",
            "ticks": 51600,
            "time": 60.19833333333334,
            "velocity": 0.5039370078740157
          },
          {
            "duration": 0.18833333333333258,
            "durationTicks": 113,
            "midi": 72,
            "name": "C5",
            "ticks": 51720,
            "time": 60.39833333333334,
            "velocity": 0.5039370078740157
          },
          {
            "duration": 0.3783333333333374,
            "durationTicks": 227,
            "midi": 67,
            "name": "G4",
            "ticks": 51840,
            "time": 60.598333333333336,
            "velocity": 0.5039370078740157
          },
          {
            "duration": 0.3783333333333374,
            "durationTicks": 227,
            "midi": 72,
            "name": "C5",
            "ticks": 51840,
            "time": 60.598333333333336,
            "velocity": 0.5039370078740157
          },
          {
            "duration": 0.3783333333333374,
            "durationTicks": 227,
            "midi": 67,
            "name": "G4",
            "ticks": 52080,
            "time": 60.998333333333335,
            "velocity": 0.5039370078740157
          },
          {
            "duration": 0.3783333333333374,
            "durationTicks": 227,
            "midi": 71,
            "name": "B4",
            "ticks": 52080,
            "time": 60.998333333333335,
            "velocity": 0.5039370078740157
          },
          {
            "duration": 0.09833333333333627,
            "durationTicks": 59,
            "midi": 72,
            "name": "C5",
            "ticks": 52440,
            "time": 61.598333333333336,
            "velocity": 0.5039370078740157
          },
          {
            "duration": 0.09833333333333627,
            "durationTicks": 59,
            "midi": 75,
            "name": "D#5",
            "ticks": 52440,
            "time": 61.598333333333336,
            "velocity": 0.5039370078740157
          },
          {
            "duration": 0.09833333333332916,
            "durationTicks": 59,
            "midi": 74,
            "name": "D5",
            "ticks": 52560,
            "time": 61.79833333333334,
            "velocity": 0.5039370078740157
          },
          {
            "duration": 0.09833333333332916,
            "durationTicks": 59,
            "midi": 77,
            "name": "F5",
            "ticks": 52560,
            "time": 61.79833333333334,
            "velocity": 0.5039370078740157
          },
          {
            "duration": 0.09833333333333627,
            "durationTicks": 59,
            "midi": 75,
            "name": "D#5",
            "ticks": 52680,
            "time": 61.998333333333335,
            "velocity": 0.5039370078740157
          },
          {
            "duration": 0.09833333333333627,
            "durationTicks": 59,
            "midi": 79,
            "name": "G5",
            "ticks": 52680,
            "time": 61.998333333333335,
            "velocity": 0.5039370078740157
          },
          {
            "duration": 0.18833333333333258,
            "durationTicks": 113,
            "midi": 74,
            "name": "D5",
            "ticks": 52800,
            "time": 62.19833333333334,
            "velocity": 0.5039370078740157
          },
          {
            "duration": 0.18833333333333258,
            "durationTicks": 113,
            "midi": 77,
            "name": "F5",
            "ticks": 52800,
            "time": 62.19833333333334,
            "velocity": 0.5039370078740157
          },
          {
            "duration": 0.18833333333333258,
            "durationTicks": 113,
            "midi": 80,
            "name": "G#5",
            "ticks": 52800,
            "time": 62.19833333333334,
            "velocity": 0.5039370078740157
          },
          {
            "duration": 0.18833333333333258,
            "durationTicks": 113,
            "midi": 65,
            "name": "F4",
            "ticks": 52920,
            "time": 62.39833333333334,
            "velocity": 0.5039370078740157
          },
          {
            "duration": 0.18833333333333258,
            "durationTicks": 113,
            "midi": 67,
            "name": "G4",
            "ticks": 53040,
            "time": 62.598333333333336,
            "velocity": 0.5039370078740157
          },
          {
            "duration": 0.18833333333333258,
            "durationTicks": 113,
            "midi": 75,
            "name": "D#5",
            "ticks": 53040,
            "time": 62.598333333333336,
            "velocity": 0.5039370078740157
          },
          {
            "duration": 0.18833333333333258,
            "durationTicks": 113,
            "midi": 79,
            "name": "G5",
            "ticks": 53040,
            "time": 62.598333333333336,
            "velocity": 0.5039370078740157
          },
          {
            "duration": 0.18833333333333258,
            "durationTicks": 113,
            "midi": 75,
            "name": "D#5",
            "ticks": 53160,
            "time": 62.79833333333334,
            "velocity": 0.5039370078740157
          },
          {
            "duration": 0.18833333333333258,
            "durationTicks": 113,
            "midi": 70,
            "name": "A#4",
            "ticks": 53280,
            "time": 62.998333333333335,
            "velocity": 0.5039370078740157
          },
          {
            "duration": 0.18833333333333258,
            "durationTicks": 113,
            "midi": 74,
            "name": "D5",
            "ticks": 53280,
            "time": 62.998333333333335,
            "velocity": 0.5039370078740157
          },
          {
            "duration": 0.18833333333333258,
            "durationTicks": 113,
            "midi": 75,
            "name": "D#5",
            "ticks": 53400,
            "time": 63.19833333333334,
            "velocity": 0.5039370078740157
          },
          {
            "duration": 0.18833333333333258,
            "durationTicks": 113,
            "midi": 74,
            "name": "D5",
            "ticks": 53520,
            "time": 63.39833333333333,
            "velocity": 0.5039370078740157
          },
          {
            "duration": 0.18833333333333258,
            "durationTicks": 113,
            "midi": 77,
            "name": "F5",
            "ticks": 53520,
            "time": 63.39833333333333,
            "velocity": 0.5039370078740157
          },
          {
            "duration": 0.18833333333333258,
            "durationTicks": 113,
            "midi": 82,
            "name": "A#5",
            "ticks": 53640,
            "time": 63.598333333333336,
            "velocity": 0.5039370078740157
          },
          {
            "duration": 0.3783333333333445,
            "durationTicks": 227,
            "midi": 68,
            "name": "G#4",
            "ticks": 53760,
            "time": 63.79833333333333,
            "velocity": 0.5039370078740157
          },
          {
            "duration": 0.3783333333333445,
            "durationTicks": 227,
            "midi": 75,
            "name": "D#5",
            "ticks": 53760,
            "time": 63.79833333333333,
            "velocity": 0.5039370078740157
          },
          {
            "duration": 0.3783333333333445,
            "durationTicks": 227,
            "midi": 80,
            "name": "G#5",
            "ticks": 53760,
            "time": 63.79833333333333,
            "velocity": 0.5039370078740157
          },
          {
            "duration": 0.3783333333333303,
            "durationTicks": 227,
            "midi": 67,
            "name": "G4",
            "ticks": 54000,
            "time": 64.19833333333334,
            "velocity": 0.5039370078740157
          },
          {
            "duration": 0.3783333333333303,
            "durationTicks": 227,
            "midi": 75,
            "name": "D#5",
            "ticks": 54000,
            "time": 64.19833333333334,
            "velocity": 0.5039370078740157
          },
          {
            "duration": 0.3783333333333303,
            "durationTicks": 227,
            "midi": 79,
            "name": "G5",
            "ticks": 54000,
            "time": 64.19833333333334,
            "velocity": 0.5039370078740157
          },
          {
            "duration": 0.09833333333334338,
            "durationTicks": 59,
            "midi": 68,
            "name": "G#4",
            "ticks": 54360,
            "time": 64.79833333333333,
            "velocity": 0.5039370078740157
          },
          {
            "duration": 0.09833333333334338,
            "durationTicks": 59,
            "midi": 72,
            "name": "C5",
            "ticks": 54360,
            "time": 64.79833333333333,
            "velocity": 0.5039370078740157
          },
          {
            "duration": 0.09833333333332916,
            "durationTicks": 59,
            "midi": 70,
            "name": "A#4",
            "ticks": 54480,
            "time": 64.99833333333333,
            "velocity": 0.5039370078740157
          },
          {
            "duration": 0.09833333333332916,
            "durationTicks": 59,
            "midi": 74,
            "name": "D5",
            "ticks": 54480,
            "time": 64.99833333333333,
            "velocity": 0.5039370078740157
          },
          {
            "duration": 0.09833333333332916,
            "durationTicks": 59,
            "midi": 72,
            "name": "C5",
            "ticks": 54600,
            "time": 65.19833333333334,
            "velocity": 0.5039370078740157
          },
          {
            "duration": 0.09833333333332916,
            "durationTicks": 59,
            "midi": 75,
            "name": "D#5",
            "ticks": 54600,
            "time": 65.19833333333334,
            "velocity": 0.5039370078740157
          },
          {
            "duration": 0.18833333333333258,
            "durationTicks": 113,
            "midi": 72,
            "name": "C5",
            "ticks": 54720,
            "time": 65.39833333333334,
            "velocity": 0.5039370078740157
          },
          {
            "duration": 0.18833333333333258,
            "durationTicks": 113,
            "midi": 77,
            "name": "F5",
            "ticks": 54720,
            "time": 65.39833333333334,
            "velocity": 0.5039370078740157
          },
          {
            "duration": 0.09833333333334338,
            "durationTicks": 59,
            "midi": 65,
            "name": "F4",
            "ticks": 54840,
            "time": 65.59833333333333,
            "velocity": 0.5039370078740157
          },
          {
            "duration": 0.09833333333334338,
            "durationTicks": 59,
            "midi": 69,
            "name": "A4",
            "ticks": 54960,
            "time": 65.79833333333333,
            "velocity": 0.5039370078740157
          },
          {
            "duration": 0.09833333333334338,
            "durationTicks": 59,
            "midi": 72,
            "name": "C5",
            "ticks": 54960,
            "time": 65.79833333333333,
            "velocity": 0.5039370078740157
          },
          {
            "duration": 0.09833333333332916,
            "durationTicks": 59,
            "midi": 72,
            "name": "C5",
            "ticks": 55080,
            "time": 65.99833333333333,
            "velocity": 0.5039370078740157
          },
          {
            "duration": 0.09833333333332916,
            "durationTicks": 59,
            "midi": 77,
            "name": "F5",
            "ticks": 55080,
            "time": 65.99833333333333,
            "velocity": 0.5039370078740157
          },
          {
            "duration": 0.18833333333333258,
            "durationTicks": 113,
            "midi": 70,
            "name": "A#4",
            "ticks": 55200,
            "time": 66.19833333333334,
            "velocity": 0.5039370078740157
          },
          {
            "duration": 0.18833333333333258,
            "durationTicks": 113,
            "midi": 74,
            "name": "D5",
            "ticks": 55200,
            "time": 66.19833333333334,
            "velocity": 0.5039370078740157
          },
          {
            "duration": 0.18833333333333258,
            "durationTicks": 113,
            "midi": 75,
            "name": "D#5",
            "ticks": 55320,
            "time": 66.39833333333334,
            "velocity": 0.5196850393700787
          },
          {
            "duration": 0.18833333333333258,
            "durationTicks": 113,
            "midi": 74,
            "name": "D5",
            "ticks": 55440,
            "time": 66.59833333333333,
            "velocity": 0.5354330708661418
          },
          {
            "duration": 0.18833333333333258,
            "durationTicks": 113,
            "midi": 77,
            "name": "F5",
            "ticks": 55440,
            "time": 66.59833333333333,
            "velocity": 0.5354330708661418
          },
          {
            "duration": 0.18833333333333258,
            "durationTicks": 113,
            "midi": 82,
            "name": "A#5",
            "ticks": 55560,
            "time": 66.79833333333333,
            "velocity": 0.5511811023622047
          },
          {
            "duration": 0.18833333333333258,
            "durationTicks": 113,
            "midi": 70,
            "name": "A#4",
            "ticks": 55680,
            "time": 66.99833333333333,
            "velocity": 0.5669291338582677
          },
          {
            "duration": 0.18833333333333258,
            "durationTicks": 113,
            "midi": 75,
            "name": "D#5",
            "ticks": 55680,
            "time": 66.99833333333333,
            "velocity": 0.5669291338582677
          },
          {
            "duration": 0.18833333333333258,
            "durationTicks": 113,
            "midi": 70,
            "name": "A#4",
            "ticks": 55800,
            "time": 67.19833333333334,
            "velocity": 0.5826771653543307
          },
          {
            "duration": 0.18833333333333258,
            "durationTicks": 113,
            "midi": 77,
            "name": "F5",
            "ticks": 55800,
            "time": 67.19833333333334,
            "velocity": 0.5826771653543307
          },
          {
            "duration": 0.18833333333333258,
            "durationTicks": 113,
            "midi": 70,
            "name": "A#4",
            "ticks": 55920,
            "time": 67.39833333333334,
            "velocity": 0.5984251968503937
          },
          {
            "duration": 0.18833333333333258,
            "durationTicks": 113,
            "midi": 79,
            "name": "G5",
            "ticks": 55920,
            "time": 67.39833333333334,
            "velocity": 0.5984251968503937
          },
          {
            "duration": 0.37666666666666515,
            "durationTicks": 113,
            "midi": 70,
            "name": "A#4",
            "ticks": 56040,
            "time": 67.59833333333333,
            "velocity": 0.6141732283464567
          },
          {
            "duration": 0.37666666666666515,
            "durationTicks": 113,
            "midi": 82,
            "name": "A#5",
            "ticks": 56040,
            "time": 67.59833333333333,
            "velocity": 0.6141732283464567
          },
          {
            "duration": 0.3783333333333303,
            "durationTicks": 227,
            "midi": 69,
            "name": "A4",
            "ticks": 56160,
            "time": 67.99666666666667,
            "velocity": 0.7559055118110236
          },
          {
            "duration": 0.3783333333333303,
            "durationTicks": 227,
            "midi": 74,
            "name": "D5",
            "ticks": 56160,
            "time": 67.99666666666667,
            "velocity": 0.7559055118110236
          },
          {
            "duration": 0.3783333333333303,
            "durationTicks": 227,
            "midi": 81,
            "name": "A5",
            "ticks": 56160,
            "time": 67.99666666666667,
            "velocity": 0.7559055118110236
          },
          {
            "duration": 0.0933333333333195,
            "durationTicks": 56,
            "midi": 57,
            "name": "A3",
            "ticks": 56520,
            "time": 68.59666666666668,
            "velocity": 0.6299212598425197
          },
          {
            "duration": 0.09333333333333371,
            "durationTicks": 56,
            "midi": 62,
            "name": "D4",
            "ticks": 56580,
            "time": 68.69666666666667,
            "velocity": 0.6299212598425197
          },
          {
            "duration": 0.09333333333333371,
            "durationTicks": 56,
            "midi": 69,
            "name": "A4",
            "ticks": 56640,
            "time": 68.79666666666667,
            "velocity": 0.6299212598425197
          },
          {
            "duration": 0.09333333333333371,
            "durationTicks": 56,
            "midi": 69,
            "name": "A4",
            "ticks": 56700,
            "time": 68.89666666666668,
            "velocity": 0.6299212598425197
          },
          {
            "duration": 0.09333333333333371,
            "durationTicks": 56,
            "midi": 74,
            "name": "D5",
            "ticks": 56760,
            "time": 68.99666666666667,
            "velocity": 0.6299212598425197
          },
          {
            "duration": 0.0933333333333195,
            "durationTicks": 56,
            "midi": 81,
            "name": "A5",
            "ticks": 56820,
            "time": 69.09666666666668,
            "velocity": 0.6299212598425197
          },
          {
            "duration": 0.09333333333333371,
            "durationTicks": 56,
            "midi": 81,
            "name": "A5",
            "ticks": 56880,
            "time": 69.19666666666667,
            "velocity": 0.6299212598425197
          },
          {
            "duration": 0.09333333333333371,
            "durationTicks": 56,
            "midi": 86,
            "name": "D6",
            "ticks": 56940,
            "time": 69.29666666666667,
            "velocity": 0.6299212598425197
          },
          {
            "duration": 0.09333333333333371,
            "durationTicks": 56,
            "midi": 93,
            "name": "A6",
            "ticks": 57000,
            "time": 69.39666666666668,
            "velocity": 0.6299212598425197
          },
          {
            "duration": 0.3783333333333303,
            "durationTicks": 227,
            "midi": 90,
            "name": "F#6",
            "ticks": 57360,
            "time": 69.99666666666667,
            "velocity": 0.6299212598425197
          },
          {
            "duration": 0.09333333333333371,
            "durationTicks": 56,
            "midi": 57,
            "name": "A3",
            "ticks": 57960,
            "time": 70.99666666666667,
            "velocity": 0.6299212598425197
          },
          {
            "duration": 0.09333333333333371,
            "durationTicks": 56,
            "midi": 62,
            "name": "D4",
            "ticks": 58020,
            "time": 71.09666666666666,
            "velocity": 0.6299212598425197
          },
          {
            "duration": 0.09333333333333371,
            "durationTicks": 56,
            "midi": 69,
            "name": "A4",
            "ticks": 58080,
            "time": 71.19666666666667,
            "velocity": 0.6299212598425197
          },
          {
            "duration": 0.09333333333333371,
            "durationTicks": 56,
            "midi": 69,
            "name": "A4",
            "ticks": 58140,
            "time": 71.29666666666667,
            "velocity": 0.6299212598425197
          },
          {
            "duration": 0.09333333333333371,
            "durationTicks": 56,
            "midi": 74,
            "name": "D5",
            "ticks": 58200,
            "time": 71.39666666666668,
            "velocity": 0.6299212598425197
          },
          {
            "duration": 0.09333333333333371,
            "durationTicks": 56,
            "midi": 81,
            "name": "A5",
            "ticks": 58260,
            "time": 71.49666666666667,
            "velocity": 0.6299212598425197
          },
          {
            "duration": 0.09333333333333371,
            "durationTicks": 56,
            "midi": 81,
            "name": "A5",
            "ticks": 58320,
            "time": 71.59666666666666,
            "velocity": 0.6299212598425197
          },
          {
            "duration": 0.09333333333333371,
            "durationTicks": 56,
            "midi": 81,
            "name": "A5",
            "ticks": 58380,
            "time": 71.69666666666667,
            "velocity": 0.6299212598425197
          },
          {
            "duration": 0.09333333333333371,
            "durationTicks": 56,
            "midi": 74,
            "name": "D5",
            "ticks": 58440,
            "time": 71.79666666666667,
            "velocity": 0.6299212598425197
          },
          {
            "duration": 0.09333333333333371,
            "durationTicks": 56,
            "midi": 74,
            "name": "D5",
            "ticks": 58500,
            "time": 71.89666666666668,
            "velocity": 0.6299212598425197
          },
          {
            "duration": 0.09333333333333371,
            "durationTicks": 56,
            "midi": 69,
            "name": "A4",
            "ticks": 58560,
            "time": 71.99666666666667,
            "velocity": 0.6299212598425197
          },
          {
            "duration": 0.09333333333333371,
            "durationTicks": 56,
            "midi": 62,
            "name": "D4",
            "ticks": 58620,
            "time": 72.09666666666666,
            "velocity": 0.6299212598425197
          },
          {
            "duration": 0.18833333333333258,
            "durationTicks": 113,
            "midi": 69,
            "name": "A4",
            "ticks": 58800,
            "time": 72.39666666666668,
            "velocity": 0.6299212598425197
          },
          {
            "duration": 0.18833333333333258,
            "durationTicks": 113,
            "midi": 81,
            "name": "A5",
            "ticks": 58800,
            "time": 72.39666666666668,
            "velocity": 0.6299212598425197
          },
          {
            "duration": 0.1883333333333468,
            "durationTicks": 113,
            "midi": 74,
            "name": "D5",
            "ticks": 58920,
            "time": 72.59666666666666,
            "velocity": 0.6299212598425197
          },
          {
            "duration": 0.1883333333333468,
            "durationTicks": 113,
            "midi": 86,
            "name": "D6",
            "ticks": 58920,
            "time": 72.59666666666666,
            "velocity": 0.6299212598425197
          },
          {
            "duration": 1.2999999999999972,
            "durationTicks": 780,
            "midi": 74,
            "name": "D5",
            "ticks": 59040,
            "time": 72.79666666666667,
            "velocity": 0.7559055118110236
          },
          {
            "duration": 2.278333333333336,
            "durationTicks": 1367,
            "midi": 79,
            "name": "G5",
            "ticks": 59040,
            "time": 72.79666666666667,
            "velocity": 0.7559055118110236
          },
          {
            "duration": 2.278333333333336,
            "durationTicks": 1367,
            "midi": 86,
            "name": "D6",
            "ticks": 59040,
            "time": 72.79666666666667,
            "velocity": 0.7559055118110236
          },
          {
            "duration": 0.09375,
            "durationTicks": 75,
            "midi": 98,
            "name": "D7",
            "ticks": 60480,
            "time": 75.19666666666667,
            "velocity": 0.6299212598425197
          },
          {
            "duration": 0.09375,
            "durationTicks": 75,
            "midi": 95,
            "name": "B6",
            "ticks": 60560,
            "time": 75.29666666666667,
            "velocity": 0.6299212598425197
          },
          {
            "duration": 0.09375,
            "durationTicks": 75,
            "midi": 92,
            "name": "G#6",
            "ticks": 60640,
            "time": 75.39666666666668,
            "velocity": 0.6299212598425197
          },
          {
            "duration": 0.09375,
            "durationTicks": 75,
            "midi": 89,
            "name": "F6",
            "ticks": 60720,
            "time": 75.49666666666667,
            "velocity": 0.6299212598425197
          },
          {
            "duration": 0.09375,
            "durationTicks": 75,
            "midi": 86,
            "name": "D6",
            "ticks": 60800,
            "time": 75.59666666666668,
            "velocity": 0.6299212598425197
          },
          {
            "duration": 0.09375,
            "durationTicks": 75,
            "midi": 83,
            "name": "B5",
            "ticks": 60880,
            "time": 75.69666666666667,
            "velocity": 0.6299212598425197
          },
          {
            "duration": 0.09375,
            "durationTicks": 75,
            "midi": 80,
            "name": "G#5",
            "ticks": 60960,
            "time": 75.79666666666667,
            "velocity": 0.6299212598425197
          },
          {
            "duration": 0.09375,
            "durationTicks": 75,
            "midi": 77,
            "name": "F5",
            "ticks": 61040,
            "time": 75.89666666666668,
            "velocity": 0.6299212598425197
          },
          {
            "duration": 0.09375,
            "durationTicks": 75,
            "midi": 74,
            "name": "D5",
            "ticks": 61120,
            "time": 75.99666666666667,
            "velocity": 0.6299212598425197
          },
          {
            "duration": 0.09375,
            "durationTicks": 75,
            "midi": 86,
            "name": "D6",
            "ticks": 61200,
            "time": 76.09666666666668,
            "velocity": 0.6299212598425197
          },
          {
            "duration": 0.09375,
            "durationTicks": 75,
            "midi": 83,
            "name": "B5",
            "ticks": 61280,
            "time": 76.19666666666667,
            "velocity": 0.6299212598425197
          },
          {
            "duration": 0.09375,
            "durationTicks": 75,
            "midi": 80,
            "name": "G#5",
            "ticks": 61360,
            "time": 76.29666666666667,
            "velocity": 0.6299212598425197
          },
          {
            "duration": 0.09375,
            "durationTicks": 75,
            "midi": 77,
            "name": "F5",
            "ticks": 61440,
            "time": 76.39666666666668,
            "velocity": 0.6299212598425197
          },
          {
            "duration": 0.09375,
            "durationTicks": 75,
            "midi": 74,
            "name": "D5",
            "ticks": 61520,
            "time": 76.49666666666667,
            "velocity": 0.6299212598425197
          },
          {
            "duration": 0.09375,
            "durationTicks": 75,
            "midi": 71,
            "name": "B4",
            "ticks": 61600,
            "time": 76.59666666666668,
            "velocity": 0.6299212598425197
          },
          {
            "duration": 0.09375,
            "durationTicks": 75,
            "midi": 68,
            "name": "G#4",
            "ticks": 61680,
            "time": 76.69666666666667,
            "velocity": 0.6299212598425197
          },
          {
            "duration": 0.09375,
            "durationTicks": 75,
            "midi": 65,
            "name": "F4",
            "ticks": 61760,
            "time": 76.79666666666667,
            "velocity": 0.6299212598425197
          },
          {
            "duration": 0.09375,
            "durationTicks": 75,
            "midi": 62,
            "name": "D4",
            "ticks": 61840,
            "time": 76.89666666666668,
            "velocity": 0.6299212598425197
          },
          {
            "duration": 0.09375,
            "durationTicks": 75,
            "midi": 74,
            "name": "D5",
            "ticks": 61920,
            "time": 76.99666666666667,
            "velocity": 0.6299212598425197
          },
          {
            "duration": 0.09375,
            "durationTicks": 75,
            "midi": 71,
            "name": "B4",
            "ticks": 62000,
            "time": 77.09666666666668,
            "velocity": 0.6299212598425197
          },
          {
            "duration": 0.09375,
            "durationTicks": 75,
            "midi": 68,
            "name": "G#4",
            "ticks": 62080,
            "time": 77.19666666666667,
            "velocity": 0.6299212598425197
          },
          {
            "duration": 0.09375,
            "durationTicks": 75,
            "midi": 65,
            "name": "F4",
            "ticks": 62160,
            "time": 77.29666666666667,
            "velocity": 0.6299212598425197
          },
          {
            "duration": 0.09375,
            "durationTicks": 75,
            "midi": 62,
            "name": "D4",
            "ticks": 62240,
            "time": 77.39666666666668,
            "velocity": 0.6299212598425197
          },
          {
            "duration": 0.09375,
            "durationTicks": 75,
            "midi": 59,
            "name": "B3",
            "ticks": 62320,
            "time": 77.49666666666667,
            "velocity": 0.6299212598425197
          },
          {
            "duration": 0.09375,
            "durationTicks": 75,
            "midi": 56,
            "name": "G#3",
            "ticks": 62400,
            "time": 77.59666666666668,
            "velocity": 0.6299212598425197
          },
          {
            "duration": 0.09375,
            "durationTicks": 75,
            "midi": 53,
            "name": "F3",
            "ticks": 62480,
            "time": 77.69666666666667,
            "velocity": 0.6299212598425197
          },
          {
            "duration": 0.18833333333333258,
            "durationTicks": 113,
            "midi": 79,
            "name": "G5",
            "ticks": 62880,
            "time": 78.29666666666668,
            "velocity": 0.6456692913385826
          },
          {
            "duration": 0.18833333333333258,
            "durationTicks": 113,
            "midi": 91,
            "name": "G6",
            "ticks": 62880,
            "time": 78.29666666666668,
            "velocity": 0.6456692913385826
          },
          {
            "duration": 0.18833333333333258,
            "durationTicks": 113,
            "midi": 79,
            "name": "G5",
            "ticks": 63000,
            "time": 78.49666666666667,
            "velocity": 0.6535433070866141
          },
          {
            "duration": 0.18833333333333258,
            "durationTicks": 113,
            "midi": 91,
            "name": "G6",
            "ticks": 63000,
            "time": 78.49666666666667,
            "velocity": 0.6535433070866141
          },
          {
            "duration": 0.18833333333333258,
            "durationTicks": 113,
            "midi": 77,
            "name": "F5",
            "ticks": 63120,
            "time": 78.69666666666667,
            "velocity": 0.6614173228346457
          },
          {
            "duration": 0.18833333333333258,
            "durationTicks": 113,
            "midi": 89,
            "name": "F6",
            "ticks": 63120,
            "time": 78.69666666666667,
            "velocity": 0.6614173228346457
          },
          {
            "duration": 0.18833333333333258,
            "durationTicks": 113,
            "midi": 77,
            "name": "F5",
            "ticks": 63240,
            "time": 78.89666666666668,
            "velocity": 0.6692913385826772
          },
          {
            "duration": 0.18833333333333258,
            "durationTicks": 113,
            "midi": 89,
            "name": "F6",
            "ticks": 63240,
            "time": 78.89666666666668,
            "velocity": 0.6692913385826772
          },
          {
            "duration": 0.18833333333333258,
            "durationTicks": 113,
            "midi": 74,
            "name": "D5",
            "ticks": 63360,
            "time": 79.09666666666668,
            "velocity": 0.6771653543307087
          },
          {
            "duration": 0.18833333333333258,
            "durationTicks": 113,
            "midi": 86,
            "name": "D6",
            "ticks": 63360,
            "time": 79.09666666666668,
            "velocity": 0.6771653543307087
          },
          {
            "duration": 0.18833333333333258,
            "durationTicks": 113,
            "midi": 74,
            "name": "D5",
            "ticks": 63480,
            "time": 79.29666666666668,
            "velocity": 0.6850393700787402
          },
          {
            "duration": 0.18833333333333258,
            "durationTicks": 113,
            "midi": 86,
            "name": "D6",
            "ticks": 63480,
            "time": 79.29666666666668,
            "velocity": 0.6850393700787402
          },
          {
            "duration": 0.18833333333333258,
            "durationTicks": 113,
            "midi": 71,
            "name": "B4",
            "ticks": 63600,
            "time": 79.49666666666667,
            "velocity": 0.6929133858267716
          },
          {
            "duration": 0.18833333333333258,
            "durationTicks": 113,
            "midi": 83,
            "name": "B5",
            "ticks": 63600,
            "time": 79.49666666666667,
            "velocity": 0.6929133858267716
          },
          {
            "duration": 0.18833333333333258,
            "durationTicks": 113,
            "midi": 71,
            "name": "B4",
            "ticks": 63720,
            "time": 79.69666666666667,
            "velocity": 0.7007874015748031
          },
          {
            "duration": 0.18833333333333258,
            "durationTicks": 113,
            "midi": 83,
            "name": "B5",
            "ticks": 63720,
            "time": 79.69666666666667,
            "velocity": 0.7007874015748031
          },
          {
            "duration": 0.18833333333333258,
            "durationTicks": 113,
            "midi": 68,
            "name": "G#4",
            "ticks": 63840,
            "time": 79.89666666666668,
            "velocity": 0.7086614173228346
          },
          {
            "duration": 0.18833333333333258,
            "durationTicks": 113,
            "midi": 80,
            "name": "G#5",
            "ticks": 63840,
            "time": 79.89666666666668,
            "velocity": 0.7086614173228346
          },
          {
            "duration": 0.18833333333333258,
            "durationTicks": 113,
            "midi": 68,
            "name": "G#4",
            "ticks": 63960,
            "time": 80.09666666666668,
            "velocity": 0.7165354330708661
          },
          {
            "duration": 0.18833333333333258,
            "durationTicks": 113,
            "midi": 80,
            "name": "G#5",
            "ticks": 63960,
            "time": 80.09666666666668,
            "velocity": 0.7165354330708661
          },
          {
            "duration": 0.18833333333333258,
            "durationTicks": 113,
            "midi": 67,
            "name": "G4",
            "ticks": 64080,
            "time": 80.29666666666668,
            "velocity": 0.7244094488188977
          },
          {
            "duration": 0.18833333333333258,
            "durationTicks": 113,
            "midi": 79,
            "name": "G5",
            "ticks": 64080,
            "time": 80.29666666666668,
            "velocity": 0.7244094488188977
          },
          {
            "duration": 0.18833333333333258,
            "durationTicks": 113,
            "midi": 67,
            "name": "G4",
            "ticks": 64200,
            "time": 80.49666666666667,
            "velocity": 0.7322834645669292
          },
          {
            "duration": 0.18833333333333258,
            "durationTicks": 113,
            "midi": 79,
            "name": "G5",
            "ticks": 64200,
            "time": 80.49666666666667,
            "velocity": 0.7322834645669292
          },
          {
            "duration": 0.18833333333333258,
            "durationTicks": 113,
            "midi": 75,
            "name": "D#5",
            "ticks": 64560,
            "time": 81.09666666666668,
            "velocity": 0.7559055118110236
          },
          {
            "duration": 0.18833333333333258,
            "durationTicks": 113,
            "midi": 87,
            "name": "D#6",
            "ticks": 64560,
            "time": 81.09666666666668,
            "velocity": 0.7559055118110236
          },
          {
            "duration": 0.18833333333333258,
            "durationTicks": 113,
            "midi": 77,
            "name": "F5",
            "ticks": 64680,
            "time": 81.29666666666668,
            "velocity": 0.7559055118110236
          },
          {
            "duration": 0.18833333333333258,
            "durationTicks": 113,
            "midi": 89,
            "name": "F6",
            "ticks": 64680,
            "time": 81.29666666666668,
            "velocity": 0.7559055118110236
          },
          {
            "duration": 0.3791666666666629,
            "durationTicks": 455,
            "midi": 79,
            "name": "G5",
            "ticks": 64800,
            "time": 81.49666666666667,
            "velocity": 0.7559055118110236
          },
          {
            "duration": 0.3791666666666629,
            "durationTicks": 455,
            "midi": 87,
            "name": "D#6",
            "ticks": 64800,
            "time": 81.49666666666667,
            "velocity": 0.7559055118110236
          },
          {
            "duration": 0.3791666666666629,
            "durationTicks": 455,
            "midi": 91,
            "name": "G6",
            "ticks": 64800,
            "time": 81.49666666666667,
            "velocity": 0.7559055118110236
          },
          {
            "duration": 0.3791666666666629,
            "durationTicks": 455,
            "midi": 62,
            "name": "D4",
            "ticks": 65280,
            "time": 81.89666666666668,
            "velocity": 0.7559055118110236
          },
          {
            "duration": 0.3791666666666629,
            "durationTicks": 455,
            "midi": 67,
            "name": "G4",
            "ticks": 65280,
            "time": 81.89666666666668,
            "velocity": 0.7559055118110236
          },
          {
            "duration": 0.3791666666666629,
            "durationTicks": 455,
            "midi": 74,
            "name": "D5",
            "ticks": 65280,
            "time": 81.89666666666668,
            "velocity": 0.7559055118110236
          },
          {
            "duration": 0.3791666666666629,
            "durationTicks": 455,
            "midi": 63,
            "name": "D#4",
            "ticks": 65760,
            "time": 82.29666666666667,
            "velocity": 0.7559055118110236
          },
          {
            "duration": 0.3791666666666629,
            "durationTicks": 455,
            "midi": 67,
            "name": "G4",
            "ticks": 65760,
            "time": 82.29666666666667,
            "velocity": 0.7559055118110236
          },
          {
            "duration": 0.3791666666666629,
            "durationTicks": 455,
            "midi": 75,
            "name": "D#5",
            "ticks": 65760,
            "time": 82.29666666666667,
            "velocity": 0.7559055118110236
          },
          {
            "duration": 0.18916666666666515,
            "durationTicks": 227,
            "midi": 86,
            "name": "D6",
            "ticks": 66240,
            "time": 82.69666666666667,
            "velocity": 0.7559055118110236
          },
          {
            "duration": 0.18916666666666515,
            "durationTicks": 227,
            "midi": 98,
            "name": "D7",
            "ticks": 66240,
            "time": 82.69666666666667,
            "velocity": 0.7559055118110236
          },
          {
            "duration": 0.5691666666666606,
            "durationTicks": 683,
            "midi": 86,
            "name": "D6",
            "ticks": 66480,
            "time": 82.89666666666668,
            "velocity": 0.7559055118110236
          },
          {
            "duration": 0.5691666666666606,
            "durationTicks": 683,
            "midi": 98,
            "name": "D7",
            "ticks": 66480,
            "time": 82.89666666666668,
            "velocity": 0.7559055118110236
          },
          {
            "duration": 0.3791666666666771,
            "durationTicks": 455,
            "midi": 91,
            "name": "G6",
            "ticks": 66720,
            "time": 83.09666666666666,
            "velocity": 0.7559055118110236
          },
          {
            "duration": 0.3791666666666771,
            "durationTicks": 455,
            "midi": 94,
            "name": "A#6",
            "ticks": 66720,
            "time": 83.09666666666666,
            "velocity": 0.7559055118110236
          },
          {
            "duration": 0.2666666666666657,
            "durationTicks": 320,
            "midi": 62,
            "name": "D4",
            "ticks": 67200,
            "time": 83.49666666666667,
            "velocity": 0.7559055118110236
          },
          {
            "duration": 0.3791666666666629,
            "durationTicks": 455,
            "midi": 70,
            "name": "A#4",
            "ticks": 67200,
            "time": 83.49666666666667,
            "velocity": 0.7559055118110236
          },
          {
            "duration": 0.3791666666666629,
            "durationTicks": 455,
            "midi": 74,
            "name": "D5",
            "ticks": 67200,
            "time": 83.49666666666667,
            "velocity": 0.7559055118110236
          },
          {
            "duration": 0.3791666666666629,
            "durationTicks": 455,
            "midi": 70,
            "name": "A#4",
            "ticks": 67680,
            "time": 83.89666666666668,
            "velocity": 0.7559055118110236
          },
          {
            "duration": 0.3791666666666629,
            "durationTicks": 455,
            "midi": 74,
            "name": "D5",
            "ticks": 67680,
            "time": 83.89666666666668,
            "velocity": 0.7559055118110236
          },
          {
            "duration": 0.3791666666666629,
            "durationTicks": 455,
            "midi": 82,
            "name": "A#5",
            "ticks": 67680,
            "time": 83.89666666666668,
            "velocity": 0.7559055118110236
          },
          {
            "duration": 0.18916666666666515,
            "durationTicks": 227,
            "midi": 79,
            "name": "G5",
            "ticks": 68160,
            "time": 84.29666666666667,
            "velocity": 0.7559055118110236
          },
          {
            "duration": 0.18916666666666515,
            "durationTicks": 227,
            "midi": 91,
            "name": "G6",
            "ticks": 68160,
            "time": 84.29666666666667,
            "velocity": 0.7559055118110236
          },
          {
            "duration": 0.5691666666666606,
            "durationTicks": 683,
            "midi": 77,
            "name": "F5",
            "ticks": 68400,
            "time": 84.49666666666667,
            "velocity": 0.7559055118110236
          },
          {
            "duration": 0.5691666666666606,
            "durationTicks": 683,
            "midi": 89,
            "name": "F6",
            "ticks": 68400,
            "time": 84.49666666666667,
            "velocity": 0.7559055118110236
          },
          {
            "duration": 0.3791666666666629,
            "durationTicks": 455,
            "midi": 80,
            "name": "G#5",
            "ticks": 68640,
            "time": 84.69666666666667,
            "velocity": 0.7559055118110236
          },
          {
            "duration": 0.3791666666666629,
            "durationTicks": 455,
            "midi": 84,
            "name": "C6",
            "ticks": 68640,
            "time": 84.69666666666667,
            "velocity": 0.7559055118110236
          },
          {
            "duration": 0.18916666666666515,
            "durationTicks": 227,
            "midi": 75,
            "name": "D#5",
            "ticks": 69120,
            "time": 85.09666666666666,
            "velocity": 0.7559055118110236
          },
          {
            "duration": 0.18916666666666515,
            "durationTicks": 227,
            "midi": 87,
            "name": "D#6",
            "ticks": 69120,
            "time": 85.09666666666666,
            "velocity": 0.7559055118110236
          },
          {
            "duration": 0.3791666666666629,
            "durationTicks": 455,
            "midi": 77,
            "name": "F5",
            "ticks": 69360,
            "time": 85.29666666666667,
            "velocity": 0.7559055118110236
          },
          {
            "duration": 0.3791666666666629,
            "durationTicks": 455,
            "midi": 89,
            "name": "F6",
            "ticks": 69360,
            "time": 85.29666666666667,
            "velocity": 0.7559055118110236
          },
          {
            "duration": 0.3791666666666629,
            "durationTicks": 455,
            "midi": 82,
            "name": "A#5",
            "ticks": 69840,
            "time": 85.69666666666667,
            "velocity": 0.7559055118110236
          },
          {
            "duration": 0.3791666666666629,
            "durationTicks": 455,
            "midi": 94,
            "name": "A#6",
            "ticks": 69840,
            "time": 85.69666666666667,
            "velocity": 0.7559055118110236
          },
          {
            "duration": 0.5691666666666748,
            "durationTicks": 683,
            "midi": 79,
            "name": "G5",
            "ticks": 70320,
            "time": 86.09666666666666,
            "velocity": 0.7559055118110236
          },
          {
            "duration": 0.5691666666666748,
            "durationTicks": 683,
            "midi": 91,
            "name": "G6",
            "ticks": 70320,
            "time": 86.09666666666666,
            "velocity": 0.7559055118110236
          },
          {
            "duration": 0.3791666666666771,
            "durationTicks": 455,
            "midi": 82,
            "name": "A#5",
            "ticks": 70560,
            "time": 86.29666666666667,
            "velocity": 0.7559055118110236
          },
          {
            "duration": 0.3791666666666771,
            "durationTicks": 455,
            "midi": 87,
            "name": "D#6",
            "ticks": 70560,
            "time": 86.29666666666667,
            "velocity": 0.7559055118110236
          },
          {
            "duration": 0.3791666666666629,
            "durationTicks": 455,
            "midi": 63,
            "name": "D#4",
            "ticks": 71040,
            "time": 86.69666666666667,
            "velocity": 0.7559055118110236
          },
          {
            "duration": 0.3791666666666629,
            "durationTicks": 455,
            "midi": 70,
            "name": "A#4",
            "ticks": 71040,
            "time": 86.69666666666667,
            "velocity": 0.7559055118110236
          },
          {
            "duration": 0.3791666666666629,
            "durationTicks": 455,
            "midi": 75,
            "name": "D#5",
            "ticks": 71040,
            "time": 86.69666666666667,
            "velocity": 0.7559055118110236
          },
          {
            "duration": 0.3791666666666771,
            "durationTicks": 455,
            "midi": 65,
            "name": "F4",
            "ticks": 71520,
            "time": 87.09666666666666,
            "velocity": 0.7559055118110236
          },
          {
            "duration": 0.3791666666666771,
            "durationTicks": 455,
            "midi": 70,
            "name": "A#4",
            "ticks": 71520,
            "time": 87.09666666666666,
            "velocity": 0.7559055118110236
          },
          {
            "duration": 0.3791666666666771,
            "durationTicks": 455,
            "midi": 77,
            "name": "F5",
            "ticks": 71520,
            "time": 87.09666666666666,
            "velocity": 0.7559055118110236
          },
          {
            "duration": 0.3791666666666629,
            "durationTicks": 455,
            "midi": 63,
            "name": "D#4",
            "ticks": 72000,
            "time": 87.49666666666667,
            "velocity": 0.7559055118110236
          },
          {
            "duration": 0.3791666666666629,
            "durationTicks": 455,
            "midi": 70,
            "name": "A#4",
            "ticks": 72000,
            "time": 87.49666666666667,
            "velocity": 0.7559055118110236
          },
          {
            "duration": 0.3791666666666629,
            "durationTicks": 455,
            "midi": 75,
            "name": "D#5",
            "ticks": 72000,
            "time": 87.49666666666667,
            "velocity": 0.7559055118110236
          },
          {
            "duration": 0.3791666666666629,
            "durationTicks": 455,
            "midi": 60,
            "name": "C4",
            "ticks": 72480,
            "time": 87.89666666666668,
            "velocity": 0.7559055118110236
          },
          {
            "duration": 0.3791666666666629,
            "durationTicks": 455,
            "midi": 68,
            "name": "G#4",
            "ticks": 72480,
            "time": 87.89666666666668,
            "velocity": 0.7559055118110236
          },
          {
            "duration": 0.3791666666666629,
            "durationTicks": 455,
            "midi": 72,
            "name": "C5",
            "ticks": 72480,
            "time": 87.89666666666668,
            "velocity": 0.7559055118110236
          },
          {
            "duration": 0.3791666666666771,
            "durationTicks": 455,
            "midi": 60,
            "name": "C4",
            "ticks": 72960,
            "time": 88.29666666666667,
            "velocity": 0.7559055118110236
          },
          {
            "duration": 0.3791666666666771,
            "durationTicks": 455,
            "midi": 68,
            "name": "G#4",
            "ticks": 72960,
            "time": 88.29666666666667,
            "velocity": 0.7559055118110236
          },
          {
            "duration": 0.3791666666666629,
            "durationTicks": 455,
            "midi": 72,
            "name": "C5",
            "ticks": 73440,
            "time": 88.69666666666667,
            "velocity": 0.7559055118110236
          },
          {
            "duration": 0.3791666666666629,
            "durationTicks": 455,
            "midi": 80,
            "name": "G#5",
            "ticks": 73440,
            "time": 88.69666666666667,
            "velocity": 0.7559055118110236
          },
          {
            "duration": 0.3791666666666629,
            "durationTicks": 455,
            "midi": 84,
            "name": "C6",
            "ticks": 73440,
            "time": 88.69666666666667,
            "velocity": 0.7559055118110236
          },
          {
            "duration": 0.3791666666666771,
            "durationTicks": 455,
            "midi": 75,
            "name": "D#5",
            "ticks": 73920,
            "time": 89.09666666666666,
            "velocity": 0.7559055118110236
          },
          {
            "duration": 0.3791666666666771,
            "durationTicks": 455,
            "midi": 80,
            "name": "G#5",
            "ticks": 73920,
            "time": 89.09666666666666,
            "velocity": 0.7559055118110236
          },
          {
            "duration": 0.3791666666666771,
            "durationTicks": 455,
            "midi": 87,
            "name": "D#6",
            "ticks": 73920,
            "time": 89.09666666666666,
            "velocity": 0.7559055118110236
          },
          {
            "duration": 0.5691666666666606,
            "durationTicks": 683,
            "midi": 80,
            "name": "G#5",
            "ticks": 74400,
            "time": 89.49666666666667,
            "velocity": 0.7559055118110236
          },
          {
            "duration": 0.5691666666666606,
            "durationTicks": 683,
            "midi": 87,
            "name": "D#6",
            "ticks": 74400,
            "time": 89.49666666666667,
            "velocity": 0.7559055118110236
          },
          {
            "duration": 0.5691666666666606,
            "durationTicks": 683,
            "midi": 92,
            "name": "G#6",
            "ticks": 74400,
            "time": 89.49666666666667,
            "velocity": 0.7559055118110236
          },
          {
            "duration": 0.3791666666666771,
            "durationTicks": 455,
            "midi": 82,
            "name": "A#5",
            "ticks": 75120,
            "time": 90.09666666666666,
            "velocity": 0.7559055118110236
          },
          {
            "duration": 0.3791666666666771,
            "durationTicks": 455,
            "midi": 87,
            "name": "D#6",
            "ticks": 75120,
            "time": 90.09666666666666,
            "velocity": 0.7559055118110236
          },
          {
            "duration": 0.3791666666666771,
            "durationTicks": 455,
            "midi": 94,
            "name": "A#6",
            "ticks": 75120,
            "time": 90.09666666666666,
            "velocity": 0.7559055118110236
          },
          {
            "duration": 0.18916666666666515,
            "durationTicks": 227,
            "midi": 79,
            "name": "G5",
            "ticks": 75600,
            "time": 90.49666666666667,
            "velocity": 0.7559055118110236
          },
          {
            "duration": 0.18916666666666515,
            "durationTicks": 227,
            "midi": 91,
            "name": "G6",
            "ticks": 75600,
            "time": 90.49666666666667,
            "velocity": 0.7559055118110236
          },
          {
            "duration": 0.18916666666666515,
            "durationTicks": 227,
            "midi": 77,
            "name": "F5",
            "ticks": 75840,
            "time": 90.69666666666667,
            "velocity": 0.7559055118110236
          },
          {
            "duration": 0.18916666666666515,
            "durationTicks": 227,
            "midi": 89,
            "name": "F6",
            "ticks": 75840,
            "time": 90.69666666666667,
            "velocity": 0.7559055118110236
          },
          {
            "duration": 0.18916666666666515,
            "durationTicks": 227,
            "midi": 75,
            "name": "D#5",
            "ticks": 76080,
            "time": 90.89666666666668,
            "velocity": 0.7559055118110236
          },
          {
            "duration": 0.18916666666666515,
            "durationTicks": 227,
            "midi": 87,
            "name": "D#6",
            "ticks": 76080,
            "time": 90.89666666666668,
            "velocity": 0.7559055118110236
          },
          {
            "duration": 0.3791666666666771,
            "durationTicks": 455,
            "midi": 77,
            "name": "F5",
            "ticks": 76320,
            "time": 91.09666666666666,
            "velocity": 0.7559055118110236
          },
          {
            "duration": 0.3791666666666771,
            "durationTicks": 455,
            "midi": 84,
            "name": "C6",
            "ticks": 76320,
            "time": 91.09666666666666,
            "velocity": 0.7559055118110236
          },
          {
            "duration": 0.3791666666666771,
            "durationTicks": 455,
            "midi": 89,
            "name": "F6",
            "ticks": 76320,
            "time": 91.09666666666666,
            "velocity": 0.7559055118110236
          },
          {
            "duration": 0.3791666666666629,
            "durationTicks": 455,
            "midi": 60,
            "name": "C4",
            "ticks": 76800,
            "time": 91.49666666666667,
            "velocity": 0.7559055118110236
          },
          {
            "duration": 0.3791666666666629,
            "durationTicks": 455,
            "midi": 69,
            "name": "A4",
            "ticks": 76800,
            "time": 91.49666666666667,
            "velocity": 0.7559055118110236
          },
          {
            "duration": 0.3791666666666629,
            "durationTicks": 455,
            "midi": 72,
            "name": "C5",
            "ticks": 76800,
            "time": 91.49666666666667,
            "velocity": 0.7559055118110236
          },
          {
            "duration": 0.3791666666666629,
            "durationTicks": 455,
            "midi": 62,
            "name": "D4",
            "ticks": 77280,
            "time": 91.89666666666668,
            "velocity": 0.7559055118110236
          },
          {
            "duration": 0.3791666666666629,
            "durationTicks": 455,
            "midi": 69,
            "name": "A4",
            "ticks": 77280,
            "time": 91.89666666666668,
            "velocity": 0.7559055118110236
          },
          {
            "duration": 0.3791666666666629,
            "durationTicks": 455,
            "midi": 74,
            "name": "D5",
            "ticks": 77280,
            "time": 91.89666666666668,
            "velocity": 0.7559055118110236
          },
          {
            "duration": 0.3791666666666771,
            "durationTicks": 455,
            "midi": 63,
            "name": "D#4",
            "ticks": 77760,
            "time": 92.29666666666667,
            "velocity": 0.7559055118110236
          },
          {
            "duration": 0.3791666666666771,
            "durationTicks": 455,
            "midi": 69,
            "name": "A4",
            "ticks": 77760,
            "time": 92.29666666666667,
            "velocity": 0.7559055118110236
          },
          {
            "duration": 0.3791666666666771,
            "durationTicks": 455,
            "midi": 75,
            "name": "D#5",
            "ticks": 77760,
            "time": 92.29666666666667,
            "velocity": 0.7559055118110236
          },
          {
            "duration": 0.7591666666666725,
            "durationTicks": 911,
            "midi": 63,
            "name": "D#4",
            "ticks": 78240,
            "time": 92.69666666666667,
            "velocity": 0.7559055118110236
          },
          {
            "duration": 0.7591666666666725,
            "durationTicks": 911,
            "midi": 68,
            "name": "G#4",
            "ticks": 78240,
            "time": 92.69666666666667,
            "velocity": 0.7559055118110236
          },
          {
            "duration": 0.7591666666666725,
            "durationTicks": 911,
            "midi": 75,
            "name": "D#5",
            "ticks": 78240,
            "time": 92.69666666666667,
            "velocity": 0.7559055118110236
          },
          {
            "duration": 0.3791666666666629,
            "durationTicks": 455,
            "midi": 62,
            "name": "D4",
            "ticks": 79200,
            "time": 93.49666666666667,
            "velocity": 0.7559055118110236
          },
          {
            "duration": 0.3791666666666629,
            "durationTicks": 455,
            "midi": 71,
            "name": "B4",
            "ticks": 79200,
            "time": 93.49666666666667,
            "velocity": 0.7559055118110236
          },
          {
            "duration": 0.3791666666666629,
            "durationTicks": 455,
            "midi": 74,
            "name": "D5",
            "ticks": 79200,
            "time": 93.49666666666667,
            "velocity": 0.7559055118110236
          },
          {
            "duration": 0.18916666666666515,
            "durationTicks": 227,
            "midi": 75,
            "name": "D#5",
            "ticks": 79680,
            "time": 93.89666666666668,
            "velocity": 0.7559055118110236
          },
          {
            "duration": 0.18916666666666515,
            "durationTicks": 227,
            "midi": 87,
            "name": "D#6",
            "ticks": 79680,
            "time": 93.89666666666668,
            "velocity": 0.7559055118110236
          },
          {
            "duration": 0.18916666666666515,
            "durationTicks": 227,
            "midi": 77,
            "name": "F5",
            "ticks": 79920,
            "time": 94.09666666666666,
            "velocity": 0.7559055118110236
          },
          {
            "duration": 0.18916666666666515,
            "durationTicks": 227,
            "midi": 89,
            "name": "F6",
            "ticks": 79920,
            "time": 94.09666666666666,
            "velocity": 0.7559055118110236
          },
          {
            "duration": 0.12583333333333258,
            "durationTicks": 151,
            "midi": 79,
            "name": "G5",
            "ticks": 80160,
            "time": 94.29666666666667,
            "velocity": 0.7559055118110236
          },
          {
            "duration": 0.12583333333333258,
            "durationTicks": 151,
            "midi": 87,
            "name": "D#6",
            "ticks": 80160,
            "time": 94.29666666666667,
            "velocity": 0.7559055118110236
          },
          {
            "duration": 0.12583333333333258,
            "durationTicks": 151,
            "midi": 91,
            "name": "G6",
            "ticks": 80160,
            "time": 94.29666666666667,
            "velocity": 0.7559055118110236
          },
          {
            "duration": 0.12583333333333258,
            "durationTicks": 151,
            "midi": 86,
            "name": "D6",
            "ticks": 80320,
            "time": 94.43,
            "velocity": 0.7559055118110236
          },
          {
            "duration": 0.12583333333333258,
            "durationTicks": 151,
            "midi": 79,
            "name": "G5",
            "ticks": 80480,
            "time": 94.56333333333333,
            "velocity": 0.7559055118110236
          },
          {
            "duration": 0.12583333333333258,
            "durationTicks": 151,
            "midi": 75,
            "name": "D#5",
            "ticks": 80640,
            "time": 94.69666666666667,
            "velocity": 0.7559055118110236
          },
          {
            "duration": 0.12583333333333258,
            "durationTicks": 151,
            "midi": 79,
            "name": "G5",
            "ticks": 80640,
            "time": 94.69666666666667,
            "velocity": 0.7559055118110236
          },
          {
            "duration": 0.12583333333333258,
            "durationTicks": 151,
            "midi": 74,
            "name": "D5",
            "ticks": 80800,
            "time": 94.83000000000001,
            "velocity": 0.7559055118110236
          },
          {
            "duration": 0.12583333333333258,
            "durationTicks": 151,
            "midi": 67,
            "name": "G4",
            "ticks": 80960,
            "time": 94.96333333333334,
            "velocity": 0.7559055118110236
          },
          {
            "duration": 0.18916666666666515,
            "durationTicks": 227,
            "midi": 86,
            "name": "D6",
            "ticks": 81600,
            "time": 95.49666666666667,
            "velocity": 0.7559055118110236
          },
          {
            "duration": 0.18916666666666515,
            "durationTicks": 227,
            "midi": 98,
            "name": "D7",
            "ticks": 81600,
            "time": 95.49666666666667,
            "velocity": 0.7559055118110236
          },
          {
            "duration": 0.3158333333333303,
            "durationTicks": 379,
            "midi": 86,
            "name": "D6",
            "ticks": 81840,
            "time": 95.69666666666667,
            "velocity": 0.7559055118110236
          },
          {
            "duration": 0.3158333333333303,
            "durationTicks": 379,
            "midi": 98,
            "name": "D7",
            "ticks": 81840,
            "time": 95.69666666666667,
            "velocity": 0.7559055118110236
          },
          {
            "duration": 0.12583333333333258,
            "durationTicks": 151,
            "midi": 94,
            "name": "A#6",
            "ticks": 82080,
            "time": 95.89666666666668,
            "velocity": 0.7559055118110236
          },
          {
            "duration": 0.12583333333333258,
            "durationTicks": 151,
            "midi": 93,
            "name": "A6",
            "ticks": 82240,
            "time": 96.03,
            "velocity": 0.7559055118110236
          },
          {
            "duration": 0.12583333333333258,
            "durationTicks": 151,
            "midi": 86,
            "name": "D6",
            "ticks": 82400,
            "time": 96.16333333333334,
            "velocity": 0.7559055118110236
          },
          {
            "duration": 0.12583333333333258,
            "durationTicks": 151,
            "midi": 82,
            "name": "A#5",
            "ticks": 82560,
            "time": 96.29666666666667,
            "velocity": 0.7559055118110236
          },
          {
            "duration": 0.12583333333333258,
            "durationTicks": 151,
            "midi": 86,
            "name": "D6",
            "ticks": 82560,
            "time": 96.29666666666667,
            "velocity": 0.7559055118110236
          },
          {
            "duration": 0.12583333333333258,
            "durationTicks": 151,
            "midi": 81,
            "name": "A5",
            "ticks": 82720,
            "time": 96.43,
            "velocity": 0.7559055118110236
          },
          {
            "duration": 0.12583333333333258,
            "durationTicks": 151,
            "midi": 74,
            "name": "D5",
            "ticks": 82880,
            "time": 96.56333333333333,
            "velocity": 0.7559055118110236
          },
          {
            "duration": 0.18916666666667936,
            "durationTicks": 227,
            "midi": 79,
            "name": "G5",
            "ticks": 83520,
            "time": 97.09666666666666,
            "velocity": 0.7559055118110236
          },
          {
            "duration": 0.18916666666667936,
            "durationTicks": 227,
            "midi": 91,
            "name": "G6",
            "ticks": 83520,
            "time": 97.09666666666666,
            "velocity": 0.7559055118110236
          },
          {
            "duration": 0.3158333333333445,
            "durationTicks": 379,
            "midi": 84,
            "name": "C6",
            "ticks": 83760,
            "time": 97.29666666666667,
            "velocity": 0.7559055118110236
          },
          {
            "duration": 0.3158333333333445,
            "durationTicks": 379,
            "midi": 96,
            "name": "C7",
            "ticks": 83760,
            "time": 97.29666666666667,
            "velocity": 0.7559055118110236
          },
          {
            "duration": 0.12583333333333258,
            "durationTicks": 151,
            "midi": 92,
            "name": "G#6",
            "ticks": 84000,
            "time": 97.49666666666667,
            "velocity": 0.7559055118110236
          },
          {
            "duration": 0.12583333333333258,
            "durationTicks": 151,
            "midi": 87,
            "name": "D#6",
            "ticks": 84160,
            "time": 97.63000000000001,
            "velocity": 0.7559055118110236
          },
          {
            "duration": 0.12583333333333258,
            "durationTicks": 151,
            "midi": 84,
            "name": "C6",
            "ticks": 84320,
            "time": 97.76333333333334,
            "velocity": 0.7559055118110236
          },
          {
            "duration": 0.3791666666666629,
            "durationTicks": 455,
            "midi": 75,
            "name": "D#5",
            "ticks": 84480,
            "time": 97.89666666666668,
            "velocity": 0.7559055118110236
          },
          {
            "duration": 0.3791666666666629,
            "durationTicks": 455,
            "midi": 87,
            "name": "D#6",
            "ticks": 84480,
            "time": 97.89666666666668,
            "velocity": 0.7559055118110236
          },
          {
            "duration": 0.3791666666666771,
            "durationTicks": 455,
            "midi": 75,
            "name": "D#5",
            "ticks": 84960,
            "time": 98.29666666666667,
            "velocity": 0.7559055118110236
          },
          {
            "duration": 0.3791666666666771,
            "durationTicks": 455,
            "midi": 87,
            "name": "D#6",
            "ticks": 84960,
            "time": 98.29666666666667,
            "velocity": 0.7559055118110236
          },
          {
            "duration": 0.18916666666666515,
            "durationTicks": 227,
            "midi": 77,
            "name": "F5",
            "ticks": 85440,
            "time": 98.69666666666667,
            "velocity": 0.7559055118110236
          },
          {
            "duration": 0.18916666666666515,
            "durationTicks": 227,
            "midi": 89,
            "name": "F6",
            "ticks": 85440,
            "time": 98.69666666666667,
            "velocity": 0.7559055118110236
          },
          {
            "duration": 0.18916666666666515,
            "durationTicks": 227,
            "midi": 79,
            "name": "G5",
            "ticks": 85680,
            "time": 98.89666666666668,
            "velocity": 0.7559055118110236
          },
          {
            "duration": 0.18916666666666515,
            "durationTicks": 227,
            "midi": 91,
            "name": "G6",
            "ticks": 85680,
            "time": 98.89666666666668,
            "velocity": 0.7559055118110236
          },
          {
            "duration": 0.12583333333333258,
            "durationTicks": 151,
            "midi": 87,
            "name": "D#6",
            "ticks": 85920,
            "time": 99.09666666666666,
            "velocity": 0.7559055118110236
          },
          {
            "duration": 0.12583333333333258,
            "durationTicks": 151,
            "midi": 82,
            "name": "A#5",
            "ticks": 86080,
            "time": 99.23,
            "velocity": 0.7559055118110236
          },
          {
            "duration": 0.12583333333333258,
            "durationTicks": 151,
            "midi": 79,
            "name": "G5",
            "ticks": 86240,
            "time": 99.36333333333334,
            "velocity": 0.7559055118110236
          },
          {
            "duration": 0.12583333333333258,
            "durationTicks": 151,
            "midi": 79,
            "name": "G5",
            "ticks": 86400,
            "time": 99.49666666666667,
            "velocity": 0.7559055118110236
          },
          {
            "duration": 0.12583333333333258,
            "durationTicks": 151,
            "midi": 82,
            "name": "A#5",
            "ticks": 86400,
            "time": 99.49666666666667,
            "velocity": 0.7559055118110236
          },
          {
            "duration": 0.12583333333333258,
            "durationTicks": 151,
            "midi": 75,
            "name": "D#5",
            "ticks": 86560,
            "time": 99.63000000000001,
            "velocity": 0.7559055118110236
          },
          {
            "duration": 0.12583333333333258,
            "durationTicks": 151,
            "midi": 70,
            "name": "A#4",
            "ticks": 86720,
            "time": 99.76333333333334,
            "velocity": 0.7559055118110236
          },
          {
            "duration": 0.12583333333333258,
            "durationTicks": 151,
            "midi": 67,
            "name": "G4",
            "ticks": 86880,
            "time": 99.89666666666668,
            "velocity": 0.7559055118110236
          },
          {
            "duration": 0.12583333333333258,
            "durationTicks": 151,
            "midi": 70,
            "name": "A#4",
            "ticks": 86880,
            "time": 99.89666666666668,
            "velocity": 0.7559055118110236
          },
          {
            "duration": 0.12583333333333258,
            "durationTicks": 151,
            "midi": 63,
            "name": "D#4",
            "ticks": 87040,
            "time": 100.03,
            "velocity": 0.7559055118110236
          },
          {
            "duration": 0.12583333333333258,
            "durationTicks": 151,
            "midi": 58,
            "name": "A#3",
            "ticks": 87200,
            "time": 100.16333333333334,
            "velocity": 0.7559055118110236
          },
          {
            "duration": 0.12583333333333258,
            "durationTicks": 151,
            "midi": 75,
            "name": "D#5",
            "ticks": 87840,
            "time": 100.69666666666667,
            "velocity": 0.7559055118110236
          },
          {
            "duration": 0.12583333333333258,
            "durationTicks": 151,
            "midi": 80,
            "name": "G#5",
            "ticks": 87840,
            "time": 100.69666666666667,
            "velocity": 0.7559055118110236
          },
          {
            "duration": 0.12583333333333258,
            "durationTicks": 151,
            "midi": 72,
            "name": "C5",
            "ticks": 88000,
            "time": 100.83000000000001,
            "velocity": 0.7559055118110236
          },
          {
            "duration": 0.12583333333333258,
            "durationTicks": 151,
            "midi": 68,
            "name": "G#4",
            "ticks": 88160,
            "time": 100.96333333333334,
            "velocity": 0.7559055118110236
          },
          {
            "duration": 0.3791666666666629,
            "durationTicks": 455,
            "midi": 72,
            "name": "C5",
            "ticks": 88800,
            "time": 101.49666666666667,
            "velocity": 0.7559055118110236
          },
          {
            "duration": 0.3791666666666629,
            "durationTicks": 455,
            "midi": 79,
            "name": "G5",
            "ticks": 88800,
            "time": 101.49666666666667,
            "velocity": 0.7559055118110236
          },
          {
            "duration": 0.3791666666666629,
            "durationTicks": 455,
            "midi": 84,
            "name": "C6",
            "ticks": 88800,
            "time": 101.49666666666667,
            "velocity": 0.7559055118110236
          },
          {
            "duration": 0.3791666666666629,
            "durationTicks": 455,
            "midi": 75,
            "name": "D#5",
            "ticks": 89280,
            "time": 101.89666666666668,
            "velocity": 0.7559055118110236
          },
          {
            "duration": 0.3791666666666629,
            "durationTicks": 455,
            "midi": 87,
            "name": "D#6",
            "ticks": 89280,
            "time": 101.89666666666668,
            "velocity": 0.7559055118110236
          },
          {
            "duration": 0.3791666666666771,
            "durationTicks": 455,
            "midi": 82,
            "name": "A#5",
            "ticks": 89760,
            "time": 102.29666666666667,
            "velocity": 0.7559055118110236
          },
          {
            "duration": 0.3791666666666771,
            "durationTicks": 455,
            "midi": 87,
            "name": "D#6",
            "ticks": 89760,
            "time": 102.29666666666667,
            "velocity": 0.7559055118110236
          },
          {
            "duration": 0.3791666666666771,
            "durationTicks": 455,
            "midi": 94,
            "name": "A#6",
            "ticks": 89760,
            "time": 102.29666666666667,
            "velocity": 0.7559055118110236
          },
          {
            "duration": 0.3791666666666629,
            "durationTicks": 455,
            "midi": 80,
            "name": "G#5",
            "ticks": 90480,
            "time": 102.89666666666668,
            "velocity": 0.7559055118110236
          },
          {
            "duration": 0.3791666666666629,
            "durationTicks": 455,
            "midi": 92,
            "name": "G#6",
            "ticks": 90480,
            "time": 102.89666666666668,
            "velocity": 0.7559055118110236
          },
          {
            "duration": 0.18916666666667936,
            "durationTicks": 227,
            "midi": 79,
            "name": "G5",
            "ticks": 90960,
            "time": 103.29666666666667,
            "velocity": 0.7559055118110236
          },
          {
            "duration": 0.18916666666667936,
            "durationTicks": 227,
            "midi": 91,
            "name": "G6",
            "ticks": 90960,
            "time": 103.29666666666667,
            "velocity": 0.7559055118110236
          },
          {
            "duration": 0.18916666666666515,
            "durationTicks": 227,
            "midi": 77,
            "name": "F5",
            "ticks": 91200,
            "time": 103.49666666666667,
            "velocity": 0.7559055118110236
          },
          {
            "duration": 0.18916666666666515,
            "durationTicks": 227,
            "midi": 89,
            "name": "F6",
            "ticks": 91200,
            "time": 103.49666666666667,
            "velocity": 0.7559055118110236
          },
          {
            "duration": 0.18916666666666515,
            "durationTicks": 227,
            "midi": 75,
            "name": "D#5",
            "ticks": 91440,
            "time": 103.69666666666667,
            "velocity": 0.7559055118110236
          },
          {
            "duration": 0.18916666666666515,
            "durationTicks": 227,
            "midi": 87,
            "name": "D#6",
            "ticks": 91440,
            "time": 103.69666666666667,
            "velocity": 0.7559055118110236
          },
          {
            "duration": 0.12583333333333258,
            "durationTicks": 151,
            "midi": 77,
            "name": "F5",
            "ticks": 91680,
            "time": 103.89666666666668,
            "velocity": 0.7559055118110236
          },
          {
            "duration": 0.12583333333333258,
            "durationTicks": 151,
            "midi": 84,
            "name": "C6",
            "ticks": 91680,
            "time": 103.89666666666668,
            "velocity": 0.7559055118110236
          },
          {
            "duration": 0.12583333333333258,
            "durationTicks": 151,
            "midi": 89,
            "name": "F6",
            "ticks": 91680,
            "time": 103.89666666666668,
            "velocity": 0.7559055118110236
          },
          {
            "duration": 0.12583333333333258,
            "durationTicks": 151,
            "midi": 81,
            "name": "A5",
            "ticks": 91840,
            "time": 104.03,
            "velocity": 0.7559055118110236
          },
          {
            "duration": 0.12583333333333258,
            "durationTicks": 151,
            "midi": 77,
            "name": "F5",
            "ticks": 92000,
            "time": 104.16333333333334,
            "velocity": 0.7559055118110236
          },
          {
            "duration": 0.12583333333333258,
            "durationTicks": 151,
            "midi": 69,
            "name": "A4",
            "ticks": 92160,
            "time": 104.29666666666667,
            "velocity": 0.7559055118110236
          },
          {
            "duration": 0.12583333333333258,
            "durationTicks": 151,
            "midi": 72,
            "name": "C5",
            "ticks": 92160,
            "time": 104.29666666666667,
            "velocity": 0.7559055118110236
          },
          {
            "duration": 0.12583333333333258,
            "durationTicks": 151,
            "midi": 65,
            "name": "F4",
            "ticks": 92320,
            "time": 104.43,
            "velocity": 0.7559055118110236
          },
          {
            "duration": 0.12583333333333258,
            "durationTicks": 151,
            "midi": 60,
            "name": "C4",
            "ticks": 92480,
            "time": 104.56333333333333,
            "velocity": 0.7559055118110236
          },
          {
            "duration": 0.18916666666666515,
            "durationTicks": 227,
            "midi": 65,
            "name": "F4",
            "ticks": 92640,
            "time": 104.69666666666667,
            "velocity": 0.7559055118110236
          },
          {
            "duration": 0.18916666666666515,
            "durationTicks": 227,
            "midi": 69,
            "name": "A4",
            "ticks": 92640,
            "time": 104.69666666666667,
            "velocity": 0.7559055118110236
          },
          {
            "duration": 0.18916666666666515,
            "durationTicks": 227,
            "midi": 74,
            "name": "D5",
            "ticks": 92640,
            "time": 104.69666666666667,
            "velocity": 0.7559055118110236
          },
          {
            "duration": 0.04583333333333428,
            "durationTicks": 55,
            "midi": 72,
            "name": "C5",
            "ticks": 92880,
            "time": 104.89666666666668,
            "velocity": 0.7559055118110236
          },
          {
            "duration": 0.04583333333333428,
            "durationTicks": 55,
            "midi": 74,
            "name": "D5",
            "ticks": 92940,
            "time": 104.94666666666667,
            "velocity": 0.7559055118110236
          },
          {
            "duration": 0.04583333333333428,
            "durationTicks": 55,
            "midi": 72,
            "name": "C5",
            "ticks": 93000,
            "time": 104.99666666666667,
            "velocity": 0.7559055118110236
          },
          {
            "duration": 0.04583333333333428,
            "durationTicks": 55,
            "midi": 74,
            "name": "D5",
            "ticks": 93060,
            "time": 105.04666666666667,
            "velocity": 0.7559055118110236
          },
          {
            "duration": 0.04583333333334849,
            "durationTicks": 55,
            "midi": 72,
            "name": "C5",
            "ticks": 93120,
            "time": 105.09666666666666,
            "velocity": 0.7559055118110236
          },
          {
            "duration": 0.04583333333333428,
            "durationTicks": 55,
            "midi": 74,
            "name": "D5",
            "ticks": 93180,
            "time": 105.14666666666668,
            "velocity": 0.7559055118110236
          },
          {
            "duration": 0.04583333333333428,
            "durationTicks": 55,
            "midi": 72,
            "name": "C5",
            "ticks": 93240,
            "time": 105.19666666666667,
            "velocity": 0.7559055118110236
          },
          {
            "duration": 0.04583333333333428,
            "durationTicks": 55,
            "midi": 74,
            "name": "D5",
            "ticks": 93300,
            "time": 105.24666666666667,
            "velocity": 0.7559055118110236
          },
          {
            "duration": 0.18916666666667936,
            "durationTicks": 227,
            "midi": 72,
            "name": "C5",
            "ticks": 93360,
            "time": 105.29666666666667,
            "velocity": 0.7559055118110236
          },
          {
            "duration": 0.12583333333333258,
            "durationTicks": 151,
            "midi": 71,
            "name": "B4",
            "ticks": 93600,
            "time": 105.49666666666667,
            "velocity": 0.7559055118110236
          },
          {
            "duration": 0.12583333333333258,
            "durationTicks": 151,
            "midi": 74,
            "name": "D5",
            "ticks": 93600,
            "time": 105.49666666666667,
            "velocity": 0.7559055118110236
          },
          {
            "duration": 0.12583333333333258,
            "durationTicks": 151,
            "midi": 67,
            "name": "G4",
            "ticks": 93760,
            "time": 105.63000000000001,
            "velocity": 0.7559055118110236
          },
          {
            "duration": 0.12583333333333258,
            "durationTicks": 151,
            "midi": 62,
            "name": "D4",
            "ticks": 93920,
            "time": 105.76333333333334,
            "velocity": 0.7559055118110236
          },
          {
            "duration": 0.3791666666666629,
            "durationTicks": 455,
            "midi": 65,
            "name": "F4",
            "ticks": 95040,
            "time": 106.69666666666667,
            "velocity": 0.7559055118110236
          },
          {
            "duration": 0.3791666666666629,
            "durationTicks": 455,
            "midi": 71,
            "name": "B4",
            "ticks": 95040,
            "time": 106.69666666666667,
            "velocity": 0.7559055118110236
          },
          {
            "duration": 0.3791666666666629,
            "durationTicks": 455,
            "midi": 74,
            "name": "D5",
            "ticks": 95040,
            "time": 106.69666666666667,
            "velocity": 0.7559055118110236
          },
          {
            "duration": 0.3791666666666629,
            "durationTicks": 455,
            "midi": 77,
            "name": "F5",
            "ticks": 95040,
            "time": 106.69666666666667,
            "velocity": 0.7559055118110236
          },
          {
            "duration": 0.4000000000000057,
            "durationTicks": 240,
            "midi": 52,
            "name": "E3",
            "ticks": 95520,
            "time": 107.09666666666666,
            "velocity": 0.7559055118110236
          },
          {
            "duration": 0.75833333333334,
            "durationTicks": 455,
            "midi": 57,
            "name": "A3",
            "ticks": 95520,
            "time": 107.09666666666666,
            "velocity": 0.7559055118110236
          },
          {
            "duration": 0.75833333333334,
            "durationTicks": 455,
            "midi": 64,
            "name": "E4",
            "ticks": 95520,
            "time": 107.09666666666666,
            "velocity": 0.7559055118110236
          },
          {
            "duration": 0.3783333333333303,
            "durationTicks": 227,
            "midi": 76,
            "name": "E5",
            "ticks": 96000,
            "time": 107.89666666666666,
            "velocity": 0.7559055118110236
          },
          {
            "duration": 0.3783333333333303,
            "durationTicks": 227,
            "midi": 81,
            "name": "A5",
            "ticks": 96000,
            "time": 107.89666666666666,
            "velocity": 0.7559055118110236
          },
          {
            "duration": 0.3783333333333303,
            "durationTicks": 227,
            "midi": 84,
            "name": "C6",
            "ticks": 96000,
            "time": 107.89666666666666,
            "velocity": 0.7559055118110236
          },
          {
            "duration": 0.3783333333333303,
            "durationTicks": 227,
            "midi": 88,
            "name": "E6",
            "ticks": 96000,
            "time": 107.89666666666666,
            "velocity": 0.7559055118110236
          },
          {
            "duration": 0.3783333333333303,
            "durationTicks": 227,
            "midi": 84,
            "name": "C6",
            "ticks": 96240,
            "time": 108.29666666666667,
            "velocity": 0.7559055118110236
          },
          {
            "duration": 0.3783333333333303,
            "durationTicks": 227,
            "midi": 88,
            "name": "E6",
            "ticks": 96240,
            "time": 108.29666666666667,
            "velocity": 0.7559055118110236
          },
          {
            "duration": 0.3783333333333303,
            "durationTicks": 227,
            "midi": 93,
            "name": "A6",
            "ticks": 96240,
            "time": 108.29666666666667,
            "velocity": 0.7559055118110236
          },
          {
            "duration": 0.3783333333333303,
            "durationTicks": 227,
            "midi": 96,
            "name": "C7",
            "ticks": 96240,
            "time": 108.29666666666667,
            "velocity": 0.7559055118110236
          },
          {
            "duration": 0.3783333333333445,
            "durationTicks": 227,
            "midi": 83,
            "name": "B5",
            "ticks": 96480,
            "time": 108.69666666666666,
            "velocity": 0.7559055118110236
          },
          {
            "duration": 0.3783333333333445,
            "durationTicks": 227,
            "midi": 88,
            "name": "E6",
            "ticks": 96480,
            "time": 108.69666666666666,
            "velocity": 0.7559055118110236
          },
          {
            "duration": 0.3783333333333445,
            "durationTicks": 227,
            "midi": 92,
            "name": "G#6",
            "ticks": 96480,
            "time": 108.69666666666666,
            "velocity": 0.7559055118110236
          },
          {
            "duration": 0.3783333333333445,
            "durationTicks": 227,
            "midi": 95,
            "name": "B6",
            "ticks": 96480,
            "time": 108.69666666666666,
            "velocity": 0.7559055118110236
          },
          {
            "duration": 0.7999999999999972,
            "durationTicks": 480,
            "midi": 76,
            "name": "E5",
            "ticks": 96720,
            "time": 109.09666666666666,
            "velocity": 0.7559055118110236
          },
          {
            "duration": 0.7999999999999972,
            "durationTicks": 480,
            "midi": 80,
            "name": "G#5",
            "ticks": 96720,
            "time": 109.09666666666666,
            "velocity": 0.7559055118110236
          },
          {
            "duration": 1.1383333333333354,
            "durationTicks": 683,
            "midi": 83,
            "name": "B5",
            "ticks": 96720,
            "time": 109.09666666666666,
            "velocity": 0.7559055118110236
          },
          {
            "duration": 1.1383333333333354,
            "durationTicks": 683,
            "midi": 88,
            "name": "E6",
            "ticks": 96720,
            "time": 109.09666666666666,
            "velocity": 0.7559055118110236
          },
          {
            "duration": 0.7583333333333258,
            "durationTicks": 455,
            "midi": 64,
            "name": "E4",
            "ticks": 97440,
            "time": 110.29666666666667,
            "velocity": 0.7559055118110236
          },
          {
            "duration": 0.7583333333333258,
            "durationTicks": 455,
            "midi": 72,
            "name": "C5",
            "ticks": 97440,
            "time": 110.29666666666667,
            "velocity": 0.7559055118110236
          },
          {
            "duration": 0.7583333333333258,
            "durationTicks": 455,
            "midi": 76,
            "name": "E5",
            "ticks": 97440,
            "time": 110.29666666666667,
            "velocity": 0.7559055118110236
          },
          {
            "duration": 0.18833333333333258,
            "durationTicks": 113,
            "midi": 84,
            "name": "C6",
            "ticks": 98040,
            "time": 111.29666666666667,
            "velocity": 0.7559055118110236
          },
          {
            "duration": 0.18833333333333258,
            "durationTicks": 113,
            "midi": 96,
            "name": "C7",
            "ticks": 98040,
            "time": 111.29666666666667,
            "velocity": 0.7559055118110236
          },
          {
            "duration": 0.18833333333333258,
            "durationTicks": 113,
            "midi": 83,
            "name": "B5",
            "ticks": 98160,
            "time": 111.49666666666667,
            "velocity": 0.7559055118110236
          },
          {
            "duration": 0.18833333333333258,
            "durationTicks": 113,
            "midi": 95,
            "name": "B6",
            "ticks": 98160,
            "time": 111.49666666666667,
            "velocity": 0.7559055118110236
          },
          {
            "duration": 0.18833333333333258,
            "durationTicks": 113,
            "midi": 84,
            "name": "C6",
            "ticks": 98280,
            "time": 111.69666666666666,
            "velocity": 0.7559055118110236
          },
          {
            "duration": 0.18833333333333258,
            "durationTicks": 113,
            "midi": 96,
            "name": "C7",
            "ticks": 98280,
            "time": 111.69666666666666,
            "velocity": 0.7559055118110236
          },
          {
            "duration": 0.3783333333333303,
            "durationTicks": 227,
            "midi": 86,
            "name": "D6",
            "ticks": 98400,
            "time": 111.89666666666666,
            "velocity": 0.7559055118110236
          },
          {
            "duration": 0.3783333333333303,
            "durationTicks": 227,
            "midi": 93,
            "name": "A6",
            "ticks": 98400,
            "time": 111.89666666666666,
            "velocity": 0.7559055118110236
          },
          {
            "duration": 0.3783333333333303,
            "durationTicks": 227,
            "midi": 98,
            "name": "D7",
            "ticks": 98400,
            "time": 111.89666666666666,
            "velocity": 0.7559055118110236
          },
          {
            "duration": 0.3783333333333303,
            "durationTicks": 227,
            "midi": 76,
            "name": "E5",
            "ticks": 98640,
            "time": 112.29666666666667,
            "velocity": 0.7559055118110236
          },
          {
            "duration": 0.3783333333333303,
            "durationTicks": 227,
            "midi": 81,
            "name": "A5",
            "ticks": 98640,
            "time": 112.29666666666667,
            "velocity": 0.7559055118110236
          },
          {
            "duration": 0.3783333333333303,
            "durationTicks": 227,
            "midi": 88,
            "name": "E6",
            "ticks": 98640,
            "time": 112.29666666666667,
            "velocity": 0.7559055118110236
          },
          {
            "duration": 0.3783333333333445,
            "durationTicks": 227,
            "midi": 76,
            "name": "E5",
            "ticks": 98880,
            "time": 112.69666666666666,
            "velocity": 0.7559055118110236
          },
          {
            "duration": 0.3783333333333445,
            "durationTicks": 227,
            "midi": 81,
            "name": "A5",
            "ticks": 98880,
            "time": 112.69666666666666,
            "velocity": 0.7559055118110236
          },
          {
            "duration": 0.3783333333333445,
            "durationTicks": 227,
            "midi": 88,
            "name": "E6",
            "ticks": 98880,
            "time": 112.69666666666666,
            "velocity": 0.7559055118110236
          },
          {
            "duration": 0.3783333333333303,
            "durationTicks": 227,
            "midi": 74,
            "name": "D5",
            "ticks": 99120,
            "time": 113.09666666666666,
            "velocity": 0.7559055118110236
          },
          {
            "duration": 0.3783333333333303,
            "durationTicks": 227,
            "midi": 86,
            "name": "D6",
            "ticks": 99120,
            "time": 113.09666666666666,
            "velocity": 0.7559055118110236
          },
          {
            "duration": 0.18833333333333258,
            "durationTicks": 113,
            "midi": 76,
            "name": "E5",
            "ticks": 99360,
            "time": 113.49666666666667,
            "velocity": 0.7559055118110236
          },
          {
            "duration": 0.18833333333333258,
            "durationTicks": 113,
            "midi": 88,
            "name": "E6",
            "ticks": 99360,
            "time": 113.49666666666667,
            "velocity": 0.7559055118110236
          },
          {
            "duration": 0.18833333333333258,
            "durationTicks": 113,
            "midi": 74,
            "name": "D5",
            "ticks": 99480,
            "time": 113.69666666666666,
            "velocity": 0.7559055118110236
          },
          {
            "duration": 0.18833333333333258,
            "durationTicks": 113,
            "midi": 74,
            "name": "D5",
            "ticks": 99600,
            "time": 113.89666666666666,
            "velocity": 0.7559055118110236
          },
          {
            "duration": 0.18833333333333258,
            "durationTicks": 113,
            "midi": 81,
            "name": "A5",
            "ticks": 99600,
            "time": 113.89666666666666,
            "velocity": 0.7559055118110236
          },
          {
            "duration": 0.18833333333333258,
            "durationTicks": 113,
            "midi": 76,
            "name": "E5",
            "ticks": 99720,
            "time": 114.09666666666666,
            "velocity": 0.7559055118110236
          },
          {
            "duration": 0.3783333333333303,
            "durationTicks": 227,
            "midi": 76,
            "name": "E5",
            "ticks": 99840,
            "time": 114.29666666666667,
            "velocity": 0.7559055118110236
          },
          {
            "duration": 0.3783333333333303,
            "durationTicks": 227,
            "midi": 81,
            "name": "A5",
            "ticks": 99840,
            "time": 114.29666666666667,
            "velocity": 0.7559055118110236
          },
          {
            "duration": 0.3783333333333445,
            "durationTicks": 227,
            "midi": 84,
            "name": "C6",
            "ticks": 100080,
            "time": 114.69666666666666,
            "velocity": 0.7559055118110236
          },
          {
            "duration": 0.18833333333333258,
            "durationTicks": 113,
            "midi": 74,
            "name": "D5",
            "ticks": 100320,
            "time": 115.09666666666666,
            "velocity": 0.7559055118110236
          },
          {
            "duration": 0.18833333333333258,
            "durationTicks": 113,
            "midi": 83,
            "name": "B5",
            "ticks": 100320,
            "time": 115.09666666666666,
            "velocity": 0.7559055118110236
          },
          {
            "duration": 0.18833333333333258,
            "durationTicks": 113,
            "midi": 73,
            "name": "C#5",
            "ticks": 100440,
            "time": 115.29666666666667,
            "velocity": 0.7559055118110236
          },
          {
            "duration": 0.18833333333333258,
            "durationTicks": 113,
            "midi": 74,
            "name": "D5",
            "ticks": 100560,
            "time": 115.49666666666667,
            "velocity": 0.7559055118110236
          },
          {
            "duration": 0.18833333333333258,
            "durationTicks": 113,
            "midi": 84,
            "name": "C6",
            "ticks": 100560,
            "time": 115.49666666666667,
            "velocity": 0.7559055118110236
          },
          {
            "duration": 0.18833333333333258,
            "durationTicks": 113,
            "midi": 73,
            "name": "C#5",
            "ticks": 100680,
            "time": 115.69666666666666,
            "velocity": 0.7559055118110236
          },
          {
            "duration": 0.18833333333333258,
            "durationTicks": 113,
            "midi": 79,
            "name": "G5",
            "ticks": 100800,
            "time": 115.89666666666666,
            "velocity": 0.7559055118110236
          },
          {
            "duration": 0.18833333333333258,
            "durationTicks": 113,
            "midi": 72,
            "name": "C5",
            "ticks": 100920,
            "time": 116.09666666666666,
            "velocity": 0.7559055118110236
          },
          {
            "duration": 0.3783333333333303,
            "durationTicks": 227,
            "midi": 73,
            "name": "C#5",
            "ticks": 101040,
            "time": 116.29666666666667,
            "velocity": 0.7401574803149606
          },
          {
            "duration": 0.3783333333333303,
            "durationTicks": 227,
            "midi": 79,
            "name": "G5",
            "ticks": 101040,
            "time": 116.29666666666667,
            "velocity": 0.7401574803149606
          },
          {
            "duration": 0.3783333333333445,
            "durationTicks": 227,
            "midi": 72,
            "name": "C5",
            "ticks": 101280,
            "time": 116.69666666666666,
            "velocity": 0.6929133858267716
          },
          {
            "duration": 0.3783333333333445,
            "durationTicks": 227,
            "midi": 77,
            "name": "F5",
            "ticks": 101280,
            "time": 116.69666666666666,
            "velocity": 0.6929133858267716
          },
          {
            "duration": 0.3783333333333445,
            "durationTicks": 227,
            "midi": 81,
            "name": "A5",
            "ticks": 101280,
            "time": 116.69666666666666,
            "velocity": 0.6929133858267716
          },
          {
            "duration": 0.3783333333333303,
            "durationTicks": 227,
            "midi": 84,
            "name": "C6",
            "ticks": 101520,
            "time": 117.09666666666666,
            "velocity": 0.6456692913385826
          },
          {
            "duration": 0.18833333333333258,
            "durationTicks": 113,
            "midi": 74,
            "name": "D5",
            "ticks": 101760,
            "time": 117.49666666666667,
            "velocity": 0.5984251968503937
          },
          {
            "duration": 0.18833333333333258,
            "durationTicks": 113,
            "midi": 77,
            "name": "F5",
            "ticks": 101760,
            "time": 117.49666666666667,
            "velocity": 0.5984251968503937
          },
          {
            "duration": 0.18833333333333258,
            "durationTicks": 113,
            "midi": 84,
            "name": "C6",
            "ticks": 101760,
            "time": 117.49666666666667,
            "velocity": 0.5984251968503937
          },
          {
            "duration": 0.3783333333333445,
            "durationTicks": 227,
            "midi": 83,
            "name": "B5",
            "ticks": 101880,
            "time": 117.69666666666666,
            "velocity": 0.5748031496062992
          },
          {
            "duration": 0.37666666666666515,
            "durationTicks": 113,
            "midi": 84,
            "name": "C6",
            "ticks": 102120,
            "time": 118.09666666666666,
            "velocity": 0.5275590551181102
          },
          {
            "duration": 1.5183333333333309,
            "durationTicks": 911,
            "midi": 88,
            "name": "E6",
            "ticks": 102240,
            "time": 118.495,
            "velocity": 0.5039370078740157
          },
          {
            "duration": 0.3783333333333445,
            "durationTicks": 227,
            "midi": 83,
            "name": "B5",
            "ticks": 103200,
            "time": 120.095,
            "velocity": 0.5039370078740157
          },
          {
            "duration": 0.3783333333333445,
            "durationTicks": 227,
            "midi": 91,
            "name": "G6",
            "ticks": 103200,
            "time": 120.095,
            "velocity": 0.5039370078740157
          },
          {
            "duration": 0.75833333333334,
            "durationTicks": 455,
            "midi": 81,
            "name": "A5",
            "ticks": 103440,
            "time": 120.495,
            "velocity": 0.5039370078740157
          },
          {
            "duration": 0.75833333333334,
            "durationTicks": 455,
            "midi": 89,
            "name": "F6",
            "ticks": 103440,
            "time": 120.495,
            "velocity": 0.5039370078740157
          },
          {
            "duration": 0.3783333333333445,
            "durationTicks": 227,
            "midi": 88,
            "name": "E6",
            "ticks": 103920,
            "time": 121.295,
            "velocity": 0.5039370078740157
          },
          {
            "duration": 1.1983333333333377,
            "durationTicks": 719,
            "midi": 84,
            "name": "C6",
            "ticks": 104160,
            "time": 121.69500000000001,
            "velocity": 0.5039370078740157
          },
          {
            "duration": 1.1316666666666748,
            "durationTicks": 679,
            "midi": 87,
            "name": "D#6",
            "ticks": 104199,
            "time": 121.76,
            "velocity": 0.5039370078740157
          },
          {
            "duration": 1.065000000000012,
            "durationTicks": 639,
            "midi": 91,
            "name": "G6",
            "ticks": 104239,
            "time": 121.82666666666667,
            "velocity": 0.5039370078740157
          },
          {
            "duration": 0.9983333333333348,
            "durationTicks": 599,
            "midi": 96,
            "name": "C7",
            "ticks": 104279,
            "time": 121.89333333333335,
            "velocity": 0.5039370078740157
          },
          {
            "duration": 0.18833333333333258,
            "durationTicks": 113,
            "midi": 95,
            "name": "B6",
            "ticks": 104880,
            "time": 122.89500000000001,
            "velocity": 0.5039370078740157
          },
          {
            "duration": 0.1883333333333468,
            "durationTicks": 113,
            "midi": 93,
            "name": "A6",
            "ticks": 105000,
            "time": 123.095,
            "velocity": 0.5039370078740157
          },
          {
            "duration": 0.18833333333333258,
            "durationTicks": 113,
            "midi": 83,
            "name": "B5",
            "ticks": 105120,
            "time": 123.295,
            "velocity": 0.5039370078740157
          },
          {
            "duration": 0.18833333333333258,
            "durationTicks": 113,
            "midi": 92,
            "name": "G#6",
            "ticks": 105120,
            "time": 123.295,
            "velocity": 0.5039370078740157
          },
          {
            "duration": 0.18833333333333258,
            "durationTicks": 113,
            "midi": 93,
            "name": "A6",
            "ticks": 105240,
            "time": 123.495,
            "velocity": 0.5039370078740157
          },
          {
            "duration": 0.18833333333333258,
            "durationTicks": 113,
            "midi": 92,
            "name": "G#6",
            "ticks": 105360,
            "time": 123.69500000000001,
            "velocity": 0.5039370078740157
          },
          {
            "duration": 0.18833333333333258,
            "durationTicks": 113,
            "midi": 89,
            "name": "F6",
            "ticks": 105480,
            "time": 123.89500000000001,
            "velocity": 0.5039370078740157
          },
          {
            "duration": 0.1883333333333468,
            "durationTicks": 113,
            "midi": 88,
            "name": "E6",
            "ticks": 105600,
            "time": 124.095,
            "velocity": 0.5039370078740157
          },
          {
            "duration": 0.18833333333333258,
            "durationTicks": 113,
            "midi": 89,
            "name": "F6",
            "ticks": 105720,
            "time": 124.295,
            "velocity": 0.5039370078740157
          },
          {
            "duration": 0.18833333333333258,
            "durationTicks": 113,
            "midi": 88,
            "name": "E6",
            "ticks": 105840,
            "time": 124.495,
            "velocity": 0.5039370078740157
          },
          {
            "duration": 0.18833333333333258,
            "durationTicks": 113,
            "midi": 87,
            "name": "D#6",
            "ticks": 105960,
            "time": 124.69500000000001,
            "velocity": 0.5039370078740157
          },
          {
            "duration": 1.1983333333333235,
            "durationTicks": 719,
            "midi": 82,
            "name": "A#5",
            "ticks": 106080,
            "time": 124.89500000000001,
            "velocity": 0.5039370078740157
          },
          {
            "duration": 1.1316666666666606,
            "durationTicks": 679,
            "midi": 84,
            "name": "C6",
            "ticks": 106119,
            "time": 124.96000000000001,
            "velocity": 0.5039370078740157
          },
          {
            "duration": 1.0649999999999977,
            "durationTicks": 639,
            "midi": 91,
            "name": "G6",
            "ticks": 106159,
            "time": 125.02666666666667,
            "velocity": 0.5039370078740157
          },
          {
            "duration": 0.9983333333333348,
            "durationTicks": 599,
            "midi": 94,
            "name": "A#6",
            "ticks": 106199,
            "time": 125.09333333333333,
            "velocity": 0.5039370078740157
          },
          {
            "duration": 0.1883333333333468,
            "durationTicks": 113,
            "midi": 93,
            "name": "A6",
            "ticks": 106800,
            "time": 126.095,
            "velocity": 0.5039370078740157
          },
          {
            "duration": 0.18833333333333258,
            "durationTicks": 113,
            "midi": 91,
            "name": "G6",
            "ticks": 106920,
            "time": 126.295,
            "velocity": 0.5039370078740157
          },
          {
            "duration": 0.18833333333333258,
            "durationTicks": 113,
            "midi": 81,
            "name": "A5",
            "ticks": 107040,
            "time": 126.495,
            "velocity": 0.5039370078740157
          },
          {
            "duration": 0.18833333333333258,
            "durationTicks": 113,
            "midi": 89,
            "name": "F6",
            "ticks": 107040,
            "time": 126.495,
            "velocity": 0.5039370078740157
          },
          {
            "duration": 0.18833333333333258,
            "durationTicks": 113,
            "midi": 91,
            "name": "G6",
            "ticks": 107160,
            "time": 126.69500000000001,
            "velocity": 0.5039370078740157
          },
          {
            "duration": 0.18833333333333258,
            "durationTicks": 113,
            "midi": 89,
            "name": "F6",
            "ticks": 107280,
            "time": 126.89500000000001,
            "velocity": 0.5039370078740157
          },
          {
            "duration": 0.1883333333333468,
            "durationTicks": 113,
            "midi": 88,
            "name": "E6",
            "ticks": 107400,
            "time": 127.095,
            "velocity": 0.5039370078740157
          },
          {
            "duration": 0.18833333333333258,
            "durationTicks": 113,
            "midi": 86,
            "name": "D6",
            "ticks": 107520,
            "time": 127.295,
            "velocity": 0.5039370078740157
          },
          {
            "duration": 0.18833333333333258,
            "durationTicks": 113,
            "midi": 88,
            "name": "E6",
            "ticks": 107640,
            "time": 127.495,
            "velocity": 0.5039370078740157
          },
          {
            "duration": 0.18833333333333258,
            "durationTicks": 113,
            "midi": 89,
            "name": "F6",
            "ticks": 107760,
            "time": 127.69500000000001,
            "velocity": 0.5039370078740157
          },
          {
            "duration": 0.18833333333333258,
            "durationTicks": 113,
            "midi": 86,
            "name": "D6",
            "ticks": 107880,
            "time": 127.89500000000001,
            "velocity": 0.5039370078740157
          },
          {
            "duration": 0.3783333333333303,
            "durationTicks": 227,
            "midi": 84,
            "name": "C6",
            "ticks": 108000,
            "time": 128.095,
            "velocity": 0.5039370078740157
          },
          {
            "duration": 0.3783333333333303,
            "durationTicks": 227,
            "midi": 88,
            "name": "E6",
            "ticks": 108000,
            "time": 128.095,
            "velocity": 0.5039370078740157
          },
          {
            "duration": 0.3783333333333303,
            "durationTicks": 227,
            "midi": 86,
            "name": "D6",
            "ticks": 108240,
            "time": 128.495,
            "velocity": 0.5039370078740157
          },
          {
            "duration": 0.3783333333333303,
            "durationTicks": 227,
            "midi": 88,
            "name": "E6",
            "ticks": 108480,
            "time": 128.895,
            "velocity": 0.5039370078740157
          },
          {
            "duration": 0.3783333333333303,
            "durationTicks": 227,
            "midi": 72,
            "name": "C5",
            "ticks": 108720,
            "time": 129.29500000000002,
            "velocity": 0.5039370078740157
          },
          {
            "duration": 0.3783333333333303,
            "durationTicks": 227,
            "midi": 81,
            "name": "A5",
            "ticks": 108720,
            "time": 129.29500000000002,
            "velocity": 0.5039370078740157
          },
          {
            "duration": 0.3783333333333587,
            "durationTicks": 227,
            "midi": 71,
            "name": "B4",
            "ticks": 108960,
            "time": 129.695,
            "velocity": 0.5039370078740157
          },
          {
            "duration": 0.3783333333333587,
            "durationTicks": 227,
            "midi": 81,
            "name": "A5",
            "ticks": 108960,
            "time": 129.695,
            "velocity": 0.5039370078740157
          },
          {
            "duration": 0.3783333333333303,
            "durationTicks": 227,
            "midi": 72,
            "name": "C5",
            "ticks": 109200,
            "time": 130.095,
            "velocity": 0.5039370078740157
          },
          {
            "duration": 0.7583333333333258,
            "durationTicks": 455,
            "midi": 74,
            "name": "D5",
            "ticks": 109440,
            "time": 130.495,
            "velocity": 0.5039370078740157
          },
          {
            "duration": 0.7583333333333258,
            "durationTicks": 455,
            "midi": 80,
            "name": "G#5",
            "ticks": 109440,
            "time": 130.495,
            "velocity": 0.5039370078740157
          },
          {
            "duration": 0.8999999999999773,
            "durationTicks": 540,
            "midi": 81,
            "name": "A5",
            "ticks": 109920,
            "time": 131.29500000000002,
            "velocity": 0.5039370078740157
          }
        ],
        "endOfTrackTicks": 110461
      },
      {
        "channel": 0,
        "controlChanges": {
          "64": [
            {
              "number": 64,
              "ticks": 482,
              "time": 0.40166666666666667,
              "value": 1
            },
            {
              "number": 64,
              "ticks": 2401,
              "time": 2.0008333333333335,
              "value": 0
            },
            {
              "number": 64,
              "ticks": 2402,
              "time": 2.0016666666666665,
              "value": 1
            },
            {
              "number": 64,
              "ticks": 4321,
              "time": 3.6008333333333336,
              "value": 0
            },
            {
              "number": 64,
              "ticks": 4322,
              "time": 3.6016666666666666,
              "value": 1
            },
            {
              "number": 64,
              "ticks": 6241,
              "time": 5.200833333333334,
              "value": 0
            },
            {
              "number": 64,
              "ticks": 6242,
              "time": 5.201666666666667,
              "value": 1
            },
            {
              "number": 64,
              "ticks": 8161,
              "time": 6.800833333333334,
              "value": 0
            },
            {
              "number": 64,
              "ticks": 8162,
              "time": 6.801666666666667,
              "value": 1
            },
            {
              "number": 64,
              "ticks": 10081,
              "time": 8.400833333333335,
              "value": 0
            },
            {
              "number": 64,
              "ticks": 10082,
              "time": 8.401666666666667,
              "value": 1
            },
            {
              "number": 64,
              "ticks": 12001,
              "time": 10.000833333333334,
              "value": 0
            },
            {
              "number": 64,
              "ticks": 12002,
              "time": 10.001666666666667,
              "value": 1
            },
            {
              "number": 64,
              "ticks": 12961,
              "time": 10.800833333333335,
              "value": 0
            },
            {
              "number": 64,
              "ticks": 12962,
              "time": 10.801666666666668,
              "value": 1
            },
            {
              "number": 64,
              "ticks": 13441,
              "time": 11.200833333333335,
              "value": 0
            },
            {
              "number": 64,
              "ticks": 13442,
              "time": 11.201666666666668,
              "value": 1
            },
            {
              "number": 64,
              "ticks": 13921,
              "time": 11.600833333333334,
              "value": 0
            },
            {
              "number": 64,
              "ticks": 13922,
              "time": 11.601666666666667,
              "value": 1
            },
            {
              "number": 64,
              "ticks": 14881,
              "time": 12.400833333333335,
              "value": 0
            },
            {
              "number": 64,
              "ticks": 15362,
              "time": 12.80166666666667,
              "value": 1
            },
            {
              "number": 64,
              "ticks": 15841,
              "time": 13.200833333333334,
              "value": 0
            },
            {
              "number": 64,
              "ticks": 15842,
              "time": 13.201666666666668,
              "value": 1
            },
            {
              "number": 64,
              "ticks": 17761,
              "time": 14.800833333333333,
              "value": 0
            },
            {
              "number": 64,
              "ticks": 17762,
              "time": 14.80166666666667,
              "value": 1
            },
            {
              "number": 64,
              "ticks": 19681,
              "time": 16.400833333333335,
              "value": 0
            },
            {
              "number": 64,
              "ticks": 19682,
              "time": 16.401666666666667,
              "value": 1
            },
            {
              "number": 64,
              "ticks": 21601,
              "time": 18.000833333333333,
              "value": 0
            },
            {
              "number": 64,
              "ticks": 21602,
              "time": 18.00166666666667,
              "value": 1
            },
            {
              "number": 64,
              "ticks": 23521,
              "time": 19.600833333333334,
              "value": 0
            },
            {
              "number": 64,
              "ticks": 23522,
              "time": 19.60166666666667,
              "value": 1
            },
            {
              "number": 64,
              "ticks": 25441,
              "time": 21.200833333333335,
              "value": 0
            },
            {
              "number": 64,
              "ticks": 25442,
              "time": 21.201666666666668,
              "value": 1
            },
            {
              "number": 64,
              "ticks": 27361,
              "time": 22.800833333333333,
              "value": 0
            },
            {
              "number": 64,
              "ticks": 27362,
              "time": 22.80166666666667,
              "value": 1
            },
            {
              "number": 64,
              "ticks": 29281,
              "time": 24.400833333333335,
              "value": 0
            },
            {
              "number": 64,
              "ticks": 29282,
              "time": 24.40166666666667,
              "value": 1
            },
            {
              "number": 64,
              "ticks": 31201,
              "time": 26.001666666666665,
              "value": 0
            },
            {
              "number": 64,
              "ticks": 31202,
              "time": 26.003333333333334,
              "value": 1
            },
            {
              "number": 64,
              "ticks": 32161,
              "time": 27.601666666666667,
              "value": 0
            },
            {
              "number": 64,
              "ticks": 32162,
              "time": 27.60333333333333,
              "value": 1
            },
            {
              "number": 64,
              "ticks": 33121,
              "time": 29.201666666666668,
              "value": 0
            },
            {
              "number": 64,
              "ticks": 33122,
              "time": 29.203333333333333,
              "value": 1
            },
            {
              "number": 64,
              "ticks": 34081,
              "time": 30.801666666666666,
              "value": 0
            },
            {
              "number": 64,
              "ticks": 34082,
              "time": 30.803333333333335,
              "value": 1
            },
            {
              "number": 64,
              "ticks": 35041,
              "time": 32.40166666666667,
              "value": 0
            },
            {
              "number": 64,
              "ticks": 35042,
              "time": 32.403333333333336,
              "value": 1
            },
            {
              "number": 64,
              "ticks": 36001,
              "time": 34.001666666666665,
              "value": 0
            },
            {
              "number": 64,
              "ticks": 36002,
              "time": 34.00333333333333,
              "value": 1
            },
            {
              "number": 64,
              "ticks": 36481,
              "time": 34.80166666666667,
              "value": 0
            },
            {
              "number": 64,
              "ticks": 36482,
              "time": 34.803333333333335,
              "value": 1
            },
            {
              "number": 64,
              "ticks": 36961,
              "time": 35.60166666666667,
              "value": 0
            },
            {
              "number": 64,
              "ticks": 36962,
              "time": 35.60333333333333,
              "value": 1
            },
            {
              "number": 64,
              "ticks": 37441,
              "time": 36.40166666666667,
              "value": 0
            },
            {
              "number": 64,
              "ticks": 37442,
              "time": 36.403333333333336,
              "value": 1
            },
            {
              "number": 64,
              "ticks": 37921,
              "time": 37.4,
              "value": 0
            },
            {
              "number": 64,
              "ticks": 48482,
              "time": 55.001666666666665,
              "value": 1
            },
            {
              "number": 64,
              "ticks": 50401,
              "time": 58.2,
              "value": 0
            },
            {
              "number": 64,
              "ticks": 50402,
              "time": 58.20166666666667,
              "value": 1
            },
            {
              "number": 64,
              "ticks": 51361,
              "time": 59.800000000000004,
              "value": 0
            },
            {
              "number": 64,
              "ticks": 51362,
              "time": 59.80166666666667,
              "value": 1
            },
            {
              "number": 64,
              "ticks": 51841,
              "time": 60.6,
              "value": 0
            },
            {
              "number": 64,
              "ticks": 51842,
              "time": 60.601666666666674,
              "value": 1
            },
            {
              "number": 64,
              "ticks": 52321,
              "time": 61.400000000000006,
              "value": 0
            },
            {
              "number": 64,
              "ticks": 55682,
              "time": 67.00166666666667,
              "value": 1
            },
            {
              "number": 64,
              "ticks": 56161,
              "time": 67.99833333333333,
              "value": 0
            },
            {
              "number": 64,
              "ticks": 56162,
              "time": 68,
              "value": 1
            },
            {
              "number": 64,
              "ticks": 57601,
              "time": 70.39833333333334,
              "value": 0
            },
            {
              "number": 64,
              "ticks": 57602,
              "time": 70.4,
              "value": 1
            },
            {
              "number": 64,
              "ticks": 59041,
              "time": 72.79833333333333,
              "value": 0
            },
            {
              "number": 64,
              "ticks": 59042,
              "time": 72.80000000000001,
              "value": 1
            },
            {
              "number": 64,
              "ticks": 60481,
              "time": 75.19791666666667,
              "value": 0
            },
            {
              "number": 64,
              "ticks": 60482,
              "time": 75.19916666666667,
              "value": 1
            },
            {
              "number": 64,
              "ticks": 62641,
              "time": 77.89833333333334,
              "value": 0
            },
            {
              "number": 64,
              "ticks": 62642,
              "time": 77.9,
              "value": 1
            },
            {
              "number": 64,
              "ticks": 64801,
              "time": 81.4975,
              "value": 0
            },
            {
              "number": 64,
              "ticks": 64802,
              "time": 81.49833333333333,
              "value": 1
            },
            {
              "number": 64,
              "ticks": 66721,
              "time": 83.0975,
              "value": 0
            },
            {
              "number": 64,
              "ticks": 66722,
              "time": 83.09833333333333,
              "value": 1
            },
            {
              "number": 64,
              "ticks": 68641,
              "time": 84.6975,
              "value": 0
            },
            {
              "number": 64,
              "ticks": 68642,
              "time": 84.69833333333334,
              "value": 1
            },
            {
              "number": 64,
              "ticks": 70561,
              "time": 86.2975,
              "value": 0
            },
            {
              "number": 64,
              "ticks": 70562,
              "time": 86.29833333333333,
              "value": 1
            },
            {
              "number": 64,
              "ticks": 72481,
              "time": 87.89750000000001,
              "value": 0
            },
            {
              "number": 64,
              "ticks": 72482,
              "time": 87.89833333333334,
              "value": 1
            },
            {
              "number": 64,
              "ticks": 74401,
              "time": 89.4975,
              "value": 0
            },
            {
              "number": 64,
              "ticks": 74402,
              "time": 89.49833333333333,
              "value": 1
            },
            {
              "number": 64,
              "ticks": 76321,
              "time": 91.0975,
              "value": 0
            },
            {
              "number": 64,
              "ticks": 76322,
              "time": 91.09833333333333,
              "value": 1
            },
            {
              "number": 64,
              "ticks": 78241,
              "time": 92.6975,
              "value": 0
            },
            {
              "number": 64,
              "ticks": 78242,
              "time": 92.69833333333334,
              "value": 1
            },
            {
              "number": 64,
              "ticks": 80161,
              "time": 94.2975,
              "value": 0
            },
            {
              "number": 64,
              "ticks": 80162,
              "time": 94.29833333333335,
              "value": 1
            },
            {
              "number": 64,
              "ticks": 82081,
              "time": 95.89750000000001,
              "value": 0
            },
            {
              "number": 64,
              "ticks": 82082,
              "time": 95.89833333333334,
              "value": 1
            },
            {
              "number": 64,
              "ticks": 84001,
              "time": 97.4975,
              "value": 0
            },
            {
              "number": 64,
              "ticks": 84002,
              "time": 97.49833333333333,
              "value": 1
            },
            {
              "number": 64,
              "ticks": 85921,
              "time": 99.0975,
              "value": 0
            },
            {
              "number": 64,
              "ticks": 85922,
              "time": 99.09833333333334,
              "value": 1
            },
            {
              "number": 64,
              "ticks": 87841,
              "time": 100.6975,
              "value": 0
            },
            {
              "number": 64,
              "ticks": 87842,
              "time": 100.69833333333334,
              "value": 1
            },
            {
              "number": 64,
              "ticks": 89761,
              "time": 102.2975,
              "value": 0
            },
            {
              "number": 64,
              "ticks": 89762,
              "time": 102.29833333333335,
              "value": 1
            },
            {
              "number": 64,
              "ticks": 91681,
              "time": 103.89750000000001,
              "value": 0
            },
            {
              "number": 64,
              "ticks": 91682,
              "time": 103.89833333333334,
              "value": 1
            },
            {
              "number": 64,
              "ticks": 93601,
              "time": 105.4975,
              "value": 0
            },
            {
              "number": 64,
              "ticks": 93602,
              "time": 105.49833333333333,
              "value": 1
            },
            {
              "number": 64,
              "ticks": 95521,
              "time": 107.09833333333333,
              "value": 0
            },
            {
              "number": 64,
              "ticks": 95522,
              "time": 107.1,
              "value": 1
            },
            {
              "number": 64,
              "ticks": 96481,
              "time": 108.69833333333332,
              "value": 0
            },
            {
              "number": 64,
              "ticks": 96482,
              "time": 108.7,
              "value": 1
            },
            {
              "number": 64,
              "ticks": 97441,
              "time": 110.29833333333333,
              "value": 0
            },
            {
              "number": 64,
              "ticks": 97442,
              "time": 110.3,
              "value": 1
            },
            {
              "number": 64,
              "ticks": 98401,
              "time": 111.89833333333333,
              "value": 0
            },
            {
              "number": 64,
              "ticks": 98402,
              "time": 111.89999999999999,
              "value": 1
            },
            {
              "number": 64,
              "ticks": 99361,
              "time": 113.49833333333333,
              "value": 0
            },
            {
              "number": 64,
              "ticks": 99362,
              "time": 113.5,
              "value": 1
            },
            {
              "number": 64,
              "ticks": 100321,
              "time": 115.09833333333333,
              "value": 0
            },
            {
              "number": 64,
              "ticks": 100322,
              "time": 115.1,
              "value": 1
            },
            {
              "number": 64,
              "ticks": 100801,
              "time": 115.89833333333333,
              "value": 0
            },
            {
              "number": 64,
              "ticks": 100802,
              "time": 115.89999999999999,
              "value": 1
            },
            {
              "number": 64,
              "ticks": 101281,
              "time": 116.69833333333332,
              "value": 0
            },
            {
              "number": 64,
              "ticks": 101282,
              "time": 116.7,
              "value": 1
            },
            {
              "number": 64,
              "ticks": 101761,
              "time": 117.49833333333333,
              "value": 0
            },
            {
              "number": 64,
              "ticks": 101762,
              "time": 117.5,
              "value": 1
            },
            {
              "number": 64,
              "ticks": 102241,
              "time": 118.49666666666667,
              "value": 0
            },
            {
              "number": 64,
              "ticks": 102242,
              "time": 118.49833333333333,
              "value": 1
            },
            {
              "number": 64,
              "ticks": 103201,
              "time": 120.09666666666668,
              "value": 0
            },
            {
              "number": 64,
              "ticks": 103202,
              "time": 120.09833333333334,
              "value": 1
            },
            {
              "number": 64,
              "ticks": 104161,
              "time": 121.69666666666667,
              "value": 0
            },
            {
              "number": 64,
              "ticks": 104162,
              "time": 121.69833333333334,
              "value": 1
            },
            {
              "number": 64,
              "ticks": 105121,
              "time": 123.29666666666667,
              "value": 0
            },
            {
              "number": 64,
              "ticks": 105122,
              "time": 123.29833333333335,
              "value": 1
            },
            {
              "number": 64,
              "ticks": 106081,
              "time": 124.89666666666668,
              "value": 0
            },
            {
              "number": 64,
              "ticks": 106082,
              "time": 124.89833333333334,
              "value": 1
            },
            {
              "number": 64,
              "ticks": 107041,
              "time": 126.49666666666667,
              "value": 0
            },
            {
              "number": 64,
              "ticks": 107042,
              "time": 126.49833333333333,
              "value": 1
            },
            {
              "number": 64,
              "ticks": 108001,
              "time": 128.09666666666666,
              "value": 0
            },
            {
              "number": 64,
              "ticks": 108002,
              "time": 128.09833333333333,
              "value": 1
            },
            {
              "number": 64,
              "ticks": 108961,
              "time": 129.69666666666666,
              "value": 0
            },
            {
              "number": 64,
              "ticks": 108962,
              "time": 129.69833333333335,
              "value": 1
            },
            {
              "number": 64,
              "ticks": 109921,
              "time": 131.29666666666668,
              "value": 0
            },
            {
              "number": 64,
              "ticks": 109922,
              "time": 131.29833333333335,
              "value": 1
            },
            {
              "number": 64,
              "ticks": 111841,
              "time": 134.49666666666667,
              "value": 0
            }
          ]
        },
        "pitchBends": [],
        "instrument": {
          "family": "piano",
          "number": 0,
          "name": "acoustic grand piano"
        },
        "name": "Piano",
        "notes": [
          {
            "duration": 0.37916666666666676,
            "durationTicks": 455,
            "midi": 24,
            "name": "C1",
            "ticks": 480,
            "time": 0.4,
            "velocity": 0.6299212598425197
          },
          {
            "duration": 0.37916666666666676,
            "durationTicks": 455,
            "midi": 36,
            "name": "C2",
            "ticks": 480,
            "time": 0.4,
            "velocity": 0.6299212598425197
          },
          {
            "duration": 0.39916666666666667,
            "durationTicks": 479,
            "midi": 48,
            "name": "C3",
            "ticks": 960,
            "time": 0.8,
            "velocity": 0.6299212598425197
          },
          {
            "duration": 0.3324999999999999,
            "durationTicks": 399,
            "midi": 55,
            "name": "G3",
            "ticks": 1039,
            "time": 0.8658333333333333,
            "velocity": 0.6299212598425197
          },
          {
            "duration": 0.26583333333333325,
            "durationTicks": 319,
            "midi": 63,
            "name": "D#4",
            "ticks": 1119,
            "time": 0.9325,
            "velocity": 0.6299212598425197
          },
          {
            "duration": 0.12583333333333324,
            "durationTicks": 151,
            "midi": 63,
            "name": "D#4",
            "ticks": 1440,
            "time": 1.2000000000000002,
            "velocity": 0.6299212598425197
          },
          {
            "duration": 0.12583333333333324,
            "durationTicks": 151,
            "midi": 67,
            "name": "G4",
            "ticks": 1440,
            "time": 1.2000000000000002,
            "velocity": 0.6299212598425197
          },
          {
            "duration": 0.12583333333333324,
            "durationTicks": 151,
            "midi": 60,
            "name": "C4",
            "ticks": 1600,
            "time": 1.3333333333333335,
            "velocity": 0.6299212598425197
          },
          {
            "duration": 0.12583333333333346,
            "durationTicks": 151,
            "midi": 55,
            "name": "G3",
            "ticks": 1760,
            "time": 1.4666666666666668,
            "velocity": 0.6299212598425197
          },
          {
            "duration": 0.12583333333333324,
            "durationTicks": 151,
            "midi": 51,
            "name": "D#3",
            "ticks": 1920,
            "time": 1.6,
            "velocity": 0.6299212598425197
          },
          {
            "duration": 0.12583333333333324,
            "durationTicks": 151,
            "midi": 55,
            "name": "G3",
            "ticks": 1920,
            "time": 1.6,
            "velocity": 0.6299212598425197
          },
          {
            "duration": 0.12583333333333324,
            "durationTicks": 151,
            "midi": 48,
            "name": "C3",
            "ticks": 2080,
            "time": 1.7333333333333334,
            "velocity": 0.6299212598425197
          },
          {
            "duration": 0.12583333333333324,
            "durationTicks": 151,
            "midi": 43,
            "name": "G2",
            "ticks": 2240,
            "time": 1.866666666666667,
            "velocity": 0.6299212598425197
          },
          {
            "duration": 0.3791666666666669,
            "durationTicks": 455,
            "midi": 31,
            "name": "G1",
            "ticks": 2400,
            "time": 2,
            "velocity": 0.6299212598425197
          },
          {
            "duration": 0.3791666666666669,
            "durationTicks": 455,
            "midi": 43,
            "name": "G2",
            "ticks": 2400,
            "time": 2,
            "velocity": 0.6299212598425197
          },
          {
            "duration": 0.39916666666666645,
            "durationTicks": 479,
            "midi": 55,
            "name": "G3",
            "ticks": 2880,
            "time": 2.4000000000000004,
            "velocity": 0.6299212598425197
          },
          {
            "duration": 0.3325,
            "durationTicks": 399,
            "midi": 58,
            "name": "A#3",
            "ticks": 2959,
            "time": 2.4658333333333338,
            "velocity": 0.6299212598425197
          },
          {
            "duration": 0.2658333333333336,
            "durationTicks": 319,
            "midi": 62,
            "name": "D4",
            "ticks": 3039,
            "time": 2.5325,
            "velocity": 0.6299212598425197
          },
          {
            "duration": 0.12583333333333302,
            "durationTicks": 151,
            "midi": 67,
            "name": "G4",
            "ticks": 3360,
            "time": 2.8000000000000003,
            "velocity": 0.6299212598425197
          },
          {
            "duration": 0.12583333333333302,
            "durationTicks": 151,
            "midi": 70,
            "name": "A#4",
            "ticks": 3360,
            "time": 2.8000000000000003,
            "velocity": 0.6299212598425197
          },
          {
            "duration": 0.12583333333333302,
            "durationTicks": 151,
            "midi": 62,
            "name": "D4",
            "ticks": 3520,
            "time": 2.9333333333333336,
            "velocity": 0.6299212598425197
          },
          {
            "duration": 0.12583333333333346,
            "durationTicks": 151,
            "midi": 58,
            "name": "A#3",
            "ticks": 3680,
            "time": 3.066666666666667,
            "velocity": 0.6299212598425197
          },
          {
            "duration": 0.12583333333333346,
            "durationTicks": 151,
            "midi": 55,
            "name": "G3",
            "ticks": 3840,
            "time": 3.2,
            "velocity": 0.6299212598425197
          },
          {
            "duration": 0.12583333333333346,
            "durationTicks": 151,
            "midi": 58,
            "name": "A#3",
            "ticks": 3840,
            "time": 3.2,
            "velocity": 0.6299212598425197
          },
          {
            "duration": 0.12583333333333302,
            "durationTicks": 151,
            "midi": 50,
            "name": "D3",
            "ticks": 4000,
            "time": 3.333333333333334,
            "velocity": 0.6299212598425197
          },
          {
            "duration": 0.12583333333333302,
            "durationTicks": 151,
            "midi": 46,
            "name": "A#2",
            "ticks": 4160,
            "time": 3.466666666666667,
            "velocity": 0.6299212598425197
          },
          {
            "duration": 0.37916666666666643,
            "durationTicks": 455,
            "midi": 32,
            "name": "G#1",
            "ticks": 4320,
            "time": 3.6,
            "velocity": 0.6299212598425197
          },
          {
            "duration": 0.37916666666666643,
            "durationTicks": 455,
            "midi": 44,
            "name": "G#2",
            "ticks": 4320,
            "time": 3.6,
            "velocity": 0.6299212598425197
          },
          {
            "duration": 0.12583333333333346,
            "durationTicks": 151,
            "midi": 68,
            "name": "G#4",
            "ticks": 4800,
            "time": 4,
            "velocity": 0.6299212598425197
          },
          {
            "duration": 0.12583333333333346,
            "durationTicks": 151,
            "midi": 72,
            "name": "C5",
            "ticks": 4800,
            "time": 4,
            "velocity": 0.6299212598425197
          },
          {
            "duration": 0.12583333333333346,
            "durationTicks": 151,
            "midi": 63,
            "name": "D#4",
            "ticks": 4960,
            "time": 4.133333333333334,
            "velocity": 0.6299212598425197
          },
          {
            "duration": 0.12583333333333346,
            "durationTicks": 151,
            "midi": 60,
            "name": "C4",
            "ticks": 5120,
            "time": 4.266666666666667,
            "velocity": 0.6299212598425197
          },
          {
            "duration": 0.12583333333333346,
            "durationTicks": 151,
            "midi": 68,
            "name": "G#4",
            "ticks": 5280,
            "time": 4.4,
            "velocity": 0.6299212598425197
          },
          {
            "duration": 0.12583333333333346,
            "durationTicks": 151,
            "midi": 74,
            "name": "D5",
            "ticks": 5280,
            "time": 4.4,
            "velocity": 0.6299212598425197
          },
          {
            "duration": 0.12583333333333258,
            "durationTicks": 151,
            "midi": 63,
            "name": "D#4",
            "ticks": 5440,
            "time": 4.533333333333334,
            "velocity": 0.6299212598425197
          },
          {
            "duration": 0.12583333333333258,
            "durationTicks": 151,
            "midi": 62,
            "name": "D4",
            "ticks": 5600,
            "time": 4.666666666666667,
            "velocity": 0.6299212598425197
          },
          {
            "duration": 0.12583333333333258,
            "durationTicks": 151,
            "midi": 51,
            "name": "D#3",
            "ticks": 5760,
            "time": 4.800000000000001,
            "velocity": 0.6299212598425197
          },
          {
            "duration": 0.12583333333333346,
            "durationTicks": 151,
            "midi": 44,
            "name": "G#2",
            "ticks": 5920,
            "time": 4.933333333333334,
            "velocity": 0.6299212598425197
          },
          {
            "duration": 0.12583333333333346,
            "durationTicks": 151,
            "midi": 39,
            "name": "D#2",
            "ticks": 6080,
            "time": 5.066666666666666,
            "velocity": 0.6299212598425197
          },
          {
            "duration": 0.37916666666666643,
            "durationTicks": 455,
            "midi": 27,
            "name": "D#1",
            "ticks": 6240,
            "time": 5.2,
            "velocity": 0.6299212598425197
          },
          {
            "duration": 0.37916666666666643,
            "durationTicks": 455,
            "midi": 39,
            "name": "D#2",
            "ticks": 6240,
            "time": 5.2,
            "velocity": 0.6299212598425197
          },
          {
            "duration": 0.3991666666666669,
            "durationTicks": 479,
            "midi": 46,
            "name": "A#2",
            "ticks": 6720,
            "time": 5.6000000000000005,
            "velocity": 0.6299212598425197
          },
          {
            "duration": 0.33250000000000046,
            "durationTicks": 399,
            "midi": 51,
            "name": "D#3",
            "ticks": 6799,
            "time": 5.6658333333333335,
            "velocity": 0.6299212598425197
          },
          {
            "duration": 0.26583333333333314,
            "durationTicks": 319,
            "midi": 55,
            "name": "G3",
            "ticks": 6879,
            "time": 5.732500000000001,
            "velocity": 0.6299212598425197
          },
          {
            "duration": 0.19916666666666671,
            "durationTicks": 239,
            "midi": 58,
            "name": "A#3",
            "ticks": 6960,
            "time": 5.800000000000001,
            "velocity": 0.6299212598425197
          },
          {
            "duration": 0.12583333333333435,
            "durationTicks": 151,
            "midi": 55,
            "name": "G3",
            "ticks": 7680,
            "time": 6.4,
            "velocity": 0.6299212598425197
          },
          {
            "duration": 0.12583333333333435,
            "durationTicks": 151,
            "midi": 58,
            "name": "A#3",
            "ticks": 7680,
            "time": 6.4,
            "velocity": 0.6299212598425197
          },
          {
            "duration": 0.12583333333333435,
            "durationTicks": 151,
            "midi": 51,
            "name": "D#3",
            "ticks": 7840,
            "time": 6.533333333333333,
            "velocity": 0.6299212598425197
          },
          {
            "duration": 0.12583333333333258,
            "durationTicks": 151,
            "midi": 46,
            "name": "A#2",
            "ticks": 8000,
            "time": 6.666666666666668,
            "velocity": 0.6299212598425197
          },
          {
            "duration": 0.37916666666666643,
            "durationTicks": 455,
            "midi": 32,
            "name": "G#1",
            "ticks": 8160,
            "time": 6.800000000000001,
            "velocity": 0.6299212598425197
          },
          {
            "duration": 0.37916666666666643,
            "durationTicks": 455,
            "midi": 44,
            "name": "G#2",
            "ticks": 8160,
            "time": 6.800000000000001,
            "velocity": 0.6299212598425197
          },
          {
            "duration": 0.12583333333333346,
            "durationTicks": 151,
            "midi": 51,
            "name": "D#3",
            "ticks": 9120,
            "time": 7.6000000000000005,
            "velocity": 0.6299212598425197
          },
          {
            "duration": 0.12583333333333346,
            "durationTicks": 151,
            "midi": 56,
            "name": "G#3",
            "ticks": 9120,
            "time": 7.6000000000000005,
            "velocity": 0.6299212598425197
          },
          {
            "duration": 0.12583333333333346,
            "durationTicks": 151,
            "midi": 48,
            "name": "C3",
            "ticks": 9280,
            "time": 7.733333333333333,
            "velocity": 0.6299212598425197
          },
          {
            "duration": 0.12583333333333258,
            "durationTicks": 151,
            "midi": 44,
            "name": "G#2",
            "ticks": 9440,
            "time": 7.866666666666667,
            "velocity": 0.6299212598425197
          },
          {
            "duration": 0.12583333333333435,
            "durationTicks": 151,
            "midi": 56,
            "name": "G#3",
            "ticks": 9600,
            "time": 8,
            "velocity": 0.6299212598425197
          },
          {
            "duration": 0.12583333333333435,
            "durationTicks": 151,
            "midi": 60,
            "name": "C4",
            "ticks": 9600,
            "time": 8,
            "velocity": 0.6299212598425197
          },
          {
            "duration": 0.12583333333333435,
            "durationTicks": 151,
            "midi": 51,
            "name": "D#3",
            "ticks": 9760,
            "time": 8.133333333333333,
            "velocity": 0.6299212598425197
          },
          {
            "duration": 0.12583333333333258,
            "durationTicks": 151,
            "midi": 48,
            "name": "C3",
            "ticks": 9920,
            "time": 8.266666666666667,
            "velocity": 0.6299212598425197
          },
          {
            "duration": 0.37916666666666643,
            "durationTicks": 455,
            "midi": 31,
            "name": "G1",
            "ticks": 10080,
            "time": 8.4,
            "velocity": 0.6299212598425197
          },
          {
            "duration": 0.37916666666666643,
            "durationTicks": 455,
            "midi": 43,
            "name": "G2",
            "ticks": 10080,
            "time": 8.4,
            "velocity": 0.6299212598425197
          },
          {
            "duration": 0.12583333333333435,
            "durationTicks": 151,
            "midi": 55,
            "name": "G3",
            "ticks": 10560,
            "time": 8.8,
            "velocity": 0.6299212598425197
          },
          {
            "duration": 0.12583333333333435,
            "durationTicks": 151,
            "midi": 58,
            "name": "A#3",
            "ticks": 10560,
            "time": 8.8,
            "velocity": 0.6299212598425197
          },
          {
            "duration": 0.12583333333333435,
            "durationTicks": 151,
            "midi": 51,
            "name": "D#3",
            "ticks": 10720,
            "time": 8.933333333333334,
            "velocity": 0.6299212598425197
          },
          {
            "duration": 0.12583333333333258,
            "durationTicks": 151,
            "midi": 46,
            "name": "A#2",
            "ticks": 10880,
            "time": 9.066666666666668,
            "velocity": 0.6299212598425197
          },
          {
            "duration": 0.12583333333333258,
            "durationTicks": 151,
            "midi": 58,
            "name": "A#3",
            "ticks": 11040,
            "time": 9.200000000000001,
            "velocity": 0.6299212598425197
          },
          {
            "duration": 0.12583333333333258,
            "durationTicks": 151,
            "midi": 63,
            "name": "D#4",
            "ticks": 11040,
            "time": 9.200000000000001,
            "velocity": 0.6299212598425197
          },
          {
            "duration": 0.12583333333333258,
            "durationTicks": 151,
            "midi": 55,
            "name": "G3",
            "ticks": 11200,
            "time": 9.333333333333334,
            "velocity": 0.6299212598425197
          },
          {
            "duration": 0.12583333333333258,
            "durationTicks": 151,
            "midi": 51,
            "name": "D#3",
            "ticks": 11360,
            "time": 9.466666666666667,
            "velocity": 0.6299212598425197
          },
          {
            "duration": 0.12583333333333258,
            "durationTicks": 151,
            "midi": 63,
            "name": "D#4",
            "ticks": 11520,
            "time": 9.600000000000001,
            "velocity": 0.6299212598425197
          },
          {
            "duration": 0.12583333333333258,
            "durationTicks": 151,
            "midi": 67,
            "name": "G4",
            "ticks": 11520,
            "time": 9.600000000000001,
            "velocity": 0.6299212598425197
          },
          {
            "duration": 0.12583333333333258,
            "durationTicks": 151,
            "midi": 58,
            "name": "A#3",
            "ticks": 11680,
            "time": 9.733333333333334,
            "velocity": 0.6299212598425197
          },
          {
            "duration": 0.12583333333333258,
            "durationTicks": 151,
            "midi": 55,
            "name": "G3",
            "ticks": 11840,
            "time": 9.866666666666667,
            "velocity": 0.6299212598425197
          },
          {
            "duration": 0.3791666666666682,
            "durationTicks": 455,
            "midi": 29,
            "name": "F1",
            "ticks": 12000,
            "time": 10,
            "velocity": 0.6299212598425197
          },
          {
            "duration": 0.3791666666666682,
            "durationTicks": 455,
            "midi": 41,
            "name": "F2",
            "ticks": 12000,
            "time": 10,
            "velocity": 0.6299212598425197
          },
          {
            "duration": 0.3791666666666682,
            "durationTicks": 455,
            "midi": 48,
            "name": "C3",
            "ticks": 12480,
            "time": 10.4,
            "velocity": 0.6299212598425197
          },
          {
            "duration": 0.3791666666666682,
            "durationTicks": 455,
            "midi": 53,
            "name": "F3",
            "ticks": 12480,
            "time": 10.4,
            "velocity": 0.6299212598425197
          },
          {
            "duration": 0.12583333333333435,
            "durationTicks": 151,
            "midi": 57,
            "name": "A3",
            "ticks": 12960,
            "time": 10.8,
            "velocity": 0.6299212598425197
          },
          {
            "duration": 0.12583333333333435,
            "durationTicks": 151,
            "midi": 53,
            "name": "F3",
            "ticks": 13120,
            "time": 10.933333333333334,
            "velocity": 0.6299212598425197
          },
          {
            "duration": 0.12583333333333258,
            "durationTicks": 151,
            "midi": 50,
            "name": "D3",
            "ticks": 13280,
            "time": 11.066666666666668,
            "velocity": 0.6299212598425197
          },
          {
            "duration": 0.12583333333333435,
            "durationTicks": 151,
            "midi": 53,
            "name": "F3",
            "ticks": 13440,
            "time": 11.200000000000001,
            "velocity": 0.6299212598425197
          },
          {
            "duration": 0.12583333333333435,
            "durationTicks": 151,
            "midi": 57,
            "name": "A3",
            "ticks": 13440,
            "time": 11.200000000000001,
            "velocity": 0.6299212598425197
          },
          {
            "duration": 0.12583333333333435,
            "durationTicks": 151,
            "midi": 48,
            "name": "C3",
            "ticks": 13600,
            "time": 11.333333333333334,
            "velocity": 0.6299212598425197
          },
          {
            "duration": 0.12583333333333258,
            "durationTicks": 151,
            "midi": 45,
            "name": "A2",
            "ticks": 13760,
            "time": 11.466666666666669,
            "velocity": 0.6299212598425197
          },
          {
            "duration": 0.37916666666666643,
            "durationTicks": 455,
            "midi": 31,
            "name": "G1",
            "ticks": 13920,
            "time": 11.600000000000001,
            "velocity": 0.6299212598425197
          },
          {
            "duration": 0.37916666666666643,
            "durationTicks": 455,
            "midi": 43,
            "name": "G2",
            "ticks": 13920,
            "time": 11.600000000000001,
            "velocity": 0.6299212598425197
          },
          {
            "duration": 0.12583333333333435,
            "durationTicks": 151,
            "midi": 56,
            "name": "G#3",
            "ticks": 14400,
            "time": 12,
            "velocity": 0.6299212598425197
          },
          {
            "duration": 0.12583333333333435,
            "durationTicks": 151,
            "midi": 60,
            "name": "C4",
            "ticks": 14400,
            "time": 12,
            "velocity": 0.6299212598425197
          },
          {
            "duration": 0.12583333333333435,
            "durationTicks": 151,
            "midi": 53,
            "name": "F3",
            "ticks": 14560,
            "time": 12.133333333333333,
            "velocity": 0.6299212598425197
          },
          {
            "duration": 0.12583333333333258,
            "durationTicks": 151,
            "midi": 48,
            "name": "C3",
            "ticks": 14720,
            "time": 12.266666666666667,
            "velocity": 0.6299212598425197
          },
          {
            "duration": 0.12583333333333258,
            "durationTicks": 151,
            "midi": 55,
            "name": "G3",
            "ticks": 15360,
            "time": 12.8,
            "velocity": 0.6299212598425197
          },
          {
            "duration": 0.12583333333333258,
            "durationTicks": 151,
            "midi": 59,
            "name": "B3",
            "ticks": 15360,
            "time": 12.8,
            "velocity": 0.6299212598425197
          },
          {
            "duration": 0.12583333333333258,
            "durationTicks": 151,
            "midi": 50,
            "name": "D3",
            "ticks": 15520,
            "time": 12.933333333333335,
            "velocity": 0.6299212598425197
          },
          {
            "duration": 0.12583333333333613,
            "durationTicks": 151,
            "midi": 47,
            "name": "B2",
            "ticks": 15680,
            "time": 13.066666666666666,
            "velocity": 0.6299212598425197
          },
          {
            "duration": 0.37916666666666465,
            "durationTicks": 455,
            "midi": 24,
            "name": "C1",
            "ticks": 15840,
            "time": 13.200000000000001,
            "velocity": 0.6299212598425197
          },
          {
            "duration": 0.37916666666666465,
            "durationTicks": 455,
            "midi": 36,
            "name": "C2",
            "ticks": 15840,
            "time": 13.200000000000001,
            "velocity": 0.6299212598425197
          },
          {
            "duration": 0.399166666666666,
            "durationTicks": 479,
            "midi": 48,
            "name": "C3",
            "ticks": 16320,
            "time": 13.600000000000001,
            "velocity": 0.6299212598425197
          },
          {
            "duration": 0.3324999999999996,
            "durationTicks": 399,
            "midi": 55,
            "name": "G3",
            "ticks": 16399,
            "time": 13.665833333333333,
            "velocity": 0.6299212598425197
          },
          {
            "duration": 0.26583333333333314,
            "durationTicks": 319,
            "midi": 63,
            "name": "D#4",
            "ticks": 16479,
            "time": 13.7325,
            "velocity": 0.6299212598425197
          },
          {
            "duration": 0.12583333333333258,
            "durationTicks": 151,
            "midi": 63,
            "name": "D#4",
            "ticks": 16800,
            "time": 14,
            "velocity": 0.6299212598425197
          },
          {
            "duration": 0.12583333333333258,
            "durationTicks": 151,
            "midi": 67,
            "name": "G4",
            "ticks": 16800,
            "time": 14,
            "velocity": 0.6299212598425197
          },
          {
            "duration": 0.12583333333333258,
            "durationTicks": 151,
            "midi": 60,
            "name": "C4",
            "ticks": 16960,
            "time": 14.133333333333335,
            "velocity": 0.6299212598425197
          },
          {
            "duration": 0.12583333333333613,
            "durationTicks": 151,
            "midi": 55,
            "name": "G3",
            "ticks": 17120,
            "time": 14.266666666666666,
            "velocity": 0.6299212598425197
          },
          {
            "duration": 0.12583333333333258,
            "durationTicks": 151,
            "midi": 51,
            "name": "D#3",
            "ticks": 17280,
            "time": 14.4,
            "velocity": 0.6299212598425197
          },
          {
            "duration": 0.12583333333333258,
            "durationTicks": 151,
            "midi": 55,
            "name": "G3",
            "ticks": 17280,
            "time": 14.4,
            "velocity": 0.6299212598425197
          },
          {
            "duration": 0.12583333333333258,
            "durationTicks": 151,
            "midi": 48,
            "name": "C3",
            "ticks": 17440,
            "time": 14.533333333333335,
            "velocity": 0.6299212598425197
          },
          {
            "duration": 0.12583333333333613,
            "durationTicks": 151,
            "midi": 43,
            "name": "G2",
            "ticks": 17600,
            "time": 14.666666666666666,
            "velocity": 0.6299212598425197
          },
          {
            "duration": 0.37916666666666643,
            "durationTicks": 455,
            "midi": 31,
            "name": "G1",
            "ticks": 17760,
            "time": 14.8,
            "velocity": 0.6299212598425197
          },
          {
            "duration": 0.37916666666666643,
            "durationTicks": 455,
            "midi": 43,
            "name": "G2",
            "ticks": 17760,
            "time": 14.8,
            "velocity": 0.6299212598425197
          },
          {
            "duration": 0.3991666666666678,
            "durationTicks": 479,
            "midi": 55,
            "name": "G3",
            "ticks": 18240,
            "time": 15.200000000000001,
            "velocity": 0.6299212598425197
          },
          {
            "duration": 0.3324999999999996,
            "durationTicks": 399,
            "midi": 58,
            "name": "A#3",
            "ticks": 18319,
            "time": 15.265833333333333,
            "velocity": 0.6299212598425197
          },
          {
            "duration": 0.26583333333333314,
            "durationTicks": 319,
            "midi": 62,
            "name": "D4",
            "ticks": 18399,
            "time": 15.3325,
            "velocity": 0.6299212598425197
          },
          {
            "duration": 0.12583333333333258,
            "durationTicks": 151,
            "midi": 67,
            "name": "G4",
            "ticks": 18720,
            "time": 15.600000000000001,
            "velocity": 0.6299212598425197
          },
          {
            "duration": 0.12583333333333258,
            "durationTicks": 151,
            "midi": 70,
            "name": "A#4",
            "ticks": 18720,
            "time": 15.600000000000001,
            "velocity": 0.6299212598425197
          },
          {
            "duration": 0.12583333333333258,
            "durationTicks": 151,
            "midi": 62,
            "name": "D4",
            "ticks": 18880,
            "time": 15.733333333333334,
            "velocity": 0.6299212598425197
          },
          {
            "duration": 0.12583333333333435,
            "durationTicks": 151,
            "midi": 58,
            "name": "A#3",
            "ticks": 19040,
            "time": 15.866666666666667,
            "velocity": 0.6299212598425197
          },
          {
            "duration": 0.12583333333333258,
            "durationTicks": 151,
            "midi": 55,
            "name": "G3",
            "ticks": 19200,
            "time": 16,
            "velocity": 0.6299212598425197
          },
          {
            "duration": 0.12583333333333258,
            "durationTicks": 151,
            "midi": 58,
            "name": "A#3",
            "ticks": 19200,
            "time": 16,
            "velocity": 0.6299212598425197
          },
          {
            "duration": 0.12583333333333258,
            "durationTicks": 151,
            "midi": 50,
            "name": "D3",
            "ticks": 19360,
            "time": 16.133333333333336,
            "velocity": 0.6299212598425197
          },
          {
            "duration": 0.12583333333333613,
            "durationTicks": 151,
            "midi": 46,
            "name": "A#2",
            "ticks": 19520,
            "time": 16.266666666666666,
            "velocity": 0.6299212598425197
          },
          {
            "duration": 0.3791666666666629,
            "durationTicks": 455,
            "midi": 32,
            "name": "G#1",
            "ticks": 19680,
            "time": 16.400000000000002,
            "velocity": 0.6299212598425197
          },
          {
            "duration": 0.3791666666666629,
            "durationTicks": 455,
            "midi": 44,
            "name": "G#2",
            "ticks": 19680,
            "time": 16.400000000000002,
            "velocity": 0.6299212598425197
          },
          {
            "duration": 0.12583333333333258,
            "durationTicks": 151,
            "midi": 68,
            "name": "G#4",
            "ticks": 20160,
            "time": 16.8,
            "velocity": 0.6299212598425197
          },
          {
            "duration": 0.12583333333333258,
            "durationTicks": 151,
            "midi": 72,
            "name": "C5",
            "ticks": 20160,
            "time": 16.8,
            "velocity": 0.6299212598425197
          },
          {
            "duration": 0.12583333333333258,
            "durationTicks": 151,
            "midi": 63,
            "name": "D#4",
            "ticks": 20320,
            "time": 16.933333333333334,
            "velocity": 0.6299212598425197
          },
          {
            "duration": 0.12583333333333613,
            "durationTicks": 151,
            "midi": 60,
            "name": "C4",
            "ticks": 20480,
            "time": 17.066666666666666,
            "velocity": 0.6299212598425197
          },
          {
            "duration": 0.12583333333333258,
            "durationTicks": 151,
            "midi": 68,
            "name": "G#4",
            "ticks": 20640,
            "time": 17.2,
            "velocity": 0.6299212598425197
          },
          {
            "duration": 0.12583333333333258,
            "durationTicks": 151,
            "midi": 74,
            "name": "D5",
            "ticks": 20640,
            "time": 17.2,
            "velocity": 0.6299212598425197
          },
          {
            "duration": 0.12583333333333258,
            "durationTicks": 151,
            "midi": 63,
            "name": "D#4",
            "ticks": 20800,
            "time": 17.333333333333336,
            "velocity": 0.6299212598425197
          },
          {
            "duration": 0.12583333333333613,
            "durationTicks": 151,
            "midi": 62,
            "name": "D4",
            "ticks": 20960,
            "time": 17.466666666666665,
            "velocity": 0.6299212598425197
          },
          {
            "duration": 0.12583333333333258,
            "durationTicks": 151,
            "midi": 63,
            "name": "D#4",
            "ticks": 21120,
            "time": 17.6,
            "velocity": 0.6299212598425197
          },
          {
            "duration": 0.12583333333333258,
            "durationTicks": 151,
            "midi": 56,
            "name": "G#3",
            "ticks": 21280,
            "time": 17.733333333333334,
            "velocity": 0.6299212598425197
          },
          {
            "duration": 0.12583333333333613,
            "durationTicks": 151,
            "midi": 51,
            "name": "D#3",
            "ticks": 21440,
            "time": 17.866666666666667,
            "velocity": 0.6299212598425197
          },
          {
            "duration": 0.37916666666666643,
            "durationTicks": 455,
            "midi": 27,
            "name": "D#1",
            "ticks": 21600,
            "time": 18,
            "velocity": 0.6299212598425197
          },
          {
            "duration": 0.37916666666666643,
            "durationTicks": 455,
            "midi": 39,
            "name": "D#2",
            "ticks": 21600,
            "time": 18,
            "velocity": 0.6299212598425197
          },
          {
            "duration": 0.399166666666666,
            "durationTicks": 479,
            "midi": 46,
            "name": "A#2",
            "ticks": 22080,
            "time": 18.400000000000002,
            "velocity": 0.6299212598425197
          },
          {
            "duration": 0.3324999999999996,
            "durationTicks": 399,
            "midi": 51,
            "name": "D#3",
            "ticks": 22159,
            "time": 18.465833333333332,
            "velocity": 0.6299212598425197
          },
          {
            "duration": 0.26583333333333314,
            "durationTicks": 319,
            "midi": 55,
            "name": "G3",
            "ticks": 22239,
            "time": 18.5325,
            "velocity": 0.6299212598425197
          },
          {
            "duration": 0.19916666666666671,
            "durationTicks": 239,
            "midi": 58,
            "name": "A#3",
            "ticks": 22320,
            "time": 18.6,
            "velocity": 0.6299212598425197
          },
          {
            "duration": 0.12583333333333258,
            "durationTicks": 151,
            "midi": 55,
            "name": "G3",
            "ticks": 23040,
            "time": 19.200000000000003,
            "velocity": 0.6299212598425197
          },
          {
            "duration": 0.12583333333333258,
            "durationTicks": 151,
            "midi": 58,
            "name": "A#3",
            "ticks": 23040,
            "time": 19.200000000000003,
            "velocity": 0.6299212598425197
          },
          {
            "duration": 0.12583333333333258,
            "durationTicks": 151,
            "midi": 51,
            "name": "D#3",
            "ticks": 23200,
            "time": 19.333333333333336,
            "velocity": 0.6299212598425197
          },
          {
            "duration": 0.12583333333333258,
            "durationTicks": 151,
            "midi": 46,
            "name": "A#2",
            "ticks": 23360,
            "time": 19.46666666666667,
            "velocity": 0.6299212598425197
          },
          {
            "duration": 0.37916666666666643,
            "durationTicks": 455,
            "midi": 32,
            "name": "G#1",
            "ticks": 23520,
            "time": 19.6,
            "velocity": 0.6299212598425197
          },
          {
            "duration": 0.37916666666666643,
            "durationTicks": 455,
            "midi": 44,
            "name": "G#2",
            "ticks": 23520,
            "time": 19.6,
            "velocity": 0.6299212598425197
          },
          {
            "duration": 0.12583333333333258,
            "durationTicks": 151,
            "midi": 60,
            "name": "C4",
            "ticks": 24000,
            "time": 20,
            "velocity": 0.6299212598425197
          },
          {
            "duration": 0.12583333333333258,
            "durationTicks": 151,
            "midi": 67,
            "name": "G4",
            "ticks": 24000,
            "time": 20,
            "velocity": 0.6299212598425197
          },
          {
            "duration": 0.12583333333333258,
            "durationTicks": 151,
            "midi": 56,
            "name": "G#3",
            "ticks": 24160,
            "time": 20.133333333333336,
            "velocity": 0.6299212598425197
          },
          {
            "duration": 0.12583333333333613,
            "durationTicks": 151,
            "midi": 51,
            "name": "D#3",
            "ticks": 24320,
            "time": 20.266666666666666,
            "velocity": 0.6299212598425197
          },
          {
            "duration": 0.12583333333333258,
            "durationTicks": 151,
            "midi": 60,
            "name": "C4",
            "ticks": 24480,
            "time": 20.400000000000002,
            "velocity": 0.6299212598425197
          },
          {
            "duration": 0.12583333333333258,
            "durationTicks": 151,
            "midi": 65,
            "name": "F4",
            "ticks": 24480,
            "time": 20.400000000000002,
            "velocity": 0.6299212598425197
          },
          {
            "duration": 0.12583333333333258,
            "durationTicks": 151,
            "midi": 56,
            "name": "G#3",
            "ticks": 24640,
            "time": 20.533333333333335,
            "velocity": 0.6299212598425197
          },
          {
            "duration": 0.12583333333333613,
            "durationTicks": 151,
            "midi": 51,
            "name": "D#3",
            "ticks": 24800,
            "time": 20.666666666666668,
            "velocity": 0.6299212598425197
          },
          {
            "duration": 0.12583333333333258,
            "durationTicks": 151,
            "midi": 60,
            "name": "C4",
            "ticks": 24960,
            "time": 20.8,
            "velocity": 0.6299212598425197
          },
          {
            "duration": 0.12583333333333258,
            "durationTicks": 151,
            "midi": 63,
            "name": "D#4",
            "ticks": 24960,
            "time": 20.8,
            "velocity": 0.6299212598425197
          },
          {
            "duration": 0.12583333333333258,
            "durationTicks": 151,
            "midi": 56,
            "name": "G#3",
            "ticks": 25120,
            "time": 20.933333333333337,
            "velocity": 0.6299212598425197
          },
          {
            "duration": 0.12583333333333613,
            "durationTicks": 151,
            "midi": 51,
            "name": "D#3",
            "ticks": 25280,
            "time": 21.066666666666666,
            "velocity": 0.6299212598425197
          },
          {
            "duration": 0.3791666666666629,
            "durationTicks": 455,
            "midi": 27,
            "name": "D#1",
            "ticks": 25440,
            "time": 21.200000000000003,
            "velocity": 0.6299212598425197
          },
          {
            "duration": 0.3791666666666629,
            "durationTicks": 455,
            "midi": 39,
            "name": "D#2",
            "ticks": 25440,
            "time": 21.200000000000003,
            "velocity": 0.6299212598425197
          },
          {
            "duration": 0.12583333333333258,
            "durationTicks": 151,
            "midi": 55,
            "name": "G3",
            "ticks": 25920,
            "time": 21.6,
            "velocity": 0.6299212598425197
          },
          {
            "duration": 0.12583333333333258,
            "durationTicks": 151,
            "midi": 58,
            "name": "A#3",
            "ticks": 25920,
            "time": 21.6,
            "velocity": 0.6299212598425197
          },
          {
            "duration": 0.12583333333333258,
            "durationTicks": 151,
            "midi": 51,
            "name": "D#3",
            "ticks": 26080,
            "time": 21.733333333333334,
            "velocity": 0.6299212598425197
          },
          {
            "duration": 0.12583333333333613,
            "durationTicks": 151,
            "midi": 46,
            "name": "A#2",
            "ticks": 26240,
            "time": 21.866666666666667,
            "velocity": 0.6299212598425197
          },
          {
            "duration": 0.12583333333333258,
            "durationTicks": 151,
            "midi": 58,
            "name": "A#3",
            "ticks": 26400,
            "time": 22,
            "velocity": 0.6299212598425197
          },
          {
            "duration": 0.12583333333333258,
            "durationTicks": 151,
            "midi": 63,
            "name": "D#4",
            "ticks": 26400,
            "time": 22,
            "velocity": 0.6299212598425197
          },
          {
            "duration": 0.12583333333333258,
            "durationTicks": 151,
            "midi": 55,
            "name": "G3",
            "ticks": 26560,
            "time": 22.133333333333336,
            "velocity": 0.6299212598425197
          },
          {
            "duration": 0.12583333333333613,
            "durationTicks": 151,
            "midi": 51,
            "name": "D#3",
            "ticks": 26720,
            "time": 22.266666666666666,
            "velocity": 0.6299212598425197
          },
          {
            "duration": 0.12583333333333258,
            "durationTicks": 151,
            "midi": 63,
            "name": "D#4",
            "ticks": 26880,
            "time": 22.400000000000002,
            "velocity": 0.6299212598425197
          },
          {
            "duration": 0.12583333333333258,
            "durationTicks": 151,
            "midi": 67,
            "name": "G4",
            "ticks": 26880,
            "time": 22.400000000000002,
            "velocity": 0.6299212598425197
          },
          {
            "duration": 0.12583333333333258,
            "durationTicks": 151,
            "midi": 58,
            "name": "A#3",
            "ticks": 27040,
            "time": 22.533333333333335,
            "velocity": 0.6299212598425197
          },
          {
            "duration": 0.12583333333333613,
            "durationTicks": 151,
            "midi": 55,
            "name": "G3",
            "ticks": 27200,
            "time": 22.666666666666668,
            "velocity": 0.6299212598425197
          },
          {
            "duration": 0.37916666666666643,
            "durationTicks": 455,
            "midi": 29,
            "name": "F1",
            "ticks": 27360,
            "time": 22.8,
            "velocity": 0.6299212598425197
          },
          {
            "duration": 0.37916666666666643,
            "durationTicks": 455,
            "midi": 41,
            "name": "F2",
            "ticks": 27360,
            "time": 22.8,
            "velocity": 0.6299212598425197
          },
          {
            "duration": 0.3791666666666629,
            "durationTicks": 455,
            "midi": 48,
            "name": "C3",
            "ticks": 27840,
            "time": 23.200000000000003,
            "velocity": 0.6299212598425197
          },
          {
            "duration": 0.3791666666666629,
            "durationTicks": 455,
            "midi": 53,
            "name": "F3",
            "ticks": 27840,
            "time": 23.200000000000003,
            "velocity": 0.6299212598425197
          },
          {
            "duration": 0.3791666666666629,
            "durationTicks": 455,
            "midi": 57,
            "name": "A3",
            "ticks": 27840,
            "time": 23.200000000000003,
            "velocity": 0.6299212598425197
          },
          {
            "duration": 0.12583333333333258,
            "durationTicks": 151,
            "midi": 57,
            "name": "A3",
            "ticks": 28320,
            "time": 23.6,
            "velocity": 0.6299212598425197
          },
          {
            "duration": 0.12583333333333258,
            "durationTicks": 151,
            "midi": 60,
            "name": "C4",
            "ticks": 28320,
            "time": 23.6,
            "velocity": 0.6299212598425197
          },
          {
            "duration": 0.12583333333333258,
            "durationTicks": 151,
            "midi": 53,
            "name": "F3",
            "ticks": 28480,
            "time": 23.733333333333334,
            "velocity": 0.6299212598425197
          },
          {
            "duration": 0.12583333333333613,
            "durationTicks": 151,
            "midi": 48,
            "name": "C3",
            "ticks": 28640,
            "time": 23.866666666666667,
            "velocity": 0.6299212598425197
          },
          {
            "duration": 0.12583333333333258,
            "durationTicks": 151,
            "midi": 53,
            "name": "F3",
            "ticks": 28800,
            "time": 24,
            "velocity": 0.6299212598425197
          },
          {
            "duration": 0.12583333333333258,
            "durationTicks": 151,
            "midi": 57,
            "name": "A3",
            "ticks": 28800,
            "time": 24,
            "velocity": 0.6299212598425197
          },
          {
            "duration": 0.12583333333333258,
            "durationTicks": 151,
            "midi": 48,
            "name": "C3",
            "ticks": 28960,
            "time": 24.133333333333336,
            "velocity": 0.6299212598425197
          },
          {
            "duration": 0.12583333333333613,
            "durationTicks": 151,
            "midi": 45,
            "name": "A2",
            "ticks": 29120,
            "time": 24.266666666666666,
            "velocity": 0.6299212598425197
          },
          {
            "duration": 0.37916666666666643,
            "durationTicks": 455,
            "midi": 31,
            "name": "G1",
            "ticks": 29280,
            "time": 24.400000000000002,
            "velocity": 0.6299212598425197
          },
          {
            "duration": 0.37916666666666643,
            "durationTicks": 455,
            "midi": 43,
            "name": "G2",
            "ticks": 29280,
            "time": 24.400000000000002,
            "velocity": 0.6299212598425197
          },
          {
            "duration": 0.12583333333333258,
            "durationTicks": 151,
            "midi": 59,
            "name": "B3",
            "ticks": 29760,
            "time": 24.8,
            "velocity": 0.6299212598425197
          },
          {
            "duration": 0.12583333333333258,
            "durationTicks": 151,
            "midi": 62,
            "name": "D4",
            "ticks": 29760,
            "time": 24.8,
            "velocity": 0.6299212598425197
          },
          {
            "duration": 0.12583333333333258,
            "durationTicks": 151,
            "midi": 55,
            "name": "G3",
            "ticks": 29920,
            "time": 24.933333333333337,
            "velocity": 0.6299212598425197
          },
          {
            "duration": 0.12583333333333613,
            "durationTicks": 151,
            "midi": 50,
            "name": "D3",
            "ticks": 30080,
            "time": 25.066666666666666,
            "velocity": 0.6299212598425197
          },
          {
            "duration": 0.12583333333333258,
            "durationTicks": 151,
            "midi": 55,
            "name": "G3",
            "ticks": 30240,
            "time": 25.200000000000003,
            "velocity": 0.6299212598425197
          },
          {
            "duration": 0.12583333333333258,
            "durationTicks": 151,
            "midi": 59,
            "name": "B3",
            "ticks": 30240,
            "time": 25.200000000000003,
            "velocity": 0.6299212598425197
          },
          {
            "duration": 0.12583333333333258,
            "durationTicks": 151,
            "midi": 50,
            "name": "D3",
            "ticks": 30400,
            "time": 25.333333333333336,
            "velocity": 0.6299212598425197
          },
          {
            "duration": 0.12583333333333258,
            "durationTicks": 151,
            "midi": 47,
            "name": "B2",
            "ticks": 30560,
            "time": 25.46666666666667,
            "velocity": 0.6299212598425197
          },
          {
            "duration": 0.12583333333333258,
            "durationTicks": 151,
            "midi": 50,
            "name": "D3",
            "ticks": 30720,
            "time": 25.6,
            "velocity": 0.6299212598425197
          },
          {
            "duration": 0.12583333333333258,
            "durationTicks": 151,
            "midi": 55,
            "name": "G3",
            "ticks": 30720,
            "time": 25.6,
            "velocity": 0.6299212598425197
          },
          {
            "duration": 0.12583333333333258,
            "durationTicks": 151,
            "midi": 47,
            "name": "B2",
            "ticks": 30880,
            "time": 25.733333333333334,
            "velocity": 0.6299212598425197
          },
          {
            "duration": 0.12583333333333258,
            "durationTicks": 151,
            "midi": 43,
            "name": "G2",
            "ticks": 31040,
            "time": 25.86666666666667,
            "velocity": 0.6299212598425197
          },
          {
            "duration": 0.37833333333333385,
            "durationTicks": 227,
            "midi": 33,
            "name": "A1",
            "ticks": 31200,
            "time": 26,
            "velocity": 0.6299212598425197
          },
          {
            "duration": 0.37833333333333385,
            "durationTicks": 227,
            "midi": 45,
            "name": "A2",
            "ticks": 31200,
            "time": 26,
            "velocity": 0.6299212598425197
          },
          {
            "duration": 0.37833333333333385,
            "durationTicks": 227,
            "midi": 48,
            "name": "C3",
            "ticks": 31440,
            "time": 26.4,
            "velocity": 0.6299212598425197
          },
          {
            "duration": 0.37833333333333385,
            "durationTicks": 227,
            "midi": 52,
            "name": "E3",
            "ticks": 31440,
            "time": 26.4,
            "velocity": 0.6299212598425197
          },
          {
            "duration": 0.37833333333333385,
            "durationTicks": 227,
            "midi": 52,
            "name": "E3",
            "ticks": 31680,
            "time": 26.8,
            "velocity": 0.6299212598425197
          },
          {
            "duration": 0.37833333333333385,
            "durationTicks": 227,
            "midi": 57,
            "name": "A3",
            "ticks": 31680,
            "time": 26.8,
            "velocity": 0.6299212598425197
          },
          {
            "duration": 0.37833333333333385,
            "durationTicks": 227,
            "midi": 57,
            "name": "A3",
            "ticks": 31920,
            "time": 27.2,
            "velocity": 0.6299212598425197
          },
          {
            "duration": 0.37833333333333385,
            "durationTicks": 227,
            "midi": 60,
            "name": "C4",
            "ticks": 31920,
            "time": 27.2,
            "velocity": 0.6299212598425197
          },
          {
            "duration": 0.37833333333333385,
            "durationTicks": 227,
            "midi": 64,
            "name": "E4",
            "ticks": 31920,
            "time": 27.2,
            "velocity": 0.6299212598425197
          },
          {
            "duration": 0.3783333333333303,
            "durationTicks": 227,
            "midi": 32,
            "name": "G#1",
            "ticks": 32160,
            "time": 27.6,
            "velocity": 0.6299212598425197
          },
          {
            "duration": 0.3783333333333303,
            "durationTicks": 227,
            "midi": 44,
            "name": "G#2",
            "ticks": 32160,
            "time": 27.6,
            "velocity": 0.6299212598425197
          },
          {
            "duration": 0.37833333333333385,
            "durationTicks": 227,
            "midi": 47,
            "name": "B2",
            "ticks": 32400,
            "time": 28,
            "velocity": 0.6299212598425197
          },
          {
            "duration": 0.37833333333333385,
            "durationTicks": 227,
            "midi": 52,
            "name": "E3",
            "ticks": 32400,
            "time": 28,
            "velocity": 0.6299212598425197
          },
          {
            "duration": 0.37833333333333385,
            "durationTicks": 227,
            "midi": 56,
            "name": "G#3",
            "ticks": 32400,
            "time": 28,
            "velocity": 0.6299212598425197
          },
          {
            "duration": 0.37833333333333385,
            "durationTicks": 227,
            "midi": 59,
            "name": "B3",
            "ticks": 32640,
            "time": 28.4,
            "velocity": 0.6299212598425197
          },
          {
            "duration": 0.37833333333333385,
            "durationTicks": 227,
            "midi": 64,
            "name": "E4",
            "ticks": 32640,
            "time": 28.4,
            "velocity": 0.6299212598425197
          },
          {
            "duration": 0.37833333333333385,
            "durationTicks": 227,
            "midi": 64,
            "name": "E4",
            "ticks": 32880,
            "time": 28.8,
            "velocity": 0.6299212598425197
          },
          {
            "duration": 0.37833333333333385,
            "durationTicks": 227,
            "midi": 68,
            "name": "G#4",
            "ticks": 32880,
            "time": 28.8,
            "velocity": 0.6299212598425197
          },
          {
            "duration": 0.37833333333333385,
            "durationTicks": 227,
            "midi": 31,
            "name": "G1",
            "ticks": 33120,
            "time": 29.2,
            "velocity": 0.6299212598425197
          },
          {
            "duration": 0.37833333333333385,
            "durationTicks": 227,
            "midi": 43,
            "name": "G2",
            "ticks": 33120,
            "time": 29.2,
            "velocity": 0.6299212598425197
          },
          {
            "duration": 0.3783333333333303,
            "durationTicks": 227,
            "midi": 43,
            "name": "G2",
            "ticks": 33360,
            "time": 29.6,
            "velocity": 0.6299212598425197
          },
          {
            "duration": 0.3783333333333303,
            "durationTicks": 227,
            "midi": 48,
            "name": "C3",
            "ticks": 33360,
            "time": 29.6,
            "velocity": 0.6299212598425197
          },
          {
            "duration": 0.3783333333333303,
            "durationTicks": 227,
            "midi": 52,
            "name": "E3",
            "ticks": 33360,
            "time": 29.6,
            "velocity": 0.6299212598425197
          },
          {
            "duration": 0.37833333333333385,
            "durationTicks": 227,
            "midi": 55,
            "name": "G3",
            "ticks": 33600,
            "time": 30,
            "velocity": 0.6299212598425197
          },
          {
            "duration": 0.37833333333333385,
            "durationTicks": 227,
            "midi": 60,
            "name": "C4",
            "ticks": 33600,
            "time": 30,
            "velocity": 0.6299212598425197
          },
          {
            "duration": 0.37833333333333385,
            "durationTicks": 227,
            "midi": 64,
            "name": "E4",
            "ticks": 33600,
            "time": 30,
            "velocity": 0.6299212598425197
          },
          {
            "duration": 0.37833333333333385,
            "durationTicks": 227,
            "midi": 60,
            "name": "C4",
            "ticks": 33840,
            "time": 30.4,
            "velocity": 0.6299212598425197
          },
          {
            "duration": 0.37833333333333385,
            "durationTicks": 227,
            "midi": 64,
            "name": "E4",
            "ticks": 33840,
            "time": 30.4,
            "velocity": 0.6299212598425197
          },
          {
            "duration": 0.37833333333333385,
            "durationTicks": 227,
            "midi": 30,
            "name": "F#1",
            "ticks": 34080,
            "time": 30.8,
            "velocity": 0.6299212598425197
          },
          {
            "duration": 0.37833333333333385,
            "durationTicks": 227,
            "midi": 42,
            "name": "F#2",
            "ticks": 34080,
            "time": 30.8,
            "velocity": 0.6299212598425197
          },
          {
            "duration": 0.125,
            "durationTicks": 75,
            "midi": 45,
            "name": "A2",
            "ticks": 34320,
            "time": 31.2,
            "velocity": 0.6299212598425197
          },
          {
            "duration": 0.125,
            "durationTicks": 75,
            "midi": 50,
            "name": "D3",
            "ticks": 34400,
            "time": 31.333333333333336,
            "velocity": 0.6299212598425197
          },
          {
            "duration": 0.125,
            "durationTicks": 75,
            "midi": 54,
            "name": "F#3",
            "ticks": 34480,
            "time": 31.46666666666667,
            "velocity": 0.6299212598425197
          },
          {
            "duration": 0.125,
            "durationTicks": 75,
            "midi": 57,
            "name": "A3",
            "ticks": 34560,
            "time": 31.6,
            "velocity": 0.6299212598425197
          },
          {
            "duration": 0.125,
            "durationTicks": 75,
            "midi": 62,
            "name": "D4",
            "ticks": 34640,
            "time": 31.733333333333334,
            "velocity": 0.6299212598425197
          },
          {
            "duration": 0.125,
            "durationTicks": 75,
            "midi": 66,
            "name": "F#4",
            "ticks": 34720,
            "time": 31.866666666666667,
            "velocity": 0.6299212598425197
          },
          {
            "duration": 0.3783333333333303,
            "durationTicks": 227,
            "midi": 69,
            "name": "A4",
            "ticks": 34800,
            "time": 32,
            "velocity": 0.6299212598425197
          },
          {
            "duration": 0.3783333333333374,
            "durationTicks": 227,
            "midi": 29,
            "name": "F1",
            "ticks": 35040,
            "time": 32.4,
            "velocity": 0.6299212598425197
          },
          {
            "duration": 0.3783333333333374,
            "durationTicks": 227,
            "midi": 41,
            "name": "F2",
            "ticks": 35040,
            "time": 32.4,
            "velocity": 0.6299212598425197
          },
          {
            "duration": 0.3783333333333374,
            "durationTicks": 227,
            "midi": 57,
            "name": "A3",
            "ticks": 35280,
            "time": 32.8,
            "velocity": 0.6299212598425197
          },
          {
            "duration": 0.3783333333333374,
            "durationTicks": 227,
            "midi": 60,
            "name": "C4",
            "ticks": 35280,
            "time": 32.8,
            "velocity": 0.6299212598425197
          },
          {
            "duration": 0.3783333333333374,
            "durationTicks": 227,
            "midi": 65,
            "name": "F4",
            "ticks": 35280,
            "time": 32.8,
            "velocity": 0.6299212598425197
          },
          {
            "duration": 0.3783333333333303,
            "durationTicks": 227,
            "midi": 65,
            "name": "F4",
            "ticks": 35520,
            "time": 33.2,
            "velocity": 0.6299212598425197
          },
          {
            "duration": 0.3783333333333303,
            "durationTicks": 227,
            "midi": 69,
            "name": "A4",
            "ticks": 35520,
            "time": 33.2,
            "velocity": 0.6299212598425197
          },
          {
            "duration": 0.3783333333333303,
            "durationTicks": 227,
            "midi": 72,
            "name": "C5",
            "ticks": 35520,
            "time": 33.2,
            "velocity": 0.6299212598425197
          },
          {
            "duration": 0.3783333333333303,
            "durationTicks": 227,
            "midi": 28,
            "name": "E1",
            "ticks": 36000,
            "time": 34,
            "velocity": 0.6299212598425197
          },
          {
            "duration": 0.3783333333333303,
            "durationTicks": 227,
            "midi": 40,
            "name": "E2",
            "ticks": 36000,
            "time": 34,
            "velocity": 0.6299212598425197
          },
          {
            "duration": 0.3783333333333374,
            "durationTicks": 227,
            "midi": 55,
            "name": "G3",
            "ticks": 36240,
            "time": 34.4,
            "velocity": 0.6299212598425197
          },
          {
            "duration": 0.3783333333333374,
            "durationTicks": 227,
            "midi": 59,
            "name": "B3",
            "ticks": 36240,
            "time": 34.4,
            "velocity": 0.6299212598425197
          },
          {
            "duration": 0.3783333333333374,
            "durationTicks": 227,
            "midi": 62,
            "name": "D4",
            "ticks": 36240,
            "time": 34.4,
            "velocity": 0.6299212598425197
          },
          {
            "duration": 0.3783333333333374,
            "durationTicks": 227,
            "midi": 27,
            "name": "D#1",
            "ticks": 36480,
            "time": 34.8,
            "velocity": 0.6299212598425197
          },
          {
            "duration": 0.3783333333333374,
            "durationTicks": 227,
            "midi": 39,
            "name": "D#2",
            "ticks": 36480,
            "time": 34.8,
            "velocity": 0.6299212598425197
          },
          {
            "duration": 0.3783333333333303,
            "durationTicks": 227,
            "midi": 54,
            "name": "F#3",
            "ticks": 36720,
            "time": 35.2,
            "velocity": 0.6299212598425197
          },
          {
            "duration": 0.3783333333333303,
            "durationTicks": 227,
            "midi": 58,
            "name": "A#3",
            "ticks": 36720,
            "time": 35.2,
            "velocity": 0.6299212598425197
          },
          {
            "duration": 0.3783333333333303,
            "durationTicks": 227,
            "midi": 61,
            "name": "C#4",
            "ticks": 36720,
            "time": 35.2,
            "velocity": 0.6299212598425197
          },
          {
            "duration": 0.7583333333333329,
            "durationTicks": 455,
            "midi": 26,
            "name": "D1",
            "ticks": 36960,
            "time": 35.6,
            "velocity": 0.6299212598425197
          },
          {
            "duration": 0.7583333333333329,
            "durationTicks": 455,
            "midi": 38,
            "name": "D2",
            "ticks": 36960,
            "time": 35.6,
            "velocity": 0.6299212598425197
          },
          {
            "duration": 0.9166666666666714,
            "durationTicks": 455,
            "midi": 31,
            "name": "G1",
            "ticks": 37440,
            "time": 36.4,
            "velocity": 0.6299212598425197
          },
          {
            "duration": 0.9166666666666714,
            "durationTicks": 455,
            "midi": 43,
            "name": "G2",
            "ticks": 37440,
            "time": 36.4,
            "velocity": 0.6299212598425197
          },
          {
            "duration": 0.3783333333333374,
            "durationTicks": 227,
            "midi": 32,
            "name": "G#1",
            "ticks": 37920,
            "time": 37.39833333333333,
            "velocity": 0.6299212598425197
          },
          {
            "duration": 0.3783333333333374,
            "durationTicks": 227,
            "midi": 44,
            "name": "G#2",
            "ticks": 37920,
            "time": 37.39833333333333,
            "velocity": 0.6299212598425197
          },
          {
            "duration": 0.3783333333333374,
            "durationTicks": 227,
            "midi": 44,
            "name": "G#2",
            "ticks": 38160,
            "time": 37.79833333333333,
            "velocity": 0.6299212598425197
          },
          {
            "duration": 0.3783333333333374,
            "durationTicks": 227,
            "midi": 48,
            "name": "C3",
            "ticks": 38160,
            "time": 37.79833333333333,
            "velocity": 0.6299212598425197
          },
          {
            "duration": 0.3783333333333374,
            "durationTicks": 227,
            "midi": 51,
            "name": "D#3",
            "ticks": 38160,
            "time": 37.79833333333333,
            "velocity": 0.6299212598425197
          },
          {
            "duration": 0.3783333333333374,
            "durationTicks": 227,
            "midi": 56,
            "name": "G#3",
            "ticks": 38160,
            "time": 37.79833333333333,
            "velocity": 0.6299212598425197
          },
          {
            "duration": 0.3783333333333303,
            "durationTicks": 227,
            "midi": 44,
            "name": "G#2",
            "ticks": 38400,
            "time": 38.19833333333334,
            "velocity": 0.6299212598425197
          },
          {
            "duration": 0.3783333333333303,
            "durationTicks": 227,
            "midi": 48,
            "name": "C3",
            "ticks": 38400,
            "time": 38.19833333333334,
            "velocity": 0.6299212598425197
          },
          {
            "duration": 0.3783333333333303,
            "durationTicks": 227,
            "midi": 51,
            "name": "D#3",
            "ticks": 38400,
            "time": 38.19833333333334,
            "velocity": 0.6299212598425197
          },
          {
            "duration": 0.3783333333333303,
            "durationTicks": 227,
            "midi": 56,
            "name": "G#3",
            "ticks": 38400,
            "time": 38.19833333333334,
            "velocity": 0.6299212598425197
          },
          {
            "duration": 0.3783333333333303,
            "durationTicks": 227,
            "midi": 44,
            "name": "G#2",
            "ticks": 38640,
            "time": 38.598333333333336,
            "velocity": 0.6299212598425197
          },
          {
            "duration": 0.3783333333333303,
            "durationTicks": 227,
            "midi": 48,
            "name": "C3",
            "ticks": 38640,
            "time": 38.598333333333336,
            "velocity": 0.6299212598425197
          },
          {
            "duration": 0.3783333333333303,
            "durationTicks": 227,
            "midi": 51,
            "name": "D#3",
            "ticks": 38640,
            "time": 38.598333333333336,
            "velocity": 0.6299212598425197
          },
          {
            "duration": 0.3783333333333303,
            "durationTicks": 227,
            "midi": 56,
            "name": "G#3",
            "ticks": 38640,
            "time": 38.598333333333336,
            "velocity": 0.6299212598425197
          },
          {
            "duration": 0.3783333333333303,
            "durationTicks": 227,
            "midi": 44,
            "name": "G#2",
            "ticks": 38880,
            "time": 38.998333333333335,
            "velocity": 0.6299212598425197
          },
          {
            "duration": 0.3783333333333303,
            "durationTicks": 227,
            "midi": 48,
            "name": "C3",
            "ticks": 38880,
            "time": 38.998333333333335,
            "velocity": 0.6299212598425197
          },
          {
            "duration": 0.3783333333333303,
            "durationTicks": 227,
            "midi": 51,
            "name": "D#3",
            "ticks": 38880,
            "time": 38.998333333333335,
            "velocity": 0.6299212598425197
          },
          {
            "duration": 0.3783333333333303,
            "durationTicks": 227,
            "midi": 56,
            "name": "G#3",
            "ticks": 38880,
            "time": 38.998333333333335,
            "velocity": 0.6299212598425197
          },
          {
            "duration": 0.3783333333333374,
            "durationTicks": 227,
            "midi": 39,
            "name": "D#2",
            "ticks": 39120,
            "time": 39.39833333333333,
            "velocity": 0.6299212598425197
          },
          {
            "duration": 0.3783333333333374,
            "durationTicks": 227,
            "midi": 44,
            "name": "G#2",
            "ticks": 39120,
            "time": 39.39833333333333,
            "velocity": 0.6299212598425197
          },
          {
            "duration": 0.3783333333333374,
            "durationTicks": 227,
            "midi": 48,
            "name": "C3",
            "ticks": 39120,
            "time": 39.39833333333333,
            "velocity": 0.6299212598425197
          },
          {
            "duration": 0.3783333333333374,
            "durationTicks": 227,
            "midi": 51,
            "name": "D#3",
            "ticks": 39120,
            "time": 39.39833333333333,
            "velocity": 0.6299212598425197
          },
          {
            "duration": 0.3783333333333374,
            "durationTicks": 227,
            "midi": 36,
            "name": "C2",
            "ticks": 39360,
            "time": 39.79833333333333,
            "velocity": 0.6299212598425197
          },
          {
            "duration": 0.3783333333333374,
            "durationTicks": 227,
            "midi": 39,
            "name": "D#2",
            "ticks": 39360,
            "time": 39.79833333333333,
            "velocity": 0.6299212598425197
          },
          {
            "duration": 0.3783333333333374,
            "durationTicks": 227,
            "midi": 44,
            "name": "G#2",
            "ticks": 39360,
            "time": 39.79833333333333,
            "velocity": 0.6299212598425197
          },
          {
            "duration": 0.3783333333333374,
            "durationTicks": 227,
            "midi": 48,
            "name": "C3",
            "ticks": 39360,
            "time": 39.79833333333333,
            "velocity": 0.6299212598425197
          },
          {
            "duration": 0.3783333333333303,
            "durationTicks": 227,
            "midi": 32,
            "name": "G#1",
            "ticks": 39600,
            "time": 40.19833333333334,
            "velocity": 0.6299212598425197
          },
          {
            "duration": 0.3783333333333303,
            "durationTicks": 227,
            "midi": 36,
            "name": "C2",
            "ticks": 39600,
            "time": 40.19833333333334,
            "velocity": 0.6299212598425197
          },
          {
            "duration": 0.3783333333333303,
            "durationTicks": 227,
            "midi": 39,
            "name": "D#2",
            "ticks": 39600,
            "time": 40.19833333333334,
            "velocity": 0.6299212598425197
          },
          {
            "duration": 0.3783333333333303,
            "durationTicks": 227,
            "midi": 44,
            "name": "G#2",
            "ticks": 39600,
            "time": 40.19833333333334,
            "velocity": 0.6299212598425197
          },
          {
            "duration": 0.3783333333333303,
            "durationTicks": 227,
            "midi": 27,
            "name": "D#1",
            "ticks": 39840,
            "time": 40.598333333333336,
            "velocity": 0.6299212598425197
          },
          {
            "duration": 0.3783333333333303,
            "durationTicks": 227,
            "midi": 36,
            "name": "C2",
            "ticks": 39840,
            "time": 40.598333333333336,
            "velocity": 0.6299212598425197
          },
          {
            "duration": 0.3783333333333303,
            "durationTicks": 227,
            "midi": 39,
            "name": "D#2",
            "ticks": 39840,
            "time": 40.598333333333336,
            "velocity": 0.6299212598425197
          },
          {
            "duration": 0.09833333333333627,
            "durationTicks": 59,
            "midi": 67,
            "name": "G4",
            "ticks": 41280,
            "time": 42.998333333333335,
            "velocity": 0.5039370078740157
          },
          {
            "duration": 0.09833333333332916,
            "durationTicks": 59,
            "midi": 69,
            "name": "A4",
            "ticks": 41400,
            "time": 43.19833333333334,
            "velocity": 0.5039370078740157
          },
          {
            "duration": 0.09833333333333627,
            "durationTicks": 59,
            "midi": 70,
            "name": "A#4",
            "ticks": 41520,
            "time": 43.39833333333333,
            "velocity": 0.5039370078740157
          },
          {
            "duration": 0.09833333333333627,
            "durationTicks": 59,
            "midi": 53,
            "name": "F3",
            "ticks": 41640,
            "time": 43.598333333333336,
            "velocity": 0.5039370078740157
          },
          {
            "duration": 0.09833333333333627,
            "durationTicks": 59,
            "midi": 60,
            "name": "C4",
            "ticks": 41760,
            "time": 43.79833333333333,
            "velocity": 0.5039370078740157
          },
          {
            "duration": 0.09833333333333627,
            "durationTicks": 59,
            "midi": 69,
            "name": "A4",
            "ticks": 41880,
            "time": 43.998333333333335,
            "velocity": 0.5039370078740157
          },
          {
            "duration": 0.09833333333332916,
            "durationTicks": 59,
            "midi": 65,
            "name": "F4",
            "ticks": 42000,
            "time": 44.19833333333334,
            "velocity": 0.5039370078740157
          },
          {
            "duration": 0.09833333333333627,
            "durationTicks": 59,
            "midi": 58,
            "name": "A#3",
            "ticks": 42120,
            "time": 44.39833333333333,
            "velocity": 0.5039370078740157
          },
          {
            "duration": 0.09833333333333627,
            "durationTicks": 59,
            "midi": 62,
            "name": "D4",
            "ticks": 42120,
            "time": 44.39833333333333,
            "velocity": 0.5039370078740157
          },
          {
            "duration": 0.09833333333333627,
            "durationTicks": 59,
            "midi": 63,
            "name": "D#4",
            "ticks": 42240,
            "time": 44.598333333333336,
            "velocity": 0.5039370078740157
          },
          {
            "duration": 0.09833333333333627,
            "durationTicks": 59,
            "midi": 65,
            "name": "F4",
            "ticks": 42360,
            "time": 44.79833333333333,
            "velocity": 0.5039370078740157
          },
          {
            "duration": 0.09833333333333627,
            "durationTicks": 59,
            "midi": 70,
            "name": "A#4",
            "ticks": 42480,
            "time": 44.998333333333335,
            "velocity": 0.5039370078740157
          },
          {
            "duration": 0.09833333333332916,
            "durationTicks": 59,
            "midi": 61,
            "name": "C#4",
            "ticks": 42600,
            "time": 45.19833333333334,
            "velocity": 0.5039370078740157
          },
          {
            "duration": 0.09833333333333627,
            "durationTicks": 59,
            "midi": 51,
            "name": "D#3",
            "ticks": 42720,
            "time": 45.39833333333333,
            "velocity": 0.5039370078740157
          },
          {
            "duration": 0.3783333333333303,
            "durationTicks": 227,
            "midi": 60,
            "name": "C4",
            "ticks": 43080,
            "time": 45.998333333333335,
            "velocity": 0.5039370078740157
          },
          {
            "duration": 0.09833333333333627,
            "durationTicks": 59,
            "midi": 70,
            "name": "A#4",
            "ticks": 43320,
            "time": 46.39833333333333,
            "velocity": 0.5039370078740157
          },
          {
            "duration": 0.18833333333333258,
            "durationTicks": 113,
            "midi": 48,
            "name": "C3",
            "ticks": 43440,
            "time": 46.598333333333336,
            "velocity": 0.5039370078740157
          },
          {
            "duration": 0.18833333333333968,
            "durationTicks": 113,
            "midi": 69,
            "name": "A4",
            "ticks": 43560,
            "time": 46.79833333333333,
            "velocity": 0.5039370078740157
          },
          {
            "duration": 0.09833333333333627,
            "durationTicks": 59,
            "midi": 64,
            "name": "E4",
            "ticks": 43680,
            "time": 46.998333333333335,
            "velocity": 0.5039370078740157
          },
          {
            "duration": 0.09833333333332916,
            "durationTicks": 59,
            "midi": 57,
            "name": "A3",
            "ticks": 43800,
            "time": 47.19833333333334,
            "velocity": 0.5039370078740157
          },
          {
            "duration": 0.09833333333333627,
            "durationTicks": 59,
            "midi": 58,
            "name": "A#3",
            "ticks": 43920,
            "time": 47.39833333333333,
            "velocity": 0.5039370078740157
          },
          {
            "duration": 0.09833333333333627,
            "durationTicks": 59,
            "midi": 60,
            "name": "C4",
            "ticks": 44040,
            "time": 47.598333333333336,
            "velocity": 0.5039370078740157
          },
          {
            "duration": 0.09833333333333627,
            "durationTicks": 59,
            "midi": 62,
            "name": "D4",
            "ticks": 44160,
            "time": 47.79833333333333,
            "velocity": 0.5039370078740157
          },
          {
            "duration": 0.09833333333333627,
            "durationTicks": 59,
            "midi": 50,
            "name": "D3",
            "ticks": 44280,
            "time": 47.998333333333335,
            "velocity": 0.5039370078740157
          },
          {
            "duration": 0.19833333333333059,
            "durationTicks": 119,
            "midi": 55,
            "name": "G3",
            "ticks": 44400,
            "time": 48.19833333333334,
            "velocity": 0.5039370078740157
          },
          {
            "duration": 0.09833333333333627,
            "durationTicks": 59,
            "midi": 43,
            "name": "G2",
            "ticks": 44640,
            "time": 48.598333333333336,
            "velocity": 0.5039370078740157
          },
          {
            "duration": 0.09833333333332916,
            "durationTicks": 59,
            "midi": 48,
            "name": "C3",
            "ticks": 45000,
            "time": 49.19833333333334,
            "velocity": 0.5039370078740157
          },
          {
            "duration": 0.09833333333333627,
            "durationTicks": 59,
            "midi": 50,
            "name": "D3",
            "ticks": 45120,
            "time": 49.39833333333333,
            "velocity": 0.5039370078740157
          },
          {
            "duration": 0.09833333333333627,
            "durationTicks": 59,
            "midi": 51,
            "name": "D#3",
            "ticks": 45240,
            "time": 49.598333333333336,
            "velocity": 0.5039370078740157
          },
          {
            "duration": 0.18833333333333968,
            "durationTicks": 113,
            "midi": 53,
            "name": "F3",
            "ticks": 45360,
            "time": 49.79833333333333,
            "velocity": 0.5039370078740157
          },
          {
            "duration": 0.09833333333332916,
            "durationTicks": 59,
            "midi": 41,
            "name": "F2",
            "ticks": 45600,
            "time": 50.19833333333334,
            "velocity": 0.5039370078740157
          },
          {
            "duration": 0.09833333333332916,
            "durationTicks": 59,
            "midi": 46,
            "name": "A#2",
            "ticks": 45960,
            "time": 50.79833333333334,
            "velocity": 0.5039370078740157
          },
          {
            "duration": 0.09833333333333627,
            "durationTicks": 59,
            "midi": 48,
            "name": "C3",
            "ticks": 46080,
            "time": 50.998333333333335,
            "velocity": 0.5039370078740157
          },
          {
            "duration": 0.09833333333332916,
            "durationTicks": 59,
            "midi": 50,
            "name": "D3",
            "ticks": 46200,
            "time": 51.19833333333334,
            "velocity": 0.5039370078740157
          },
          {
            "duration": 0.18833333333333258,
            "durationTicks": 113,
            "midi": 51,
            "name": "D#3",
            "ticks": 46320,
            "time": 51.39833333333334,
            "velocity": 0.5039370078740157
          },
          {
            "duration": 0.09833333333332916,
            "durationTicks": 59,
            "midi": 39,
            "name": "D#2",
            "ticks": 46560,
            "time": 51.79833333333334,
            "velocity": 0.5039370078740157
          },
          {
            "duration": 0.09833333333332916,
            "durationTicks": 59,
            "midi": 45,
            "name": "A2",
            "ticks": 46920,
            "time": 52.39833333333334,
            "velocity": 0.5039370078740157
          },
          {
            "duration": 0.09833333333333627,
            "durationTicks": 59,
            "midi": 46,
            "name": "A#2",
            "ticks": 47040,
            "time": 52.598333333333336,
            "velocity": 0.5039370078740157
          },
          {
            "duration": 0.09833333333332916,
            "durationTicks": 59,
            "midi": 48,
            "name": "C3",
            "ticks": 47160,
            "time": 52.79833333333334,
            "velocity": 0.5039370078740157
          },
          {
            "duration": 0.18833333333333258,
            "durationTicks": 113,
            "midi": 49,
            "name": "C#3",
            "ticks": 47280,
            "time": 52.998333333333335,
            "velocity": 0.5039370078740157
          },
          {
            "duration": 0.18833333333333258,
            "durationTicks": 113,
            "midi": 45,
            "name": "A2",
            "ticks": 47520,
            "time": 53.39833333333334,
            "velocity": 0.5039370078740157
          },
          {
            "duration": 0.18833333333333258,
            "durationTicks": 113,
            "midi": 50,
            "name": "D3",
            "ticks": 47760,
            "time": 53.79833333333333,
            "velocity": 0.5039370078740157
          },
          {
            "duration": 0.7583333333333258,
            "durationTicks": 455,
            "midi": 43,
            "name": "G2",
            "ticks": 48000,
            "time": 54.19833333333334,
            "velocity": 0.5039370078740157
          },
          {
            "duration": 0.3783333333333303,
            "durationTicks": 227,
            "midi": 48,
            "name": "C3",
            "ticks": 48480,
            "time": 54.998333333333335,
            "velocity": 0.5039370078740157
          },
          {
            "duration": 0.3783333333333303,
            "durationTicks": 227,
            "midi": 60,
            "name": "C4",
            "ticks": 48720,
            "time": 55.39833333333334,
            "velocity": 0.5039370078740157
          },
          {
            "duration": 0.3783333333333374,
            "durationTicks": 227,
            "midi": 53,
            "name": "F3",
            "ticks": 48960,
            "time": 55.79833333333333,
            "velocity": 0.5039370078740157
          },
          {
            "duration": 0.20000000000000284,
            "durationTicks": 120,
            "midi": 65,
            "name": "F4",
            "ticks": 48960,
            "time": 55.79833333333333,
            "velocity": 0.5039370078740157
          },
          {
            "duration": 0.3783333333333303,
            "durationTicks": 227,
            "midi": 56,
            "name": "G#3",
            "ticks": 49200,
            "time": 56.19833333333334,
            "velocity": 0.5039370078740157
          },
          {
            "duration": 0.3783333333333303,
            "durationTicks": 227,
            "midi": 60,
            "name": "C4",
            "ticks": 49200,
            "time": 56.19833333333334,
            "velocity": 0.5039370078740157
          },
          {
            "duration": 0.18833333333333258,
            "durationTicks": 113,
            "midi": 58,
            "name": "A#3",
            "ticks": 49440,
            "time": 56.598333333333336,
            "velocity": 0.5039370078740157
          },
          {
            "duration": 0.18833333333333258,
            "durationTicks": 113,
            "midi": 62,
            "name": "D4",
            "ticks": 49440,
            "time": 56.598333333333336,
            "velocity": 0.5039370078740157
          },
          {
            "duration": 0.18833333333333258,
            "durationTicks": 113,
            "midi": 60,
            "name": "C4",
            "ticks": 49560,
            "time": 56.79833333333334,
            "velocity": 0.5039370078740157
          },
          {
            "duration": 0.18833333333333258,
            "durationTicks": 113,
            "midi": 58,
            "name": "A#3",
            "ticks": 49680,
            "time": 56.998333333333335,
            "velocity": 0.5039370078740157
          },
          {
            "duration": 0.18833333333333258,
            "durationTicks": 113,
            "midi": 65,
            "name": "F4",
            "ticks": 49680,
            "time": 56.998333333333335,
            "velocity": 0.5039370078740157
          },
          {
            "duration": 0.18833333333333258,
            "durationTicks": 113,
            "midi": 62,
            "name": "D4",
            "ticks": 49800,
            "time": 57.19833333333334,
            "velocity": 0.5039370078740157
          },
          {
            "duration": 0.18833333333333258,
            "durationTicks": 113,
            "midi": 51,
            "name": "D#3",
            "ticks": 49920,
            "time": 57.39833333333334,
            "velocity": 0.5039370078740157
          },
          {
            "duration": 0.18833333333333258,
            "durationTicks": 113,
            "midi": 63,
            "name": "D#4",
            "ticks": 49920,
            "time": 57.39833333333334,
            "velocity": 0.5039370078740157
          },
          {
            "duration": 0.18833333333333258,
            "durationTicks": 113,
            "midi": 65,
            "name": "F4",
            "ticks": 50040,
            "time": 57.598333333333336,
            "velocity": 0.5039370078740157
          },
          {
            "duration": 0.18833333333333258,
            "durationTicks": 113,
            "midi": 58,
            "name": "A#3",
            "ticks": 50160,
            "time": 57.79833333333334,
            "velocity": 0.5039370078740157
          },
          {
            "duration": 0.18833333333333258,
            "durationTicks": 113,
            "midi": 56,
            "name": "G#3",
            "ticks": 50400,
            "time": 58.19833333333334,
            "velocity": 0.5039370078740157
          },
          {
            "duration": 0.18833333333333258,
            "durationTicks": 113,
            "midi": 60,
            "name": "C4",
            "ticks": 50400,
            "time": 58.19833333333334,
            "velocity": 0.5039370078740157
          },
          {
            "duration": 0.18833333333333258,
            "durationTicks": 113,
            "midi": 58,
            "name": "A#3",
            "ticks": 50520,
            "time": 58.39833333333334,
            "velocity": 0.5039370078740157
          },
          {
            "duration": 0.3783333333333374,
            "durationTicks": 227,
            "midi": 56,
            "name": "G#3",
            "ticks": 50640,
            "time": 58.598333333333336,
            "velocity": 0.5039370078740157
          },
          {
            "duration": 0.3783333333333374,
            "durationTicks": 227,
            "midi": 53,
            "name": "F3",
            "ticks": 50880,
            "time": 58.998333333333335,
            "velocity": 0.5039370078740157
          },
          {
            "duration": 0.18833333333333258,
            "durationTicks": 113,
            "midi": 58,
            "name": "A#3",
            "ticks": 51120,
            "time": 59.39833333333334,
            "velocity": 0.5039370078740157
          },
          {
            "duration": 0.18833333333333258,
            "durationTicks": 113,
            "midi": 60,
            "name": "C4",
            "ticks": 51240,
            "time": 59.598333333333336,
            "velocity": 0.5039370078740157
          },
          {
            "duration": 0.3783333333333303,
            "durationTicks": 227,
            "midi": 62,
            "name": "D4",
            "ticks": 51360,
            "time": 59.79833333333334,
            "velocity": 0.5039370078740157
          },
          {
            "duration": 0.3783333333333303,
            "durationTicks": 227,
            "midi": 50,
            "name": "D3",
            "ticks": 51600,
            "time": 60.19833333333334,
            "velocity": 0.5984251968503937
          },
          {
            "duration": 0.3783333333333374,
            "durationTicks": 227,
            "midi": 55,
            "name": "G3",
            "ticks": 51840,
            "time": 60.598333333333336,
            "velocity": 0.5039370078740157
          },
          {
            "duration": 0.3783333333333374,
            "durationTicks": 227,
            "midi": 43,
            "name": "G2",
            "ticks": 52080,
            "time": 60.998333333333335,
            "velocity": 0.5984251968503937
          },
          {
            "duration": 0.18833333333333258,
            "durationTicks": 113,
            "midi": 48,
            "name": "C3",
            "ticks": 52320,
            "time": 61.39833333333334,
            "velocity": 0.5984251968503937
          },
          {
            "duration": 0.18833333333333258,
            "durationTicks": 113,
            "midi": 48,
            "name": "C3",
            "ticks": 52560,
            "time": 61.79833333333334,
            "velocity": 0.5984251968503937
          },
          {
            "duration": 0.3783333333333303,
            "durationTicks": 227,
            "midi": 47,
            "name": "B2",
            "ticks": 52800,
            "time": 62.19833333333334,
            "velocity": 0.5984251968503937
          },
          {
            "duration": 0.18833333333333258,
            "durationTicks": 113,
            "midi": 48,
            "name": "C3",
            "ticks": 53040,
            "time": 62.598333333333336,
            "velocity": 0.5984251968503937
          },
          {
            "duration": 0.18833333333333258,
            "durationTicks": 113,
            "midi": 46,
            "name": "A#2",
            "ticks": 53280,
            "time": 62.998333333333335,
            "velocity": 0.5984251968503937
          },
          {
            "duration": 0.18833333333333258,
            "durationTicks": 113,
            "midi": 53,
            "name": "F3",
            "ticks": 53280,
            "time": 62.998333333333335,
            "velocity": 0.5984251968503937
          },
          {
            "duration": 0.18833333333333258,
            "durationTicks": 113,
            "midi": 44,
            "name": "G#2",
            "ticks": 53520,
            "time": 63.39833333333333,
            "velocity": 0.5984251968503937
          },
          {
            "duration": 0.18833333333333258,
            "durationTicks": 113,
            "midi": 53,
            "name": "F3",
            "ticks": 53520,
            "time": 63.39833333333333,
            "velocity": 0.5984251968503937
          },
          {
            "duration": 0.18833333333333258,
            "durationTicks": 113,
            "midi": 43,
            "name": "G2",
            "ticks": 53760,
            "time": 63.79833333333333,
            "velocity": 0.5984251968503937
          },
          {
            "duration": 0.18833333333333258,
            "durationTicks": 113,
            "midi": 55,
            "name": "G3",
            "ticks": 53760,
            "time": 63.79833333333333,
            "velocity": 0.5984251968503937
          },
          {
            "duration": 0.09833333333332916,
            "durationTicks": 59,
            "midi": 58,
            "name": "A#3",
            "ticks": 53880,
            "time": 63.998333333333335,
            "velocity": 0.5039370078740157
          },
          {
            "duration": 0.09833333333332916,
            "durationTicks": 59,
            "midi": 57,
            "name": "A3",
            "ticks": 54000,
            "time": 64.19833333333334,
            "velocity": 0.5039370078740157
          },
          {
            "duration": 0.09833333333332916,
            "durationTicks": 59,
            "midi": 62,
            "name": "D4",
            "ticks": 54120,
            "time": 64.39833333333334,
            "velocity": 0.5039370078740157
          },
          {
            "duration": 0.09833333333334338,
            "durationTicks": 59,
            "midi": 44,
            "name": "G#2",
            "ticks": 54240,
            "time": 64.59833333333333,
            "velocity": 0.5984251968503937
          },
          {
            "duration": 0.09833333333334338,
            "durationTicks": 59,
            "midi": 51,
            "name": "D#3",
            "ticks": 54360,
            "time": 64.79833333333333,
            "velocity": 0.5039370078740157
          },
          {
            "duration": 0.09833333333332916,
            "durationTicks": 59,
            "midi": 56,
            "name": "G#3",
            "ticks": 54480,
            "time": 64.99833333333333,
            "velocity": 0.5039370078740157
          },
          {
            "duration": 0.09833333333332916,
            "durationTicks": 59,
            "midi": 59,
            "name": "B3",
            "ticks": 54600,
            "time": 65.19833333333334,
            "velocity": 0.5039370078740157
          },
          {
            "duration": 0.09833333333332916,
            "durationTicks": 59,
            "midi": 43,
            "name": "G2",
            "ticks": 54720,
            "time": 65.39833333333334,
            "velocity": 0.5984251968503937
          },
          {
            "duration": 0.09833333333334338,
            "durationTicks": 59,
            "midi": 47,
            "name": "B2",
            "ticks": 54840,
            "time": 65.59833333333333,
            "velocity": 0.5039370078740157
          },
          {
            "duration": 0.09833333333334338,
            "durationTicks": 59,
            "midi": 53,
            "name": "F3",
            "ticks": 54960,
            "time": 65.79833333333333,
            "velocity": 0.5039370078740157
          },
          {
            "duration": 0.09833333333332916,
            "durationTicks": 59,
            "midi": 60,
            "name": "C4",
            "ticks": 55080,
            "time": 65.99833333333333,
            "velocity": 0.5039370078740157
          },
          {
            "duration": 0.09833333333332916,
            "durationTicks": 59,
            "midi": 46,
            "name": "A#2",
            "ticks": 55200,
            "time": 66.19833333333334,
            "velocity": 0.5984251968503937
          },
          {
            "duration": 0.09833333333332916,
            "durationTicks": 59,
            "midi": 59,
            "name": "B3",
            "ticks": 55320,
            "time": 66.39833333333334,
            "velocity": 0.5196850393700787
          },
          {
            "duration": 0.09833333333332916,
            "durationTicks": 59,
            "midi": 62,
            "name": "D4",
            "ticks": 55320,
            "time": 66.39833333333334,
            "velocity": 0.5196850393700787
          },
          {
            "duration": 0.09833333333334338,
            "durationTicks": 59,
            "midi": 44,
            "name": "G#2",
            "ticks": 55440,
            "time": 66.59833333333333,
            "velocity": 0.6377952755905512
          },
          {
            "duration": 0.09833333333334338,
            "durationTicks": 59,
            "midi": 56,
            "name": "G#3",
            "ticks": 55560,
            "time": 66.79833333333333,
            "velocity": 0.5511811023622047
          },
          {
            "duration": 0.09833333333334338,
            "durationTicks": 59,
            "midi": 60,
            "name": "C4",
            "ticks": 55560,
            "time": 66.79833333333333,
            "velocity": 0.5511811023622047
          },
          {
            "duration": 0.18833333333333258,
            "durationTicks": 113,
            "midi": 43,
            "name": "G2",
            "ticks": 55680,
            "time": 66.99833333333333,
            "velocity": 0.6771653543307087
          },
          {
            "duration": 0.18833333333333258,
            "durationTicks": 113,
            "midi": 55,
            "name": "G3",
            "ticks": 55680,
            "time": 66.99833333333333,
            "velocity": 0.6771653543307087
          },
          {
            "duration": 0.18833333333333258,
            "durationTicks": 113,
            "midi": 55,
            "name": "G3",
            "ticks": 55800,
            "time": 67.19833333333334,
            "velocity": 0.5826771653543307
          },
          {
            "duration": 0.18833333333333258,
            "durationTicks": 113,
            "midi": 58,
            "name": "A#3",
            "ticks": 55920,
            "time": 67.39833333333334,
            "velocity": 0.5984251968503937
          },
          {
            "duration": 0.37666666666666515,
            "durationTicks": 113,
            "midi": 63,
            "name": "D#4",
            "ticks": 56040,
            "time": 67.59833333333333,
            "velocity": 0.6141732283464567
          },
          {
            "duration": 0.3783333333333303,
            "durationTicks": 227,
            "midi": 30,
            "name": "F#1",
            "ticks": 56160,
            "time": 67.99666666666667,
            "velocity": 0.6299212598425197
          },
          {
            "duration": 0.3783333333333303,
            "durationTicks": 227,
            "midi": 42,
            "name": "F#2",
            "ticks": 56160,
            "time": 67.99666666666667,
            "velocity": 0.6299212598425197
          },
          {
            "duration": 0.09333333333333371,
            "durationTicks": 56,
            "midi": 42,
            "name": "F#2",
            "ticks": 56400,
            "time": 68.39666666666668,
            "velocity": 0.6299212598425197
          },
          {
            "duration": 0.09333333333333371,
            "durationTicks": 56,
            "midi": 50,
            "name": "D3",
            "ticks": 56460,
            "time": 68.49666666666667,
            "velocity": 0.6299212598425197
          },
          {
            "duration": 0.0933333333333195,
            "durationTicks": 56,
            "midi": 54,
            "name": "F#3",
            "ticks": 56520,
            "time": 68.59666666666668,
            "velocity": 0.6299212598425197
          },
          {
            "duration": 0.09333333333333371,
            "durationTicks": 56,
            "midi": 54,
            "name": "F#3",
            "ticks": 56580,
            "time": 68.69666666666667,
            "velocity": 0.6299212598425197
          },
          {
            "duration": 0.09333333333333371,
            "durationTicks": 56,
            "midi": 62,
            "name": "D4",
            "ticks": 56640,
            "time": 68.79666666666667,
            "velocity": 0.6299212598425197
          },
          {
            "duration": 0.09333333333333371,
            "durationTicks": 56,
            "midi": 66,
            "name": "F#4",
            "ticks": 56700,
            "time": 68.89666666666668,
            "velocity": 0.6299212598425197
          },
          {
            "duration": 0.09333333333333371,
            "durationTicks": 56,
            "midi": 66,
            "name": "F#4",
            "ticks": 56760,
            "time": 68.99666666666667,
            "velocity": 0.6299212598425197
          },
          {
            "duration": 0.0933333333333195,
            "durationTicks": 56,
            "midi": 74,
            "name": "D5",
            "ticks": 56820,
            "time": 69.09666666666668,
            "velocity": 0.6299212598425197
          },
          {
            "duration": 0.09333333333333371,
            "durationTicks": 56,
            "midi": 78,
            "name": "F#5",
            "ticks": 56880,
            "time": 69.19666666666667,
            "velocity": 0.6299212598425197
          },
          {
            "duration": 0.3783333333333303,
            "durationTicks": 227,
            "midi": 30,
            "name": "F#1",
            "ticks": 57600,
            "time": 70.39666666666668,
            "velocity": 0.6299212598425197
          },
          {
            "duration": 0.3783333333333303,
            "durationTicks": 227,
            "midi": 42,
            "name": "F#2",
            "ticks": 57600,
            "time": 70.39666666666668,
            "velocity": 0.6299212598425197
          },
          {
            "duration": 0.09333333333333371,
            "durationTicks": 56,
            "midi": 42,
            "name": "F#2",
            "ticks": 57840,
            "time": 70.79666666666667,
            "velocity": 0.6299212598425197
          },
          {
            "duration": 0.09333333333333371,
            "durationTicks": 56,
            "midi": 50,
            "name": "D3",
            "ticks": 57900,
            "time": 70.89666666666668,
            "velocity": 0.6299212598425197
          },
          {
            "duration": 0.09333333333333371,
            "durationTicks": 56,
            "midi": 54,
            "name": "F#3",
            "ticks": 57960,
            "time": 70.99666666666667,
            "velocity": 0.6299212598425197
          },
          {
            "duration": 0.09333333333333371,
            "durationTicks": 56,
            "midi": 54,
            "name": "F#3",
            "ticks": 58020,
            "time": 71.09666666666666,
            "velocity": 0.6299212598425197
          },
          {
            "duration": 0.09333333333333371,
            "durationTicks": 56,
            "midi": 62,
            "name": "D4",
            "ticks": 58080,
            "time": 71.19666666666667,
            "velocity": 0.6299212598425197
          },
          {
            "duration": 0.09333333333333371,
            "durationTicks": 56,
            "midi": 66,
            "name": "F#4",
            "ticks": 58140,
            "time": 71.29666666666667,
            "velocity": 0.6299212598425197
          },
          {
            "duration": 0.09333333333333371,
            "durationTicks": 56,
            "midi": 66,
            "name": "F#4",
            "ticks": 58200,
            "time": 71.39666666666668,
            "velocity": 0.6299212598425197
          },
          {
            "duration": 0.09333333333333371,
            "durationTicks": 56,
            "midi": 74,
            "name": "D5",
            "ticks": 58260,
            "time": 71.49666666666667,
            "velocity": 0.6299212598425197
          },
          {
            "duration": 0.09333333333333371,
            "durationTicks": 56,
            "midi": 78,
            "name": "F#5",
            "ticks": 58320,
            "time": 71.59666666666666,
            "velocity": 0.6299212598425197
          },
          {
            "duration": 0.09333333333333371,
            "durationTicks": 56,
            "midi": 66,
            "name": "F#4",
            "ticks": 58620,
            "time": 72.09666666666666,
            "velocity": 0.6299212598425197
          },
          {
            "duration": 0.09333333333333371,
            "durationTicks": 56,
            "midi": 62,
            "name": "D4",
            "ticks": 58680,
            "time": 72.19666666666667,
            "velocity": 0.6299212598425197
          },
          {
            "duration": 0.09333333333333371,
            "durationTicks": 56,
            "midi": 54,
            "name": "F#3",
            "ticks": 58740,
            "time": 72.29666666666667,
            "velocity": 0.6299212598425197
          },
          {
            "duration": 0.09333333333333371,
            "durationTicks": 56,
            "midi": 54,
            "name": "F#3",
            "ticks": 58800,
            "time": 72.39666666666668,
            "velocity": 0.6299212598425197
          },
          {
            "duration": 0.09333333333333371,
            "durationTicks": 56,
            "midi": 50,
            "name": "D3",
            "ticks": 58860,
            "time": 72.49666666666667,
            "velocity": 0.6299212598425197
          },
          {
            "duration": 0.09333333333333371,
            "durationTicks": 56,
            "midi": 42,
            "name": "F#2",
            "ticks": 58920,
            "time": 72.59666666666666,
            "velocity": 0.6299212598425197
          },
          {
            "duration": 0.3783333333333445,
            "durationTicks": 227,
            "midi": 31,
            "name": "G1",
            "ticks": 59040,
            "time": 72.79666666666667,
            "velocity": 0.6299212598425197
          },
          {
            "duration": 0.3783333333333445,
            "durationTicks": 227,
            "midi": 43,
            "name": "G2",
            "ticks": 59040,
            "time": 72.79666666666667,
            "velocity": 0.6299212598425197
          },
          {
            "duration": 0.09333333333333371,
            "durationTicks": 56,
            "midi": 47,
            "name": "B2",
            "ticks": 59280,
            "time": 73.19666666666667,
            "velocity": 0.6299212598425197
          },
          {
            "duration": 0.09333333333333371,
            "durationTicks": 56,
            "midi": 50,
            "name": "D3",
            "ticks": 59340,
            "time": 73.29666666666667,
            "velocity": 0.6299212598425197
          },
          {
            "duration": 0.09333333333333371,
            "durationTicks": 56,
            "midi": 53,
            "name": "F3",
            "ticks": 59400,
            "time": 73.39666666666668,
            "velocity": 0.6299212598425197
          },
          {
            "duration": 0.09333333333333371,
            "durationTicks": 56,
            "midi": 56,
            "name": "G#3",
            "ticks": 59460,
            "time": 73.49666666666667,
            "velocity": 0.6299212598425197
          },
          {
            "duration": 0.09333333333333371,
            "durationTicks": 56,
            "midi": 59,
            "name": "B3",
            "ticks": 59520,
            "time": 73.59666666666666,
            "velocity": 0.6299212598425197
          },
          {
            "duration": 0.09333333333333371,
            "durationTicks": 56,
            "midi": 62,
            "name": "D4",
            "ticks": 59580,
            "time": 73.69666666666667,
            "velocity": 0.6299212598425197
          },
          {
            "duration": 0.09333333333333371,
            "durationTicks": 56,
            "midi": 65,
            "name": "F4",
            "ticks": 59640,
            "time": 73.79666666666667,
            "velocity": 0.6299212598425197
          },
          {
            "duration": 0.09333333333333371,
            "durationTicks": 56,
            "midi": 68,
            "name": "G#4",
            "ticks": 59700,
            "time": 73.89666666666668,
            "velocity": 0.6299212598425197
          },
          {
            "duration": 0.09333333333333371,
            "durationTicks": 56,
            "midi": 71,
            "name": "B4",
            "ticks": 59760,
            "time": 73.99666666666667,
            "velocity": 0.6299212598425197
          },
          {
            "duration": 0.9783333333333388,
            "durationTicks": 587,
            "midi": 74,
            "name": "D5",
            "ticks": 59820,
            "time": 74.09666666666666,
            "velocity": 0.6299212598425197
          },
          {
            "duration": 0.09333333333333371,
            "durationTicks": 56,
            "midi": 77,
            "name": "F5",
            "ticks": 59880,
            "time": 74.19666666666667,
            "velocity": 0.6299212598425197
          },
          {
            "duration": 0.09333333333333371,
            "durationTicks": 56,
            "midi": 80,
            "name": "G#5",
            "ticks": 59940,
            "time": 74.29666666666667,
            "velocity": 0.6299212598425197
          },
          {
            "duration": 0.7583333333333258,
            "durationTicks": 455,
            "midi": 83,
            "name": "B5",
            "ticks": 60000,
            "time": 74.39666666666668,
            "velocity": 0.6299212598425197
          },
          {
            "duration": 0.2837499999999977,
            "durationTicks": 227,
            "midi": 56,
            "name": "G#3",
            "ticks": 60480,
            "time": 75.19666666666667,
            "velocity": 0.6299212598425197
          },
          {
            "duration": 0.2837499999999977,
            "durationTicks": 227,
            "midi": 68,
            "name": "G#4",
            "ticks": 60480,
            "time": 75.19666666666667,
            "velocity": 0.6299212598425197
          },
          {
            "duration": 0.2837499999999977,
            "durationTicks": 227,
            "midi": 53,
            "name": "F3",
            "ticks": 60720,
            "time": 75.49666666666667,
            "velocity": 0.6299212598425197
          },
          {
            "duration": 0.2837499999999977,
            "durationTicks": 227,
            "midi": 65,
            "name": "F4",
            "ticks": 60720,
            "time": 75.49666666666667,
            "velocity": 0.6299212598425197
          },
          {
            "duration": 0.28375000000001194,
            "durationTicks": 227,
            "midi": 50,
            "name": "D3",
            "ticks": 60960,
            "time": 75.79666666666667,
            "velocity": 0.6299212598425197
          },
          {
            "duration": 0.28375000000001194,
            "durationTicks": 227,
            "midi": 62,
            "name": "D4",
            "ticks": 60960,
            "time": 75.79666666666667,
            "velocity": 0.6299212598425197
          },
          {
            "duration": 0.2837499999999977,
            "durationTicks": 227,
            "midi": 47,
            "name": "B2",
            "ticks": 61200,
            "time": 76.09666666666668,
            "velocity": 0.6299212598425197
          },
          {
            "duration": 0.2837499999999977,
            "durationTicks": 227,
            "midi": 59,
            "name": "B3",
            "ticks": 61200,
            "time": 76.09666666666668,
            "velocity": 0.6299212598425197
          },
          {
            "duration": 0.2837499999999977,
            "durationTicks": 227,
            "midi": 44,
            "name": "G#2",
            "ticks": 61440,
            "time": 76.39666666666668,
            "velocity": 0.6299212598425197
          },
          {
            "duration": 0.2837499999999977,
            "durationTicks": 227,
            "midi": 56,
            "name": "G#3",
            "ticks": 61440,
            "time": 76.39666666666668,
            "velocity": 0.6299212598425197
          },
          {
            "duration": 0.2837499999999977,
            "durationTicks": 227,
            "midi": 41,
            "name": "F2",
            "ticks": 61680,
            "time": 76.69666666666667,
            "velocity": 0.6299212598425197
          },
          {
            "duration": 0.2837499999999977,
            "durationTicks": 227,
            "midi": 53,
            "name": "F3",
            "ticks": 61680,
            "time": 76.69666666666667,
            "velocity": 0.6299212598425197
          },
          {
            "duration": 0.2837499999999977,
            "durationTicks": 227,
            "midi": 41,
            "name": "F2",
            "ticks": 61920,
            "time": 76.99666666666667,
            "velocity": 0.6299212598425197
          },
          {
            "duration": 0.2837499999999977,
            "durationTicks": 227,
            "midi": 53,
            "name": "F3",
            "ticks": 61920,
            "time": 76.99666666666667,
            "velocity": 0.6299212598425197
          },
          {
            "duration": 0.28375000000001194,
            "durationTicks": 227,
            "midi": 38,
            "name": "D2",
            "ticks": 62160,
            "time": 77.29666666666667,
            "velocity": 0.6299212598425197
          },
          {
            "duration": 0.28375000000001194,
            "durationTicks": 227,
            "midi": 50,
            "name": "D3",
            "ticks": 62160,
            "time": 77.29666666666667,
            "velocity": 0.6299212598425197
          },
          {
            "duration": 0.2837499999999977,
            "durationTicks": 227,
            "midi": 35,
            "name": "B1",
            "ticks": 62400,
            "time": 77.59666666666668,
            "velocity": 0.6299212598425197
          },
          {
            "duration": 0.2837499999999977,
            "durationTicks": 227,
            "midi": 47,
            "name": "B2",
            "ticks": 62400,
            "time": 77.59666666666668,
            "velocity": 0.6299212598425197
          },
          {
            "duration": 0.3783333333333303,
            "durationTicks": 227,
            "midi": 31,
            "name": "G1",
            "ticks": 62640,
            "time": 77.89666666666668,
            "velocity": 0.6299212598425197
          },
          {
            "duration": 0.3783333333333303,
            "durationTicks": 227,
            "midi": 43,
            "name": "G2",
            "ticks": 62640,
            "time": 77.89666666666668,
            "velocity": 0.6299212598425197
          },
          {
            "duration": 0.18833333333333258,
            "durationTicks": 113,
            "midi": 55,
            "name": "G3",
            "ticks": 62880,
            "time": 78.29666666666668,
            "velocity": 0.6456692913385826
          },
          {
            "duration": 0.18833333333333258,
            "durationTicks": 113,
            "midi": 67,
            "name": "G4",
            "ticks": 62880,
            "time": 78.29666666666668,
            "velocity": 0.6456692913385826
          },
          {
            "duration": 0.18833333333333258,
            "durationTicks": 113,
            "midi": 55,
            "name": "G3",
            "ticks": 63000,
            "time": 78.49666666666667,
            "velocity": 0.6535433070866141
          },
          {
            "duration": 0.18833333333333258,
            "durationTicks": 113,
            "midi": 67,
            "name": "G4",
            "ticks": 63000,
            "time": 78.49666666666667,
            "velocity": 0.6535433070866141
          },
          {
            "duration": 0.18833333333333258,
            "durationTicks": 113,
            "midi": 53,
            "name": "F3",
            "ticks": 63120,
            "time": 78.69666666666667,
            "velocity": 0.6614173228346457
          },
          {
            "duration": 0.18833333333333258,
            "durationTicks": 113,
            "midi": 65,
            "name": "F4",
            "ticks": 63120,
            "time": 78.69666666666667,
            "velocity": 0.6614173228346457
          },
          {
            "duration": 0.18833333333333258,
            "durationTicks": 113,
            "midi": 53,
            "name": "F3",
            "ticks": 63240,
            "time": 78.89666666666668,
            "velocity": 0.6692913385826772
          },
          {
            "duration": 0.18833333333333258,
            "durationTicks": 113,
            "midi": 65,
            "name": "F4",
            "ticks": 63240,
            "time": 78.89666666666668,
            "velocity": 0.6692913385826772
          },
          {
            "duration": 0.18833333333333258,
            "durationTicks": 113,
            "midi": 50,
            "name": "D3",
            "ticks": 63360,
            "time": 79.09666666666668,
            "velocity": 0.6771653543307087
          },
          {
            "duration": 0.18833333333333258,
            "durationTicks": 113,
            "midi": 62,
            "name": "D4",
            "ticks": 63360,
            "time": 79.09666666666668,
            "velocity": 0.6771653543307087
          },
          {
            "duration": 0.18833333333333258,
            "durationTicks": 113,
            "midi": 50,
            "name": "D3",
            "ticks": 63480,
            "time": 79.29666666666668,
            "velocity": 0.6850393700787402
          },
          {
            "duration": 0.18833333333333258,
            "durationTicks": 113,
            "midi": 62,
            "name": "D4",
            "ticks": 63480,
            "time": 79.29666666666668,
            "velocity": 0.6850393700787402
          },
          {
            "duration": 0.18833333333333258,
            "durationTicks": 113,
            "midi": 47,
            "name": "B2",
            "ticks": 63600,
            "time": 79.49666666666667,
            "velocity": 0.6929133858267716
          },
          {
            "duration": 0.18833333333333258,
            "durationTicks": 113,
            "midi": 59,
            "name": "B3",
            "ticks": 63600,
            "time": 79.49666666666667,
            "velocity": 0.6929133858267716
          },
          {
            "duration": 0.18833333333333258,
            "durationTicks": 113,
            "midi": 47,
            "name": "B2",
            "ticks": 63720,
            "time": 79.69666666666667,
            "velocity": 0.7007874015748031
          },
          {
            "duration": 0.18833333333333258,
            "durationTicks": 113,
            "midi": 59,
            "name": "B3",
            "ticks": 63720,
            "time": 79.69666666666667,
            "velocity": 0.7007874015748031
          },
          {
            "duration": 0.18833333333333258,
            "durationTicks": 113,
            "midi": 44,
            "name": "G#2",
            "ticks": 63840,
            "time": 79.89666666666668,
            "velocity": 0.7086614173228346
          },
          {
            "duration": 0.18833333333333258,
            "durationTicks": 113,
            "midi": 56,
            "name": "G#3",
            "ticks": 63840,
            "time": 79.89666666666668,
            "velocity": 0.7086614173228346
          },
          {
            "duration": 0.18833333333333258,
            "durationTicks": 113,
            "midi": 44,
            "name": "G#2",
            "ticks": 63960,
            "time": 80.09666666666668,
            "velocity": 0.7165354330708661
          },
          {
            "duration": 0.18833333333333258,
            "durationTicks": 113,
            "midi": 56,
            "name": "G#3",
            "ticks": 63960,
            "time": 80.09666666666668,
            "velocity": 0.7165354330708661
          },
          {
            "duration": 0.18833333333333258,
            "durationTicks": 113,
            "midi": 43,
            "name": "G2",
            "ticks": 64080,
            "time": 80.29666666666668,
            "velocity": 0.7244094488188977
          },
          {
            "duration": 0.18833333333333258,
            "durationTicks": 113,
            "midi": 55,
            "name": "G3",
            "ticks": 64080,
            "time": 80.29666666666668,
            "velocity": 0.7244094488188977
          },
          {
            "duration": 0.18833333333333258,
            "durationTicks": 113,
            "midi": 41,
            "name": "F2",
            "ticks": 64200,
            "time": 80.49666666666667,
            "velocity": 0.7322834645669292
          },
          {
            "duration": 0.18833333333333258,
            "durationTicks": 113,
            "midi": 53,
            "name": "F3",
            "ticks": 64200,
            "time": 80.49666666666667,
            "velocity": 0.7322834645669292
          },
          {
            "duration": 0.18833333333333258,
            "durationTicks": 113,
            "midi": 38,
            "name": "D2",
            "ticks": 64320,
            "time": 80.69666666666667,
            "velocity": 0.7401574803149606
          },
          {
            "duration": 0.18833333333333258,
            "durationTicks": 113,
            "midi": 50,
            "name": "D3",
            "ticks": 64320,
            "time": 80.69666666666667,
            "velocity": 0.7401574803149606
          },
          {
            "duration": 0.18833333333333258,
            "durationTicks": 113,
            "midi": 35,
            "name": "B1",
            "ticks": 64440,
            "time": 80.89666666666668,
            "velocity": 0.7559055118110236
          },
          {
            "duration": 0.18833333333333258,
            "durationTicks": 113,
            "midi": 47,
            "name": "B2",
            "ticks": 64440,
            "time": 80.89666666666668,
            "velocity": 0.7559055118110236
          },
          {
            "duration": 0.18833333333333258,
            "durationTicks": 113,
            "midi": 31,
            "name": "G1",
            "ticks": 64560,
            "time": 81.09666666666668,
            "velocity": 0.7559055118110236
          },
          {
            "duration": 0.18833333333333258,
            "durationTicks": 113,
            "midi": 43,
            "name": "G2",
            "ticks": 64560,
            "time": 81.09666666666668,
            "velocity": 0.7559055118110236
          },
          {
            "duration": 0.18833333333333258,
            "durationTicks": 113,
            "midi": 29,
            "name": "F1",
            "ticks": 64680,
            "time": 81.29666666666668,
            "velocity": 0.7559055118110236
          },
          {
            "duration": 0.18833333333333258,
            "durationTicks": 113,
            "midi": 41,
            "name": "F2",
            "ticks": 64680,
            "time": 81.29666666666668,
            "velocity": 0.7559055118110236
          },
          {
            "duration": 0.12583333333333258,
            "durationTicks": 151,
            "midi": 24,
            "name": "C1",
            "ticks": 64800,
            "time": 81.49666666666667,
            "velocity": 0.7559055118110236
          },
          {
            "duration": 0.12583333333333258,
            "durationTicks": 151,
            "midi": 36,
            "name": "C2",
            "ticks": 64800,
            "time": 81.49666666666667,
            "velocity": 0.7559055118110236
          },
          {
            "duration": 0.12583333333333258,
            "durationTicks": 151,
            "midi": 39,
            "name": "D#2",
            "ticks": 64960,
            "time": 81.63000000000001,
            "velocity": 0.7559055118110236
          },
          {
            "duration": 0.12583333333333258,
            "durationTicks": 151,
            "midi": 43,
            "name": "G2",
            "ticks": 65120,
            "time": 81.76333333333334,
            "velocity": 0.7559055118110236
          },
          {
            "duration": 0.12583333333333258,
            "durationTicks": 151,
            "midi": 48,
            "name": "C3",
            "ticks": 65280,
            "time": 81.89666666666668,
            "velocity": 0.7559055118110236
          },
          {
            "duration": 0.12583333333333258,
            "durationTicks": 151,
            "midi": 51,
            "name": "D#3",
            "ticks": 65440,
            "time": 82.03,
            "velocity": 0.7559055118110236
          },
          {
            "duration": 0.12583333333333258,
            "durationTicks": 151,
            "midi": 55,
            "name": "G3",
            "ticks": 65600,
            "time": 82.16333333333334,
            "velocity": 0.7559055118110236
          },
          {
            "duration": 0.12583333333333258,
            "durationTicks": 151,
            "midi": 60,
            "name": "C4",
            "ticks": 65760,
            "time": 82.29666666666667,
            "velocity": 0.7559055118110236
          },
          {
            "duration": 0.12583333333333258,
            "durationTicks": 151,
            "midi": 55,
            "name": "G3",
            "ticks": 65920,
            "time": 82.43,
            "velocity": 0.7559055118110236
          },
          {
            "duration": 0.12583333333333258,
            "durationTicks": 151,
            "midi": 51,
            "name": "D#3",
            "ticks": 66080,
            "time": 82.56333333333333,
            "velocity": 0.7559055118110236
          },
          {
            "duration": 0.12583333333333258,
            "durationTicks": 151,
            "midi": 55,
            "name": "G3",
            "ticks": 66240,
            "time": 82.69666666666667,
            "velocity": 0.7559055118110236
          },
          {
            "duration": 0.12583333333333258,
            "durationTicks": 151,
            "midi": 51,
            "name": "D#3",
            "ticks": 66400,
            "time": 82.83,
            "velocity": 0.7559055118110236
          },
          {
            "duration": 0.12583333333333258,
            "durationTicks": 151,
            "midi": 48,
            "name": "C3",
            "ticks": 66560,
            "time": 82.96333333333334,
            "velocity": 0.7559055118110236
          },
          {
            "duration": 0.12583333333333258,
            "durationTicks": 151,
            "midi": 31,
            "name": "G1",
            "ticks": 66720,
            "time": 83.09666666666666,
            "velocity": 0.7559055118110236
          },
          {
            "duration": 0.12583333333333258,
            "durationTicks": 151,
            "midi": 43,
            "name": "G2",
            "ticks": 66720,
            "time": 83.09666666666666,
            "velocity": 0.7559055118110236
          },
          {
            "duration": 0.12583333333333258,
            "durationTicks": 151,
            "midi": 46,
            "name": "A#2",
            "ticks": 66880,
            "time": 83.23,
            "velocity": 0.7559055118110236
          },
          {
            "duration": 0.1258333333333468,
            "durationTicks": 151,
            "midi": 50,
            "name": "D3",
            "ticks": 67040,
            "time": 83.36333333333333,
            "velocity": 0.7559055118110236
          },
          {
            "duration": 0.12583333333333258,
            "durationTicks": 151,
            "midi": 55,
            "name": "G3",
            "ticks": 67200,
            "time": 83.49666666666667,
            "velocity": 0.7559055118110236
          },
          {
            "duration": 0.12583333333333258,
            "durationTicks": 151,
            "midi": 58,
            "name": "A#3",
            "ticks": 67360,
            "time": 83.63000000000001,
            "velocity": 0.7559055118110236
          },
          {
            "duration": 0.12583333333333258,
            "durationTicks": 151,
            "midi": 62,
            "name": "D4",
            "ticks": 67520,
            "time": 83.76333333333334,
            "velocity": 0.7559055118110236
          },
          {
            "duration": 0.12583333333333258,
            "durationTicks": 151,
            "midi": 67,
            "name": "G4",
            "ticks": 67680,
            "time": 83.89666666666668,
            "velocity": 0.7559055118110236
          },
          {
            "duration": 0.12583333333333258,
            "durationTicks": 151,
            "midi": 62,
            "name": "D4",
            "ticks": 67840,
            "time": 84.03,
            "velocity": 0.7559055118110236
          },
          {
            "duration": 0.12583333333333258,
            "durationTicks": 151,
            "midi": 58,
            "name": "A#3",
            "ticks": 68000,
            "time": 84.16333333333334,
            "velocity": 0.7559055118110236
          },
          {
            "duration": 0.12583333333333258,
            "durationTicks": 151,
            "midi": 62,
            "name": "D4",
            "ticks": 68160,
            "time": 84.29666666666667,
            "velocity": 0.7559055118110236
          },
          {
            "duration": 0.12583333333333258,
            "durationTicks": 151,
            "midi": 58,
            "name": "A#3",
            "ticks": 68320,
            "time": 84.43,
            "velocity": 0.7559055118110236
          },
          {
            "duration": 0.12583333333333258,
            "durationTicks": 151,
            "midi": 55,
            "name": "G3",
            "ticks": 68480,
            "time": 84.56333333333333,
            "velocity": 0.7559055118110236
          },
          {
            "duration": 0.12583333333333258,
            "durationTicks": 151,
            "midi": 32,
            "name": "G#1",
            "ticks": 68640,
            "time": 84.69666666666667,
            "velocity": 0.7559055118110236
          },
          {
            "duration": 0.12583333333333258,
            "durationTicks": 151,
            "midi": 44,
            "name": "G#2",
            "ticks": 68640,
            "time": 84.69666666666667,
            "velocity": 0.7559055118110236
          },
          {
            "duration": 0.12583333333333258,
            "durationTicks": 151,
            "midi": 51,
            "name": "D#3",
            "ticks": 68800,
            "time": 84.83,
            "velocity": 0.7559055118110236
          },
          {
            "duration": 0.12583333333333258,
            "durationTicks": 151,
            "midi": 55,
            "name": "G3",
            "ticks": 68960,
            "time": 84.96333333333334,
            "velocity": 0.7559055118110236
          },
          {
            "duration": 0.12583333333333258,
            "durationTicks": 151,
            "midi": 60,
            "name": "C4",
            "ticks": 69120,
            "time": 85.09666666666666,
            "velocity": 0.7559055118110236
          },
          {
            "duration": 0.12583333333333258,
            "durationTicks": 151,
            "midi": 55,
            "name": "G3",
            "ticks": 69280,
            "time": 85.23,
            "velocity": 0.7559055118110236
          },
          {
            "duration": 0.1258333333333468,
            "durationTicks": 151,
            "midi": 51,
            "name": "D#3",
            "ticks": 69440,
            "time": 85.36333333333333,
            "velocity": 0.7559055118110236
          },
          {
            "duration": 0.12583333333333258,
            "durationTicks": 151,
            "midi": 62,
            "name": "D4",
            "ticks": 69600,
            "time": 85.49666666666667,
            "velocity": 0.7559055118110236
          },
          {
            "duration": 0.12583333333333258,
            "durationTicks": 151,
            "midi": 55,
            "name": "G3",
            "ticks": 69760,
            "time": 85.63000000000001,
            "velocity": 0.7559055118110236
          },
          {
            "duration": 0.12583333333333258,
            "durationTicks": 151,
            "midi": 51,
            "name": "D#3",
            "ticks": 69920,
            "time": 85.76333333333334,
            "velocity": 0.7559055118110236
          },
          {
            "duration": 0.12583333333333258,
            "durationTicks": 151,
            "midi": 63,
            "name": "D#4",
            "ticks": 70080,
            "time": 85.89666666666668,
            "velocity": 0.7559055118110236
          },
          {
            "duration": 0.12583333333333258,
            "durationTicks": 151,
            "midi": 55,
            "name": "G3",
            "ticks": 70240,
            "time": 86.03,
            "velocity": 0.7559055118110236
          },
          {
            "duration": 0.12583333333333258,
            "durationTicks": 151,
            "midi": 51,
            "name": "D#3",
            "ticks": 70400,
            "time": 86.16333333333334,
            "velocity": 0.7559055118110236
          },
          {
            "duration": 0.12583333333333258,
            "durationTicks": 151,
            "midi": 27,
            "name": "D#1",
            "ticks": 70560,
            "time": 86.29666666666667,
            "velocity": 0.7559055118110236
          },
          {
            "duration": 0.12583333333333258,
            "durationTicks": 151,
            "midi": 39,
            "name": "D#2",
            "ticks": 70560,
            "time": 86.29666666666667,
            "velocity": 0.7559055118110236
          },
          {
            "duration": 0.12583333333333258,
            "durationTicks": 151,
            "midi": 46,
            "name": "A#2",
            "ticks": 70720,
            "time": 86.43,
            "velocity": 0.7559055118110236
          },
          {
            "duration": 0.12583333333333258,
            "durationTicks": 151,
            "midi": 51,
            "name": "D#3",
            "ticks": 70880,
            "time": 86.56333333333333,
            "velocity": 0.7559055118110236
          },
          {
            "duration": 0.12583333333333258,
            "durationTicks": 151,
            "midi": 55,
            "name": "G3",
            "ticks": 71040,
            "time": 86.69666666666667,
            "velocity": 0.7559055118110236
          },
          {
            "duration": 0.12583333333333258,
            "durationTicks": 151,
            "midi": 51,
            "name": "D#3",
            "ticks": 71200,
            "time": 86.83,
            "velocity": 0.7559055118110236
          },
          {
            "duration": 0.12583333333333258,
            "durationTicks": 151,
            "midi": 46,
            "name": "A#2",
            "ticks": 71360,
            "time": 86.96333333333334,
            "velocity": 0.7559055118110236
          },
          {
            "duration": 0.12583333333333258,
            "durationTicks": 151,
            "midi": 58,
            "name": "A#3",
            "ticks": 71520,
            "time": 87.09666666666666,
            "velocity": 0.7559055118110236
          },
          {
            "duration": 0.12583333333333258,
            "durationTicks": 151,
            "midi": 56,
            "name": "G#3",
            "ticks": 71680,
            "time": 87.23,
            "velocity": 0.7559055118110236
          },
          {
            "duration": 0.12583333333333258,
            "durationTicks": 151,
            "midi": 55,
            "name": "G3",
            "ticks": 71840,
            "time": 87.36333333333334,
            "velocity": 0.7559055118110236
          },
          {
            "duration": 0.12583333333333258,
            "durationTicks": 151,
            "midi": 55,
            "name": "G3",
            "ticks": 72000,
            "time": 87.49666666666667,
            "velocity": 0.7559055118110236
          },
          {
            "duration": 0.12583333333333258,
            "durationTicks": 151,
            "midi": 51,
            "name": "D#3",
            "ticks": 72160,
            "time": 87.63000000000001,
            "velocity": 0.7559055118110236
          },
          {
            "duration": 0.12583333333333258,
            "durationTicks": 151,
            "midi": 46,
            "name": "A#2",
            "ticks": 72320,
            "time": 87.76333333333334,
            "velocity": 0.7559055118110236
          },
          {
            "duration": 0.12583333333333258,
            "durationTicks": 151,
            "midi": 32,
            "name": "G#1",
            "ticks": 72480,
            "time": 87.89666666666668,
            "velocity": 0.7559055118110236
          },
          {
            "duration": 0.12583333333333258,
            "durationTicks": 151,
            "midi": 44,
            "name": "G#2",
            "ticks": 72480,
            "time": 87.89666666666668,
            "velocity": 0.7559055118110236
          },
          {
            "duration": 0.12583333333333258,
            "durationTicks": 151,
            "midi": 44,
            "name": "G#2",
            "ticks": 72640,
            "time": 88.03,
            "velocity": 0.7559055118110236
          },
          {
            "duration": 0.12583333333333258,
            "durationTicks": 151,
            "midi": 51,
            "name": "D#3",
            "ticks": 72800,
            "time": 88.16333333333334,
            "velocity": 0.7559055118110236
          },
          {
            "duration": 0.12583333333333258,
            "durationTicks": 151,
            "midi": 58,
            "name": "A#3",
            "ticks": 72960,
            "time": 88.29666666666667,
            "velocity": 0.7559055118110236
          },
          {
            "duration": 0.12583333333333258,
            "durationTicks": 151,
            "midi": 51,
            "name": "D#3",
            "ticks": 73120,
            "time": 88.43,
            "velocity": 0.7559055118110236
          },
          {
            "duration": 0.12583333333333258,
            "durationTicks": 151,
            "midi": 46,
            "name": "A#2",
            "ticks": 73280,
            "time": 88.56333333333333,
            "velocity": 0.7559055118110236
          },
          {
            "duration": 0.12583333333333258,
            "durationTicks": 151,
            "midi": 60,
            "name": "C4",
            "ticks": 73440,
            "time": 88.69666666666667,
            "velocity": 0.7559055118110236
          },
          {
            "duration": 0.12583333333333258,
            "durationTicks": 151,
            "midi": 51,
            "name": "D#3",
            "ticks": 73600,
            "time": 88.83,
            "velocity": 0.7559055118110236
          },
          {
            "duration": 0.12583333333333258,
            "durationTicks": 151,
            "midi": 46,
            "name": "A#2",
            "ticks": 73760,
            "time": 88.96333333333334,
            "velocity": 0.7559055118110236
          },
          {
            "duration": 0.12583333333333258,
            "durationTicks": 151,
            "midi": 60,
            "name": "C4",
            "ticks": 73920,
            "time": 89.09666666666666,
            "velocity": 0.7559055118110236
          },
          {
            "duration": 0.12583333333333258,
            "durationTicks": 151,
            "midi": 51,
            "name": "D#3",
            "ticks": 74080,
            "time": 89.23,
            "velocity": 0.7559055118110236
          },
          {
            "duration": 0.12583333333333258,
            "durationTicks": 151,
            "midi": 46,
            "name": "A#2",
            "ticks": 74240,
            "time": 89.36333333333334,
            "velocity": 0.7559055118110236
          },
          {
            "duration": 0.12583333333333258,
            "durationTicks": 151,
            "midi": 27,
            "name": "D#1",
            "ticks": 74400,
            "time": 89.49666666666667,
            "velocity": 0.7559055118110236
          },
          {
            "duration": 0.12583333333333258,
            "durationTicks": 151,
            "midi": 39,
            "name": "D#2",
            "ticks": 74400,
            "time": 89.49666666666667,
            "velocity": 0.7559055118110236
          },
          {
            "duration": 0.1258333333333468,
            "durationTicks": 151,
            "midi": 46,
            "name": "A#2",
            "ticks": 74560,
            "time": 89.63,
            "velocity": 0.7559055118110236
          },
          {
            "duration": 0.12583333333333258,
            "durationTicks": 151,
            "midi": 51,
            "name": "D#3",
            "ticks": 74720,
            "time": 89.76333333333334,
            "velocity": 0.7559055118110236
          },
          {
            "duration": 0.12583333333333258,
            "durationTicks": 151,
            "midi": 58,
            "name": "A#3",
            "ticks": 74880,
            "time": 89.89666666666668,
            "velocity": 0.7559055118110236
          },
          {
            "duration": 0.12583333333333258,
            "durationTicks": 151,
            "midi": 51,
            "name": "D#3",
            "ticks": 75040,
            "time": 90.03,
            "velocity": 0.7559055118110236
          },
          {
            "duration": 0.12583333333333258,
            "durationTicks": 151,
            "midi": 46,
            "name": "A#2",
            "ticks": 75200,
            "time": 90.16333333333334,
            "velocity": 0.7559055118110236
          },
          {
            "duration": 0.12583333333333258,
            "durationTicks": 151,
            "midi": 63,
            "name": "D#4",
            "ticks": 75360,
            "time": 90.29666666666667,
            "velocity": 0.7559055118110236
          },
          {
            "duration": 0.12583333333333258,
            "durationTicks": 151,
            "midi": 58,
            "name": "A#3",
            "ticks": 75520,
            "time": 90.43,
            "velocity": 0.7559055118110236
          },
          {
            "duration": 0.12583333333333258,
            "durationTicks": 151,
            "midi": 55,
            "name": "G3",
            "ticks": 75680,
            "time": 90.56333333333333,
            "velocity": 0.7559055118110236
          },
          {
            "duration": 0.12583333333333258,
            "durationTicks": 151,
            "midi": 55,
            "name": "G3",
            "ticks": 75840,
            "time": 90.69666666666667,
            "velocity": 0.7559055118110236
          },
          {
            "duration": 0.12583333333333258,
            "durationTicks": 151,
            "midi": 51,
            "name": "D#3",
            "ticks": 76000,
            "time": 90.83,
            "velocity": 0.7559055118110236
          },
          {
            "duration": 0.12583333333333258,
            "durationTicks": 151,
            "midi": 46,
            "name": "A#2",
            "ticks": 76160,
            "time": 90.96333333333334,
            "velocity": 0.7559055118110236
          },
          {
            "duration": 0.12583333333333258,
            "durationTicks": 151,
            "midi": 29,
            "name": "F1",
            "ticks": 76320,
            "time": 91.09666666666666,
            "velocity": 0.7559055118110236
          },
          {
            "duration": 0.12583333333333258,
            "durationTicks": 151,
            "midi": 41,
            "name": "F2",
            "ticks": 76320,
            "time": 91.09666666666666,
            "velocity": 0.7559055118110236
          },
          {
            "duration": 0.12583333333333258,
            "durationTicks": 151,
            "midi": 45,
            "name": "A2",
            "ticks": 76480,
            "time": 91.23,
            "velocity": 0.7559055118110236
          },
          {
            "duration": 0.12583333333333258,
            "durationTicks": 151,
            "midi": 48,
            "name": "C3",
            "ticks": 76640,
            "time": 91.36333333333334,
            "velocity": 0.7559055118110236
          },
          {
            "duration": 0.12583333333333258,
            "durationTicks": 151,
            "midi": 53,
            "name": "F3",
            "ticks": 76800,
            "time": 91.49666666666667,
            "velocity": 0.7559055118110236
          },
          {
            "duration": 0.1258333333333468,
            "durationTicks": 151,
            "midi": 48,
            "name": "C3",
            "ticks": 76960,
            "time": 91.63,
            "velocity": 0.7559055118110236
          },
          {
            "duration": 0.12583333333333258,
            "durationTicks": 151,
            "midi": 45,
            "name": "A2",
            "ticks": 77120,
            "time": 91.76333333333334,
            "velocity": 0.7559055118110236
          },
          {
            "duration": 0.12583333333333258,
            "durationTicks": 151,
            "midi": 57,
            "name": "A3",
            "ticks": 77280,
            "time": 91.89666666666668,
            "velocity": 0.7559055118110236
          },
          {
            "duration": 0.12583333333333258,
            "durationTicks": 151,
            "midi": 53,
            "name": "F3",
            "ticks": 77440,
            "time": 92.03,
            "velocity": 0.7559055118110236
          },
          {
            "duration": 0.12583333333333258,
            "durationTicks": 151,
            "midi": 48,
            "name": "C3",
            "ticks": 77600,
            "time": 92.16333333333334,
            "velocity": 0.7559055118110236
          },
          {
            "duration": 0.12583333333333258,
            "durationTicks": 151,
            "midi": 60,
            "name": "C4",
            "ticks": 77760,
            "time": 92.29666666666667,
            "velocity": 0.7559055118110236
          },
          {
            "duration": 0.12583333333333258,
            "durationTicks": 151,
            "midi": 57,
            "name": "A3",
            "ticks": 77920,
            "time": 92.43,
            "velocity": 0.7559055118110236
          },
          {
            "duration": 0.12583333333333258,
            "durationTicks": 151,
            "midi": 53,
            "name": "F3",
            "ticks": 78080,
            "time": 92.56333333333333,
            "velocity": 0.7559055118110236
          },
          {
            "duration": 0.12583333333333258,
            "durationTicks": 151,
            "midi": 31,
            "name": "G1",
            "ticks": 78240,
            "time": 92.69666666666667,
            "velocity": 0.7559055118110236
          },
          {
            "duration": 0.12583333333333258,
            "durationTicks": 151,
            "midi": 43,
            "name": "G2",
            "ticks": 78240,
            "time": 92.69666666666667,
            "velocity": 0.7559055118110236
          },
          {
            "duration": 0.1258333333333468,
            "durationTicks": 151,
            "midi": 47,
            "name": "B2",
            "ticks": 78400,
            "time": 92.83,
            "velocity": 0.7559055118110236
          },
          {
            "duration": 0.12583333333333258,
            "durationTicks": 151,
            "midi": 50,
            "name": "D3",
            "ticks": 78560,
            "time": 92.96333333333334,
            "velocity": 0.7559055118110236
          },
          {
            "duration": 0.12583333333333258,
            "durationTicks": 151,
            "midi": 55,
            "name": "G3",
            "ticks": 78720,
            "time": 93.09666666666666,
            "velocity": 0.7559055118110236
          },
          {
            "duration": 0.12583333333333258,
            "durationTicks": 151,
            "midi": 50,
            "name": "D3",
            "ticks": 78880,
            "time": 93.23,
            "velocity": 0.7559055118110236
          },
          {
            "duration": 0.12583333333333258,
            "durationTicks": 151,
            "midi": 47,
            "name": "B2",
            "ticks": 79040,
            "time": 93.36333333333334,
            "velocity": 0.7559055118110236
          },
          {
            "duration": 0.12583333333333258,
            "durationTicks": 151,
            "midi": 59,
            "name": "B3",
            "ticks": 79200,
            "time": 93.49666666666667,
            "velocity": 0.7559055118110236
          },
          {
            "duration": 0.1258333333333468,
            "durationTicks": 151,
            "midi": 55,
            "name": "G3",
            "ticks": 79360,
            "time": 93.63,
            "velocity": 0.7559055118110236
          },
          {
            "duration": 0.12583333333333258,
            "durationTicks": 151,
            "midi": 53,
            "name": "F3",
            "ticks": 79520,
            "time": 93.76333333333334,
            "velocity": 0.7559055118110236
          },
          {
            "duration": 0.12583333333333258,
            "durationTicks": 151,
            "midi": 52,
            "name": "E3",
            "ticks": 79680,
            "time": 93.89666666666668,
            "velocity": 0.7559055118110236
          },
          {
            "duration": 0.12583333333333258,
            "durationTicks": 151,
            "midi": 50,
            "name": "D3",
            "ticks": 79840,
            "time": 94.03,
            "velocity": 0.7559055118110236
          },
          {
            "duration": 0.12583333333333258,
            "durationTicks": 151,
            "midi": 47,
            "name": "B2",
            "ticks": 80000,
            "time": 94.16333333333334,
            "velocity": 0.7559055118110236
          },
          {
            "duration": 0.3791666666666771,
            "durationTicks": 455,
            "midi": 24,
            "name": "C1",
            "ticks": 80160,
            "time": 94.29666666666667,
            "velocity": 0.7559055118110236
          },
          {
            "duration": 0.3791666666666771,
            "durationTicks": 455,
            "midi": 36,
            "name": "C2",
            "ticks": 80160,
            "time": 94.29666666666667,
            "velocity": 0.7559055118110236
          },
          {
            "duration": 0.3991666666666589,
            "durationTicks": 479,
            "midi": 48,
            "name": "C3",
            "ticks": 80640,
            "time": 94.69666666666667,
            "velocity": 0.7559055118110236
          },
          {
            "duration": 0.332499999999996,
            "durationTicks": 399,
            "midi": 55,
            "name": "G3",
            "ticks": 80719,
            "time": 94.7625,
            "velocity": 0.7559055118110236
          },
          {
            "duration": 0.26583333333333314,
            "durationTicks": 319,
            "midi": 63,
            "name": "D#4",
            "ticks": 80799,
            "time": 94.82916666666667,
            "velocity": 0.7559055118110236
          },
          {
            "duration": 0.12583333333333258,
            "durationTicks": 151,
            "midi": 63,
            "name": "D#4",
            "ticks": 81120,
            "time": 95.09666666666666,
            "velocity": 0.7559055118110236
          },
          {
            "duration": 0.12583333333333258,
            "durationTicks": 151,
            "midi": 67,
            "name": "G4",
            "ticks": 81120,
            "time": 95.09666666666666,
            "velocity": 0.7559055118110236
          },
          {
            "duration": 0.12583333333333258,
            "durationTicks": 151,
            "midi": 60,
            "name": "C4",
            "ticks": 81280,
            "time": 95.23,
            "velocity": 0.7559055118110236
          },
          {
            "duration": 0.12583333333333258,
            "durationTicks": 151,
            "midi": 55,
            "name": "G3",
            "ticks": 81440,
            "time": 95.36333333333334,
            "velocity": 0.7559055118110236
          },
          {
            "duration": 0.12583333333333258,
            "durationTicks": 151,
            "midi": 51,
            "name": "D#3",
            "ticks": 81600,
            "time": 95.49666666666667,
            "velocity": 0.7559055118110236
          },
          {
            "duration": 0.12583333333333258,
            "durationTicks": 151,
            "midi": 55,
            "name": "G3",
            "ticks": 81600,
            "time": 95.49666666666667,
            "velocity": 0.7559055118110236
          },
          {
            "duration": 0.12583333333333258,
            "durationTicks": 151,
            "midi": 48,
            "name": "C3",
            "ticks": 81760,
            "time": 95.63000000000001,
            "velocity": 0.7559055118110236
          },
          {
            "duration": 0.12583333333333258,
            "durationTicks": 151,
            "midi": 43,
            "name": "G2",
            "ticks": 81920,
            "time": 95.76333333333334,
            "velocity": 0.7559055118110236
          },
          {
            "duration": 0.3791666666666629,
            "durationTicks": 455,
            "midi": 31,
            "name": "G1",
            "ticks": 82080,
            "time": 95.89666666666668,
            "velocity": 0.7559055118110236
          },
          {
            "duration": 0.3791666666666629,
            "durationTicks": 455,
            "midi": 43,
            "name": "G2",
            "ticks": 82080,
            "time": 95.89666666666668,
            "velocity": 0.7559055118110236
          },
          {
            "duration": 0.3991666666666731,
            "durationTicks": 479,
            "midi": 55,
            "name": "G3",
            "ticks": 82560,
            "time": 96.29666666666667,
            "velocity": 0.7559055118110236
          },
          {
            "duration": 0.332499999999996,
            "durationTicks": 399,
            "midi": 58,
            "name": "A#3",
            "ticks": 82639,
            "time": 96.36250000000001,
            "velocity": 0.7559055118110236
          },
          {
            "duration": 0.26583333333333314,
            "durationTicks": 319,
            "midi": 62,
            "name": "D4",
            "ticks": 82719,
            "time": 96.42916666666667,
            "velocity": 0.7559055118110236
          },
          {
            "duration": 0.12583333333333258,
            "durationTicks": 151,
            "midi": 67,
            "name": "G4",
            "ticks": 83040,
            "time": 96.69666666666667,
            "velocity": 0.7559055118110236
          },
          {
            "duration": 0.12583333333333258,
            "durationTicks": 151,
            "midi": 70,
            "name": "A#4",
            "ticks": 83040,
            "time": 96.69666666666667,
            "velocity": 0.7559055118110236
          },
          {
            "duration": 0.12583333333333258,
            "durationTicks": 151,
            "midi": 62,
            "name": "D4",
            "ticks": 83200,
            "time": 96.83000000000001,
            "velocity": 0.7559055118110236
          },
          {
            "duration": 0.12583333333333258,
            "durationTicks": 151,
            "midi": 58,
            "name": "A#3",
            "ticks": 83360,
            "time": 96.96333333333334,
            "velocity": 0.7559055118110236
          },
          {
            "duration": 0.12583333333333258,
            "durationTicks": 151,
            "midi": 55,
            "name": "G3",
            "ticks": 83520,
            "time": 97.09666666666666,
            "velocity": 0.7559055118110236
          },
          {
            "duration": 0.12583333333333258,
            "durationTicks": 151,
            "midi": 58,
            "name": "A#3",
            "ticks": 83520,
            "time": 97.09666666666666,
            "velocity": 0.7559055118110236
          },
          {
            "duration": 0.12583333333333258,
            "durationTicks": 151,
            "midi": 50,
            "name": "D3",
            "ticks": 83680,
            "time": 97.23,
            "velocity": 0.7559055118110236
          },
          {
            "duration": 0.12583333333333258,
            "durationTicks": 151,
            "midi": 46,
            "name": "A#2",
            "ticks": 83840,
            "time": 97.36333333333334,
            "velocity": 0.7559055118110236
          },
          {
            "duration": 0.3791666666666629,
            "durationTicks": 455,
            "midi": 32,
            "name": "G#1",
            "ticks": 84000,
            "time": 97.49666666666667,
            "velocity": 0.7559055118110236
          },
          {
            "duration": 0.3791666666666629,
            "durationTicks": 455,
            "midi": 44,
            "name": "G#2",
            "ticks": 84000,
            "time": 97.49666666666667,
            "velocity": 0.7559055118110236
          },
          {
            "duration": 0.12583333333333258,
            "durationTicks": 151,
            "midi": 68,
            "name": "G#4",
            "ticks": 84480,
            "time": 97.89666666666668,
            "velocity": 0.7559055118110236
          },
          {
            "duration": 0.12583333333333258,
            "durationTicks": 151,
            "midi": 72,
            "name": "C5",
            "ticks": 84480,
            "time": 97.89666666666668,
            "velocity": 0.7559055118110236
          },
          {
            "duration": 0.12583333333333258,
            "durationTicks": 151,
            "midi": 63,
            "name": "D#4",
            "ticks": 84640,
            "time": 98.03,
            "velocity": 0.7559055118110236
          },
          {
            "duration": 0.12583333333333258,
            "durationTicks": 151,
            "midi": 60,
            "name": "C4",
            "ticks": 84800,
            "time": 98.16333333333334,
            "velocity": 0.7559055118110236
          },
          {
            "duration": 0.12583333333333258,
            "durationTicks": 151,
            "midi": 68,
            "name": "G#4",
            "ticks": 84960,
            "time": 98.29666666666667,
            "velocity": 0.7559055118110236
          },
          {
            "duration": 0.12583333333333258,
            "durationTicks": 151,
            "midi": 74,
            "name": "D5",
            "ticks": 84960,
            "time": 98.29666666666667,
            "velocity": 0.7559055118110236
          },
          {
            "duration": 0.12583333333333258,
            "durationTicks": 151,
            "midi": 63,
            "name": "D#4",
            "ticks": 85120,
            "time": 98.43,
            "velocity": 0.7559055118110236
          },
          {
            "duration": 0.12583333333333258,
            "durationTicks": 151,
            "midi": 62,
            "name": "D4",
            "ticks": 85280,
            "time": 98.56333333333333,
            "velocity": 0.7559055118110236
          },
          {
            "duration": 0.12583333333333258,
            "durationTicks": 151,
            "midi": 51,
            "name": "D#3",
            "ticks": 85440,
            "time": 98.69666666666667,
            "velocity": 0.7559055118110236
          },
          {
            "duration": 0.12583333333333258,
            "durationTicks": 151,
            "midi": 44,
            "name": "G#2",
            "ticks": 85600,
            "time": 98.83000000000001,
            "velocity": 0.7559055118110236
          },
          {
            "duration": 0.12583333333333258,
            "durationTicks": 151,
            "midi": 39,
            "name": "D#2",
            "ticks": 85760,
            "time": 98.96333333333334,
            "velocity": 0.7559055118110236
          },
          {
            "duration": 0.3791666666666771,
            "durationTicks": 455,
            "midi": 27,
            "name": "D#1",
            "ticks": 85920,
            "time": 99.09666666666666,
            "velocity": 0.7559055118110236
          },
          {
            "duration": 0.3791666666666771,
            "durationTicks": 455,
            "midi": 39,
            "name": "D#2",
            "ticks": 85920,
            "time": 99.09666666666666,
            "velocity": 0.7559055118110236
          },
          {
            "duration": 0.3991666666666731,
            "durationTicks": 479,
            "midi": 46,
            "name": "A#2",
            "ticks": 86400,
            "time": 99.49666666666667,
            "velocity": 0.7559055118110236
          },
          {
            "duration": 0.33250000000001023,
            "durationTicks": 399,
            "midi": 51,
            "name": "D#3",
            "ticks": 86479,
            "time": 99.5625,
            "velocity": 0.7559055118110236
          },
          {
            "duration": 0.26583333333334735,
            "durationTicks": 319,
            "midi": 55,
            "name": "G3",
            "ticks": 86559,
            "time": 99.62916666666666,
            "velocity": 0.7559055118110236
          },
          {
            "duration": 0.19916666666667027,
            "durationTicks": 239,
            "midi": 58,
            "name": "A#3",
            "ticks": 86640,
            "time": 99.69666666666667,
            "velocity": 0.7559055118110236
          },
          {
            "duration": 0.12583333333333258,
            "durationTicks": 151,
            "midi": 55,
            "name": "G3",
            "ticks": 87360,
            "time": 100.29666666666667,
            "velocity": 0.7559055118110236
          },
          {
            "duration": 0.12583333333333258,
            "durationTicks": 151,
            "midi": 58,
            "name": "A#3",
            "ticks": 87360,
            "time": 100.29666666666667,
            "velocity": 0.7559055118110236
          },
          {
            "duration": 0.12583333333333258,
            "durationTicks": 151,
            "midi": 51,
            "name": "D#3",
            "ticks": 87520,
            "time": 100.43,
            "velocity": 0.7559055118110236
          },
          {
            "duration": 0.12583333333333258,
            "durationTicks": 151,
            "midi": 46,
            "name": "A#2",
            "ticks": 87680,
            "time": 100.56333333333333,
            "velocity": 0.7559055118110236
          },
          {
            "duration": 0.3791666666666629,
            "durationTicks": 455,
            "midi": 32,
            "name": "G#1",
            "ticks": 87840,
            "time": 100.69666666666667,
            "velocity": 0.7559055118110236
          },
          {
            "duration": 0.3791666666666629,
            "durationTicks": 455,
            "midi": 44,
            "name": "G#2",
            "ticks": 87840,
            "time": 100.69666666666667,
            "velocity": 0.7559055118110236
          },
          {
            "duration": 0.12583333333333258,
            "durationTicks": 151,
            "midi": 60,
            "name": "C4",
            "ticks": 88320,
            "time": 101.09666666666666,
            "velocity": 0.7559055118110236
          },
          {
            "duration": 0.12583333333333258,
            "durationTicks": 151,
            "midi": 67,
            "name": "G4",
            "ticks": 88320,
            "time": 101.09666666666666,
            "velocity": 0.7559055118110236
          },
          {
            "duration": 0.12583333333333258,
            "durationTicks": 151,
            "midi": 56,
            "name": "G#3",
            "ticks": 88480,
            "time": 101.23,
            "velocity": 0.7559055118110236
          },
          {
            "duration": 0.12583333333333258,
            "durationTicks": 151,
            "midi": 51,
            "name": "D#3",
            "ticks": 88640,
            "time": 101.36333333333334,
            "velocity": 0.7559055118110236
          },
          {
            "duration": 0.12583333333333258,
            "durationTicks": 151,
            "midi": 60,
            "name": "C4",
            "ticks": 88800,
            "time": 101.49666666666667,
            "velocity": 0.7559055118110236
          },
          {
            "duration": 0.12583333333333258,
            "durationTicks": 151,
            "midi": 65,
            "name": "F4",
            "ticks": 88800,
            "time": 101.49666666666667,
            "velocity": 0.7559055118110236
          },
          {
            "duration": 0.12583333333333258,
            "durationTicks": 151,
            "midi": 56,
            "name": "G#3",
            "ticks": 88960,
            "time": 101.63000000000001,
            "velocity": 0.7559055118110236
          },
          {
            "duration": 0.12583333333333258,
            "durationTicks": 151,
            "midi": 51,
            "name": "D#3",
            "ticks": 89120,
            "time": 101.76333333333334,
            "velocity": 0.7559055118110236
          },
          {
            "duration": 0.12583333333333258,
            "durationTicks": 151,
            "midi": 60,
            "name": "C4",
            "ticks": 89280,
            "time": 101.89666666666668,
            "velocity": 0.7559055118110236
          },
          {
            "duration": 0.12583333333333258,
            "durationTicks": 151,
            "midi": 63,
            "name": "D#4",
            "ticks": 89280,
            "time": 101.89666666666668,
            "velocity": 0.7559055118110236
          },
          {
            "duration": 0.12583333333333258,
            "durationTicks": 151,
            "midi": 56,
            "name": "G#3",
            "ticks": 89440,
            "time": 102.03,
            "velocity": 0.7559055118110236
          },
          {
            "duration": 0.12583333333333258,
            "durationTicks": 151,
            "midi": 51,
            "name": "D#3",
            "ticks": 89600,
            "time": 102.16333333333334,
            "velocity": 0.7559055118110236
          },
          {
            "duration": 0.3791666666666771,
            "durationTicks": 455,
            "midi": 27,
            "name": "D#1",
            "ticks": 89760,
            "time": 102.29666666666667,
            "velocity": 0.7559055118110236
          },
          {
            "duration": 0.3791666666666771,
            "durationTicks": 455,
            "midi": 39,
            "name": "D#2",
            "ticks": 89760,
            "time": 102.29666666666667,
            "velocity": 0.7559055118110236
          },
          {
            "duration": 0.12583333333333258,
            "durationTicks": 151,
            "midi": 55,
            "name": "G3",
            "ticks": 90240,
            "time": 102.69666666666667,
            "velocity": 0.7559055118110236
          },
          {
            "duration": 0.12583333333333258,
            "durationTicks": 151,
            "midi": 58,
            "name": "A#3",
            "ticks": 90240,
            "time": 102.69666666666667,
            "velocity": 0.7559055118110236
          },
          {
            "duration": 0.12583333333333258,
            "durationTicks": 151,
            "midi": 51,
            "name": "D#3",
            "ticks": 90400,
            "time": 102.83000000000001,
            "velocity": 0.7559055118110236
          },
          {
            "duration": 0.12583333333333258,
            "durationTicks": 151,
            "midi": 46,
            "name": "A#2",
            "ticks": 90560,
            "time": 102.96333333333334,
            "velocity": 0.7559055118110236
          },
          {
            "duration": 0.12583333333333258,
            "durationTicks": 151,
            "midi": 58,
            "name": "A#3",
            "ticks": 90720,
            "time": 103.09666666666666,
            "velocity": 0.7559055118110236
          },
          {
            "duration": 0.12583333333333258,
            "durationTicks": 151,
            "midi": 63,
            "name": "D#4",
            "ticks": 90720,
            "time": 103.09666666666666,
            "velocity": 0.7559055118110236
          },
          {
            "duration": 0.12583333333333258,
            "durationTicks": 151,
            "midi": 55,
            "name": "G3",
            "ticks": 90880,
            "time": 103.23,
            "velocity": 0.7559055118110236
          },
          {
            "duration": 0.12583333333333258,
            "durationTicks": 151,
            "midi": 51,
            "name": "D#3",
            "ticks": 91040,
            "time": 103.36333333333334,
            "velocity": 0.7559055118110236
          },
          {
            "duration": 0.12583333333333258,
            "durationTicks": 151,
            "midi": 63,
            "name": "D#4",
            "ticks": 91200,
            "time": 103.49666666666667,
            "velocity": 0.7559055118110236
          },
          {
            "duration": 0.12583333333333258,
            "durationTicks": 151,
            "midi": 67,
            "name": "G4",
            "ticks": 91200,
            "time": 103.49666666666667,
            "velocity": 0.7559055118110236
          },
          {
            "duration": 0.12583333333333258,
            "durationTicks": 151,
            "midi": 58,
            "name": "A#3",
            "ticks": 91360,
            "time": 103.63000000000001,
            "velocity": 0.7559055118110236
          },
          {
            "duration": 0.12583333333333258,
            "durationTicks": 151,
            "midi": 55,
            "name": "G3",
            "ticks": 91520,
            "time": 103.76333333333334,
            "velocity": 0.7559055118110236
          },
          {
            "duration": 0.3791666666666629,
            "durationTicks": 455,
            "midi": 29,
            "name": "F1",
            "ticks": 91680,
            "time": 103.89666666666668,
            "velocity": 0.7559055118110236
          },
          {
            "duration": 0.3791666666666629,
            "durationTicks": 455,
            "midi": 41,
            "name": "F2",
            "ticks": 91680,
            "time": 103.89666666666668,
            "velocity": 0.7559055118110236
          },
          {
            "duration": 0.3791666666666771,
            "durationTicks": 455,
            "midi": 48,
            "name": "C3",
            "ticks": 92160,
            "time": 104.29666666666667,
            "velocity": 0.7559055118110236
          },
          {
            "duration": 0.3791666666666771,
            "durationTicks": 455,
            "midi": 53,
            "name": "F3",
            "ticks": 92160,
            "time": 104.29666666666667,
            "velocity": 0.7559055118110236
          },
          {
            "duration": 0.3791666666666771,
            "durationTicks": 455,
            "midi": 57,
            "name": "A3",
            "ticks": 92160,
            "time": 104.29666666666667,
            "velocity": 0.7559055118110236
          },
          {
            "duration": 0.12583333333333258,
            "durationTicks": 151,
            "midi": 57,
            "name": "A3",
            "ticks": 92640,
            "time": 104.69666666666667,
            "velocity": 0.7559055118110236
          },
          {
            "duration": 0.12583333333333258,
            "durationTicks": 151,
            "midi": 60,
            "name": "C4",
            "ticks": 92640,
            "time": 104.69666666666667,
            "velocity": 0.7559055118110236
          },
          {
            "duration": 0.12583333333333258,
            "durationTicks": 151,
            "midi": 53,
            "name": "F3",
            "ticks": 92800,
            "time": 104.83000000000001,
            "velocity": 0.7559055118110236
          },
          {
            "duration": 0.12583333333333258,
            "durationTicks": 151,
            "midi": 48,
            "name": "C3",
            "ticks": 92960,
            "time": 104.96333333333334,
            "velocity": 0.7559055118110236
          },
          {
            "duration": 0.12583333333333258,
            "durationTicks": 151,
            "midi": 53,
            "name": "F3",
            "ticks": 93120,
            "time": 105.09666666666666,
            "velocity": 0.7559055118110236
          },
          {
            "duration": 0.12583333333333258,
            "durationTicks": 151,
            "midi": 57,
            "name": "A3",
            "ticks": 93120,
            "time": 105.09666666666666,
            "velocity": 0.7559055118110236
          },
          {
            "duration": 0.12583333333333258,
            "durationTicks": 151,
            "midi": 48,
            "name": "C3",
            "ticks": 93280,
            "time": 105.23,
            "velocity": 0.7559055118110236
          },
          {
            "duration": 0.12583333333333258,
            "durationTicks": 151,
            "midi": 45,
            "name": "A2",
            "ticks": 93440,
            "time": 105.36333333333334,
            "velocity": 0.7559055118110236
          },
          {
            "duration": 0.3791666666666629,
            "durationTicks": 455,
            "midi": 31,
            "name": "G1",
            "ticks": 93600,
            "time": 105.49666666666667,
            "velocity": 0.7559055118110236
          },
          {
            "duration": 0.3791666666666629,
            "durationTicks": 455,
            "midi": 43,
            "name": "G2",
            "ticks": 93600,
            "time": 105.49666666666667,
            "velocity": 0.7559055118110236
          },
          {
            "duration": 0.12583333333333258,
            "durationTicks": 151,
            "midi": 59,
            "name": "B3",
            "ticks": 94080,
            "time": 105.89666666666668,
            "velocity": 0.7559055118110236
          },
          {
            "duration": 0.12583333333333258,
            "durationTicks": 151,
            "midi": 62,
            "name": "D4",
            "ticks": 94080,
            "time": 105.89666666666668,
            "velocity": 0.7559055118110236
          },
          {
            "duration": 0.12583333333333258,
            "durationTicks": 151,
            "midi": 55,
            "name": "G3",
            "ticks": 94240,
            "time": 106.03,
            "velocity": 0.7559055118110236
          },
          {
            "duration": 0.12583333333333258,
            "durationTicks": 151,
            "midi": 50,
            "name": "D3",
            "ticks": 94400,
            "time": 106.16333333333334,
            "velocity": 0.7559055118110236
          },
          {
            "duration": 0.12583333333333258,
            "durationTicks": 151,
            "midi": 55,
            "name": "G3",
            "ticks": 94560,
            "time": 106.29666666666667,
            "velocity": 0.7559055118110236
          },
          {
            "duration": 0.12583333333333258,
            "durationTicks": 151,
            "midi": 59,
            "name": "B3",
            "ticks": 94560,
            "time": 106.29666666666667,
            "velocity": 0.7559055118110236
          },
          {
            "duration": 0.12583333333333258,
            "durationTicks": 151,
            "midi": 50,
            "name": "D3",
            "ticks": 94720,
            "time": 106.43,
            "velocity": 0.7559055118110236
          },
          {
            "duration": 0.12583333333333258,
            "durationTicks": 151,
            "midi": 47,
            "name": "B2",
            "ticks": 94880,
            "time": 106.56333333333333,
            "velocity": 0.7559055118110236
          },
          {
            "duration": 0.12583333333333258,
            "durationTicks": 151,
            "midi": 50,
            "name": "D3",
            "ticks": 95040,
            "time": 106.69666666666667,
            "velocity": 0.7559055118110236
          },
          {
            "duration": 0.12583333333333258,
            "durationTicks": 151,
            "midi": 55,
            "name": "G3",
            "ticks": 95040,
            "time": 106.69666666666667,
            "velocity": 0.7559055118110236
          },
          {
            "duration": 0.12583333333333258,
            "durationTicks": 151,
            "midi": 47,
            "name": "B2",
            "ticks": 95200,
            "time": 106.83000000000001,
            "velocity": 0.7559055118110236
          },
          {
            "duration": 0.12583333333333258,
            "durationTicks": 151,
            "midi": 43,
            "name": "G2",
            "ticks": 95360,
            "time": 106.96333333333334,
            "velocity": 0.7559055118110236
          },
          {
            "duration": 0.3783333333333303,
            "durationTicks": 227,
            "midi": 33,
            "name": "A1",
            "ticks": 95520,
            "time": 107.09666666666666,
            "velocity": 0.7559055118110236
          },
          {
            "duration": 0.3783333333333303,
            "durationTicks": 227,
            "midi": 45,
            "name": "A2",
            "ticks": 95520,
            "time": 107.09666666666666,
            "velocity": 0.7559055118110236
          },
          {
            "duration": 0.3783333333333303,
            "durationTicks": 227,
            "midi": 48,
            "name": "C3",
            "ticks": 95760,
            "time": 107.49666666666667,
            "velocity": 0.7559055118110236
          },
          {
            "duration": 0.3783333333333303,
            "durationTicks": 227,
            "midi": 52,
            "name": "E3",
            "ticks": 95760,
            "time": 107.49666666666667,
            "velocity": 0.7559055118110236
          },
          {
            "duration": 0.3783333333333303,
            "durationTicks": 227,
            "midi": 52,
            "name": "E3",
            "ticks": 96000,
            "time": 107.89666666666666,
            "velocity": 0.7559055118110236
          },
          {
            "duration": 0.3783333333333303,
            "durationTicks": 227,
            "midi": 57,
            "name": "A3",
            "ticks": 96000,
            "time": 107.89666666666666,
            "velocity": 0.7559055118110236
          },
          {
            "duration": 0.3783333333333303,
            "durationTicks": 227,
            "midi": 57,
            "name": "A3",
            "ticks": 96240,
            "time": 108.29666666666667,
            "velocity": 0.7559055118110236
          },
          {
            "duration": 0.3783333333333303,
            "durationTicks": 227,
            "midi": 60,
            "name": "C4",
            "ticks": 96240,
            "time": 108.29666666666667,
            "velocity": 0.7559055118110236
          },
          {
            "duration": 0.3783333333333303,
            "durationTicks": 227,
            "midi": 64,
            "name": "E4",
            "ticks": 96240,
            "time": 108.29666666666667,
            "velocity": 0.7559055118110236
          },
          {
            "duration": 0.3783333333333445,
            "durationTicks": 227,
            "midi": 32,
            "name": "G#1",
            "ticks": 96480,
            "time": 108.69666666666666,
            "velocity": 0.7559055118110236
          },
          {
            "duration": 0.3783333333333445,
            "durationTicks": 227,
            "midi": 44,
            "name": "G#2",
            "ticks": 96480,
            "time": 108.69666666666666,
            "velocity": 0.7559055118110236
          },
          {
            "duration": 0.3783333333333303,
            "durationTicks": 227,
            "midi": 44,
            "name": "G#2",
            "ticks": 96720,
            "time": 109.09666666666666,
            "velocity": 0.7559055118110236
          },
          {
            "duration": 0.3783333333333303,
            "durationTicks": 227,
            "midi": 52,
            "name": "E3",
            "ticks": 96720,
            "time": 109.09666666666666,
            "velocity": 0.7559055118110236
          },
          {
            "duration": 0.3783333333333303,
            "durationTicks": 227,
            "midi": 56,
            "name": "G#3",
            "ticks": 96720,
            "time": 109.09666666666666,
            "velocity": 0.7559055118110236
          },
          {
            "duration": 0.3783333333333303,
            "durationTicks": 227,
            "midi": 56,
            "name": "G#3",
            "ticks": 96960,
            "time": 109.49666666666667,
            "velocity": 0.7559055118110236
          },
          {
            "duration": 0.3783333333333303,
            "durationTicks": 227,
            "midi": 64,
            "name": "E4",
            "ticks": 96960,
            "time": 109.49666666666667,
            "velocity": 0.7559055118110236
          },
          {
            "duration": 0.3783333333333303,
            "durationTicks": 227,
            "midi": 68,
            "name": "G#4",
            "ticks": 96960,
            "time": 109.49666666666667,
            "velocity": 0.7559055118110236
          },
          {
            "duration": 0.3783333333333303,
            "durationTicks": 227,
            "midi": 68,
            "name": "G#4",
            "ticks": 97200,
            "time": 109.89666666666666,
            "velocity": 0.7559055118110236
          },
          {
            "duration": 0.3783333333333303,
            "durationTicks": 227,
            "midi": 76,
            "name": "E5",
            "ticks": 97200,
            "time": 109.89666666666666,
            "velocity": 0.7559055118110236
          },
          {
            "duration": 0.3783333333333303,
            "durationTicks": 227,
            "midi": 80,
            "name": "G#5",
            "ticks": 97200,
            "time": 109.89666666666666,
            "velocity": 0.7559055118110236
          },
          {
            "duration": 0.3783333333333303,
            "durationTicks": 227,
            "midi": 31,
            "name": "G1",
            "ticks": 97440,
            "time": 110.29666666666667,
            "velocity": 0.7559055118110236
          },
          {
            "duration": 0.3783333333333303,
            "durationTicks": 227,
            "midi": 43,
            "name": "G2",
            "ticks": 97440,
            "time": 110.29666666666667,
            "velocity": 0.7559055118110236
          },
          {
            "duration": 0.3783333333333445,
            "durationTicks": 227,
            "midi": 43,
            "name": "G2",
            "ticks": 97680,
            "time": 110.69666666666666,
            "velocity": 0.7559055118110236
          },
          {
            "duration": 0.3783333333333445,
            "durationTicks": 227,
            "midi": 48,
            "name": "C3",
            "ticks": 97680,
            "time": 110.69666666666666,
            "velocity": 0.7559055118110236
          },
          {
            "duration": 0.3783333333333445,
            "durationTicks": 227,
            "midi": 52,
            "name": "E3",
            "ticks": 97680,
            "time": 110.69666666666666,
            "velocity": 0.7559055118110236
          },
          {
            "duration": 0.3783333333333303,
            "durationTicks": 227,
            "midi": 55,
            "name": "G3",
            "ticks": 97920,
            "time": 111.09666666666666,
            "velocity": 0.7559055118110236
          },
          {
            "duration": 0.3783333333333303,
            "durationTicks": 227,
            "midi": 60,
            "name": "C4",
            "ticks": 97920,
            "time": 111.09666666666666,
            "velocity": 0.7559055118110236
          },
          {
            "duration": 0.3783333333333303,
            "durationTicks": 227,
            "midi": 64,
            "name": "E4",
            "ticks": 97920,
            "time": 111.09666666666666,
            "velocity": 0.7559055118110236
          },
          {
            "duration": 0.3783333333333303,
            "durationTicks": 227,
            "midi": 60,
            "name": "C4",
            "ticks": 98160,
            "time": 111.49666666666667,
            "velocity": 0.7559055118110236
          },
          {
            "duration": 0.3783333333333303,
            "durationTicks": 227,
            "midi": 64,
            "name": "E4",
            "ticks": 98160,
            "time": 111.49666666666667,
            "velocity": 0.7559055118110236
          },
          {
            "duration": 0.3783333333333303,
            "durationTicks": 227,
            "midi": 30,
            "name": "F#1",
            "ticks": 98400,
            "time": 111.89666666666666,
            "velocity": 0.7559055118110236
          },
          {
            "duration": 0.3783333333333303,
            "durationTicks": 227,
            "midi": 42,
            "name": "F#2",
            "ticks": 98400,
            "time": 111.89666666666666,
            "velocity": 0.7559055118110236
          },
          {
            "duration": 0.125,
            "durationTicks": 75,
            "midi": 45,
            "name": "A2",
            "ticks": 98640,
            "time": 112.29666666666667,
            "velocity": 0.7559055118110236
          },
          {
            "duration": 0.125,
            "durationTicks": 75,
            "midi": 50,
            "name": "D3",
            "ticks": 98720,
            "time": 112.42999999999999,
            "velocity": 0.7559055118110236
          },
          {
            "duration": 0.125,
            "durationTicks": 75,
            "midi": 54,
            "name": "F#3",
            "ticks": 98800,
            "time": 112.56333333333333,
            "velocity": 0.7559055118110236
          },
          {
            "duration": 0.125,
            "durationTicks": 75,
            "midi": 57,
            "name": "A3",
            "ticks": 98880,
            "time": 112.69666666666666,
            "velocity": 0.7559055118110236
          },
          {
            "duration": 0.125,
            "durationTicks": 75,
            "midi": 62,
            "name": "D4",
            "ticks": 98960,
            "time": 112.83,
            "velocity": 0.7559055118110236
          },
          {
            "duration": 0.125,
            "durationTicks": 75,
            "midi": 66,
            "name": "F#4",
            "ticks": 99040,
            "time": 112.96333333333334,
            "velocity": 0.7559055118110236
          },
          {
            "duration": 0.3783333333333303,
            "durationTicks": 227,
            "midi": 69,
            "name": "A4",
            "ticks": 99120,
            "time": 113.09666666666666,
            "velocity": 0.7559055118110236
          },
          {
            "duration": 0.3783333333333303,
            "durationTicks": 227,
            "midi": 29,
            "name": "F1",
            "ticks": 99360,
            "time": 113.49666666666667,
            "velocity": 0.7559055118110236
          },
          {
            "duration": 0.3783333333333303,
            "durationTicks": 227,
            "midi": 41,
            "name": "F2",
            "ticks": 99360,
            "time": 113.49666666666667,
            "velocity": 0.7559055118110236
          },
          {
            "duration": 0.3783333333333303,
            "durationTicks": 227,
            "midi": 57,
            "name": "A3",
            "ticks": 99600,
            "time": 113.89666666666666,
            "velocity": 0.7559055118110236
          },
          {
            "duration": 0.3783333333333303,
            "durationTicks": 227,
            "midi": 60,
            "name": "C4",
            "ticks": 99600,
            "time": 113.89666666666666,
            "velocity": 0.7559055118110236
          },
          {
            "duration": 0.3783333333333303,
            "durationTicks": 227,
            "midi": 65,
            "name": "F4",
            "ticks": 99600,
            "time": 113.89666666666666,
            "velocity": 0.7559055118110236
          },
          {
            "duration": 0.3783333333333303,
            "durationTicks": 227,
            "midi": 65,
            "name": "F4",
            "ticks": 99840,
            "time": 114.29666666666667,
            "velocity": 0.7559055118110236
          },
          {
            "duration": 0.3783333333333303,
            "durationTicks": 227,
            "midi": 69,
            "name": "A4",
            "ticks": 99840,
            "time": 114.29666666666667,
            "velocity": 0.7559055118110236
          },
          {
            "duration": 0.3783333333333303,
            "durationTicks": 227,
            "midi": 72,
            "name": "C5",
            "ticks": 99840,
            "time": 114.29666666666667,
            "velocity": 0.7559055118110236
          },
          {
            "duration": 0.3783333333333303,
            "durationTicks": 227,
            "midi": 28,
            "name": "E1",
            "ticks": 100320,
            "time": 115.09666666666666,
            "velocity": 0.7559055118110236
          },
          {
            "duration": 0.3783333333333303,
            "durationTicks": 227,
            "midi": 40,
            "name": "E2",
            "ticks": 100320,
            "time": 115.09666666666666,
            "velocity": 0.7559055118110236
          },
          {
            "duration": 0.3783333333333303,
            "durationTicks": 227,
            "midi": 55,
            "name": "G3",
            "ticks": 100560,
            "time": 115.49666666666667,
            "velocity": 0.7559055118110236
          },
          {
            "duration": 0.3783333333333303,
            "durationTicks": 227,
            "midi": 59,
            "name": "B3",
            "ticks": 100560,
            "time": 115.49666666666667,
            "velocity": 0.7559055118110236
          },
          {
            "duration": 0.3783333333333303,
            "durationTicks": 227,
            "midi": 62,
            "name": "D4",
            "ticks": 100560,
            "time": 115.49666666666667,
            "velocity": 0.7559055118110236
          },
          {
            "duration": 0.3783333333333303,
            "durationTicks": 227,
            "midi": 27,
            "name": "D#1",
            "ticks": 100800,
            "time": 115.89666666666666,
            "velocity": 0.7559055118110236
          },
          {
            "duration": 0.3783333333333303,
            "durationTicks": 227,
            "midi": 39,
            "name": "D#2",
            "ticks": 100800,
            "time": 115.89666666666666,
            "velocity": 0.7559055118110236
          },
          {
            "duration": 0.3783333333333303,
            "durationTicks": 227,
            "midi": 54,
            "name": "F#3",
            "ticks": 101040,
            "time": 116.29666666666667,
            "velocity": 0.7401574803149606
          },
          {
            "duration": 0.3783333333333303,
            "durationTicks": 227,
            "midi": 58,
            "name": "A#3",
            "ticks": 101040,
            "time": 116.29666666666667,
            "velocity": 0.7401574803149606
          },
          {
            "duration": 0.3783333333333303,
            "durationTicks": 227,
            "midi": 61,
            "name": "C#4",
            "ticks": 101040,
            "time": 116.29666666666667,
            "velocity": 0.7401574803149606
          },
          {
            "duration": 0.75833333333334,
            "durationTicks": 455,
            "midi": 26,
            "name": "D1",
            "ticks": 101280,
            "time": 116.69666666666666,
            "velocity": 0.6929133858267716
          },
          {
            "duration": 0.75833333333334,
            "durationTicks": 455,
            "midi": 38,
            "name": "D2",
            "ticks": 101280,
            "time": 116.69666666666666,
            "velocity": 0.6929133858267716
          },
          {
            "duration": 0.9166666666666572,
            "durationTicks": 455,
            "midi": 31,
            "name": "G1",
            "ticks": 101760,
            "time": 117.49666666666667,
            "velocity": 0.5984251968503937
          },
          {
            "duration": 0.9166666666666572,
            "durationTicks": 455,
            "midi": 43,
            "name": "G2",
            "ticks": 101760,
            "time": 117.49666666666667,
            "velocity": 0.5984251968503937
          },
          {
            "duration": 0.28333333333333144,
            "durationTicks": 170,
            "midi": 57,
            "name": "A3",
            "ticks": 102240,
            "time": 118.495,
            "velocity": 0.5039370078740157
          },
          {
            "duration": 0.18833333333333258,
            "durationTicks": 113,
            "midi": 64,
            "name": "E4",
            "ticks": 102420,
            "time": 118.795,
            "velocity": 0.5039370078740157
          },
          {
            "duration": 0.09333333333333371,
            "durationTicks": 56,
            "midi": 69,
            "name": "A4",
            "ticks": 102540,
            "time": 118.995,
            "velocity": 0.5039370078740157
          },
          {
            "duration": 0.0933333333333195,
            "durationTicks": 56,
            "midi": 71,
            "name": "B4",
            "ticks": 102600,
            "time": 119.09500000000001,
            "velocity": 0.5039370078740157
          },
          {
            "duration": 0.09333333333333371,
            "durationTicks": 56,
            "midi": 72,
            "name": "C5",
            "ticks": 102660,
            "time": 119.19500000000001,
            "velocity": 0.5039370078740157
          },
          {
            "duration": 0.09333333333333371,
            "durationTicks": 56,
            "midi": 74,
            "name": "D5",
            "ticks": 102720,
            "time": 119.295,
            "velocity": 0.5039370078740157
          },
          {
            "duration": 0.09333333333333371,
            "durationTicks": 56,
            "midi": 76,
            "name": "E5",
            "ticks": 102780,
            "time": 119.39500000000001,
            "velocity": 0.5039370078740157
          },
          {
            "duration": 0.09333333333333371,
            "durationTicks": 56,
            "midi": 77,
            "name": "F5",
            "ticks": 102840,
            "time": 119.495,
            "velocity": 0.5039370078740157
          },
          {
            "duration": 0.0933333333333195,
            "durationTicks": 56,
            "midi": 79,
            "name": "G5",
            "ticks": 102900,
            "time": 119.59500000000001,
            "velocity": 0.5039370078740157
          },
          {
            "duration": 0.09333333333333371,
            "durationTicks": 56,
            "midi": 81,
            "name": "A5",
            "ticks": 102960,
            "time": 119.69500000000001,
            "velocity": 0.5039370078740157
          },
          {
            "duration": 0.09333333333333371,
            "durationTicks": 56,
            "midi": 83,
            "name": "B5",
            "ticks": 103020,
            "time": 119.795,
            "velocity": 0.5039370078740157
          },
          {
            "duration": 0.09333333333333371,
            "durationTicks": 56,
            "midi": 84,
            "name": "C6",
            "ticks": 103080,
            "time": 119.89500000000001,
            "velocity": 0.5039370078740157
          },
          {
            "duration": 0.09333333333333371,
            "durationTicks": 56,
            "midi": 86,
            "name": "D6",
            "ticks": 103140,
            "time": 119.995,
            "velocity": 0.5039370078740157
          },
          {
            "duration": 0.3783333333333445,
            "durationTicks": 227,
            "midi": 45,
            "name": "A2",
            "ticks": 103200,
            "time": 120.095,
            "velocity": 0.5039370078740157
          },
          {
            "duration": 0.3783333333333303,
            "durationTicks": 227,
            "midi": 52,
            "name": "E3",
            "ticks": 103440,
            "time": 120.495,
            "velocity": 0.5039370078740157
          },
          {
            "duration": 0.7583333333333258,
            "durationTicks": 455,
            "midi": 57,
            "name": "A3",
            "ticks": 103680,
            "time": 120.89500000000001,
            "velocity": 0.5039370078740157
          },
          {
            "duration": 0.7583333333333258,
            "durationTicks": 455,
            "midi": 60,
            "name": "C4",
            "ticks": 103680,
            "time": 120.89500000000001,
            "velocity": 0.5039370078740157
          },
          {
            "duration": 0.7583333333333258,
            "durationTicks": 455,
            "midi": 64,
            "name": "E4",
            "ticks": 103680,
            "time": 120.89500000000001,
            "velocity": 0.5039370078740157
          },
          {
            "duration": 0.3783333333333303,
            "durationTicks": 227,
            "midi": 42,
            "name": "F#2",
            "ticks": 104160,
            "time": 121.69500000000001,
            "velocity": 0.5039370078740157
          },
          {
            "duration": 0.3783333333333445,
            "durationTicks": 227,
            "midi": 54,
            "name": "F#3",
            "ticks": 104400,
            "time": 122.095,
            "velocity": 0.5039370078740157
          },
          {
            "duration": 0.3783333333333303,
            "durationTicks": 227,
            "midi": 60,
            "name": "C4",
            "ticks": 104640,
            "time": 122.495,
            "velocity": 0.5039370078740157
          },
          {
            "duration": 0.3783333333333303,
            "durationTicks": 227,
            "midi": 64,
            "name": "E4",
            "ticks": 104640,
            "time": 122.495,
            "velocity": 0.5039370078740157
          },
          {
            "duration": 0.3783333333333303,
            "durationTicks": 227,
            "midi": 69,
            "name": "A4",
            "ticks": 104640,
            "time": 122.495,
            "velocity": 0.5039370078740157
          },
          {
            "duration": 0.3783333333333445,
            "durationTicks": 227,
            "midi": 40,
            "name": "E2",
            "ticks": 105120,
            "time": 123.295,
            "velocity": 0.5039370078740157
          },
          {
            "duration": 0.3783333333333303,
            "durationTicks": 227,
            "midi": 56,
            "name": "G#3",
            "ticks": 105360,
            "time": 123.69500000000001,
            "velocity": 0.5039370078740157
          },
          {
            "duration": 0.3783333333333445,
            "durationTicks": 227,
            "midi": 62,
            "name": "D4",
            "ticks": 105600,
            "time": 124.095,
            "velocity": 0.5039370078740157
          },
          {
            "duration": 0.3783333333333445,
            "durationTicks": 227,
            "midi": 69,
            "name": "A4",
            "ticks": 105600,
            "time": 124.095,
            "velocity": 0.5039370078740157
          },
          {
            "duration": 0.3783333333333303,
            "durationTicks": 227,
            "midi": 45,
            "name": "A2",
            "ticks": 106080,
            "time": 124.89500000000001,
            "velocity": 0.5039370078740157
          },
          {
            "duration": 0.3783333333333445,
            "durationTicks": 227,
            "midi": 57,
            "name": "A3",
            "ticks": 106320,
            "time": 125.295,
            "velocity": 0.5039370078740157
          },
          {
            "duration": 0.3783333333333303,
            "durationTicks": 227,
            "midi": 61,
            "name": "C#4",
            "ticks": 106560,
            "time": 125.69500000000001,
            "velocity": 0.5039370078740157
          },
          {
            "duration": 0.3783333333333303,
            "durationTicks": 227,
            "midi": 64,
            "name": "E4",
            "ticks": 106560,
            "time": 125.69500000000001,
            "velocity": 0.5039370078740157
          },
          {
            "duration": 0.3783333333333303,
            "durationTicks": 227,
            "midi": 67,
            "name": "G4",
            "ticks": 106560,
            "time": 125.69500000000001,
            "velocity": 0.5039370078740157
          },
          {
            "duration": 0.3783333333333303,
            "durationTicks": 227,
            "midi": 50,
            "name": "D3",
            "ticks": 107040,
            "time": 126.495,
            "velocity": 0.5039370078740157
          },
          {
            "duration": 0.3783333333333303,
            "durationTicks": 227,
            "midi": 57,
            "name": "A3",
            "ticks": 107280,
            "time": 126.89500000000001,
            "velocity": 0.5039370078740157
          },
          {
            "duration": 0.3783333333333445,
            "durationTicks": 227,
            "midi": 62,
            "name": "D4",
            "ticks": 107520,
            "time": 127.295,
            "velocity": 0.5039370078740157
          },
          {
            "duration": 0.3783333333333445,
            "durationTicks": 227,
            "midi": 65,
            "name": "F4",
            "ticks": 107520,
            "time": 127.295,
            "velocity": 0.5039370078740157
          },
          {
            "duration": 0.3783333333333303,
            "durationTicks": 227,
            "midi": 52,
            "name": "E3",
            "ticks": 108000,
            "time": 128.095,
            "velocity": 0.5039370078740157
          },
          {
            "duration": 0.3783333333333303,
            "durationTicks": 227,
            "midi": 60,
            "name": "C4",
            "ticks": 108240,
            "time": 128.495,
            "velocity": 0.5039370078740157
          },
          {
            "duration": 0.3783333333333303,
            "durationTicks": 227,
            "midi": 64,
            "name": "E4",
            "ticks": 108480,
            "time": 128.895,
            "velocity": 0.5039370078740157
          },
          {
            "duration": 0.3783333333333303,
            "durationTicks": 227,
            "midi": 69,
            "name": "A4",
            "ticks": 108480,
            "time": 128.895,
            "velocity": 0.5039370078740157
          },
          {
            "duration": 0.3783333333333587,
            "durationTicks": 227,
            "midi": 52,
            "name": "E3",
            "ticks": 108960,
            "time": 129.695,
            "velocity": 0.5039370078740157
          },
          {
            "duration": 0.3783333333333303,
            "durationTicks": 227,
            "midi": 60,
            "name": "C4",
            "ticks": 109200,
            "time": 130.095,
            "velocity": 0.5039370078740157
          },
          {
            "duration": 0.3783333333333303,
            "durationTicks": 227,
            "midi": 62,
            "name": "D4",
            "ticks": 109440,
            "time": 130.495,
            "velocity": 0.5039370078740157
          },
          {
            "duration": 0.3783333333333303,
            "durationTicks": 227,
            "midi": 71,
            "name": "B4",
            "ticks": 109440,
            "time": 130.495,
            "velocity": 0.5039370078740157
          },
          {
            "duration": 0.28333333333333144,
            "durationTicks": 170,
            "midi": 57,
            "name": "A3",
            "ticks": 109920,
            "time": 131.29500000000002,
            "velocity": 0.5039370078740157
          },
          {
            "duration": 0.18833333333333258,
            "durationTicks": 113,
            "midi": 64,
            "name": "E4",
            "ticks": 110100,
            "time": 131.595,
            "velocity": 0.5039370078740157
          },
          {
            "duration": 0.09333333333333371,
            "durationTicks": 56,
            "midi": 69,
            "name": "A4",
            "ticks": 110220,
            "time": 131.79500000000002,
            "velocity": 0.5039370078740157
          },
          {
            "duration": 0.09333333333333371,
            "durationTicks": 56,
            "midi": 71,
            "name": "B4",
            "ticks": 110280,
            "time": 131.895,
            "velocity": 0.5039370078740157
          },
          {
            "duration": 0.09333333333333371,
            "durationTicks": 56,
            "midi": 72,
            "name": "C5",
            "ticks": 110340,
            "time": 131.995,
            "velocity": 0.5039370078740157
          },
          {
            "duration": 0.09333333333333371,
            "durationTicks": 56,
            "midi": 74,
            "name": "D5",
            "ticks": 110400,
            "time": 132.095,
            "velocity": 0.5039370078740157
          },
          {
            "duration": 2.1383333333333496,
            "durationTicks": 1283,
            "midi": 81,
            "name": "A5",
            "ticks": 110460,
            "time": 132.195,
            "velocity": 0.5039370078740157
          },
          {
            "duration": 0.09333333333333371,
            "durationTicks": 56,
            "midi": 83,
            "name": "B5",
            "ticks": 110520,
            "time": 132.29500000000002,
            "velocity": 0.5039370078740157
          },
          {
            "duration": 0.09333333333333371,
            "durationTicks": 56,
            "midi": 84,
            "name": "C6",
            "ticks": 110580,
            "time": 132.395,
            "velocity": 0.5039370078740157
          },
          {
            "duration": 0.09333333333333371,
            "durationTicks": 56,
            "midi": 86,
            "name": "D6",
            "ticks": 110640,
            "time": 132.495,
            "velocity": 0.5039370078740157
          },
          {
            "duration": 0.09333333333333371,
            "durationTicks": 56,
            "midi": 88,
            "name": "E6",
            "ticks": 110700,
            "time": 132.595,
            "velocity": 0.5039370078740157
          },
          {
            "duration": 0.09333333333333371,
            "durationTicks": 56,
            "midi": 90,
            "name": "F#6",
            "ticks": 110760,
            "time": 132.695,
            "velocity": 0.5039370078740157
          },
          {
            "duration": 0.09333333333333371,
            "durationTicks": 56,
            "midi": 91,
            "name": "G6",
            "ticks": 110820,
            "time": 132.79500000000002,
            "velocity": 0.5039370078740157
          },
          {
            "duration": 1.5183333333333167,
            "durationTicks": 911,
            "midi": 93,
            "name": "A6",
            "ticks": 110880,
            "time": 132.895,
            "velocity": 0.5039370078740157
          },
          {
            "duration": 3.038333333333327,
            "durationTicks": 1823,
            "midi": 21,
            "name": "A0",
            "ticks": 111840,
            "time": 134.495,
            "velocity": 0.5039370078740157
          },
          {
            "duration": 3.038333333333327,
            "durationTicks": 1823,
            "midi": 33,
            "name": "A1",
            "ticks": 111840,
            "time": 134.495,
            "velocity": 0.5039370078740157
          }
        ],
        "endOfTrackTicks": 113664
      }
    ]
  }