{
  "header": {
    "keySignatures": [
      {
        "key": "Bb",
        "scale": "major",
        "ticks": 0
      },
      {
        "key": "Bb",
        "scale": "major",
        "ticks": 0
      }
    ],
    "meta": [],
    "name": "Piano",
    "ppq": 480,
    "tempos": [
      {
        "bpm": 140.00014000014,
        "ticks": 0
      }
    ],
    "timeSignatures": [
      {
        "ticks": 0,
        "timeSignature": [
          6,
          4
        ],
        "measures": 0
      }
    ]
  },
  "tracks": [
    {
      "channel": 0,
      "controlChanges": {
        "6": [
          {
            "number": 6,
            "ticks": 0,
            "time": 0,
            "value": 0.09448818897637795
          }
        ],
        "7": [
          {
            "number": 7,
            "ticks": 0,
            "time": 0,
            "value": 0.7874015748031497
          }
        ],
        "10": [
          {
            "number": 10,
            "ticks": 0,
            "time": 0,
            "value": 0.5039370078740157
          }
        ],
        "91": [
          {
            "number": 91,
            "ticks": 0,
            "time": 0,
            "value": 0
          }
        ],
        "93": [
          {
            "number": 93,
            "ticks": 0,
            "time": 0,
            "value": 0
          }
        ],
        "100": [
          {
            "number": 100,
            "ticks": 0,
            "time": 0,
            "value": 0
          },
          {
            "number": 100,
            "ticks": 0,
            "time": 0,
            "value": 1
          }
        ],
        "101": [
          {
            "number": 101,
            "ticks": 0,
            "time": 0,
            "value": 0
          },
          {
            "number": 101,
            "ticks": 0,
            "time": 0,
            "value": 1
          }
        ],
        "121": [
          {
            "number": 121,
            "ticks": 0,
            "time": 0,
            "value": 0
          }
        ]
      },
      "pitchBends": [],
      "instrument": {
        "family": "piano",
        "number": 0,
        "name": "acoustic grand piano"
      },
      "name": "Piano",
      "notes": [
        {
          "duration": 0.40624959375000014,
          "durationTicks": 455,
          "midi": 70,
          "name": "A#4",
          "ticks": 4800,
          "time": 4.28571,
          "velocity": 0.3858267716535433
        },
        {
          "duration": 0.40624959374999925,
          "durationTicks": 455,
          "midi": 72,
          "name": "C5",
          "ticks": 5280,
          "time": 4.714281000000001,
          "velocity": 0.3858267716535433
        },
        {
          "duration": 0.40624959375000014,
          "durationTicks": 455,
          "midi": 74,
          "name": "D5",
          "ticks": 5760,
          "time": 5.142852,
          "velocity": 0.3858267716535433
        },
        {
          "duration": 0.40624959375000014,
          "durationTicks": 455,
          "midi": 72,
          "name": "C5",
          "ticks": 6240,
          "time": 5.571423,
          "velocity": 0.3858267716535433
        },
        {
          "duration": 0.20267836874999912,
          "durationTicks": 227,
          "midi": 70,
          "name": "A#4",
          "ticks": 6720,
          "time": 5.999994000000001,
          "velocity": 0.3858267716535433
        },
        {
          "duration": 0.6098208187500003,
          "durationTicks": 683,
          "midi": 74,
          "name": "D5",
          "ticks": 6960,
          "time": 6.214279500000001,
          "velocity": 0.3858267716535433
        },
        {
          "duration": 0.40624959375000014,
          "durationTicks": 455,
          "midi": 72,
          "name": "C5",
          "ticks": 7680,
          "time": 6.857136000000001,
          "velocity": 0.3858267716535433
        },
        {
          "duration": 0.406249593750001,
          "durationTicks": 455,
          "midi": 70,
          "name": "A#4",
          "ticks": 8160,
          "time": 7.285707,
          "velocity": 0.3858267716535433
        },
        {
          "duration": 0.8133920437500013,
          "durationTicks": 911,
          "midi": 60,
          "name": "C4",
          "ticks": 8640,
          "time": 7.714278,
          "velocity": 0.3858267716535433
        },
        {
          "duration": 1.2205344937499998,
          "durationTicks": 1367,
          "midi": 72,
          "name": "C5",
          "ticks": 8640,
          "time": 7.714278,
          "velocity": 0.3858267716535433
        },
        {
          "duration": 0.40624959374999925,
          "durationTicks": 455,
          "midi": 60,
          "name": "C4",
          "ticks": 10080,
          "time": 8.999991000000001,
          "velocity": 0.3858267716535433
        },
        {
          "duration": 0.40624959374999925,
          "durationTicks": 455,
          "midi": 70,
          "name": "A#4",
          "ticks": 10560,
          "time": 9.428562000000001,
          "velocity": 0.3858267716535433
        },
        {
          "duration": 0.20267836875,
          "durationTicks": 227,
          "midi": 72,
          "name": "C5",
          "ticks": 11040,
          "time": 9.857133000000001,
          "velocity": 0.3858267716535433
        },
        {
          "duration": 0.6098208187500003,
          "durationTicks": 683,
          "midi": 74,
          "name": "D5",
          "ticks": 11280,
          "time": 10.0714185,
          "velocity": 0.3858267716535433
        },
        {
          "duration": 0.406249593750001,
          "durationTicks": 455,
          "midi": 55,
          "name": "G3",
          "ticks": 11520,
          "time": 10.285704,
          "velocity": 0.3858267716535433
        },
        {
          "duration": 0.406249593750001,
          "durationTicks": 455,
          "midi": 72,
          "name": "C5",
          "ticks": 12000,
          "time": 10.714275,
          "velocity": 0.3858267716535433
        },
        {
          "duration": 0.20267836875,
          "durationTicks": 227,
          "midi": 70,
          "name": "A#4",
          "ticks": 12480,
          "time": 11.142846,
          "velocity": 0.3858267716535433
        },
        {
          "duration": 0.6098208187499985,
          "durationTicks": 683,
          "midi": 74,
          "name": "D5",
          "ticks": 12720,
          "time": 11.357131500000001,
          "velocity": 0.3858267716535433
        },
        {
          "duration": 0.406249593750001,
          "durationTicks": 455,
          "midi": 60,
          "name": "C4",
          "ticks": 12960,
          "time": 11.571417,
          "velocity": 0.3858267716535433
        },
        {
          "duration": 0.40624959374999925,
          "durationTicks": 455,
          "midi": 72,
          "name": "C5",
          "ticks": 13440,
          "time": 11.999988000000002,
          "velocity": 0.3858267716535433
        },
        {
          "duration": 0.20267836875,
          "durationTicks": 227,
          "midi": 70,
          "name": "A#4",
          "ticks": 13920,
          "time": 12.428559000000002,
          "velocity": 0.3858267716535433
        },
        {
          "duration": 0.6098208187500003,
          "durationTicks": 683,
          "midi": 72,
          "name": "C5",
          "ticks": 14160,
          "time": 12.6428445,
          "velocity": 0.3858267716535433
        },
        {
          "duration": 0.40624959374999925,
          "durationTicks": 455,
          "midi": 55,
          "name": "G3",
          "ticks": 14400,
          "time": 12.857130000000002,
          "velocity": 0.3858267716535433
        },
        {
          "duration": 0.40624959374999925,
          "durationTicks": 455,
          "midi": 70,
          "name": "A#4",
          "ticks": 16320,
          "time": 14.571414,
          "velocity": 0.3858267716535433
        },
        {
          "duration": 0.40624959374999925,
          "durationTicks": 455,
          "midi": 72,
          "name": "C5",
          "ticks": 16800,
          "time": 14.999985,
          "velocity": 0.3858267716535433
        },
        {
          "duration": 0.40624959374999925,
          "durationTicks": 455,
          "midi": 74,
          "name": "D5",
          "ticks": 17280,
          "time": 15.428556,
          "velocity": 0.3858267716535433
        },
        {
          "duration": 0.4062495937499975,
          "durationTicks": 455,
          "midi": 72,
          "name": "C5",
          "ticks": 17760,
          "time": 15.857127000000002,
          "velocity": 0.3858267716535433
        },
        {
          "duration": 0.20267836875000356,
          "durationTicks": 227,
          "midi": 70,
          "name": "A#4",
          "ticks": 18240,
          "time": 16.285698,
          "velocity": 0.3858267716535433
        },
        {
          "duration": 0.6098208187499985,
          "durationTicks": 683,
          "midi": 74,
          "name": "D5",
          "ticks": 18480,
          "time": 16.499983500000003,
          "velocity": 0.3858267716535433
        },
        {
          "duration": 0.406249593750001,
          "durationTicks": 455,
          "midi": 72,
          "name": "C5",
          "ticks": 19200,
          "time": 17.14284,
          "velocity": 0.3858267716535433
        },
        {
          "duration": 0.4062495937499975,
          "durationTicks": 455,
          "midi": 70,
          "name": "A#4",
          "ticks": 19680,
          "time": 17.571411,
          "velocity": 0.3858267716535433
        },
        {
          "duration": 0.8133920437499995,
          "durationTicks": 911,
          "midi": 60,
          "name": "C4",
          "ticks": 20160,
          "time": 17.999982000000003,
          "velocity": 0.3858267716535433
        },
        {
          "duration": 1.2205344937500016,
          "durationTicks": 1367,
          "midi": 72,
          "name": "C5",
          "ticks": 20160,
          "time": 17.999982000000003,
          "velocity": 0.3858267716535433
        },
        {
          "duration": 0.406249593750001,
          "durationTicks": 455,
          "midi": 60,
          "name": "C4",
          "ticks": 21600,
          "time": 19.285695,
          "velocity": 0.3858267716535433
        },
        {
          "duration": 0.4062495937499975,
          "durationTicks": 455,
          "midi": 70,
          "name": "A#4",
          "ticks": 22080,
          "time": 19.714266000000002,
          "velocity": 0.3858267716535433
        },
        {
          "duration": 0.20267836875000356,
          "durationTicks": 227,
          "midi": 72,
          "name": "C5",
          "ticks": 22560,
          "time": 20.142837,
          "velocity": 0.3858267716535433
        },
        {
          "duration": 0.6098208187499985,
          "durationTicks": 683,
          "midi": 74,
          "name": "D5",
          "ticks": 22800,
          "time": 20.357122500000003,
          "velocity": 0.3858267716535433
        },
        {
          "duration": 0.4062495937499975,
          "durationTicks": 455,
          "midi": 55,
          "name": "G3",
          "ticks": 23040,
          "time": 20.571408,
          "velocity": 0.3858267716535433
        },
        {
          "duration": 0.4062495937499975,
          "durationTicks": 455,
          "midi": 72,
          "name": "C5",
          "ticks": 23520,
          "time": 20.999979000000003,
          "velocity": 0.3858267716535433
        },
        {
          "duration": 0.20267836875000356,
          "durationTicks": 227,
          "midi": 70,
          "name": "A#4",
          "ticks": 24000,
          "time": 21.42855,
          "velocity": 0.3858267716535433
        },
        {
          "duration": 0.609820818750002,
          "durationTicks": 683,
          "midi": 74,
          "name": "D5",
          "ticks": 24240,
          "time": 21.6428355,
          "velocity": 0.3858267716535433
        },
        {
          "duration": 0.4062495937499975,
          "durationTicks": 455,
          "midi": 60,
          "name": "C4",
          "ticks": 24480,
          "time": 21.857121000000003,
          "velocity": 0.3858267716535433
        },
        {
          "duration": 0.20267836875000356,
          "durationTicks": 227,
          "midi": 72,
          "name": "C5",
          "ticks": 24960,
          "time": 22.285692,
          "velocity": 0.3858267716535433
        },
        {
          "duration": 0.6098208187499985,
          "durationTicks": 683,
          "midi": 74,
          "name": "D5",
          "ticks": 25200,
          "time": 22.499977500000004,
          "velocity": 0.3858267716535433
        },
        {
          "duration": 0.406249593750001,
          "durationTicks": 455,
          "midi": 55,
          "name": "G3",
          "ticks": 25920,
          "time": 23.142834,
          "velocity": 0.3858267716535433
        },
        {
          "duration": 0.406249593750001,
          "durationTicks": 455,
          "midi": 67,
          "name": "G4",
          "ticks": 25920,
          "time": 23.142834,
          "velocity": 0.3858267716535433
        },
        {
          "duration": 0.406249593750001,
          "durationTicks": 455,
          "midi": 70,
          "name": "A#4",
          "ticks": 28320,
          "time": 25.285689,
          "velocity": 0.3858267716535433
        },
        {
          "duration": 0.4062495937499975,
          "durationTicks": 455,
          "midi": 62,
          "name": "D4",
          "ticks": 28800,
          "time": 25.714260000000003,
          "velocity": 0.3858267716535433
        },
        {
          "duration": 0.4062495937499975,
          "durationTicks": 455,
          "midi": 67,
          "name": "G4",
          "ticks": 28800,
          "time": 25.714260000000003,
          "velocity": 0.3858267716535433
        },
        {
          "duration": 0.4062495937499975,
          "durationTicks": 455,
          "midi": 74,
          "name": "D5",
          "ticks": 28800,
          "time": 25.714260000000003,
          "velocity": 0.3858267716535433
        },
        {
          "duration": 0.406249593750001,
          "durationTicks": 455,
          "midi": 67,
          "name": "G4",
          "ticks": 29280,
          "time": 26.142831,
          "velocity": 0.3858267716535433
        },
        {
          "duration": 0.406249593750001,
          "durationTicks": 455,
          "midi": 72,
          "name": "C5",
          "ticks": 29280,
          "time": 26.142831,
          "velocity": 0.3858267716535433
        },
        {
          "duration": 0.20267836875,
          "durationTicks": 227,
          "midi": 67,
          "name": "G4",
          "ticks": 29760,
          "time": 26.571402000000003,
          "velocity": 0.3858267716535433
        },
        {
          "duration": 0.20267836875,
          "durationTicks": 227,
          "midi": 70,
          "name": "A#4",
          "ticks": 29760,
          "time": 26.571402000000003,
          "velocity": 0.3858267716535433
        },
        {
          "duration": 0.6098208187499985,
          "durationTicks": 683,
          "midi": 74,
          "name": "D5",
          "ticks": 30000,
          "time": 26.7856875,
          "velocity": 0.3858267716535433
        },
        {
          "duration": 0.406249593750001,
          "durationTicks": 455,
          "midi": 67,
          "name": "G4",
          "ticks": 30720,
          "time": 27.428544000000002,
          "velocity": 0.3858267716535433
        },
        {
          "duration": 0.406249593750001,
          "durationTicks": 455,
          "midi": 72,
          "name": "C5",
          "ticks": 30720,
          "time": 27.428544000000002,
          "velocity": 0.3858267716535433
        },
        {
          "duration": 0.406249593750001,
          "durationTicks": 455,
          "midi": 67,
          "name": "G4",
          "ticks": 31200,
          "time": 27.857115000000004,
          "velocity": 0.3858267716535433
        },
        {
          "duration": 0.406249593750001,
          "durationTicks": 455,
          "midi": 70,
          "name": "A#4",
          "ticks": 31200,
          "time": 27.857115000000004,
          "velocity": 0.3858267716535433
        },
        {
          "duration": 0.406249593750001,
          "durationTicks": 455,
          "midi": 60,
          "name": "C4",
          "ticks": 31680,
          "time": 28.285686000000002,
          "velocity": 0.3858267716535433
        },
        {
          "duration": 0.406249593750001,
          "durationTicks": 455,
          "midi": 66,
          "name": "F#4",
          "ticks": 31680,
          "time": 28.285686000000002,
          "velocity": 0.3858267716535433
        },
        {
          "duration": 0.406249593750001,
          "durationTicks": 455,
          "midi": 74,
          "name": "D5",
          "ticks": 31680,
          "time": 28.285686000000002,
          "velocity": 0.3858267716535433
        },
        {
          "duration": 0.406249593750001,
          "durationTicks": 455,
          "midi": 66,
          "name": "F#4",
          "ticks": 32160,
          "time": 28.714257000000003,
          "velocity": 0.3858267716535433
        },
        {
          "duration": 0.406249593750001,
          "durationTicks": 455,
          "midi": 72,
          "name": "C5",
          "ticks": 32160,
          "time": 28.714257000000003,
          "velocity": 0.3858267716535433
        },
        {
          "duration": 0.20267836875,
          "durationTicks": 227,
          "midi": 66,
          "name": "F#4",
          "ticks": 32640,
          "time": 29.142828,
          "velocity": 0.3858267716535433
        },
        {
          "duration": 0.20267836875,
          "durationTicks": 227,
          "midi": 70,
          "name": "A#4",
          "ticks": 32640,
          "time": 29.142828,
          "velocity": 0.3858267716535433
        },
        {
          "duration": 1.424105718749999,
          "durationTicks": 1595,
          "midi": 72,
          "name": "C5",
          "ticks": 32880,
          "time": 29.357113500000004,
          "velocity": 0.3858267716535433
        },
        {
          "duration": 0.406249593750001,
          "durationTicks": 455,
          "midi": 60,
          "name": "C4",
          "ticks": 33120,
          "time": 29.571399000000003,
          "velocity": 0.3858267716535433
        },
        {
          "duration": 0.4062495937500046,
          "durationTicks": 455,
          "midi": 65,
          "name": "F4",
          "ticks": 34560,
          "time": 30.857112,
          "velocity": 0.3858267716535433
        },
        {
          "duration": 0.4062495937500046,
          "durationTicks": 455,
          "midi": 74,
          "name": "D5",
          "ticks": 34560,
          "time": 30.857112,
          "velocity": 0.3858267716535433
        },
        {
          "duration": 0.406249593750001,
          "durationTicks": 455,
          "midi": 65,
          "name": "F4",
          "ticks": 35040,
          "time": 31.285683000000002,
          "velocity": 0.3858267716535433
        },
        {
          "duration": 0.406249593750001,
          "durationTicks": 455,
          "midi": 72,
          "name": "C5",
          "ticks": 35040,
          "time": 31.285683000000002,
          "velocity": 0.3858267716535433
        },
        {
          "duration": 0.20267836874999645,
          "durationTicks": 227,
          "midi": 65,
          "name": "F4",
          "ticks": 35520,
          "time": 31.714254000000004,
          "velocity": 0.3858267716535433
        },
        {
          "duration": 0.20267836874999645,
          "durationTicks": 227,
          "midi": 70,
          "name": "A#4",
          "ticks": 35520,
          "time": 31.714254000000004,
          "velocity": 0.3858267716535433
        },
        {
          "duration": 0.6098208187499985,
          "durationTicks": 683,
          "midi": 74,
          "name": "D5",
          "ticks": 35760,
          "time": 31.928539500000003,
          "velocity": 0.3858267716535433
        },
        {
          "duration": 0.4062495937500046,
          "durationTicks": 455,
          "midi": 60,
          "name": "C4",
          "ticks": 36000,
          "time": 32.142825,
          "velocity": 0.3858267716535433
        },
        {
          "duration": 0.4062495937500046,
          "durationTicks": 455,
          "midi": 65,
          "name": "F4",
          "ticks": 36480,
          "time": 32.571396,
          "velocity": 0.3858267716535433
        },
        {
          "duration": 0.4062495937500046,
          "durationTicks": 455,
          "midi": 72,
          "name": "C5",
          "ticks": 36480,
          "time": 32.571396,
          "velocity": 0.3858267716535433
        },
        {
          "duration": 0.2026783687499929,
          "durationTicks": 227,
          "midi": 65,
          "name": "F4",
          "ticks": 36960,
          "time": 32.999967000000005,
          "velocity": 0.3858267716535433
        },
        {
          "duration": 0.2026783687499929,
          "durationTicks": 227,
          "midi": 70,
          "name": "A#4",
          "ticks": 36960,
          "time": 32.999967000000005,
          "velocity": 0.3858267716535433
        },
        {
          "duration": 0.609820818750002,
          "durationTicks": 683,
          "midi": 74,
          "name": "D5",
          "ticks": 37200,
          "time": 33.2142525,
          "velocity": 0.3858267716535433
        },
        {
          "duration": 0.4062495937500046,
          "durationTicks": 455,
          "midi": 64,
          "name": "E4",
          "ticks": 37440,
          "time": 33.428538,
          "velocity": 0.3858267716535433
        },
        {
          "duration": 0.4062495937500046,
          "durationTicks": 455,
          "midi": 67,
          "name": "G4",
          "ticks": 37440,
          "time": 33.428538,
          "velocity": 0.3858267716535433
        },
        {
          "duration": 0.4062495937500046,
          "durationTicks": 455,
          "midi": 72,
          "name": "C5",
          "ticks": 37920,
          "time": 33.857109,
          "velocity": 0.3858267716535433
        },
        {
          "duration": 0.4062495937500046,
          "durationTicks": 455,
          "midi": 70,
          "name": "A#4",
          "ticks": 38400,
          "time": 34.28568,
          "velocity": 0.3858267716535433
        },
        {
          "duration": 0.4062495937499975,
          "durationTicks": 455,
          "midi": 64,
          "name": "E4",
          "ticks": 38880,
          "time": 34.714251000000004,
          "velocity": 0.3858267716535433
        },
        {
          "duration": 0.4062495937499975,
          "durationTicks": 455,
          "midi": 72,
          "name": "C5",
          "ticks": 38880,
          "time": 34.714251000000004,
          "velocity": 0.3858267716535433
        },
        {
          "duration": 0.4062495937500046,
          "durationTicks": 455,
          "midi": 67,
          "name": "G4",
          "ticks": 39840,
          "time": 35.571393,
          "velocity": 0.5039370078740157
        },
        {
          "duration": 0.4062495937500046,
          "durationTicks": 455,
          "midi": 79,
          "name": "G5",
          "ticks": 39840,
          "time": 35.571393,
          "velocity": 0.5039370078740157
        },
        {
          "duration": 0.4062495937499975,
          "durationTicks": 455,
          "midi": 67,
          "name": "G4",
          "ticks": 40320,
          "time": 35.999964000000006,
          "velocity": 0.5039370078740157
        },
        {
          "duration": 0.4062495937499975,
          "durationTicks": 455,
          "midi": 79,
          "name": "G5",
          "ticks": 40320,
          "time": 35.999964000000006,
          "velocity": 0.5039370078740157
        },
        {
          "duration": 0.4062495937500046,
          "durationTicks": 455,
          "midi": 69,
          "name": "A4",
          "ticks": 40800,
          "time": 36.428535000000004,
          "velocity": 0.5039370078740157
        },
        {
          "duration": 0.4062495937500046,
          "durationTicks": 455,
          "midi": 81,
          "name": "A5",
          "ticks": 40800,
          "time": 36.428535000000004,
          "velocity": 0.5039370078740157
        },
        {
          "duration": 0.4062495937500046,
          "durationTicks": 455,
          "midi": 82,
          "name": "A#5",
          "ticks": 41280,
          "time": 36.857106,
          "velocity": 0.5039370078740157
        },
        {
          "duration": 0.4062495937500046,
          "durationTicks": 455,
          "midi": 67,
          "name": "G4",
          "ticks": 41760,
          "time": 37.285677,
          "velocity": 0.5039370078740157
        },
        {
          "duration": 0.4062495937500046,
          "durationTicks": 455,
          "midi": 79,
          "name": "G5",
          "ticks": 41760,
          "time": 37.285677,
          "velocity": 0.5039370078740157
        },
        {
          "duration": 0.20267836875,
          "durationTicks": 227,
          "midi": 69,
          "name": "A4",
          "ticks": 42240,
          "time": 37.714248000000005,
          "velocity": 0.5039370078740157
        },
        {
          "duration": 0.20267836875,
          "durationTicks": 227,
          "midi": 81,
          "name": "A5",
          "ticks": 42240,
          "time": 37.714248000000005,
          "velocity": 0.5039370078740157
        },
        {
          "duration": 0.609820818750002,
          "durationTicks": 683,
          "midi": 82,
          "name": "A#5",
          "ticks": 42480,
          "time": 37.9285335,
          "velocity": 0.5039370078740157
        },
        {
          "duration": 0.4062495937500046,
          "durationTicks": 455,
          "midi": 67,
          "name": "G4",
          "ticks": 43200,
          "time": 38.57139,
          "velocity": 0.5039370078740157
        },
        {
          "duration": 0.4062495937500046,
          "durationTicks": 455,
          "midi": 79,
          "name": "G5",
          "ticks": 43200,
          "time": 38.57139,
          "velocity": 0.5039370078740157
        },
        {
          "duration": 0.4062495937499975,
          "durationTicks": 455,
          "midi": 69,
          "name": "A4",
          "ticks": 43680,
          "time": 38.999961000000006,
          "velocity": 0.5039370078740157
        },
        {
          "duration": 0.4062495937499975,
          "durationTicks": 455,
          "midi": 81,
          "name": "A5",
          "ticks": 43680,
          "time": 38.999961000000006,
          "velocity": 0.5039370078740157
        },
        {
          "duration": 0.20267836875,
          "durationTicks": 227,
          "midi": 70,
          "name": "A#4",
          "ticks": 44160,
          "time": 39.428532000000004,
          "velocity": 0.5039370078740157
        },
        {
          "duration": 0.20267836875,
          "durationTicks": 227,
          "midi": 82,
          "name": "A#5",
          "ticks": 44160,
          "time": 39.428532000000004,
          "velocity": 0.5039370078740157
        },
        {
          "duration": 1.016963268749997,
          "durationTicks": 1139,
          "midi": 74,
          "name": "D5",
          "ticks": 44400,
          "time": 39.64281750000001,
          "velocity": 0.5039370078740157
        },
        {
          "duration": 1.016963268749997,
          "durationTicks": 1139,
          "midi": 78,
          "name": "F#5",
          "ticks": 44400,
          "time": 39.64281750000001,
          "velocity": 0.5039370078740157
        },
        {
          "duration": 1.016963268749997,
          "durationTicks": 1139,
          "midi": 86,
          "name": "D6",
          "ticks": 44400,
          "time": 39.64281750000001,
          "velocity": 0.5039370078740157
        },
        {
          "duration": 0.4062495937499975,
          "durationTicks": 455,
          "midi": 70,
          "name": "A#4",
          "ticks": 45600,
          "time": 40.714245000000005,
          "velocity": 0.5039370078740157
        },
        {
          "duration": 0.4062495937499975,
          "durationTicks": 455,
          "midi": 82,
          "name": "A#5",
          "ticks": 45600,
          "time": 40.714245000000005,
          "velocity": 0.5039370078740157
        },
        {
          "duration": 0.4062495937500046,
          "durationTicks": 455,
          "midi": 74,
          "name": "D5",
          "ticks": 46080,
          "time": 41.142816,
          "velocity": 0.5039370078740157
        },
        {
          "duration": 0.4062495937500046,
          "durationTicks": 455,
          "midi": 81,
          "name": "A5",
          "ticks": 46080,
          "time": 41.142816,
          "velocity": 0.5039370078740157
        },
        {
          "duration": 0.4062495937500046,
          "durationTicks": 455,
          "midi": 86,
          "name": "D6",
          "ticks": 46080,
          "time": 41.142816,
          "velocity": 0.5039370078740157
        },
        {
          "duration": 0.4062495937500046,
          "durationTicks": 455,
          "midi": 72,
          "name": "C5",
          "ticks": 46560,
          "time": 41.571387,
          "velocity": 0.5039370078740157
        },
        {
          "duration": 0.4062495937500046,
          "durationTicks": 455,
          "midi": 84,
          "name": "C6",
          "ticks": 46560,
          "time": 41.571387,
          "velocity": 0.5039370078740157
        },
        {
          "duration": 0.2026783687499929,
          "durationTicks": 227,
          "midi": 70,
          "name": "A#4",
          "ticks": 47040,
          "time": 41.99995800000001,
          "velocity": 0.5039370078740157
        },
        {
          "duration": 0.2026783687499929,
          "durationTicks": 227,
          "midi": 82,
          "name": "A#5",
          "ticks": 47040,
          "time": 41.99995800000001,
          "velocity": 0.5039370078740157
        },
        {
          "duration": 0.609820818750002,
          "durationTicks": 683,
          "midi": 74,
          "name": "D5",
          "ticks": 47280,
          "time": 42.2142435,
          "velocity": 0.5039370078740157
        },
        {
          "duration": 0.609820818750002,
          "durationTicks": 683,
          "midi": 86,
          "name": "D6",
          "ticks": 47280,
          "time": 42.2142435,
          "velocity": 0.5039370078740157
        },
        {
          "duration": 0.8133920437499995,
          "durationTicks": 911,
          "midi": 72,
          "name": "C5",
          "ticks": 48000,
          "time": 42.8571,
          "velocity": 0.5039370078740157
        },
        {
          "duration": 0.8133920437499995,
          "durationTicks": 911,
          "midi": 84,
          "name": "C6",
          "ticks": 48000,
          "time": 42.8571,
          "velocity": 0.5039370078740157
        },
        {
          "duration": 0.4062495937499975,
          "durationTicks": 455,
          "midi": 64,
          "name": "E4",
          "ticks": 48960,
          "time": 43.714242000000006,
          "velocity": 0.5039370078740157
        },
        {
          "duration": 0.4062495937499975,
          "durationTicks": 455,
          "midi": 67,
          "name": "G4",
          "ticks": 48960,
          "time": 43.714242000000006,
          "velocity": 0.5039370078740157
        },
        {
          "duration": 0.4062495937500046,
          "durationTicks": 455,
          "midi": 64,
          "name": "E4",
          "ticks": 49440,
          "time": 44.142813000000004,
          "velocity": 0.5039370078740157
        },
        {
          "duration": 0.4062495937500046,
          "durationTicks": 455,
          "midi": 67,
          "name": "G4",
          "ticks": 49440,
          "time": 44.142813000000004,
          "velocity": 0.5039370078740157
        },
        {
          "duration": 0.4062495937500046,
          "durationTicks": 455,
          "midi": 64,
          "name": "E4",
          "ticks": 49920,
          "time": 44.571384,
          "velocity": 0.5039370078740157
        },
        {
          "duration": 0.4062495937500046,
          "durationTicks": 455,
          "midi": 67,
          "name": "G4",
          "ticks": 49920,
          "time": 44.571384,
          "velocity": 0.5039370078740157
        },
        {
          "duration": 0.4062495937499975,
          "durationTicks": 455,
          "midi": 74,
          "name": "D5",
          "ticks": 50400,
          "time": 44.99995500000001,
          "velocity": 0.48031496062992124
        },
        {
          "duration": 0.4062495937499975,
          "durationTicks": 455,
          "midi": 86,
          "name": "D6",
          "ticks": 50400,
          "time": 44.99995500000001,
          "velocity": 0.48031496062992124
        },
        {
          "duration": 0.4062495937499975,
          "durationTicks": 455,
          "midi": 72,
          "name": "C5",
          "ticks": 50880,
          "time": 45.428526000000005,
          "velocity": 0.44881889763779526
        },
        {
          "duration": 0.4062495937499975,
          "durationTicks": 455,
          "midi": 84,
          "name": "C6",
          "ticks": 50880,
          "time": 45.428526000000005,
          "velocity": 0.44881889763779526
        },
        {
          "duration": 0.4062495937500046,
          "durationTicks": 455,
          "midi": 74,
          "name": "D5",
          "ticks": 51360,
          "time": 45.857097,
          "velocity": 0.41732283464566927
        },
        {
          "duration": 0.4062495937500046,
          "durationTicks": 455,
          "midi": 86,
          "name": "D6",
          "ticks": 51360,
          "time": 45.857097,
          "velocity": 0.41732283464566927
        },
        {
          "duration": 1.2205344937500016,
          "durationTicks": 1367,
          "midi": 67,
          "name": "G4",
          "ticks": 51840,
          "time": 46.285668,
          "velocity": 0.3858267716535433
        },
        {
          "duration": 1.2205344937500016,
          "durationTicks": 1367,
          "midi": 79,
          "name": "G5",
          "ticks": 51840,
          "time": 46.285668,
          "velocity": 0.3858267716535433
        },
        {
          "duration": 1.2205344937500016,
          "durationTicks": 1367,
          "midi": 69,
          "name": "A4",
          "ticks": 53280,
          "time": 47.571381,
          "velocity": 0.3858267716535433
        },
        {
          "duration": 1.2205344937500016,
          "durationTicks": 1367,
          "midi": 81,
          "name": "A5",
          "ticks": 53280,
          "time": 47.571381,
          "velocity": 0.3858267716535433
        },
        {
          "duration": 1.2205344937500016,
          "durationTicks": 1367,
          "midi": 70,
          "name": "A#4",
          "ticks": 54720,
          "time": 48.857094000000004,
          "velocity": 0.3858267716535433
        },
        {
          "duration": 1.2205344937500016,
          "durationTicks": 1367,
          "midi": 82,
          "name": "A#5",
          "ticks": 54720,
          "time": 48.857094000000004,
          "velocity": 0.3858267716535433
        },
        {
          "duration": 1.2205344937499945,
          "durationTicks": 1367,
          "midi": 74,
          "name": "D5",
          "ticks": 56160,
          "time": 50.142807000000005,
          "velocity": 0.3858267716535433
        },
        {
          "duration": 1.2205344937499945,
          "durationTicks": 1367,
          "midi": 86,
          "name": "D6",
          "ticks": 56160,
          "time": 50.142807000000005,
          "velocity": 0.3858267716535433
        },
        {
          "duration": 1.2205344937499945,
          "durationTicks": 1367,
          "midi": 67,
          "name": "G4",
          "ticks": 57600,
          "time": 51.428520000000006,
          "velocity": 0.3858267716535433
        },
        {
          "duration": 1.2205344937499945,
          "durationTicks": 1367,
          "midi": 79,
          "name": "G5",
          "ticks": 57600,
          "time": 51.428520000000006,
          "velocity": 0.3858267716535433
        },
        {
          "duration": 1.2205344937499945,
          "durationTicks": 1367,
          "midi": 69,
          "name": "A4",
          "ticks": 59040,
          "time": 52.71423300000001,
          "velocity": 0.3858267716535433
        },
        {
          "duration": 1.2205344937499945,
          "durationTicks": 1367,
          "midi": 81,
          "name": "A5",
          "ticks": 59040,
          "time": 52.71423300000001,
          "velocity": 0.3858267716535433
        },
        {
          "duration": 1.6276769437500107,
          "durationTicks": 1823,
          "midi": 67,
          "name": "G4",
          "ticks": 60480,
          "time": 53.999946,
          "velocity": 0.3858267716535433
        },
        {
          "duration": 1.6276769437500107,
          "durationTicks": 1823,
          "midi": 70,
          "name": "A#4",
          "ticks": 60480,
          "time": 53.999946,
          "velocity": 0.3858267716535433
        },
        {
          "duration": 1.6276769437500107,
          "durationTicks": 1823,
          "midi": 79,
          "name": "G5",
          "ticks": 60480,
          "time": 53.999946,
          "velocity": 0.3858267716535433
        },
        {
          "duration": 0.40624959374999037,
          "durationTicks": 455,
          "midi": 70,
          "name": "A#4",
          "ticks": 62400,
          "time": 55.71423000000001,
          "velocity": 0.3858267716535433
        },
        {
          "duration": 0.4062495937499975,
          "durationTicks": 455,
          "midi": 72,
          "name": "C5",
          "ticks": 62880,
          "time": 56.142801000000006,
          "velocity": 0.3858267716535433
        },
        {
          "duration": 0.4062495937499975,
          "durationTicks": 455,
          "midi": 74,
          "name": "D5",
          "ticks": 63360,
          "time": 56.571372000000004,
          "velocity": 0.3858267716535433
        },
        {
          "duration": 0.4062495937499975,
          "durationTicks": 455,
          "midi": 72,
          "name": "C5",
          "ticks": 63840,
          "time": 56.999943,
          "velocity": 0.3858267716535433
        },
        {
          "duration": 0.40624959374999037,
          "durationTicks": 455,
          "midi": 70,
          "name": "A#4",
          "ticks": 64320,
          "time": 57.42851400000001,
          "velocity": 0.3858267716535433
        },
        {
          "duration": 0.4062495937499975,
          "durationTicks": 455,
          "midi": 74,
          "name": "D5",
          "ticks": 64800,
          "time": 57.857085000000005,
          "velocity": 0.3858267716535433
        },
        {
          "duration": 0.4062495937499975,
          "durationTicks": 455,
          "midi": 72,
          "name": "C5",
          "ticks": 65280,
          "time": 58.285656,
          "velocity": 0.3858267716535433
        },
        {
          "duration": 0.40624959374999037,
          "durationTicks": 455,
          "midi": 70,
          "name": "A#4",
          "ticks": 65760,
          "time": 58.71422700000001,
          "velocity": 0.3858267716535433
        },
        {
          "duration": 0.8133920437499995,
          "durationTicks": 911,
          "midi": 60,
          "name": "C4",
          "ticks": 66240,
          "time": 59.142798000000006,
          "velocity": 0.3858267716535433
        },
        {
          "duration": 1.2205344937499945,
          "durationTicks": 1367,
          "midi": 72,
          "name": "C5",
          "ticks": 66240,
          "time": 59.142798000000006,
          "velocity": 0.3858267716535433
        },
        {
          "duration": 0.40624959374999037,
          "durationTicks": 455,
          "midi": 60,
          "name": "C4",
          "ticks": 67680,
          "time": 60.42851100000001,
          "velocity": 0.3858267716535433
        },
        {
          "duration": 0.4062495937499975,
          "durationTicks": 455,
          "midi": 70,
          "name": "A#4",
          "ticks": 68160,
          "time": 60.857082000000005,
          "velocity": 0.3858267716535433
        },
        {
          "duration": 0.20267836875,
          "durationTicks": 227,
          "midi": 72,
          "name": "C5",
          "ticks": 68640,
          "time": 61.285653,
          "velocity": 0.3858267716535433
        },
        {
          "duration": 0.609820818750002,
          "durationTicks": 683,
          "midi": 74,
          "name": "D5",
          "ticks": 68880,
          "time": 61.499938500000006,
          "velocity": 0.3858267716535433
        },
        {
          "duration": 0.4062495937499975,
          "durationTicks": 455,
          "midi": 55,
          "name": "G3",
          "ticks": 69120,
          "time": 61.714224,
          "velocity": 0.3858267716535433
        },
        {
          "duration": 0.4062495937499975,
          "durationTicks": 455,
          "midi": 72,
          "name": "C5",
          "ticks": 69600,
          "time": 62.14279500000001,
          "velocity": 0.3858267716535433
        },
        {
          "duration": 0.20267836875,
          "durationTicks": 227,
          "midi": 70,
          "name": "A#4",
          "ticks": 70080,
          "time": 62.571366000000005,
          "velocity": 0.3858267716535433
        },
        {
          "duration": 0.609820818750002,
          "durationTicks": 683,
          "midi": 74,
          "name": "D5",
          "ticks": 70320,
          "time": 62.78565150000001,
          "velocity": 0.3858267716535433
        },
        {
          "duration": 0.4062495937499975,
          "durationTicks": 455,
          "midi": 60,
          "name": "C4",
          "ticks": 70560,
          "time": 62.999937,
          "velocity": 0.3858267716535433
        },
        {
          "duration": 0.40624959374999037,
          "durationTicks": 455,
          "midi": 72,
          "name": "C5",
          "ticks": 71040,
          "time": 63.42850800000001,
          "velocity": 0.3858267716535433
        },
        {
          "duration": 0.2026783687499929,
          "durationTicks": 227,
          "midi": 70,
          "name": "A#4",
          "ticks": 71520,
          "time": 63.857079000000006,
          "velocity": 0.3858267716535433
        },
        {
          "duration": 0.6098208187500092,
          "durationTicks": 683,
          "midi": 72,
          "name": "C5",
          "ticks": 71760,
          "time": 64.0713645,
          "velocity": 0.3858267716535433
        },
        {
          "duration": 0.40624959374999037,
          "durationTicks": 455,
          "midi": 55,
          "name": "G3",
          "ticks": 72000,
          "time": 64.28565,
          "velocity": 0.3858267716535433
        },
        {
          "duration": 0.40624959374999037,
          "durationTicks": 455,
          "midi": 70,
          "name": "A#4",
          "ticks": 73920,
          "time": 65.99993400000001,
          "velocity": 0.3858267716535433
        },
        {
          "duration": 0.4062495937500046,
          "durationTicks": 455,
          "midi": 72,
          "name": "C5",
          "ticks": 74400,
          "time": 66.428505,
          "velocity": 0.3858267716535433
        },
        {
          "duration": 0.40624959374999037,
          "durationTicks": 455,
          "midi": 74,
          "name": "D5",
          "ticks": 74880,
          "time": 66.857076,
          "velocity": 0.3858267716535433
        },
        {
          "duration": 0.40624959374999037,
          "durationTicks": 455,
          "midi": 72,
          "name": "C5",
          "ticks": 75360,
          "time": 67.28564700000001,
          "velocity": 0.3858267716535433
        },
        {
          "duration": 0.20267836875,
          "durationTicks": 227,
          "midi": 70,
          "name": "A#4",
          "ticks": 75840,
          "time": 67.714218,
          "velocity": 0.3858267716535433
        },
        {
          "duration": 0.6098208187500092,
          "durationTicks": 683,
          "midi": 74,
          "name": "D5",
          "ticks": 76080,
          "time": 67.9285035,
          "velocity": 0.3858267716535433
        },
        {
          "duration": 0.4062495937500046,
          "durationTicks": 455,
          "midi": 72,
          "name": "C5",
          "ticks": 76800,
          "time": 68.57136,
          "velocity": 0.3858267716535433
        },
        {
          "duration": 0.4062495937500046,
          "durationTicks": 455,
          "midi": 70,
          "name": "A#4",
          "ticks": 77280,
          "time": 68.999931,
          "velocity": 0.3858267716535433
        },
        {
          "duration": 0.8133920437499995,
          "durationTicks": 911,
          "midi": 60,
          "name": "C4",
          "ticks": 77760,
          "time": 69.42850200000001,
          "velocity": 0.3858267716535433
        },
        {
          "duration": 1.2205344937499945,
          "durationTicks": 1367,
          "midi": 72,
          "name": "C5",
          "ticks": 77760,
          "time": 69.42850200000001,
          "velocity": 0.3858267716535433
        },
        {
          "duration": 0.40624959374999037,
          "durationTicks": 455,
          "midi": 60,
          "name": "C4",
          "ticks": 79200,
          "time": 70.71421500000001,
          "velocity": 0.3858267716535433
        },
        {
          "duration": 0.4062495937500046,
          "durationTicks": 455,
          "midi": 70,
          "name": "A#4",
          "ticks": 79680,
          "time": 71.142786,
          "velocity": 0.3858267716535433
        },
        {
          "duration": 0.20267836875,
          "durationTicks": 227,
          "midi": 72,
          "name": "C5",
          "ticks": 80160,
          "time": 71.571357,
          "velocity": 0.3858267716535433
        },
        {
          "duration": 0.6098208187500092,
          "durationTicks": 683,
          "midi": 74,
          "name": "D5",
          "ticks": 80400,
          "time": 71.78564250000001,
          "velocity": 0.3858267716535433
        },
        {
          "duration": 0.40624959374999037,
          "durationTicks": 455,
          "midi": 55,
          "name": "G3",
          "ticks": 80640,
          "time": 71.99992800000001,
          "velocity": 0.3858267716535433
        },
        {
          "duration": 0.4062495937500046,
          "durationTicks": 455,
          "midi": 72,
          "name": "C5",
          "ticks": 81120,
          "time": 72.428499,
          "velocity": 0.3858267716535433
        },
        {
          "duration": 0.20267836875,
          "durationTicks": 227,
          "midi": 70,
          "name": "A#4",
          "ticks": 81600,
          "time": 72.85707000000001,
          "velocity": 0.3858267716535433
        },
        {
          "duration": 0.6098208187499949,
          "durationTicks": 683,
          "midi": 74,
          "name": "D5",
          "ticks": 81840,
          "time": 73.07135550000001,
          "velocity": 0.3858267716535433
        },
        {
          "duration": 0.40624959374999037,
          "durationTicks": 455,
          "midi": 60,
          "name": "C4",
          "ticks": 82080,
          "time": 73.28564100000001,
          "velocity": 0.3858267716535433
        },
        {
          "duration": 0.20267836875,
          "durationTicks": 227,
          "midi": 72,
          "name": "C5",
          "ticks": 82560,
          "time": 73.714212,
          "velocity": 0.3858267716535433
        },
        {
          "duration": 0.6098208187500092,
          "durationTicks": 683,
          "midi": 74,
          "name": "D5",
          "ticks": 82800,
          "time": 73.9284975,
          "velocity": 0.3858267716535433
        },
        {
          "duration": 0.4062495937500046,
          "durationTicks": 455,
          "midi": 55,
          "name": "G3",
          "ticks": 83520,
          "time": 74.571354,
          "velocity": 0.3858267716535433
        },
        {
          "duration": 0.4062495937500046,
          "durationTicks": 455,
          "midi": 67,
          "name": "G4",
          "ticks": 83520,
          "time": 74.571354,
          "velocity": 0.3858267716535433
        },
        {
          "duration": 0.40624959374999037,
          "durationTicks": 455,
          "midi": 82,
          "name": "A#5",
          "ticks": 85920,
          "time": 76.71420900000001,
          "velocity": 0.5039370078740157
        },
        {
          "duration": 0.4062495937500046,
          "durationTicks": 455,
          "midi": 67,
          "name": "G4",
          "ticks": 86400,
          "time": 77.14278,
          "velocity": 0.5039370078740157
        },
        {
          "duration": 0.4062495937500046,
          "durationTicks": 455,
          "midi": 79,
          "name": "G5",
          "ticks": 86400,
          "time": 77.14278,
          "velocity": 0.5039370078740157
        },
        {
          "duration": 0.40624959374999037,
          "durationTicks": 455,
          "midi": 69,
          "name": "A4",
          "ticks": 86880,
          "time": 77.571351,
          "velocity": 0.5039370078740157
        },
        {
          "duration": 0.40624959374999037,
          "durationTicks": 455,
          "midi": 81,
          "name": "A5",
          "ticks": 86880,
          "time": 77.571351,
          "velocity": 0.5039370078740157
        },
        {
          "duration": 0.2026783687499858,
          "durationTicks": 227,
          "midi": 70,
          "name": "A#4",
          "ticks": 87360,
          "time": 77.99992200000001,
          "velocity": 0.5039370078740157
        },
        {
          "duration": 0.2026783687499858,
          "durationTicks": 227,
          "midi": 82,
          "name": "A#5",
          "ticks": 87360,
          "time": 77.99992200000001,
          "velocity": 0.5039370078740157
        },
        {
          "duration": 0.6098208187500092,
          "durationTicks": 683,
          "midi": 79,
          "name": "G5",
          "ticks": 87600,
          "time": 78.2142075,
          "velocity": 0.5039370078740157
        },
        {
          "duration": 0.40624959374999037,
          "durationTicks": 455,
          "midi": 69,
          "name": "A4",
          "ticks": 88320,
          "time": 78.85706400000001,
          "velocity": 0.5039370078740157
        },
        {
          "duration": 0.40624959374999037,
          "durationTicks": 455,
          "midi": 81,
          "name": "A5",
          "ticks": 88320,
          "time": 78.85706400000001,
          "velocity": 0.5039370078740157
        },
        {
          "duration": 0.40624959374999037,
          "durationTicks": 455,
          "midi": 82,
          "name": "A#5",
          "ticks": 88800,
          "time": 79.28563500000001,
          "velocity": 0.5039370078740157
        },
        {
          "duration": 0.20267836875,
          "durationTicks": 227,
          "midi": 67,
          "name": "G4",
          "ticks": 89280,
          "time": 79.714206,
          "velocity": 0.5039370078740157
        },
        {
          "duration": 0.20267836875,
          "durationTicks": 227,
          "midi": 79,
          "name": "G5",
          "ticks": 89280,
          "time": 79.714206,
          "velocity": 0.5039370078740157
        },
        {
          "duration": 0.6098208187500092,
          "durationTicks": 683,
          "midi": 69,
          "name": "A4",
          "ticks": 89520,
          "time": 79.9284915,
          "velocity": 0.5039370078740157
        },
        {
          "duration": 0.6098208187500092,
          "durationTicks": 683,
          "midi": 81,
          "name": "A5",
          "ticks": 89520,
          "time": 79.9284915,
          "velocity": 0.5039370078740157
        },
        {
          "duration": 0.4062495937500046,
          "durationTicks": 455,
          "midi": 70,
          "name": "A#4",
          "ticks": 90240,
          "time": 80.571348,
          "velocity": 0.5039370078740157
        },
        {
          "duration": 0.4062495937500046,
          "durationTicks": 455,
          "midi": 82,
          "name": "A#5",
          "ticks": 90240,
          "time": 80.571348,
          "velocity": 0.5039370078740157
        },
        {
          "duration": 0.8133920437499995,
          "durationTicks": 911,
          "midi": 74,
          "name": "D5",
          "ticks": 90720,
          "time": 80.999919,
          "velocity": 0.5039370078740157
        },
        {
          "duration": 0.8133920437499995,
          "durationTicks": 911,
          "midi": 78,
          "name": "F#5",
          "ticks": 90720,
          "time": 80.999919,
          "velocity": 0.5039370078740157
        },
        {
          "duration": 0.8133920437499995,
          "durationTicks": 911,
          "midi": 86,
          "name": "D6",
          "ticks": 90720,
          "time": 80.999919,
          "velocity": 0.5039370078740157
        },
        {
          "duration": 0.4062495937500046,
          "durationTicks": 455,
          "midi": 70,
          "name": "A#4",
          "ticks": 91680,
          "time": 81.857061,
          "velocity": 0.5039370078740157
        },
        {
          "duration": 0.4062495937500046,
          "durationTicks": 455,
          "midi": 82,
          "name": "A#5",
          "ticks": 91680,
          "time": 81.857061,
          "velocity": 0.5039370078740157
        },
        {
          "duration": 0.40624959374999037,
          "durationTicks": 455,
          "midi": 67,
          "name": "G4",
          "ticks": 92160,
          "time": 82.285632,
          "velocity": 0.5039370078740157
        },
        {
          "duration": 0.40624959374999037,
          "durationTicks": 455,
          "midi": 79,
          "name": "G5",
          "ticks": 92160,
          "time": 82.285632,
          "velocity": 0.5039370078740157
        },
        {
          "duration": 0.20267836875,
          "durationTicks": 227,
          "midi": 69,
          "name": "A4",
          "ticks": 92640,
          "time": 82.71420300000001,
          "velocity": 0.5039370078740157
        },
        {
          "duration": 0.20267836875,
          "durationTicks": 227,
          "midi": 81,
          "name": "A5",
          "ticks": 92640,
          "time": 82.71420300000001,
          "velocity": 0.5039370078740157
        },
        {
          "duration": 0.6098208187500092,
          "durationTicks": 683,
          "midi": 70,
          "name": "A#4",
          "ticks": 92880,
          "time": 82.9284885,
          "velocity": 0.5039370078740157
        },
        {
          "duration": 0.6098208187500092,
          "durationTicks": 683,
          "midi": 82,
          "name": "A#5",
          "ticks": 92880,
          "time": 82.9284885,
          "velocity": 0.5039370078740157
        },
        {
          "duration": 0.40624959374999037,
          "durationTicks": 455,
          "midi": 67,
          "name": "G4",
          "ticks": 93600,
          "time": 83.57134500000001,
          "velocity": 0.5039370078740157
        },
        {
          "duration": 0.40624959374999037,
          "durationTicks": 455,
          "midi": 79,
          "name": "G5",
          "ticks": 93600,
          "time": 83.57134500000001,
          "velocity": 0.5039370078740157
        },
        {
          "duration": 0.2026783687499858,
          "durationTicks": 227,
          "midi": 69,
          "name": "A4",
          "ticks": 94080,
          "time": 83.99991600000001,
          "velocity": 0.5039370078740157
        },
        {
          "duration": 0.2026783687499858,
          "durationTicks": 227,
          "midi": 81,
          "name": "A5",
          "ticks": 94080,
          "time": 83.99991600000001,
          "velocity": 0.5039370078740157
        },
        {
          "duration": 0.6098208187500092,
          "durationTicks": 683,
          "midi": 70,
          "name": "A#4",
          "ticks": 94320,
          "time": 84.2142015,
          "velocity": 0.5039370078740157
        },
        {
          "duration": 0.6098208187500092,
          "durationTicks": 683,
          "midi": 82,
          "name": "A#5",
          "ticks": 94320,
          "time": 84.2142015,
          "velocity": 0.5039370078740157
        },
        {
          "duration": 0.40624959374999037,
          "durationTicks": 455,
          "midi": 67,
          "name": "G4",
          "ticks": 95040,
          "time": 84.85705800000001,
          "velocity": 0.5039370078740157
        },
        {
          "duration": 0.40624959374999037,
          "durationTicks": 455,
          "midi": 79,
          "name": "G5",
          "ticks": 95040,
          "time": 84.85705800000001,
          "velocity": 0.5039370078740157
        },
        {
          "duration": 0.4062495937500046,
          "durationTicks": 455,
          "midi": 69,
          "name": "A4",
          "ticks": 95520,
          "time": 85.285629,
          "velocity": 0.5039370078740157
        },
        {
          "duration": 0.4062495937500046,
          "durationTicks": 455,
          "midi": 81,
          "name": "A5",
          "ticks": 95520,
          "time": 85.285629,
          "velocity": 0.5039370078740157
        },
        {
          "duration": 0.4062495937500046,
          "durationTicks": 455,
          "midi": 70,
          "name": "A#4",
          "ticks": 96000,
          "time": 85.7142,
          "velocity": 0.5039370078740157
        },
        {
          "duration": 0.4062495937500046,
          "durationTicks": 455,
          "midi": 82,
          "name": "A#5",
          "ticks": 96000,
          "time": 85.7142,
          "velocity": 0.5039370078740157
        },
        {
          "duration": 0.8133920437499995,
          "durationTicks": 911,
          "midi": 74,
          "name": "D5",
          "ticks": 96480,
          "time": 86.14277100000001,
          "velocity": 0.5039370078740157
        },
        {
          "duration": 0.8133920437499995,
          "durationTicks": 911,
          "midi": 79,
          "name": "G5",
          "ticks": 96480,
          "time": 86.14277100000001,
          "velocity": 0.5039370078740157
        },
        {
          "duration": 0.8133920437499995,
          "durationTicks": 911,
          "midi": 86,
          "name": "D6",
          "ticks": 96480,
          "time": 86.14277100000001,
          "velocity": 0.5039370078740157
        },
        {
          "duration": 0.40624959374999037,
          "durationTicks": 455,
          "midi": 70,
          "name": "A#4",
          "ticks": 97440,
          "time": 86.999913,
          "velocity": 0.5039370078740157
        },
        {
          "duration": 0.40624959374999037,
          "durationTicks": 455,
          "midi": 82,
          "name": "A#5",
          "ticks": 97440,
          "time": 86.999913,
          "velocity": 0.5039370078740157
        },
        {
          "duration": 0.40624959374999037,
          "durationTicks": 455,
          "midi": 74,
          "name": "D5",
          "ticks": 97920,
          "time": 87.42848400000001,
          "velocity": 0.5039370078740157
        },
        {
          "duration": 0.40624959374999037,
          "durationTicks": 455,
          "midi": 79,
          "name": "G5",
          "ticks": 97920,
          "time": 87.42848400000001,
          "velocity": 0.5039370078740157
        },
        {
          "duration": 0.40624959374999037,
          "durationTicks": 455,
          "midi": 86,
          "name": "D6",
          "ticks": 97920,
          "time": 87.42848400000001,
          "velocity": 0.5039370078740157
        },
        {
          "duration": 0.4062495937500046,
          "durationTicks": 455,
          "midi": 72,
          "name": "C5",
          "ticks": 98400,
          "time": 87.857055,
          "velocity": 0.5039370078740157
        },
        {
          "duration": 0.4062495937500046,
          "durationTicks": 455,
          "midi": 84,
          "name": "C6",
          "ticks": 98400,
          "time": 87.857055,
          "velocity": 0.5039370078740157
        },
        {
          "duration": 0.40624959374999037,
          "durationTicks": 455,
          "midi": 70,
          "name": "A#4",
          "ticks": 98880,
          "time": 88.28562600000001,
          "velocity": 0.5039370078740157
        },
        {
          "duration": 0.40624959374999037,
          "durationTicks": 455,
          "midi": 82,
          "name": "A#5",
          "ticks": 98880,
          "time": 88.28562600000001,
          "velocity": 0.5039370078740157
        },
        {
          "duration": 0.40624959374999037,
          "durationTicks": 455,
          "midi": 74,
          "name": "D5",
          "ticks": 99360,
          "time": 88.71419700000001,
          "velocity": 0.5039370078740157
        },
        {
          "duration": 0.40624959374999037,
          "durationTicks": 455,
          "midi": 79,
          "name": "G5",
          "ticks": 99360,
          "time": 88.71419700000001,
          "velocity": 0.5039370078740157
        },
        {
          "duration": 0.40624959374999037,
          "durationTicks": 455,
          "midi": 86,
          "name": "D6",
          "ticks": 99360,
          "time": 88.71419700000001,
          "velocity": 0.5039370078740157
        },
        {
          "duration": 0.20267836875,
          "durationTicks": 227,
          "midi": 72,
          "name": "C5",
          "ticks": 99840,
          "time": 89.142768,
          "velocity": 0.5039370078740157
        },
        {
          "duration": 0.20267836875,
          "durationTicks": 227,
          "midi": 84,
          "name": "C6",
          "ticks": 99840,
          "time": 89.142768,
          "velocity": 0.5039370078740157
        },
        {
          "duration": 0.6098208187500092,
          "durationTicks": 683,
          "midi": 70,
          "name": "A#4",
          "ticks": 100080,
          "time": 89.3570535,
          "velocity": 0.5039370078740157
        },
        {
          "duration": 0.6098208187500092,
          "durationTicks": 683,
          "midi": 82,
          "name": "A#5",
          "ticks": 100080,
          "time": 89.3570535,
          "velocity": 0.5039370078740157
        },
        {
          "duration": 0.40624959374999037,
          "durationTicks": 455,
          "midi": 74,
          "name": "D5",
          "ticks": 100800,
          "time": 89.99991000000001,
          "velocity": 0.5039370078740157
        },
        {
          "duration": 0.40624959374999037,
          "durationTicks": 455,
          "midi": 78,
          "name": "F#5",
          "ticks": 100800,
          "time": 89.99991000000001,
          "velocity": 0.5039370078740157
        },
        {
          "duration": 0.40624959374999037,
          "durationTicks": 455,
          "midi": 86,
          "name": "D6",
          "ticks": 100800,
          "time": 89.99991000000001,
          "velocity": 0.5039370078740157
        },
        {
          "duration": 0.4062495937500046,
          "durationTicks": 455,
          "midi": 72,
          "name": "C5",
          "ticks": 101280,
          "time": 90.428481,
          "velocity": 0.5039370078740157
        },
        {
          "duration": 0.4062495937500046,
          "durationTicks": 455,
          "midi": 84,
          "name": "C6",
          "ticks": 101280,
          "time": 90.428481,
          "velocity": 0.5039370078740157
        },
        {
          "duration": 0.20267836875,
          "durationTicks": 227,
          "midi": 70,
          "name": "A#4",
          "ticks": 101760,
          "time": 90.85705200000001,
          "velocity": 0.5039370078740157
        },
        {
          "duration": 0.20267836875,
          "durationTicks": 227,
          "midi": 82,
          "name": "A#5",
          "ticks": 101760,
          "time": 90.85705200000001,
          "velocity": 0.5039370078740157
        },
        {
          "duration": 1.0169632687499899,
          "durationTicks": 1139,
          "midi": 72,
          "name": "C5",
          "ticks": 102000,
          "time": 91.07133750000001,
          "velocity": 0.5039370078740157
        },
        {
          "duration": 1.0169632687499899,
          "durationTicks": 1139,
          "midi": 84,
          "name": "C6",
          "ticks": 102000,
          "time": 91.07133750000001,
          "velocity": 0.5039370078740157
        },
        {
          "duration": 0.40624959374999037,
          "durationTicks": 455,
          "midi": 70,
          "name": "A#4",
          "ticks": 103200,
          "time": 92.14276500000001,
          "velocity": 0.5039370078740157
        },
        {
          "duration": 0.40624959374999037,
          "durationTicks": 455,
          "midi": 82,
          "name": "A#5",
          "ticks": 103200,
          "time": 92.14276500000001,
          "velocity": 0.5039370078740157
        },
        {
          "duration": 0.4062495937500046,
          "durationTicks": 455,
          "midi": 74,
          "name": "D5",
          "ticks": 103680,
          "time": 92.571336,
          "velocity": 0.5039370078740157
        },
        {
          "duration": 0.4062495937500046,
          "durationTicks": 455,
          "midi": 81,
          "name": "A5",
          "ticks": 103680,
          "time": 92.571336,
          "velocity": 0.5039370078740157
        },
        {
          "duration": 0.4062495937500046,
          "durationTicks": 455,
          "midi": 86,
          "name": "D6",
          "ticks": 103680,
          "time": 92.571336,
          "velocity": 0.5039370078740157
        },
        {
          "duration": 0.40624959374999037,
          "durationTicks": 455,
          "midi": 72,
          "name": "C5",
          "ticks": 104160,
          "time": 92.99990700000001,
          "velocity": 0.5039370078740157
        },
        {
          "duration": 0.40624959374999037,
          "durationTicks": 455,
          "midi": 84,
          "name": "C6",
          "ticks": 104160,
          "time": 92.99990700000001,
          "velocity": 0.5039370078740157
        },
        {
          "duration": 0.20267836875,
          "durationTicks": 227,
          "midi": 70,
          "name": "A#4",
          "ticks": 104640,
          "time": 93.42847800000001,
          "velocity": 0.5039370078740157
        },
        {
          "duration": 0.20267836875,
          "durationTicks": 227,
          "midi": 82,
          "name": "A#5",
          "ticks": 104640,
          "time": 93.42847800000001,
          "velocity": 0.5039370078740157
        },
        {
          "duration": 0.6098208187500092,
          "durationTicks": 683,
          "midi": 74,
          "name": "D5",
          "ticks": 104880,
          "time": 93.6427635,
          "velocity": 0.5039370078740157
        },
        {
          "duration": 0.6098208187500092,
          "durationTicks": 683,
          "midi": 86,
          "name": "D6",
          "ticks": 104880,
          "time": 93.6427635,
          "velocity": 0.5039370078740157
        },
        {
          "duration": 0.8133920437499995,
          "durationTicks": 911,
          "midi": 72,
          "name": "C5",
          "ticks": 105600,
          "time": 94.28562000000001,
          "velocity": 0.5039370078740157
        },
        {
          "duration": 0.8133920437499995,
          "durationTicks": 911,
          "midi": 84,
          "name": "C6",
          "ticks": 105600,
          "time": 94.28562000000001,
          "velocity": 0.5039370078740157
        },
        {
          "duration": 0.4062495937500046,
          "durationTicks": 455,
          "midi": 64,
          "name": "E4",
          "ticks": 106560,
          "time": 95.142762,
          "velocity": 0.5039370078740157
        },
        {
          "duration": 0.4062495937500046,
          "durationTicks": 455,
          "midi": 67,
          "name": "G4",
          "ticks": 106560,
          "time": 95.142762,
          "velocity": 0.5039370078740157
        },
        {
          "duration": 0.40624959374999037,
          "durationTicks": 455,
          "midi": 64,
          "name": "E4",
          "ticks": 107040,
          "time": 95.57133300000001,
          "velocity": 0.5039370078740157
        },
        {
          "duration": 0.40624959374999037,
          "durationTicks": 455,
          "midi": 67,
          "name": "G4",
          "ticks": 107040,
          "time": 95.57133300000001,
          "velocity": 0.5039370078740157
        },
        {
          "duration": 0.40624959374999037,
          "durationTicks": 455,
          "midi": 64,
          "name": "E4",
          "ticks": 107520,
          "time": 95.99990400000002,
          "velocity": 0.5039370078740157
        },
        {
          "duration": 0.40624959374999037,
          "durationTicks": 455,
          "midi": 67,
          "name": "G4",
          "ticks": 107520,
          "time": 95.99990400000002,
          "velocity": 0.5039370078740157
        },
        {
          "duration": 1.2205344937499945,
          "durationTicks": 1367,
          "midi": 67,
          "name": "G4",
          "ticks": 108000,
          "time": 96.428475,
          "velocity": 0.5039370078740157
        },
        {
          "duration": 0.20267836875,
          "durationTicks": 227,
          "midi": 74,
          "name": "D5",
          "ticks": 109440,
          "time": 97.71418800000001,
          "velocity": 0.5039370078740157
        },
        {
          "duration": 0.20267836875,
          "durationTicks": 227,
          "midi": 70,
          "name": "A#4",
          "ticks": 109680,
          "time": 97.92847350000001,
          "velocity": 0.5039370078740157
        },
        {
          "duration": 0.20267836875,
          "durationTicks": 227,
          "midi": 67,
          "name": "G4",
          "ticks": 109920,
          "time": 98.14275900000001,
          "velocity": 0.5039370078740157
        },
        {
          "duration": 0.2026783687499858,
          "durationTicks": 227,
          "midi": 62,
          "name": "D4",
          "ticks": 110160,
          "time": 98.35704450000001,
          "velocity": 0.5039370078740157
        },
        {
          "duration": 0.20267836875,
          "durationTicks": 227,
          "midi": 74,
          "name": "D5",
          "ticks": 110400,
          "time": 98.57133,
          "velocity": 0.5039370078740157
        },
        {
          "duration": 0.20267836875,
          "durationTicks": 227,
          "midi": 70,
          "name": "A#4",
          "ticks": 110640,
          "time": 98.7856155,
          "velocity": 0.5039370078740157
        },
        {
          "duration": 0.20267836875,
          "durationTicks": 227,
          "midi": 74,
          "name": "D5",
          "ticks": 110880,
          "time": 98.99990100000001,
          "velocity": 0.5039370078740157
        },
        {
          "duration": 0.20267836875,
          "durationTicks": 227,
          "midi": 70,
          "name": "A#4",
          "ticks": 111120,
          "time": 99.21418650000001,
          "velocity": 0.5039370078740157
        },
        {
          "duration": 0.20267836875,
          "durationTicks": 227,
          "midi": 74,
          "name": "D5",
          "ticks": 111360,
          "time": 99.42847200000001,
          "velocity": 0.5039370078740157
        },
        {
          "duration": 0.20267836875,
          "durationTicks": 227,
          "midi": 70,
          "name": "A#4",
          "ticks": 111600,
          "time": 99.6427575,
          "velocity": 0.5039370078740157
        },
        {
          "duration": 0.20267836875,
          "durationTicks": 227,
          "midi": 74,
          "name": "D5",
          "ticks": 111840,
          "time": 99.857043,
          "velocity": 0.5039370078740157
        },
        {
          "duration": 0.20267836875,
          "durationTicks": 227,
          "midi": 70,
          "name": "A#4",
          "ticks": 112080,
          "time": 100.0713285,
          "velocity": 0.5039370078740157
        },
        {
          "duration": 0.20267836875,
          "durationTicks": 227,
          "midi": 75,
          "name": "D#5",
          "ticks": 112320,
          "time": 100.28561400000001,
          "velocity": 0.5039370078740157
        },
        {
          "duration": 0.20267836875,
          "durationTicks": 227,
          "midi": 72,
          "name": "C5",
          "ticks": 112560,
          "time": 100.49989950000001,
          "velocity": 0.5039370078740157
        },
        {
          "duration": 0.2026783687499858,
          "durationTicks": 227,
          "midi": 67,
          "name": "G4",
          "ticks": 112800,
          "time": 100.71418500000001,
          "velocity": 0.5039370078740157
        },
        {
          "duration": 0.20267836875,
          "durationTicks": 227,
          "midi": 63,
          "name": "D#4",
          "ticks": 113040,
          "time": 100.9284705,
          "velocity": 0.5039370078740157
        },
        {
          "duration": 0.20267836875,
          "durationTicks": 227,
          "midi": 75,
          "name": "D#5",
          "ticks": 113280,
          "time": 101.142756,
          "velocity": 0.5039370078740157
        },
        {
          "duration": 0.20267836875,
          "durationTicks": 227,
          "midi": 72,
          "name": "C5",
          "ticks": 113520,
          "time": 101.35704150000001,
          "velocity": 0.5039370078740157
        },
        {
          "duration": 0.20267836875,
          "durationTicks": 227,
          "midi": 77,
          "name": "F5",
          "ticks": 113760,
          "time": 101.57132700000001,
          "velocity": 0.5039370078740157
        },
        {
          "duration": 0.20267836875,
          "durationTicks": 227,
          "midi": 72,
          "name": "C5",
          "ticks": 114000,
          "time": 101.78561250000001,
          "velocity": 0.5039370078740157
        },
        {
          "duration": 0.20267836875,
          "durationTicks": 227,
          "midi": 69,
          "name": "A4",
          "ticks": 114240,
          "time": 101.999898,
          "velocity": 0.5039370078740157
        },
        {
          "duration": 0.20267836875,
          "durationTicks": 227,
          "midi": 65,
          "name": "F4",
          "ticks": 114480,
          "time": 102.2141835,
          "velocity": 0.5039370078740157
        },
        {
          "duration": 0.20267836875,
          "durationTicks": 227,
          "midi": 77,
          "name": "F5",
          "ticks": 114720,
          "time": 102.428469,
          "velocity": 0.5039370078740157
        },
        {
          "duration": 0.20267836875,
          "durationTicks": 227,
          "midi": 72,
          "name": "C5",
          "ticks": 114960,
          "time": 102.64275450000001,
          "velocity": 0.5039370078740157
        },
        {
          "duration": 0.20267836875,
          "durationTicks": 227,
          "midi": 79,
          "name": "G5",
          "ticks": 115200,
          "time": 102.85704000000001,
          "velocity": 0.5039370078740157
        },
        {
          "duration": 0.2026783687499858,
          "durationTicks": 227,
          "midi": 74,
          "name": "D5",
          "ticks": 115440,
          "time": 103.07132550000001,
          "velocity": 0.5039370078740157
        },
        {
          "duration": 0.20267836875,
          "durationTicks": 227,
          "midi": 70,
          "name": "A#4",
          "ticks": 115680,
          "time": 103.285611,
          "velocity": 0.5039370078740157
        },
        {
          "duration": 0.20267836875,
          "durationTicks": 227,
          "midi": 67,
          "name": "G4",
          "ticks": 115920,
          "time": 103.4998965,
          "velocity": 0.5039370078740157
        },
        {
          "duration": 0.20267836875,
          "durationTicks": 227,
          "midi": 79,
          "name": "G5",
          "ticks": 116160,
          "time": 103.71418200000001,
          "velocity": 0.5039370078740157
        },
        {
          "duration": 0.20267836875,
          "durationTicks": 227,
          "midi": 74,
          "name": "D5",
          "ticks": 116400,
          "time": 103.92846750000001,
          "velocity": 0.5039370078740157
        },
        {
          "duration": 0.20267836875,
          "durationTicks": 227,
          "midi": 79,
          "name": "G5",
          "ticks": 116640,
          "time": 104.14275300000001,
          "velocity": 0.5039370078740157
        },
        {
          "duration": 0.20267836875,
          "durationTicks": 227,
          "midi": 74,
          "name": "D5",
          "ticks": 116880,
          "time": 104.3570385,
          "velocity": 0.5039370078740157
        },
        {
          "duration": 0.20267836875,
          "durationTicks": 227,
          "midi": 70,
          "name": "A#4",
          "ticks": 117120,
          "time": 104.571324,
          "velocity": 0.5039370078740157
        },
        {
          "duration": 0.20267836875,
          "durationTicks": 227,
          "midi": 67,
          "name": "G4",
          "ticks": 117360,
          "time": 104.7856095,
          "velocity": 0.5039370078740157
        },
        {
          "duration": 0.20267836875,
          "durationTicks": 227,
          "midi": 79,
          "name": "G5",
          "ticks": 117600,
          "time": 104.99989500000001,
          "velocity": 0.5039370078740157
        },
        {
          "duration": 0.20267836875,
          "durationTicks": 227,
          "midi": 74,
          "name": "D5",
          "ticks": 117840,
          "time": 105.21418050000001,
          "velocity": 0.5039370078740157
        },
        {
          "duration": 0.2026783687499858,
          "durationTicks": 227,
          "midi": 79,
          "name": "G5",
          "ticks": 118080,
          "time": 105.42846600000001,
          "velocity": 0.5039370078740157
        },
        {
          "duration": 0.20267836875,
          "durationTicks": 227,
          "midi": 75,
          "name": "D#5",
          "ticks": 118320,
          "time": 105.6427515,
          "velocity": 0.5039370078740157
        },
        {
          "duration": 0.20267836875,
          "durationTicks": 227,
          "midi": 72,
          "name": "C5",
          "ticks": 118560,
          "time": 105.857037,
          "velocity": 0.5039370078740157
        },
        {
          "duration": 0.3848210437500086,
          "durationTicks": 431,
          "midi": 67,
          "name": "G4",
          "ticks": 118800,
          "time": 106.07132250000001,
          "velocity": 0.5039370078740157
        },
        {
          "duration": 0.20267836875,
          "durationTicks": 227,
          "midi": 79,
          "name": "G5",
          "ticks": 119040,
          "time": 106.28560800000001,
          "velocity": 0.5039370078740157
        },
        {
          "duration": 0.20267836875,
          "durationTicks": 227,
          "midi": 75,
          "name": "D#5",
          "ticks": 119280,
          "time": 106.49989350000001,
          "velocity": 0.5039370078740157
        },
        {
          "duration": 0.2026783687499858,
          "durationTicks": 227,
          "midi": 81,
          "name": "A5",
          "ticks": 119520,
          "time": 106.71417900000002,
          "velocity": 0.5039370078740157
        },
        {
          "duration": 0.20267836875,
          "durationTicks": 227,
          "midi": 75,
          "name": "D#5",
          "ticks": 119760,
          "time": 106.9284645,
          "velocity": 0.5039370078740157
        },
        {
          "duration": 0.20267836875,
          "durationTicks": 227,
          "midi": 72,
          "name": "C5",
          "ticks": 120000,
          "time": 107.14275,
          "velocity": 0.5039370078740157
        },
        {
          "duration": 0.20267836875,
          "durationTicks": 227,
          "midi": 67,
          "name": "G4",
          "ticks": 120240,
          "time": 107.35703550000001,
          "velocity": 0.5039370078740157
        },
        {
          "duration": 0.20267836875,
          "durationTicks": 227,
          "midi": 72,
          "name": "C5",
          "ticks": 120480,
          "time": 107.57132100000001,
          "velocity": 0.5039370078740157
        },
        {
          "duration": 0.20267836875,
          "durationTicks": 227,
          "midi": 79,
          "name": "G5",
          "ticks": 120720,
          "time": 107.78560650000001,
          "velocity": 0.5039370078740157
        },
        {
          "duration": 0.20267836875,
          "durationTicks": 227,
          "midi": 82,
          "name": "A#5",
          "ticks": 120960,
          "time": 107.999892,
          "velocity": 0.5039370078740157
        },
        {
          "duration": 0.20267836875,
          "durationTicks": 227,
          "midi": 79,
          "name": "G5",
          "ticks": 121200,
          "time": 108.2141775,
          "velocity": 0.5039370078740157
        },
        {
          "duration": 0.20267836875,
          "durationTicks": 227,
          "midi": 74,
          "name": "D5",
          "ticks": 121440,
          "time": 108.42846300000001,
          "velocity": 0.5039370078740157
        },
        {
          "duration": 0.20267836875,
          "durationTicks": 227,
          "midi": 70,
          "name": "A#4",
          "ticks": 121680,
          "time": 108.64274850000001,
          "velocity": 0.5039370078740157
        },
        {
          "duration": 0.20267836875,
          "durationTicks": 227,
          "midi": 79,
          "name": "G5",
          "ticks": 121920,
          "time": 108.85703400000001,
          "velocity": 0.5039370078740157
        },
        {
          "duration": 0.2026783687499858,
          "durationTicks": 227,
          "midi": 74,
          "name": "D5",
          "ticks": 122160,
          "time": 109.07131950000002,
          "velocity": 0.5039370078740157
        },
        {
          "duration": 0.20267836875,
          "durationTicks": 227,
          "midi": 82,
          "name": "A#5",
          "ticks": 122400,
          "time": 109.285605,
          "velocity": 0.5039370078740157
        },
        {
          "duration": 0.20267836875,
          "durationTicks": 227,
          "midi": 79,
          "name": "G5",
          "ticks": 122640,
          "time": 109.4998905,
          "velocity": 0.5039370078740157
        },
        {
          "duration": 0.20267836875,
          "durationTicks": 227,
          "midi": 74,
          "name": "D5",
          "ticks": 122880,
          "time": 109.71417600000001,
          "velocity": 0.5039370078740157
        },
        {
          "duration": 0.20267836875,
          "durationTicks": 227,
          "midi": 70,
          "name": "A#4",
          "ticks": 123120,
          "time": 109.92846150000001,
          "velocity": 0.5039370078740157
        },
        {
          "duration": 0.20267836875,
          "durationTicks": 227,
          "midi": 79,
          "name": "G5",
          "ticks": 123360,
          "time": 110.14274700000001,
          "velocity": 0.5039370078740157
        },
        {
          "duration": 0.20267836875,
          "durationTicks": 227,
          "midi": 74,
          "name": "D5",
          "ticks": 123600,
          "time": 110.3570325,
          "velocity": 0.5039370078740157
        },
        {
          "duration": 0.20267836875,
          "durationTicks": 227,
          "midi": 84,
          "name": "C6",
          "ticks": 123840,
          "time": 110.571318,
          "velocity": 0.5039370078740157
        },
        {
          "duration": 0.20267836875,
          "durationTicks": 227,
          "midi": 79,
          "name": "G5",
          "ticks": 124080,
          "time": 110.78560350000001,
          "velocity": 0.5039370078740157
        },
        {
          "duration": 0.20267836875,
          "durationTicks": 227,
          "midi": 75,
          "name": "D#5",
          "ticks": 124320,
          "time": 110.99988900000001,
          "velocity": 0.5039370078740157
        },
        {
          "duration": 0.20267836875,
          "durationTicks": 227,
          "midi": 72,
          "name": "C5",
          "ticks": 124560,
          "time": 111.21417450000001,
          "velocity": 0.5039370078740157
        },
        {
          "duration": 0.2026783687499858,
          "durationTicks": 227,
          "midi": 75,
          "name": "D#5",
          "ticks": 124800,
          "time": 111.42846000000002,
          "velocity": 0.5039370078740157
        },
        {
          "duration": 0.20267836875,
          "durationTicks": 227,
          "midi": 79,
          "name": "G5",
          "ticks": 125040,
          "time": 111.6427455,
          "velocity": 0.5039370078740157
        },
        {
          "duration": 0.20267836875,
          "durationTicks": 227,
          "midi": 84,
          "name": "C6",
          "ticks": 125280,
          "time": 111.857031,
          "velocity": 0.5039370078740157
        },
        {
          "duration": 0.20267836875,
          "durationTicks": 227,
          "midi": 81,
          "name": "A5",
          "ticks": 125520,
          "time": 112.07131650000001,
          "velocity": 0.5039370078740157
        },
        {
          "duration": 0.20267836875,
          "durationTicks": 227,
          "midi": 77,
          "name": "F5",
          "ticks": 125760,
          "time": 112.28560200000001,
          "velocity": 0.5039370078740157
        },
        {
          "duration": 0.20267836875,
          "durationTicks": 227,
          "midi": 72,
          "name": "C5",
          "ticks": 126000,
          "time": 112.49988750000001,
          "velocity": 0.5039370078740157
        },
        {
          "duration": 0.20267836875,
          "durationTicks": 227,
          "midi": 81,
          "name": "A5",
          "ticks": 126240,
          "time": 112.714173,
          "velocity": 0.5039370078740157
        },
        {
          "duration": 0.20267836875,
          "durationTicks": 227,
          "midi": 77,
          "name": "F5",
          "ticks": 126480,
          "time": 112.9284585,
          "velocity": 0.5039370078740157
        },
        {
          "duration": 0.20267836875,
          "durationTicks": 227,
          "midi": 84,
          "name": "C6",
          "ticks": 126720,
          "time": 113.14274400000001,
          "velocity": 0.5039370078740157
        },
        {
          "duration": 0.20267836875,
          "durationTicks": 227,
          "midi": 79,
          "name": "G5",
          "ticks": 126960,
          "time": 113.35702950000001,
          "velocity": 0.5039370078740157
        },
        {
          "duration": 0.20267836875,
          "durationTicks": 227,
          "midi": 75,
          "name": "D#5",
          "ticks": 127200,
          "time": 113.57131500000001,
          "velocity": 0.5039370078740157
        },
        {
          "duration": 0.2026783687499858,
          "durationTicks": 227,
          "midi": 72,
          "name": "C5",
          "ticks": 127440,
          "time": 113.78560050000002,
          "velocity": 0.5039370078740157
        },
        {
          "duration": 0.20267836875,
          "durationTicks": 227,
          "midi": 79,
          "name": "G5",
          "ticks": 127680,
          "time": 113.999886,
          "velocity": 0.5039370078740157
        },
        {
          "duration": 0.20267836875,
          "durationTicks": 227,
          "midi": 75,
          "name": "D#5",
          "ticks": 127920,
          "time": 114.2141715,
          "velocity": 0.5039370078740157
        },
        {
          "duration": 0.20267836875,
          "durationTicks": 227,
          "midi": 84,
          "name": "C6",
          "ticks": 128160,
          "time": 114.42845700000001,
          "velocity": 0.5039370078740157
        },
        {
          "duration": 0.20267836875,
          "durationTicks": 227,
          "midi": 79,
          "name": "G5",
          "ticks": 128400,
          "time": 114.64274250000001,
          "velocity": 0.5039370078740157
        },
        {
          "duration": 0.20267836875,
          "durationTicks": 227,
          "midi": 75,
          "name": "D#5",
          "ticks": 128640,
          "time": 114.85702800000001,
          "velocity": 0.5039370078740157
        },
        {
          "duration": 0.2026783687499858,
          "durationTicks": 227,
          "midi": 72,
          "name": "C5",
          "ticks": 128880,
          "time": 115.07131350000002,
          "velocity": 0.5039370078740157
        },
        {
          "duration": 0.20267836875,
          "durationTicks": 227,
          "midi": 75,
          "name": "D#5",
          "ticks": 129120,
          "time": 115.285599,
          "velocity": 0.5039370078740157
        },
        {
          "duration": 0.20267836875,
          "durationTicks": 227,
          "midi": 79,
          "name": "G5",
          "ticks": 129360,
          "time": 115.49988450000001,
          "velocity": 0.5039370078740157
        },
        {
          "duration": 0.20267836875,
          "durationTicks": 227,
          "midi": 86,
          "name": "D6",
          "ticks": 129600,
          "time": 115.71417000000001,
          "velocity": 0.5039370078740157
        },
        {
          "duration": 0.20267836875,
          "durationTicks": 227,
          "midi": 82,
          "name": "A#5",
          "ticks": 129840,
          "time": 115.92845550000001,
          "velocity": 0.5039370078740157
        },
        {
          "duration": 0.2026783687499858,
          "durationTicks": 227,
          "midi": 79,
          "name": "G5",
          "ticks": 130080,
          "time": 116.14274100000002,
          "velocity": 0.5039370078740157
        },
        {
          "duration": 0.20267836875,
          "durationTicks": 227,
          "midi": 74,
          "name": "D5",
          "ticks": 130320,
          "time": 116.3570265,
          "velocity": 0.5039370078740157
        },
        {
          "duration": 0.20267836875,
          "durationTicks": 227,
          "midi": 82,
          "name": "A#5",
          "ticks": 130560,
          "time": 116.571312,
          "velocity": 0.5039370078740157
        },
        {
          "duration": 0.20267836875,
          "durationTicks": 227,
          "midi": 79,
          "name": "G5",
          "ticks": 130800,
          "time": 116.78559750000001,
          "velocity": 0.5039370078740157
        },
        {
          "duration": 0.20267836875,
          "durationTicks": 227,
          "midi": 86,
          "name": "D6",
          "ticks": 131040,
          "time": 116.99988300000001,
          "velocity": 0.5039370078740157
        },
        {
          "duration": 0.20267836875,
          "durationTicks": 227,
          "midi": 82,
          "name": "A#5",
          "ticks": 131280,
          "time": 117.21416850000001,
          "velocity": 0.5118110236220472
        },
        {
          "duration": 0.2026783687499858,
          "durationTicks": 227,
          "midi": 79,
          "name": "G5",
          "ticks": 131520,
          "time": 117.42845400000002,
          "velocity": 0.5196850393700787
        },
        {
          "duration": 0.20267836875,
          "durationTicks": 227,
          "midi": 74,
          "name": "D5",
          "ticks": 131760,
          "time": 117.6427395,
          "velocity": 0.5275590551181102
        },
        {
          "duration": 0.20267836875,
          "durationTicks": 227,
          "midi": 82,
          "name": "A#5",
          "ticks": 132000,
          "time": 117.85702500000001,
          "velocity": 0.5354330708661418
        },
        {
          "duration": 0.20267836875,
          "durationTicks": 227,
          "midi": 79,
          "name": "G5",
          "ticks": 132240,
          "time": 118.07131050000001,
          "velocity": 0.5433070866141733
        },
        {
          "duration": 0.20267836875,
          "durationTicks": 227,
          "midi": 86,
          "name": "D6",
          "ticks": 132480,
          "time": 118.28559600000001,
          "velocity": 0.5511811023622047
        },
        {
          "duration": 0.20267836875,
          "durationTicks": 227,
          "midi": 81,
          "name": "A5",
          "ticks": 132720,
          "time": 118.49988150000001,
          "velocity": 0.5590551181102362
        },
        {
          "duration": 0.20267836875,
          "durationTicks": 227,
          "midi": 78,
          "name": "F#5",
          "ticks": 132960,
          "time": 118.714167,
          "velocity": 0.5669291338582677
        },
        {
          "duration": 0.20267836875,
          "durationTicks": 227,
          "midi": 74,
          "name": "D5",
          "ticks": 133200,
          "time": 118.9284525,
          "velocity": 0.5748031496062992
        },
        {
          "duration": 0.20267836875,
          "durationTicks": 227,
          "midi": 78,
          "name": "F#5",
          "ticks": 133440,
          "time": 119.14273800000001,
          "velocity": 0.5826771653543307
        },
        {
          "duration": 0.20267836875,
          "durationTicks": 227,
          "midi": 81,
          "name": "A5",
          "ticks": 133680,
          "time": 119.35702350000001,
          "velocity": 0.5905511811023622
        },
        {
          "duration": 0.20267836875,
          "durationTicks": 227,
          "midi": 86,
          "name": "D6",
          "ticks": 133920,
          "time": 119.57130900000001,
          "velocity": 0.5984251968503937
        },
        {
          "duration": 0.2026783687499858,
          "durationTicks": 227,
          "midi": 82,
          "name": "A#5",
          "ticks": 134160,
          "time": 119.78559450000002,
          "velocity": 0.6062992125984252
        },
        {
          "duration": 0.20267836875,
          "durationTicks": 227,
          "midi": 81,
          "name": "A5",
          "ticks": 134400,
          "time": 119.99988,
          "velocity": 0.6141732283464567
        },
        {
          "duration": 0.20267836875,
          "durationTicks": 227,
          "midi": 79,
          "name": "G5",
          "ticks": 134640,
          "time": 120.21416550000001,
          "velocity": 0.6220472440944882
        },
        {
          "duration": 0.20267836875,
          "durationTicks": 227,
          "midi": 70,
          "name": "A#4",
          "ticks": 134880,
          "time": 120.42845100000001,
          "velocity": 0.6299212598425197
        },
        {
          "duration": 0.20267836875,
          "durationTicks": 227,
          "midi": 75,
          "name": "D#5",
          "ticks": 134880,
          "time": 120.42845100000001,
          "velocity": 0.6299212598425197
        },
        {
          "duration": 0.20267836875,
          "durationTicks": 227,
          "midi": 82,
          "name": "A#5",
          "ticks": 134880,
          "time": 120.42845100000001,
          "velocity": 0.6299212598425197
        },
        {
          "duration": 0.20267836875,
          "durationTicks": 227,
          "midi": 74,
          "name": "D5",
          "ticks": 135120,
          "time": 120.64273650000001,
          "velocity": 0.6299212598425197
        },
        {
          "duration": 0.4062495937500046,
          "durationTicks": 455,
          "midi": 67,
          "name": "G4",
          "ticks": 135360,
          "time": 120.85702200000001,
          "velocity": 0.6299212598425197
        },
        {
          "duration": 0.4062495937500046,
          "durationTicks": 455,
          "midi": 79,
          "name": "G5",
          "ticks": 135360,
          "time": 120.85702200000001,
          "velocity": 0.6299212598425197
        },
        {
          "duration": 0.4062495937500188,
          "durationTicks": 455,
          "midi": 69,
          "name": "A4",
          "ticks": 135840,
          "time": 121.285593,
          "velocity": 0.6299212598425197
        },
        {
          "duration": 0.4062495937500188,
          "durationTicks": 455,
          "midi": 81,
          "name": "A5",
          "ticks": 135840,
          "time": 121.285593,
          "velocity": 0.6299212598425197
        },
        {
          "duration": 0.20267836875,
          "durationTicks": 227,
          "midi": 70,
          "name": "A#4",
          "ticks": 136320,
          "time": 121.71416400000001,
          "velocity": 0.6299212598425197
        },
        {
          "duration": 0.20267836875,
          "durationTicks": 227,
          "midi": 82,
          "name": "A#5",
          "ticks": 136320,
          "time": 121.71416400000001,
          "velocity": 0.6299212598425197
        },
        {
          "duration": 0.6098208187499949,
          "durationTicks": 683,
          "midi": 67,
          "name": "G4",
          "ticks": 136560,
          "time": 121.92844950000001,
          "velocity": 0.6299212598425197
        },
        {
          "duration": 0.6098208187499949,
          "durationTicks": 683,
          "midi": 79,
          "name": "G5",
          "ticks": 136560,
          "time": 121.92844950000001,
          "velocity": 0.6299212598425197
        },
        {
          "duration": 0.4062495937500046,
          "durationTicks": 455,
          "midi": 69,
          "name": "A4",
          "ticks": 137280,
          "time": 122.571306,
          "velocity": 0.6299212598425197
        },
        {
          "duration": 0.4062495937500046,
          "durationTicks": 455,
          "midi": 81,
          "name": "A5",
          "ticks": 137280,
          "time": 122.571306,
          "velocity": 0.6299212598425197
        },
        {
          "duration": 0.4062495937500046,
          "durationTicks": 455,
          "midi": 70,
          "name": "A#4",
          "ticks": 137760,
          "time": 122.99987700000001,
          "velocity": 0.6299212598425197
        },
        {
          "duration": 0.4062495937500046,
          "durationTicks": 455,
          "midi": 82,
          "name": "A#5",
          "ticks": 137760,
          "time": 122.99987700000001,
          "velocity": 0.6299212598425197
        },
        {
          "duration": 0.20267836875,
          "durationTicks": 227,
          "midi": 67,
          "name": "G4",
          "ticks": 138240,
          "time": 123.428448,
          "velocity": 0.6299212598425197
        },
        {
          "duration": 0.20267836875,
          "durationTicks": 227,
          "midi": 79,
          "name": "G5",
          "ticks": 138240,
          "time": 123.428448,
          "velocity": 0.6299212598425197
        },
        {
          "duration": 0.6098208187499949,
          "durationTicks": 683,
          "midi": 69,
          "name": "A4",
          "ticks": 138480,
          "time": 123.6427335,
          "velocity": 0.6299212598425197
        },
        {
          "duration": 0.6098208187499949,
          "durationTicks": 683,
          "midi": 81,
          "name": "A5",
          "ticks": 138480,
          "time": 123.6427335,
          "velocity": 0.6299212598425197
        },
        {
          "duration": 0.4062495937500046,
          "durationTicks": 455,
          "midi": 70,
          "name": "A#4",
          "ticks": 139200,
          "time": 124.28559000000001,
          "velocity": 0.6299212598425197
        },
        {
          "duration": 0.4062495937500046,
          "durationTicks": 455,
          "midi": 82,
          "name": "A#5",
          "ticks": 139200,
          "time": 124.28559000000001,
          "velocity": 0.6299212598425197
        },
        {
          "duration": 1.0169632687499899,
          "durationTicks": 1139,
          "midi": 74,
          "name": "D5",
          "ticks": 139680,
          "time": 124.714161,
          "velocity": 0.6299212598425197
        },
        {
          "duration": 1.0169632687499899,
          "durationTicks": 1139,
          "midi": 78,
          "name": "F#5",
          "ticks": 139680,
          "time": 124.714161,
          "velocity": 0.6299212598425197
        },
        {
          "duration": 1.0169632687499899,
          "durationTicks": 1139,
          "midi": 86,
          "name": "D6",
          "ticks": 139680,
          "time": 124.714161,
          "velocity": 0.6299212598425197
        },
        {
          "duration": 0.2026783687499858,
          "durationTicks": 227,
          "midi": 70,
          "name": "A#4",
          "ticks": 140880,
          "time": 125.78558850000002,
          "velocity": 0.6299212598425197
        },
        {
          "duration": 0.2026783687499858,
          "durationTicks": 227,
          "midi": 82,
          "name": "A#5",
          "ticks": 140880,
          "time": 125.78558850000002,
          "velocity": 0.6299212598425197
        },
        {
          "duration": 0.4062495937500188,
          "durationTicks": 455,
          "midi": 67,
          "name": "G4",
          "ticks": 141120,
          "time": 125.999874,
          "velocity": 0.6299212598425197
        },
        {
          "duration": 0.4062495937500188,
          "durationTicks": 455,
          "midi": 79,
          "name": "G5",
          "ticks": 141120,
          "time": 125.999874,
          "velocity": 0.6299212598425197
        },
        {
          "duration": 0.20267836875,
          "durationTicks": 227,
          "midi": 69,
          "name": "A4",
          "ticks": 141600,
          "time": 126.42844500000001,
          "velocity": 0.6299212598425197
        },
        {
          "duration": 0.20267836875,
          "durationTicks": 227,
          "midi": 81,
          "name": "A5",
          "ticks": 141600,
          "time": 126.42844500000001,
          "velocity": 0.6299212598425197
        },
        {
          "duration": 0.6098208187499949,
          "durationTicks": 683,
          "midi": 70,
          "name": "A#4",
          "ticks": 141840,
          "time": 126.64273050000001,
          "velocity": 0.6299212598425197
        },
        {
          "duration": 0.6098208187499949,
          "durationTicks": 683,
          "midi": 82,
          "name": "A#5",
          "ticks": 141840,
          "time": 126.64273050000001,
          "velocity": 0.6299212598425197
        },
        {
          "duration": 0.4062495937500188,
          "durationTicks": 455,
          "midi": 67,
          "name": "G4",
          "ticks": 142560,
          "time": 127.285587,
          "velocity": 0.6299212598425197
        },
        {
          "duration": 0.4062495937500188,
          "durationTicks": 455,
          "midi": 79,
          "name": "G5",
          "ticks": 142560,
          "time": 127.285587,
          "velocity": 0.6299212598425197
        },
        {
          "duration": 0.4062495937500188,
          "durationTicks": 455,
          "midi": 69,
          "name": "A4",
          "ticks": 143040,
          "time": 127.71415800000001,
          "velocity": 0.6299212598425197
        },
        {
          "duration": 0.4062495937500188,
          "durationTicks": 455,
          "midi": 81,
          "name": "A5",
          "ticks": 143040,
          "time": 127.71415800000001,
          "velocity": 0.6299212598425197
        },
        {
          "duration": 0.4062495937500046,
          "durationTicks": 455,
          "midi": 70,
          "name": "A#4",
          "ticks": 143520,
          "time": 128.142729,
          "velocity": 0.6299212598425197
        },
        {
          "duration": 0.4062495937500046,
          "durationTicks": 455,
          "midi": 82,
          "name": "A#5",
          "ticks": 143520,
          "time": 128.142729,
          "velocity": 0.6299212598425197
        },
        {
          "duration": 0.4062495937500046,
          "durationTicks": 455,
          "midi": 67,
          "name": "G4",
          "ticks": 144000,
          "time": 128.5713,
          "velocity": 0.6299212598425197
        },
        {
          "duration": 0.4062495937500046,
          "durationTicks": 455,
          "midi": 79,
          "name": "G5",
          "ticks": 144000,
          "time": 128.5713,
          "velocity": 0.6299212598425197
        },
        {
          "duration": 0.4062495937500046,
          "durationTicks": 455,
          "midi": 69,
          "name": "A4",
          "ticks": 144480,
          "time": 128.999871,
          "velocity": 0.6299212598425197
        },
        {
          "duration": 0.4062495937500046,
          "durationTicks": 455,
          "midi": 81,
          "name": "A5",
          "ticks": 144480,
          "time": 128.999871,
          "velocity": 0.6299212598425197
        },
        {
          "duration": 0.2026783687499858,
          "durationTicks": 227,
          "midi": 70,
          "name": "A#4",
          "ticks": 144960,
          "time": 129.42844200000002,
          "velocity": 0.6299212598425197
        },
        {
          "duration": 0.2026783687499858,
          "durationTicks": 227,
          "midi": 82,
          "name": "A#5",
          "ticks": 144960,
          "time": 129.42844200000002,
          "velocity": 0.6299212598425197
        },
        {
          "duration": 1.016963268750004,
          "durationTicks": 1139,
          "midi": 74,
          "name": "D5",
          "ticks": 145200,
          "time": 129.6427275,
          "velocity": 0.6299212598425197
        },
        {
          "duration": 1.016963268750004,
          "durationTicks": 1139,
          "midi": 79,
          "name": "G5",
          "ticks": 145200,
          "time": 129.6427275,
          "velocity": 0.6299212598425197
        },
        {
          "duration": 1.016963268750004,
          "durationTicks": 1139,
          "midi": 86,
          "name": "D6",
          "ticks": 145200,
          "time": 129.6427275,
          "velocity": 0.6299212598425197
        },
        {
          "duration": 0.4062495937500046,
          "durationTicks": 455,
          "midi": 70,
          "name": "A#4",
          "ticks": 146400,
          "time": 130.714155,
          "velocity": 0.6299212598425197
        },
        {
          "duration": 0.4062495937500046,
          "durationTicks": 455,
          "midi": 82,
          "name": "A#5",
          "ticks": 146400,
          "time": 130.714155,
          "velocity": 0.6299212598425197
        },
        {
          "duration": 0.4062495937500046,
          "durationTicks": 455,
          "midi": 74,
          "name": "D5",
          "ticks": 146880,
          "time": 131.142726,
          "velocity": 0.6299212598425197
        },
        {
          "duration": 0.4062495937500046,
          "durationTicks": 455,
          "midi": 79,
          "name": "G5",
          "ticks": 146880,
          "time": 131.142726,
          "velocity": 0.6299212598425197
        },
        {
          "duration": 0.4062495937500046,
          "durationTicks": 455,
          "midi": 86,
          "name": "D6",
          "ticks": 146880,
          "time": 131.142726,
          "velocity": 0.6299212598425197
        },
        {
          "duration": 0.4062495937500046,
          "durationTicks": 455,
          "midi": 72,
          "name": "C5",
          "ticks": 147360,
          "time": 131.57129700000002,
          "velocity": 0.6299212598425197
        },
        {
          "duration": 0.4062495937500046,
          "durationTicks": 455,
          "midi": 84,
          "name": "C6",
          "ticks": 147360,
          "time": 131.57129700000002,
          "velocity": 0.6299212598425197
        },
        {
          "duration": 0.4062495937500046,
          "durationTicks": 455,
          "midi": 70,
          "name": "A#4",
          "ticks": 147840,
          "time": 131.99986800000002,
          "velocity": 0.6299212598425197
        },
        {
          "duration": 0.4062495937500046,
          "durationTicks": 455,
          "midi": 82,
          "name": "A#5",
          "ticks": 147840,
          "time": 131.99986800000002,
          "velocity": 0.6299212598425197
        },
        {
          "duration": 0.406249593750033,
          "durationTicks": 455,
          "midi": 74,
          "name": "D5",
          "ticks": 148320,
          "time": 132.428439,
          "velocity": 0.6299212598425197
        },
        {
          "duration": 0.406249593750033,
          "durationTicks": 455,
          "midi": 79,
          "name": "G5",
          "ticks": 148320,
          "time": 132.428439,
          "velocity": 0.6299212598425197
        },
        {
          "duration": 0.406249593750033,
          "durationTicks": 455,
          "midi": 86,
          "name": "D6",
          "ticks": 148320,
          "time": 132.428439,
          "velocity": 0.6299212598425197
        },
        {
          "duration": 0.20267836875001422,
          "durationTicks": 227,
          "midi": 72,
          "name": "C5",
          "ticks": 148800,
          "time": 132.85701,
          "velocity": 0.6299212598425197
        },
        {
          "duration": 0.20267836875001422,
          "durationTicks": 227,
          "midi": 84,
          "name": "C6",
          "ticks": 148800,
          "time": 132.85701,
          "velocity": 0.6299212598425197
        },
        {
          "duration": 0.6098208187499949,
          "durationTicks": 683,
          "midi": 70,
          "name": "A#4",
          "ticks": 149040,
          "time": 133.07129550000002,
          "velocity": 0.6299212598425197
        },
        {
          "duration": 0.6098208187499949,
          "durationTicks": 683,
          "midi": 82,
          "name": "A#5",
          "ticks": 149040,
          "time": 133.07129550000002,
          "velocity": 0.6299212598425197
        },
        {
          "duration": 0.4062495937500046,
          "durationTicks": 455,
          "midi": 74,
          "name": "D5",
          "ticks": 149760,
          "time": 133.714152,
          "velocity": 0.6299212598425197
        },
        {
          "duration": 0.4062495937500046,
          "durationTicks": 455,
          "midi": 79,
          "name": "G5",
          "ticks": 149760,
          "time": 133.714152,
          "velocity": 0.6299212598425197
        },
        {
          "duration": 0.4062495937500046,
          "durationTicks": 455,
          "midi": 86,
          "name": "D6",
          "ticks": 149760,
          "time": 133.714152,
          "velocity": 0.6299212598425197
        },
        {
          "duration": 0.4062495937500046,
          "durationTicks": 455,
          "midi": 72,
          "name": "C5",
          "ticks": 150240,
          "time": 134.14272300000002,
          "velocity": 0.6299212598425197
        },
        {
          "duration": 0.4062495937500046,
          "durationTicks": 455,
          "midi": 84,
          "name": "C6",
          "ticks": 150240,
          "time": 134.14272300000002,
          "velocity": 0.6299212598425197
        },
        {
          "duration": 0.2026783687499858,
          "durationTicks": 227,
          "midi": 70,
          "name": "A#4",
          "ticks": 150720,
          "time": 134.57129400000002,
          "velocity": 0.6299212598425197
        },
        {
          "duration": 0.2026783687499858,
          "durationTicks": 227,
          "midi": 82,
          "name": "A#5",
          "ticks": 150720,
          "time": 134.57129400000002,
          "velocity": 0.6299212598425197
        },
        {
          "duration": 1.0169632687499757,
          "durationTicks": 1139,
          "midi": 72,
          "name": "C5",
          "ticks": 150960,
          "time": 134.7855795,
          "velocity": 0.6299212598425197
        },
        {
          "duration": 1.0169632687499757,
          "durationTicks": 1139,
          "midi": 84,
          "name": "C6",
          "ticks": 150960,
          "time": 134.7855795,
          "velocity": 0.6299212598425197
        },
        {
          "duration": 0.4062495937500046,
          "durationTicks": 455,
          "midi": 70,
          "name": "A#4",
          "ticks": 152160,
          "time": 135.857007,
          "velocity": 0.6299212598425197
        },
        {
          "duration": 0.4062495937500046,
          "durationTicks": 455,
          "midi": 82,
          "name": "A#5",
          "ticks": 152160,
          "time": 135.857007,
          "velocity": 0.6299212598425197
        },
        {
          "duration": 0.4062495937500046,
          "durationTicks": 455,
          "midi": 74,
          "name": "D5",
          "ticks": 152640,
          "time": 136.28557800000002,
          "velocity": 0.6299212598425197
        },
        {
          "duration": 0.4062495937500046,
          "durationTicks": 455,
          "midi": 82,
          "name": "A#5",
          "ticks": 152640,
          "time": 136.28557800000002,
          "velocity": 0.6299212598425197
        },
        {
          "duration": 0.4062495937500046,
          "durationTicks": 455,
          "midi": 86,
          "name": "D6",
          "ticks": 152640,
          "time": 136.28557800000002,
          "velocity": 0.6299212598425197
        },
        {
          "duration": 0.4062495937500046,
          "durationTicks": 455,
          "midi": 72,
          "name": "C5",
          "ticks": 153120,
          "time": 136.71414900000002,
          "velocity": 0.6299212598425197
        },
        {
          "duration": 0.4062495937500046,
          "durationTicks": 455,
          "midi": 84,
          "name": "C6",
          "ticks": 153120,
          "time": 136.71414900000002,
          "velocity": 0.6299212598425197
        },
        {
          "duration": 0.20267836875001422,
          "durationTicks": 227,
          "midi": 70,
          "name": "A#4",
          "ticks": 153600,
          "time": 137.14272,
          "velocity": 0.6299212598425197
        },
        {
          "duration": 0.20267836875001422,
          "durationTicks": 227,
          "midi": 82,
          "name": "A#5",
          "ticks": 153600,
          "time": 137.14272,
          "velocity": 0.6299212598425197
        },
        {
          "duration": 0.6098208187499949,
          "durationTicks": 683,
          "midi": 74,
          "name": "D5",
          "ticks": 153840,
          "time": 137.3570055,
          "velocity": 0.6299212598425197
        },
        {
          "duration": 0.6098208187499949,
          "durationTicks": 683,
          "midi": 86,
          "name": "D6",
          "ticks": 153840,
          "time": 137.3570055,
          "velocity": 0.6299212598425197
        },
        {
          "duration": 0.8133920437500137,
          "durationTicks": 911,
          "midi": 72,
          "name": "C5",
          "ticks": 154560,
          "time": 137.999862,
          "velocity": 0.6299212598425197
        },
        {
          "duration": 0.8133920437500137,
          "durationTicks": 911,
          "midi": 84,
          "name": "C6",
          "ticks": 154560,
          "time": 137.999862,
          "velocity": 0.6299212598425197
        },
        {
          "duration": 1.2205344937499945,
          "durationTicks": 1367,
          "midi": 63,
          "name": "D#4",
          "ticks": 155520,
          "time": 138.85700400000002,
          "velocity": 0.6299212598425197
        },
        {
          "duration": 1.2205344937499945,
          "durationTicks": 1367,
          "midi": 67,
          "name": "G4",
          "ticks": 155520,
          "time": 138.85700400000002,
          "velocity": 0.6299212598425197
        },
        {
          "duration": 1.2205344937499945,
          "durationTicks": 1367,
          "midi": 77,
          "name": "F5",
          "ticks": 156960,
          "time": 140.142717,
          "velocity": 0.6692913385826772
        },
        {
          "duration": 1.2205344937499945,
          "durationTicks": 1367,
          "midi": 89,
          "name": "F6",
          "ticks": 156960,
          "time": 140.142717,
          "velocity": 0.6692913385826772
        },
        {
          "duration": 1.2205344937499945,
          "durationTicks": 1367,
          "midi": 79,
          "name": "G5",
          "ticks": 158400,
          "time": 141.42843000000002,
          "velocity": 0.7086614173228346
        },
        {
          "duration": 1.2205344937499945,
          "durationTicks": 1367,
          "midi": 91,
          "name": "G6",
          "ticks": 158400,
          "time": 141.42843000000002,
          "velocity": 0.7086614173228346
        },
        {
          "duration": 0.4062495937500046,
          "durationTicks": 455,
          "midi": 74,
          "name": "D5",
          "ticks": 159840,
          "time": 142.714143,
          "velocity": 0.7559055118110236
        },
        {
          "duration": 0.4062495937500046,
          "durationTicks": 455,
          "midi": 86,
          "name": "D6",
          "ticks": 159840,
          "time": 142.714143,
          "velocity": 0.7559055118110236
        },
        {
          "duration": 0.4062495937500046,
          "durationTicks": 455,
          "midi": 72,
          "name": "C5",
          "ticks": 160320,
          "time": 143.142714,
          "velocity": 0.6299212598425197
        },
        {
          "duration": 0.4062495937500046,
          "durationTicks": 455,
          "midi": 84,
          "name": "C6",
          "ticks": 160320,
          "time": 143.142714,
          "velocity": 0.6299212598425197
        },
        {
          "duration": 0.4062495937500046,
          "durationTicks": 455,
          "midi": 74,
          "name": "D5",
          "ticks": 160800,
          "time": 143.57128500000002,
          "velocity": 0.6299212598425197
        },
        {
          "duration": 0.4062495937500046,
          "durationTicks": 455,
          "midi": 86,
          "name": "D6",
          "ticks": 160800,
          "time": 143.57128500000002,
          "velocity": 0.6299212598425197
        },
        {
          "duration": 1.2205344937499945,
          "durationTicks": 1367,
          "midi": 67,
          "name": "G4",
          "ticks": 161280,
          "time": 143.99985600000002,
          "velocity": 0.25984251968503935
        },
        {
          "duration": 1.2205344937499945,
          "durationTicks": 1367,
          "midi": 79,
          "name": "G5",
          "ticks": 161280,
          "time": 143.99985600000002,
          "velocity": 0.25984251968503935
        },
        {
          "duration": 1.2205344937499945,
          "durationTicks": 1367,
          "midi": 69,
          "name": "A4",
          "ticks": 162720,
          "time": 145.285569,
          "velocity": 0.25984251968503935
        },
        {
          "duration": 1.2205344937499945,
          "durationTicks": 1367,
          "midi": 81,
          "name": "A5",
          "ticks": 162720,
          "time": 145.285569,
          "velocity": 0.25984251968503935
        },
        {
          "duration": 1.2205344937499945,
          "durationTicks": 1367,
          "midi": 66,
          "name": "F#4",
          "ticks": 164160,
          "time": 146.57128200000002,
          "velocity": 0.25984251968503935
        },
        {
          "duration": 1.2205344937499945,
          "durationTicks": 1367,
          "midi": 70,
          "name": "A#4",
          "ticks": 164160,
          "time": 146.57128200000002,
          "velocity": 0.25984251968503935
        },
        {
          "duration": 1.2205344937499945,
          "durationTicks": 1367,
          "midi": 74,
          "name": "D5",
          "ticks": 164160,
          "time": 146.57128200000002,
          "velocity": 0.25984251968503935
        },
        {
          "duration": 1.2205344937499945,
          "durationTicks": 1367,
          "midi": 82,
          "name": "A#5",
          "ticks": 164160,
          "time": 146.57128200000002,
          "velocity": 0.25984251968503935
        },
        {
          "duration": 1.2205344937499945,
          "durationTicks": 1367,
          "midi": 74,
          "name": "D5",
          "ticks": 165600,
          "time": 147.856995,
          "velocity": 0.25984251968503935
        },
        {
          "duration": 1.2205344937499945,
          "durationTicks": 1367,
          "midi": 86,
          "name": "D6",
          "ticks": 165600,
          "time": 147.856995,
          "velocity": 0.25984251968503935
        },
        {
          "duration": 1.2205344937500229,
          "durationTicks": 1367,
          "midi": 65,
          "name": "F4",
          "ticks": 167040,
          "time": 149.142708,
          "velocity": 0.25984251968503935
        },
        {
          "duration": 1.2205344937500229,
          "durationTicks": 1367,
          "midi": 67,
          "name": "G4",
          "ticks": 167040,
          "time": 149.142708,
          "velocity": 0.25984251968503935
        },
        {
          "duration": 1.2205344937500229,
          "durationTicks": 1367,
          "midi": 79,
          "name": "G5",
          "ticks": 167040,
          "time": 149.142708,
          "velocity": 0.25984251968503935
        },
        {
          "duration": 1.2205344937499945,
          "durationTicks": 1367,
          "midi": 69,
          "name": "A4",
          "ticks": 168480,
          "time": 150.42842100000001,
          "velocity": 0.25984251968503935
        },
        {
          "duration": 1.2205344937499945,
          "durationTicks": 1367,
          "midi": 81,
          "name": "A5",
          "ticks": 168480,
          "time": 150.42842100000001,
          "velocity": 0.25984251968503935
        },
        {
          "duration": 1.2205344937500229,
          "durationTicks": 1367,
          "midi": 64,
          "name": "E4",
          "ticks": 169920,
          "time": 151.714134,
          "velocity": 0.25984251968503935
        },
        {
          "duration": 1.2205344937500229,
          "durationTicks": 1367,
          "midi": 70,
          "name": "A#4",
          "ticks": 169920,
          "time": 151.714134,
          "velocity": 0.25984251968503935
        },
        {
          "duration": 1.2205344937500229,
          "durationTicks": 1367,
          "midi": 82,
          "name": "A#5",
          "ticks": 169920,
          "time": 151.714134,
          "velocity": 0.25984251968503935
        },
        {
          "duration": 0.4062495937500046,
          "durationTicks": 455,
          "midi": 86,
          "name": "D6",
          "ticks": 171360,
          "time": 152.99984700000002,
          "velocity": 0.25984251968503935
        },
        {
          "duration": 0.4062495937500046,
          "durationTicks": 455,
          "midi": 84,
          "name": "C6",
          "ticks": 171840,
          "time": 153.42841800000002,
          "velocity": 0.25984251968503935
        },
        {
          "duration": 0.406249593750033,
          "durationTicks": 455,
          "midi": 86,
          "name": "D6",
          "ticks": 172320,
          "time": 153.856989,
          "velocity": 0.25984251968503935
        },
        {
          "duration": 1.2205344937499945,
          "durationTicks": 1367,
          "midi": 79,
          "name": "G5",
          "ticks": 172800,
          "time": 154.28556,
          "velocity": 0.25984251968503935
        }
      ],
      "endOfTrackTicks": 174168
    },
    {
      "channel": 0,
      "controlChanges": {
        "64": [
          {
            "number": 64,
            "ticks": 2,
            "time": 0.0017857125,
            "value": 1
          },
          {
            "number": 64,
            "ticks": 2881,
            "time": 2.5723188562500003,
            "value": 0
          },
          {
            "number": 64,
            "ticks": 2882,
            "time": 2.5732117125,
            "value": 1
          },
          {
            "number": 64,
            "ticks": 5761,
            "time": 5.1437448562500006,
            "value": 0
          },
          {
            "number": 64,
            "ticks": 5762,
            "time": 5.144637712500001,
            "value": 1
          },
          {
            "number": 64,
            "ticks": 8641,
            "time": 7.715170856250001,
            "value": 0
          },
          {
            "number": 64,
            "ticks": 8642,
            "time": 7.7160637125000004,
            "value": 1
          },
          {
            "number": 64,
            "ticks": 11521,
            "time": 10.286596856250002,
            "value": 0
          },
          {
            "number": 64,
            "ticks": 11522,
            "time": 10.287489712500001,
            "value": 1
          },
          {
            "number": 64,
            "ticks": 14401,
            "time": 12.858022856250003,
            "value": 0
          },
          {
            "number": 64,
            "ticks": 14402,
            "time": 12.858915712500002,
            "value": 1
          },
          {
            "number": 64,
            "ticks": 17281,
            "time": 15.42944885625,
            "value": 0
          },
          {
            "number": 64,
            "ticks": 17282,
            "time": 15.430341712500002,
            "value": 1
          },
          {
            "number": 64,
            "ticks": 20161,
            "time": 18.00087485625,
            "value": 0
          },
          {
            "number": 64,
            "ticks": 20162,
            "time": 18.0017677125,
            "value": 1
          },
          {
            "number": 64,
            "ticks": 23041,
            "time": 20.57230085625,
            "value": 0
          },
          {
            "number": 64,
            "ticks": 23042,
            "time": 20.573193712500004,
            "value": 1
          },
          {
            "number": 64,
            "ticks": 25921,
            "time": 23.14372685625,
            "value": 0
          },
          {
            "number": 64,
            "ticks": 25922,
            "time": 23.144619712500003,
            "value": 1
          },
          {
            "number": 64,
            "ticks": 28801,
            "time": 25.71515285625,
            "value": 0
          },
          {
            "number": 64,
            "ticks": 28802,
            "time": 25.716045712500005,
            "value": 1
          },
          {
            "number": 64,
            "ticks": 31681,
            "time": 28.286578856250003,
            "value": 0
          },
          {
            "number": 64,
            "ticks": 31682,
            "time": 28.2874717125,
            "value": 1
          },
          {
            "number": 64,
            "ticks": 34561,
            "time": 30.858004856250002,
            "value": 0
          },
          {
            "number": 64,
            "ticks": 34562,
            "time": 30.8588977125,
            "value": 1
          },
          {
            "number": 64,
            "ticks": 37441,
            "time": 33.42943085625,
            "value": 0
          },
          {
            "number": 64,
            "ticks": 37442,
            "time": 33.4303237125,
            "value": 1
          },
          {
            "number": 64,
            "ticks": 40321,
            "time": 36.00085685625,
            "value": 0
          },
          {
            "number": 64,
            "ticks": 40322,
            "time": 36.0017497125,
            "value": 1
          },
          {
            "number": 64,
            "ticks": 43201,
            "time": 38.572282856250006,
            "value": 0
          },
          {
            "number": 64,
            "ticks": 43202,
            "time": 38.5731757125,
            "value": 1
          },
          {
            "number": 64,
            "ticks": 46081,
            "time": 41.14370885625,
            "value": 0
          },
          {
            "number": 64,
            "ticks": 46082,
            "time": 41.1446017125,
            "value": 1
          },
          {
            "number": 64,
            "ticks": 48961,
            "time": 43.71513485625,
            "value": 0
          },
          {
            "number": 64,
            "ticks": 48962,
            "time": 43.7160277125,
            "value": 1
          },
          {
            "number": 64,
            "ticks": 51841,
            "time": 46.286560856250006,
            "value": 0
          },
          {
            "number": 64,
            "ticks": 51842,
            "time": 46.2874537125,
            "value": 1
          },
          {
            "number": 64,
            "ticks": 54721,
            "time": 48.85798685625,
            "value": 0
          },
          {
            "number": 64,
            "ticks": 54722,
            "time": 48.858879712500006,
            "value": 1
          },
          {
            "number": 64,
            "ticks": 57601,
            "time": 51.42941285625,
            "value": 0
          },
          {
            "number": 64,
            "ticks": 57602,
            "time": 51.4303057125,
            "value": 1
          },
          {
            "number": 64,
            "ticks": 60481,
            "time": 54.000838856250006,
            "value": 0
          },
          {
            "number": 64,
            "ticks": 60482,
            "time": 54.0017317125,
            "value": 1
          },
          {
            "number": 64,
            "ticks": 63361,
            "time": 56.57226485625,
            "value": 0
          },
          {
            "number": 64,
            "ticks": 63362,
            "time": 56.573157712500006,
            "value": 1
          },
          {
            "number": 64,
            "ticks": 66241,
            "time": 59.143690856250004,
            "value": 0
          },
          {
            "number": 64,
            "ticks": 66242,
            "time": 59.1445837125,
            "value": 1
          },
          {
            "number": 64,
            "ticks": 69121,
            "time": 61.715116856250006,
            "value": 0
          },
          {
            "number": 64,
            "ticks": 69122,
            "time": 61.716009712500004,
            "value": 1
          },
          {
            "number": 64,
            "ticks": 72001,
            "time": 64.28654285625001,
            "value": 0
          },
          {
            "number": 64,
            "ticks": 72002,
            "time": 64.2874357125,
            "value": 1
          },
          {
            "number": 64,
            "ticks": 74881,
            "time": 66.85796885625001,
            "value": 0
          },
          {
            "number": 64,
            "ticks": 74882,
            "time": 66.8588617125,
            "value": 1
          },
          {
            "number": 64,
            "ticks": 77761,
            "time": 69.42939485625,
            "value": 0
          },
          {
            "number": 64,
            "ticks": 77762,
            "time": 69.4302877125,
            "value": 1
          },
          {
            "number": 64,
            "ticks": 80641,
            "time": 72.00082085625,
            "value": 0
          },
          {
            "number": 64,
            "ticks": 80642,
            "time": 72.0017137125,
            "value": 1
          },
          {
            "number": 64,
            "ticks": 83521,
            "time": 74.57224685625,
            "value": 0
          },
          {
            "number": 64,
            "ticks": 83522,
            "time": 74.57313971250001,
            "value": 1
          },
          {
            "number": 64,
            "ticks": 86401,
            "time": 77.14367285625,
            "value": 0
          },
          {
            "number": 64,
            "ticks": 86402,
            "time": 77.14456571250001,
            "value": 1
          },
          {
            "number": 64,
            "ticks": 89281,
            "time": 79.71509885625001,
            "value": 0
          },
          {
            "number": 64,
            "ticks": 89282,
            "time": 79.7159917125,
            "value": 1
          },
          {
            "number": 64,
            "ticks": 92161,
            "time": 82.28652485625001,
            "value": 0
          },
          {
            "number": 64,
            "ticks": 92162,
            "time": 82.2874177125,
            "value": 1
          },
          {
            "number": 64,
            "ticks": 95041,
            "time": 84.85795085625,
            "value": 0
          },
          {
            "number": 64,
            "ticks": 95042,
            "time": 84.8588437125,
            "value": 1
          },
          {
            "number": 64,
            "ticks": 97921,
            "time": 87.42937685625,
            "value": 0
          },
          {
            "number": 64,
            "ticks": 97922,
            "time": 87.4302697125,
            "value": 1
          },
          {
            "number": 64,
            "ticks": 100801,
            "time": 90.00080285625,
            "value": 0
          },
          {
            "number": 64,
            "ticks": 100802,
            "time": 90.00169571250001,
            "value": 1
          },
          {
            "number": 64,
            "ticks": 103681,
            "time": 92.57222885625,
            "value": 0
          },
          {
            "number": 64,
            "ticks": 103682,
            "time": 92.57312171250001,
            "value": 1
          },
          {
            "number": 64,
            "ticks": 106561,
            "time": 95.14365485625001,
            "value": 0
          },
          {
            "number": 64,
            "ticks": 106562,
            "time": 95.1445477125,
            "value": 1
          },
          {
            "number": 64,
            "ticks": 109441,
            "time": 97.71508085625001,
            "value": 0
          },
          {
            "number": 64,
            "ticks": 109442,
            "time": 97.7159737125,
            "value": 1
          },
          {
            "number": 64,
            "ticks": 112321,
            "time": 100.28650685625001,
            "value": 0
          },
          {
            "number": 64,
            "ticks": 112322,
            "time": 100.2873997125,
            "value": 1
          },
          {
            "number": 64,
            "ticks": 115201,
            "time": 102.85793285625,
            "value": 0
          },
          {
            "number": 64,
            "ticks": 115202,
            "time": 102.8588257125,
            "value": 1
          },
          {
            "number": 64,
            "ticks": 118081,
            "time": 105.42935885625,
            "value": 0
          },
          {
            "number": 64,
            "ticks": 118082,
            "time": 105.43025171250001,
            "value": 1
          },
          {
            "number": 64,
            "ticks": 120961,
            "time": 108.00078485625001,
            "value": 0
          },
          {
            "number": 64,
            "ticks": 120962,
            "time": 108.00167771250001,
            "value": 1
          },
          {
            "number": 64,
            "ticks": 123841,
            "time": 110.57221085625002,
            "value": 0
          },
          {
            "number": 64,
            "ticks": 123842,
            "time": 110.57310371250001,
            "value": 1
          },
          {
            "number": 64,
            "ticks": 125281,
            "time": 111.85792385625003,
            "value": 0
          },
          {
            "number": 64,
            "ticks": 125282,
            "time": 111.8588167125,
            "value": 1
          },
          {
            "number": 64,
            "ticks": 126721,
            "time": 113.14363685625003,
            "value": 0
          },
          {
            "number": 64,
            "ticks": 126722,
            "time": 113.1445297125,
            "value": 1
          },
          {
            "number": 64,
            "ticks": 129601,
            "time": 115.71506285625001,
            "value": 0
          },
          {
            "number": 64,
            "ticks": 129602,
            "time": 115.7159557125,
            "value": 1
          },
          {
            "number": 64,
            "ticks": 132481,
            "time": 118.28648885625002,
            "value": 0
          },
          {
            "number": 64,
            "ticks": 132482,
            "time": 118.28738171250001,
            "value": 1
          },
          {
            "number": 64,
            "ticks": 135361,
            "time": 120.85791485625002,
            "value": 0
          },
          {
            "number": 64,
            "ticks": 135362,
            "time": 120.85880771250001,
            "value": 1
          },
          {
            "number": 64,
            "ticks": 138241,
            "time": 123.42934085625002,
            "value": 0
          },
          {
            "number": 64,
            "ticks": 138242,
            "time": 123.43023371250001,
            "value": 1
          },
          {
            "number": 64,
            "ticks": 141121,
            "time": 126.00076685625002,
            "value": 0
          },
          {
            "number": 64,
            "ticks": 141122,
            "time": 126.00165971250001,
            "value": 1
          },
          {
            "number": 64,
            "ticks": 144001,
            "time": 128.57219285625,
            "value": 0
          },
          {
            "number": 64,
            "ticks": 144002,
            "time": 128.57308571250002,
            "value": 1
          },
          {
            "number": 64,
            "ticks": 146881,
            "time": 131.14361885625001,
            "value": 0
          },
          {
            "number": 64,
            "ticks": 146882,
            "time": 131.14451171250002,
            "value": 1
          },
          {
            "number": 64,
            "ticks": 149761,
            "time": 133.71504485625002,
            "value": 0
          },
          {
            "number": 64,
            "ticks": 149762,
            "time": 133.71593771250002,
            "value": 1
          },
          {
            "number": 64,
            "ticks": 152641,
            "time": 136.28647085625002,
            "value": 0
          },
          {
            "number": 64,
            "ticks": 152642,
            "time": 136.2873637125,
            "value": 1
          },
          {
            "number": 64,
            "ticks": 155521,
            "time": 138.85789685625002,
            "value": 0
          },
          {
            "number": 64,
            "ticks": 155522,
            "time": 138.8587897125,
            "value": 1
          },
          {
            "number": 64,
            "ticks": 161281,
            "time": 144.00074885625003,
            "value": 0
          },
          {
            "number": 64,
            "ticks": 161282,
            "time": 144.0016417125,
            "value": 1
          },
          {
            "number": 64,
            "ticks": 164161,
            "time": 146.57217485625003,
            "value": 0
          },
          {
            "number": 64,
            "ticks": 164162,
            "time": 146.5730677125,
            "value": 1
          },
          {
            "number": 64,
            "ticks": 167041,
            "time": 149.14360085625003,
            "value": 0
          },
          {
            "number": 64,
            "ticks": 167042,
            "time": 149.1444937125,
            "value": 1
          },
          {
            "number": 64,
            "ticks": 169921,
            "time": 151.71502685625003,
            "value": 0
          },
          {
            "number": 64,
            "ticks": 169922,
            "time": 151.7159197125,
            "value": 1
          },
          {
            "number": 64,
            "ticks": 172801,
            "time": 154.28645285625004,
            "value": 0
          }
        ]
      },
      "pitchBends": [],
      "instrument": {
        "family": "piano",
        "number": 0,
        "name": "acoustic grand piano"
      },
      "name": "Piano",
      "notes": [
        {
          "duration": 0.40624959375,
          "durationTicks": 455,
          "midi": 43,
          "name": "G2",
          "ticks": 0,
          "time": 0,
          "velocity": 0.3858267716535433
        },
        {
          "duration": 0.40624959375,
          "durationTicks": 455,
          "midi": 55,
          "name": "G3",
          "ticks": 0,
          "time": 0,
          "velocity": 0.3858267716535433
        },
        {
          "duration": 0.20267836875,
          "durationTicks": 227,
          "midi": 57,
          "name": "A3",
          "ticks": 480,
          "time": 0.42857100000000004,
          "velocity": 0.3858267716535433
        },
        {
          "duration": 0.20267836875,
          "durationTicks": 227,
          "midi": 55,
          "name": "G3",
          "ticks": 720,
          "time": 0.6428565,
          "velocity": 0.3858267716535433
        },
        {
          "duration": 0.4062495937499999,
          "durationTicks": 455,
          "midi": 58,
          "name": "A#3",
          "ticks": 960,
          "time": 0.8571420000000001,
          "velocity": 0.3858267716535433
        },
        {
          "duration": 0.4062495937499999,
          "durationTicks": 455,
          "midi": 55,
          "name": "G3",
          "ticks": 1440,
          "time": 1.285713,
          "velocity": 0.3858267716535433
        },
        {
          "duration": 0.20267836875,
          "durationTicks": 227,
          "midi": 57,
          "name": "A3",
          "ticks": 1920,
          "time": 1.7142840000000001,
          "velocity": 0.3858267716535433
        },
        {
          "duration": 0.20267836875,
          "durationTicks": 227,
          "midi": 55,
          "name": "G3",
          "ticks": 2160,
          "time": 1.9285695,
          "velocity": 0.3858267716535433
        },
        {
          "duration": 0.4062495937500006,
          "durationTicks": 455,
          "midi": 58,
          "name": "A#3",
          "ticks": 2400,
          "time": 2.142855,
          "velocity": 0.3858267716535433
        },
        {
          "duration": 0.40624959375000014,
          "durationTicks": 455,
          "midi": 43,
          "name": "G2",
          "ticks": 2880,
          "time": 2.571426,
          "velocity": 0.3858267716535433
        },
        {
          "duration": 0.40624959375000014,
          "durationTicks": 455,
          "midi": 55,
          "name": "G3",
          "ticks": 2880,
          "time": 2.571426,
          "velocity": 0.3858267716535433
        },
        {
          "duration": 0.20267836874999956,
          "durationTicks": 227,
          "midi": 57,
          "name": "A3",
          "ticks": 3360,
          "time": 2.9999970000000005,
          "velocity": 0.3858267716535433
        },
        {
          "duration": 0.20267836875,
          "durationTicks": 227,
          "midi": 55,
          "name": "G3",
          "ticks": 3600,
          "time": 3.2142825000000004,
          "velocity": 0.3858267716535433
        },
        {
          "duration": 0.4062495937499997,
          "durationTicks": 455,
          "midi": 58,
          "name": "A#3",
          "ticks": 3840,
          "time": 3.4285680000000003,
          "velocity": 0.3858267716535433
        },
        {
          "duration": 0.40624959375000014,
          "durationTicks": 455,
          "midi": 55,
          "name": "G3",
          "ticks": 4320,
          "time": 3.857139,
          "velocity": 0.3858267716535433
        },
        {
          "duration": 0.20267836875,
          "durationTicks": 227,
          "midi": 57,
          "name": "A3",
          "ticks": 4800,
          "time": 4.28571,
          "velocity": 0.3858267716535433
        },
        {
          "duration": 0.20267836875,
          "durationTicks": 227,
          "midi": 55,
          "name": "G3",
          "ticks": 5040,
          "time": 4.499995500000001,
          "velocity": 0.3858267716535433
        },
        {
          "duration": 0.40624959374999925,
          "durationTicks": 455,
          "midi": 58,
          "name": "A#3",
          "ticks": 5280,
          "time": 4.714281000000001,
          "velocity": 0.3858267716535433
        },
        {
          "duration": 0.40624959375000014,
          "durationTicks": 455,
          "midi": 43,
          "name": "G2",
          "ticks": 5760,
          "time": 5.142852,
          "velocity": 0.3858267716535433
        },
        {
          "duration": 0.40624959375000014,
          "durationTicks": 455,
          "midi": 55,
          "name": "G3",
          "ticks": 5760,
          "time": 5.142852,
          "velocity": 0.3858267716535433
        },
        {
          "duration": 0.20267836875,
          "durationTicks": 227,
          "midi": 57,
          "name": "A3",
          "ticks": 6240,
          "time": 5.571423,
          "velocity": 0.3858267716535433
        },
        {
          "duration": 0.20267836875,
          "durationTicks": 227,
          "midi": 55,
          "name": "G3",
          "ticks": 6480,
          "time": 5.7857085,
          "velocity": 0.3858267716535433
        },
        {
          "duration": 0.40624959374999925,
          "durationTicks": 455,
          "midi": 58,
          "name": "A#3",
          "ticks": 6720,
          "time": 5.999994000000001,
          "velocity": 0.3858267716535433
        },
        {
          "duration": 0.40624959374999925,
          "durationTicks": 455,
          "midi": 55,
          "name": "G3",
          "ticks": 7200,
          "time": 6.428565000000001,
          "velocity": 0.3858267716535433
        },
        {
          "duration": 0.20267836875,
          "durationTicks": 227,
          "midi": 57,
          "name": "A3",
          "ticks": 7680,
          "time": 6.857136000000001,
          "velocity": 0.3858267716535433
        },
        {
          "duration": 0.20267836875,
          "durationTicks": 227,
          "midi": 55,
          "name": "G3",
          "ticks": 7920,
          "time": 7.0714215000000005,
          "velocity": 0.3858267716535433
        },
        {
          "duration": 0.406249593750001,
          "durationTicks": 455,
          "midi": 58,
          "name": "A#3",
          "ticks": 8160,
          "time": 7.285707,
          "velocity": 0.3858267716535433
        },
        {
          "duration": 0.406249593750001,
          "durationTicks": 455,
          "midi": 42,
          "name": "F#2",
          "ticks": 8640,
          "time": 7.714278,
          "velocity": 0.3858267716535433
        },
        {
          "duration": 0.406249593750001,
          "durationTicks": 455,
          "midi": 54,
          "name": "F#3",
          "ticks": 8640,
          "time": 7.714278,
          "velocity": 0.3858267716535433
        },
        {
          "duration": 0.20267836875,
          "durationTicks": 227,
          "midi": 57,
          "name": "A3",
          "ticks": 9120,
          "time": 8.142849,
          "velocity": 0.3858267716535433
        },
        {
          "duration": 0.20267836875,
          "durationTicks": 227,
          "midi": 54,
          "name": "F#3",
          "ticks": 9360,
          "time": 8.3571345,
          "velocity": 0.3858267716535433
        },
        {
          "duration": 0.406249593750001,
          "durationTicks": 455,
          "midi": 58,
          "name": "A#3",
          "ticks": 9600,
          "time": 8.57142,
          "velocity": 0.3858267716535433
        },
        {
          "duration": 0.40624959374999925,
          "durationTicks": 455,
          "midi": 54,
          "name": "F#3",
          "ticks": 10080,
          "time": 8.999991000000001,
          "velocity": 0.3858267716535433
        },
        {
          "duration": 0.20267836875,
          "durationTicks": 227,
          "midi": 58,
          "name": "A#3",
          "ticks": 10560,
          "time": 9.428562000000001,
          "velocity": 0.3858267716535433
        },
        {
          "duration": 0.20267836875,
          "durationTicks": 227,
          "midi": 54,
          "name": "F#3",
          "ticks": 10800,
          "time": 9.6428475,
          "velocity": 0.3858267716535433
        },
        {
          "duration": 0.406249593750001,
          "durationTicks": 455,
          "midi": 57,
          "name": "A3",
          "ticks": 11040,
          "time": 9.857133000000001,
          "velocity": 0.3858267716535433
        },
        {
          "duration": 0.406249593750001,
          "durationTicks": 455,
          "midi": 41,
          "name": "F2",
          "ticks": 11520,
          "time": 10.285704,
          "velocity": 0.3858267716535433
        },
        {
          "duration": 0.406249593750001,
          "durationTicks": 455,
          "midi": 53,
          "name": "F3",
          "ticks": 11520,
          "time": 10.285704,
          "velocity": 0.3858267716535433
        },
        {
          "duration": 0.20267836875,
          "durationTicks": 227,
          "midi": 57,
          "name": "A3",
          "ticks": 12000,
          "time": 10.714275,
          "velocity": 0.3858267716535433
        },
        {
          "duration": 0.20267836875,
          "durationTicks": 227,
          "midi": 53,
          "name": "F3",
          "ticks": 12240,
          "time": 10.928560500000001,
          "velocity": 0.3858267716535433
        },
        {
          "duration": 0.406249593750001,
          "durationTicks": 455,
          "midi": 58,
          "name": "A#3",
          "ticks": 12480,
          "time": 11.142846,
          "velocity": 0.3858267716535433
        },
        {
          "duration": 0.406249593750001,
          "durationTicks": 455,
          "midi": 53,
          "name": "F3",
          "ticks": 12960,
          "time": 11.571417,
          "velocity": 0.3858267716535433
        },
        {
          "duration": 0.20267836874999823,
          "durationTicks": 227,
          "midi": 58,
          "name": "A#3",
          "ticks": 13440,
          "time": 11.999988000000002,
          "velocity": 0.3858267716535433
        },
        {
          "duration": 0.20267836875,
          "durationTicks": 227,
          "midi": 53,
          "name": "F3",
          "ticks": 13680,
          "time": 12.214273500000001,
          "velocity": 0.3858267716535433
        },
        {
          "duration": 0.40624959374999925,
          "durationTicks": 455,
          "midi": 57,
          "name": "A3",
          "ticks": 13920,
          "time": 12.428559000000002,
          "velocity": 0.3858267716535433
        },
        {
          "duration": 0.40624959374999925,
          "durationTicks": 455,
          "midi": 40,
          "name": "E2",
          "ticks": 14400,
          "time": 12.857130000000002,
          "velocity": 0.3858267716535433
        },
        {
          "duration": 0.40624959374999925,
          "durationTicks": 455,
          "midi": 52,
          "name": "E3",
          "ticks": 14400,
          "time": 12.857130000000002,
          "velocity": 0.3858267716535433
        },
        {
          "duration": 0.20267836875,
          "durationTicks": 227,
          "midi": 55,
          "name": "G3",
          "ticks": 14880,
          "time": 13.285701000000001,
          "velocity": 0.3858267716535433
        },
        {
          "duration": 0.20267836875,
          "durationTicks": 227,
          "midi": 52,
          "name": "E3",
          "ticks": 15120,
          "time": 13.4999865,
          "velocity": 0.3858267716535433
        },
        {
          "duration": 0.40624959374999925,
          "durationTicks": 455,
          "midi": 55,
          "name": "G3",
          "ticks": 15360,
          "time": 13.714272000000001,
          "velocity": 0.3858267716535433
        },
        {
          "duration": 0.40624959374999925,
          "durationTicks": 455,
          "midi": 52,
          "name": "E3",
          "ticks": 15840,
          "time": 14.142843000000001,
          "velocity": 0.3858267716535433
        },
        {
          "duration": 0.20267836875000178,
          "durationTicks": 227,
          "midi": 55,
          "name": "G3",
          "ticks": 16320,
          "time": 14.571414,
          "velocity": 0.3858267716535433
        },
        {
          "duration": 0.20267836875000178,
          "durationTicks": 227,
          "midi": 52,
          "name": "E3",
          "ticks": 16560,
          "time": 14.785699500000002,
          "velocity": 0.3858267716535433
        },
        {
          "duration": 0.40624959374999925,
          "durationTicks": 455,
          "midi": 55,
          "name": "G3",
          "ticks": 16800,
          "time": 14.999985,
          "velocity": 0.3858267716535433
        },
        {
          "duration": 0.40624959374999925,
          "durationTicks": 455,
          "midi": 43,
          "name": "G2",
          "ticks": 17280,
          "time": 15.428556,
          "velocity": 0.3858267716535433
        },
        {
          "duration": 0.40624959374999925,
          "durationTicks": 455,
          "midi": 55,
          "name": "G3",
          "ticks": 17280,
          "time": 15.428556,
          "velocity": 0.3858267716535433
        },
        {
          "duration": 0.20267836875,
          "durationTicks": 227,
          "midi": 57,
          "name": "A3",
          "ticks": 17760,
          "time": 15.857127000000002,
          "velocity": 0.3858267716535433
        },
        {
          "duration": 0.20267836875,
          "durationTicks": 227,
          "midi": 55,
          "name": "G3",
          "ticks": 18000,
          "time": 16.0714125,
          "velocity": 0.3858267716535433
        },
        {
          "duration": 0.406249593750001,
          "durationTicks": 455,
          "midi": 58,
          "name": "A#3",
          "ticks": 18240,
          "time": 16.285698,
          "velocity": 0.3858267716535433
        },
        {
          "duration": 0.4062495937499975,
          "durationTicks": 455,
          "midi": 55,
          "name": "G3",
          "ticks": 18720,
          "time": 16.714269,
          "velocity": 0.3858267716535433
        },
        {
          "duration": 0.20267836875000356,
          "durationTicks": 227,
          "midi": 57,
          "name": "A3",
          "ticks": 19200,
          "time": 17.14284,
          "velocity": 0.3858267716535433
        },
        {
          "duration": 0.20267836875,
          "durationTicks": 227,
          "midi": 55,
          "name": "G3",
          "ticks": 19440,
          "time": 17.357125500000002,
          "velocity": 0.3858267716535433
        },
        {
          "duration": 0.4062495937499975,
          "durationTicks": 455,
          "midi": 58,
          "name": "A#3",
          "ticks": 19680,
          "time": 17.571411,
          "velocity": 0.3858267716535433
        },
        {
          "duration": 0.4062495937499975,
          "durationTicks": 455,
          "midi": 42,
          "name": "F#2",
          "ticks": 20160,
          "time": 17.999982000000003,
          "velocity": 0.3858267716535433
        },
        {
          "duration": 0.4062495937499975,
          "durationTicks": 455,
          "midi": 54,
          "name": "F#3",
          "ticks": 20160,
          "time": 17.999982000000003,
          "velocity": 0.3858267716535433
        },
        {
          "duration": 0.20267836875000356,
          "durationTicks": 227,
          "midi": 57,
          "name": "A3",
          "ticks": 20640,
          "time": 18.428553,
          "velocity": 0.3858267716535433
        },
        {
          "duration": 0.20267836875000356,
          "durationTicks": 227,
          "midi": 54,
          "name": "F#3",
          "ticks": 20880,
          "time": 18.6428385,
          "velocity": 0.3858267716535433
        },
        {
          "duration": 0.4062495937499975,
          "durationTicks": 455,
          "midi": 58,
          "name": "A#3",
          "ticks": 21120,
          "time": 18.857124000000002,
          "velocity": 0.3858267716535433
        },
        {
          "duration": 0.406249593750001,
          "durationTicks": 455,
          "midi": 54,
          "name": "F#3",
          "ticks": 21600,
          "time": 19.285695,
          "velocity": 0.3858267716535433
        },
        {
          "duration": 0.20267836875,
          "durationTicks": 227,
          "midi": 58,
          "name": "A#3",
          "ticks": 22080,
          "time": 19.714266000000002,
          "velocity": 0.3858267716535433
        },
        {
          "duration": 0.20267836875000356,
          "durationTicks": 227,
          "midi": 54,
          "name": "F#3",
          "ticks": 22320,
          "time": 19.9285515,
          "velocity": 0.3858267716535433
        },
        {
          "duration": 0.406249593750001,
          "durationTicks": 455,
          "midi": 57,
          "name": "A3",
          "ticks": 22560,
          "time": 20.142837,
          "velocity": 0.3858267716535433
        },
        {
          "duration": 0.4062495937499975,
          "durationTicks": 455,
          "midi": 41,
          "name": "F2",
          "ticks": 23040,
          "time": 20.571408,
          "velocity": 0.3858267716535433
        },
        {
          "duration": 0.4062495937499975,
          "durationTicks": 455,
          "midi": 53,
          "name": "F3",
          "ticks": 23040,
          "time": 20.571408,
          "velocity": 0.3858267716535433
        },
        {
          "duration": 0.20267836875,
          "durationTicks": 227,
          "midi": 57,
          "name": "A3",
          "ticks": 23520,
          "time": 20.999979000000003,
          "velocity": 0.3858267716535433
        },
        {
          "duration": 0.20267836875,
          "durationTicks": 227,
          "midi": 53,
          "name": "F3",
          "ticks": 23760,
          "time": 21.214264500000002,
          "velocity": 0.3858267716535433
        },
        {
          "duration": 0.406249593750001,
          "durationTicks": 455,
          "midi": 58,
          "name": "A#3",
          "ticks": 24000,
          "time": 21.42855,
          "velocity": 0.3858267716535433
        },
        {
          "duration": 0.4062495937499975,
          "durationTicks": 455,
          "midi": 53,
          "name": "F3",
          "ticks": 24480,
          "time": 21.857121000000003,
          "velocity": 0.3858267716535433
        },
        {
          "duration": 0.20267836875000356,
          "durationTicks": 227,
          "midi": 58,
          "name": "A#3",
          "ticks": 24960,
          "time": 22.285692,
          "velocity": 0.3858267716535433
        },
        {
          "duration": 0.20267836875,
          "durationTicks": 227,
          "midi": 53,
          "name": "F3",
          "ticks": 25200,
          "time": 22.499977500000004,
          "velocity": 0.3858267716535433
        },
        {
          "duration": 0.4062495937499975,
          "durationTicks": 455,
          "midi": 57,
          "name": "A3",
          "ticks": 25440,
          "time": 22.714263000000003,
          "velocity": 0.3858267716535433
        },
        {
          "duration": 0.406249593750001,
          "durationTicks": 455,
          "midi": 40,
          "name": "E2",
          "ticks": 25920,
          "time": 23.142834,
          "velocity": 0.3858267716535433
        },
        {
          "duration": 0.406249593750001,
          "durationTicks": 455,
          "midi": 52,
          "name": "E3",
          "ticks": 25920,
          "time": 23.142834,
          "velocity": 0.3858267716535433
        },
        {
          "duration": 0.20267836875,
          "durationTicks": 227,
          "midi": 55,
          "name": "G3",
          "ticks": 26400,
          "time": 23.571405000000002,
          "velocity": 0.3858267716535433
        },
        {
          "duration": 0.20267836875000356,
          "durationTicks": 227,
          "midi": 52,
          "name": "E3",
          "ticks": 26640,
          "time": 23.7856905,
          "velocity": 0.3858267716535433
        },
        {
          "duration": 0.4062495937499975,
          "durationTicks": 455,
          "midi": 55,
          "name": "G3",
          "ticks": 26880,
          "time": 23.999976000000004,
          "velocity": 0.3858267716535433
        },
        {
          "duration": 0.4062495937499975,
          "durationTicks": 455,
          "midi": 52,
          "name": "E3",
          "ticks": 27360,
          "time": 24.428547000000002,
          "velocity": 0.3858267716535433
        },
        {
          "duration": 0.20267836875,
          "durationTicks": 227,
          "midi": 55,
          "name": "G3",
          "ticks": 27840,
          "time": 24.857118000000003,
          "velocity": 0.3858267716535433
        },
        {
          "duration": 0.20267836875,
          "durationTicks": 227,
          "midi": 52,
          "name": "E3",
          "ticks": 28080,
          "time": 25.071403500000002,
          "velocity": 0.3858267716535433
        },
        {
          "duration": 0.406249593750001,
          "durationTicks": 455,
          "midi": 55,
          "name": "G3",
          "ticks": 28320,
          "time": 25.285689,
          "velocity": 0.3858267716535433
        },
        {
          "duration": 0.4062495937499975,
          "durationTicks": 455,
          "midi": 43,
          "name": "G2",
          "ticks": 28800,
          "time": 25.714260000000003,
          "velocity": 0.3858267716535433
        },
        {
          "duration": 0.4062495937499975,
          "durationTicks": 455,
          "midi": 55,
          "name": "G3",
          "ticks": 28800,
          "time": 25.714260000000003,
          "velocity": 0.3858267716535433
        },
        {
          "duration": 0.20267836875000356,
          "durationTicks": 227,
          "midi": 57,
          "name": "A3",
          "ticks": 29280,
          "time": 26.142831,
          "velocity": 0.3858267716535433
        },
        {
          "duration": 0.20267836875,
          "durationTicks": 227,
          "midi": 55,
          "name": "G3",
          "ticks": 29520,
          "time": 26.357116500000004,
          "velocity": 0.3858267716535433
        },
        {
          "duration": 0.4062495937499975,
          "durationTicks": 455,
          "midi": 58,
          "name": "A#3",
          "ticks": 29760,
          "time": 26.571402000000003,
          "velocity": 0.3858267716535433
        },
        {
          "duration": 0.406249593750001,
          "durationTicks": 455,
          "midi": 55,
          "name": "G3",
          "ticks": 30240,
          "time": 26.999973,
          "velocity": 0.3858267716535433
        },
        {
          "duration": 0.20267836875,
          "durationTicks": 227,
          "midi": 57,
          "name": "A3",
          "ticks": 30720,
          "time": 27.428544000000002,
          "velocity": 0.3858267716535433
        },
        {
          "duration": 0.20267836875,
          "durationTicks": 227,
          "midi": 55,
          "name": "G3",
          "ticks": 30960,
          "time": 27.6428295,
          "velocity": 0.3858267716535433
        },
        {
          "duration": 0.406249593750001,
          "durationTicks": 455,
          "midi": 58,
          "name": "A#3",
          "ticks": 31200,
          "time": 27.857115000000004,
          "velocity": 0.3858267716535433
        },
        {
          "duration": 0.406249593750001,
          "durationTicks": 455,
          "midi": 42,
          "name": "F#2",
          "ticks": 31680,
          "time": 28.285686000000002,
          "velocity": 0.3858267716535433
        },
        {
          "duration": 0.406249593750001,
          "durationTicks": 455,
          "midi": 54,
          "name": "F#3",
          "ticks": 31680,
          "time": 28.285686000000002,
          "velocity": 0.3858267716535433
        },
        {
          "duration": 0.20267836874999645,
          "durationTicks": 227,
          "midi": 57,
          "name": "A3",
          "ticks": 32160,
          "time": 28.714257000000003,
          "velocity": 0.3858267716535433
        },
        {
          "duration": 0.20267836875,
          "durationTicks": 227,
          "midi": 54,
          "name": "F#3",
          "ticks": 32400,
          "time": 28.928542500000002,
          "velocity": 0.3858267716535433
        },
        {
          "duration": 0.4062495937500046,
          "durationTicks": 455,
          "midi": 58,
          "name": "A#3",
          "ticks": 32640,
          "time": 29.142828,
          "velocity": 0.3858267716535433
        },
        {
          "duration": 0.406249593750001,
          "durationTicks": 455,
          "midi": 54,
          "name": "F#3",
          "ticks": 33120,
          "time": 29.571399000000003,
          "velocity": 0.3858267716535433
        },
        {
          "duration": 0.20267836875,
          "durationTicks": 227,
          "midi": 58,
          "name": "A#3",
          "ticks": 33600,
          "time": 29.99997,
          "velocity": 0.3858267716535433
        },
        {
          "duration": 0.20267836874999645,
          "durationTicks": 227,
          "midi": 54,
          "name": "F#3",
          "ticks": 33840,
          "time": 30.214255500000004,
          "velocity": 0.3858267716535433
        },
        {
          "duration": 0.406249593750001,
          "durationTicks": 455,
          "midi": 57,
          "name": "A3",
          "ticks": 34080,
          "time": 30.428541000000003,
          "velocity": 0.3858267716535433
        },
        {
          "duration": 0.4062495937500046,
          "durationTicks": 455,
          "midi": 41,
          "name": "F2",
          "ticks": 34560,
          "time": 30.857112,
          "velocity": 0.3858267716535433
        },
        {
          "duration": 0.4062495937500046,
          "durationTicks": 455,
          "midi": 53,
          "name": "F3",
          "ticks": 34560,
          "time": 30.857112,
          "velocity": 0.3858267716535433
        },
        {
          "duration": 0.20267836875,
          "durationTicks": 227,
          "midi": 57,
          "name": "A3",
          "ticks": 35040,
          "time": 31.285683000000002,
          "velocity": 0.3858267716535433
        },
        {
          "duration": 0.20267836875,
          "durationTicks": 227,
          "midi": 53,
          "name": "F3",
          "ticks": 35280,
          "time": 31.4999685,
          "velocity": 0.3858267716535433
        },
        {
          "duration": 0.4062495937499975,
          "durationTicks": 455,
          "midi": 58,
          "name": "A#3",
          "ticks": 35520,
          "time": 31.714254000000004,
          "velocity": 0.3858267716535433
        },
        {
          "duration": 0.4062495937500046,
          "durationTicks": 455,
          "midi": 53,
          "name": "F3",
          "ticks": 36000,
          "time": 32.142825,
          "velocity": 0.3858267716535433
        },
        {
          "duration": 0.20267836875,
          "durationTicks": 227,
          "midi": 58,
          "name": "A#3",
          "ticks": 36480,
          "time": 32.571396,
          "velocity": 0.3858267716535433
        },
        {
          "duration": 0.20267836875,
          "durationTicks": 227,
          "midi": 53,
          "name": "F3",
          "ticks": 36720,
          "time": 32.7856815,
          "velocity": 0.3858267716535433
        },
        {
          "duration": 0.4062495937499975,
          "durationTicks": 455,
          "midi": 57,
          "name": "A3",
          "ticks": 36960,
          "time": 32.999967000000005,
          "velocity": 0.3858267716535433
        },
        {
          "duration": 0.4062495937500046,
          "durationTicks": 455,
          "midi": 40,
          "name": "E2",
          "ticks": 37440,
          "time": 33.428538,
          "velocity": 0.3858267716535433
        },
        {
          "duration": 0.4062495937500046,
          "durationTicks": 455,
          "midi": 52,
          "name": "E3",
          "ticks": 37440,
          "time": 33.428538,
          "velocity": 0.3858267716535433
        },
        {
          "duration": 0.20267836875,
          "durationTicks": 227,
          "midi": 55,
          "name": "G3",
          "ticks": 37920,
          "time": 33.857109,
          "velocity": 0.3858267716535433
        },
        {
          "duration": 0.20267836875,
          "durationTicks": 227,
          "midi": 52,
          "name": "E3",
          "ticks": 38160,
          "time": 34.071394500000004,
          "velocity": 0.3858267716535433
        },
        {
          "duration": 0.20267836875,
          "durationTicks": 227,
          "midi": 55,
          "name": "G3",
          "ticks": 38400,
          "time": 34.28568,
          "velocity": 0.3858267716535433
        },
        {
          "duration": 0.20267836875,
          "durationTicks": 227,
          "midi": 52,
          "name": "E3",
          "ticks": 38640,
          "time": 34.4999655,
          "velocity": 0.3858267716535433
        },
        {
          "duration": 0.4062495937499975,
          "durationTicks": 455,
          "midi": 40,
          "name": "E2",
          "ticks": 38880,
          "time": 34.714251000000004,
          "velocity": 0.3858267716535433
        },
        {
          "duration": 0.4062495937499975,
          "durationTicks": 455,
          "midi": 52,
          "name": "E3",
          "ticks": 38880,
          "time": 34.714251000000004,
          "velocity": 0.3858267716535433
        },
        {
          "duration": 0.20267836875,
          "durationTicks": 227,
          "midi": 55,
          "name": "G3",
          "ticks": 39360,
          "time": 35.142822,
          "velocity": 0.3858267716535433
        },
        {
          "duration": 0.2026783687499929,
          "durationTicks": 227,
          "midi": 52,
          "name": "E3",
          "ticks": 39600,
          "time": 35.357107500000005,
          "velocity": 0.3858267716535433
        },
        {
          "duration": 0.20267836875,
          "durationTicks": 227,
          "midi": 55,
          "name": "G3",
          "ticks": 39840,
          "time": 35.571393,
          "velocity": 0.5039370078740157
        },
        {
          "duration": 0.20267836875,
          "durationTicks": 227,
          "midi": 52,
          "name": "E3",
          "ticks": 40080,
          "time": 35.7856785,
          "velocity": 0.5039370078740157
        },
        {
          "duration": 0.2026783687499929,
          "durationTicks": 227,
          "midi": 39,
          "name": "D#2",
          "ticks": 40320,
          "time": 35.999964000000006,
          "velocity": 0.5039370078740157
        },
        {
          "duration": 0.20267836875,
          "durationTicks": 227,
          "midi": 43,
          "name": "G2",
          "ticks": 40560,
          "time": 36.2142495,
          "velocity": 0.5039370078740157
        },
        {
          "duration": 0.20267836875,
          "durationTicks": 227,
          "midi": 46,
          "name": "A#2",
          "ticks": 40800,
          "time": 36.428535000000004,
          "velocity": 0.5039370078740157
        },
        {
          "duration": 0.2026783687499929,
          "durationTicks": 227,
          "midi": 51,
          "name": "D#3",
          "ticks": 41040,
          "time": 36.642820500000006,
          "velocity": 0.5039370078740157
        },
        {
          "duration": 0.20267836875,
          "durationTicks": 227,
          "midi": 55,
          "name": "G3",
          "ticks": 41280,
          "time": 36.857106,
          "velocity": 0.5039370078740157
        },
        {
          "duration": 0.20267836875,
          "durationTicks": 227,
          "midi": 58,
          "name": "A#3",
          "ticks": 41520,
          "time": 37.071391500000004,
          "velocity": 0.5039370078740157
        },
        {
          "duration": 0.20267836875,
          "durationTicks": 227,
          "midi": 39,
          "name": "D#2",
          "ticks": 41760,
          "time": 37.285677,
          "velocity": 0.5039370078740157
        },
        {
          "duration": 0.20267836875,
          "durationTicks": 227,
          "midi": 46,
          "name": "A#2",
          "ticks": 42000,
          "time": 37.4999625,
          "velocity": 0.5039370078740157
        },
        {
          "duration": 0.20267836875,
          "durationTicks": 227,
          "midi": 51,
          "name": "D#3",
          "ticks": 42240,
          "time": 37.714248000000005,
          "velocity": 0.5039370078740157
        },
        {
          "duration": 0.20267836875,
          "durationTicks": 227,
          "midi": 55,
          "name": "G3",
          "ticks": 42480,
          "time": 37.9285335,
          "velocity": 0.5039370078740157
        },
        {
          "duration": 0.20267836875,
          "durationTicks": 227,
          "midi": 51,
          "name": "D#3",
          "ticks": 42720,
          "time": 38.142819,
          "velocity": 0.5039370078740157
        },
        {
          "duration": 0.2026783687499929,
          "durationTicks": 227,
          "midi": 46,
          "name": "A#2",
          "ticks": 42960,
          "time": 38.357104500000005,
          "velocity": 0.5039370078740157
        },
        {
          "duration": 0.20267836875,
          "durationTicks": 227,
          "midi": 42,
          "name": "F#2",
          "ticks": 43200,
          "time": 38.57139,
          "velocity": 0.5039370078740157
        },
        {
          "duration": 0.20267836875,
          "durationTicks": 227,
          "midi": 46,
          "name": "A#2",
          "ticks": 43440,
          "time": 38.7856755,
          "velocity": 0.5039370078740157
        },
        {
          "duration": 0.2026783687499929,
          "durationTicks": 227,
          "midi": 50,
          "name": "D3",
          "ticks": 43680,
          "time": 38.999961000000006,
          "velocity": 0.5039370078740157
        },
        {
          "duration": 0.20267836875,
          "durationTicks": 227,
          "midi": 54,
          "name": "F#3",
          "ticks": 43920,
          "time": 39.2142465,
          "velocity": 0.5039370078740157
        },
        {
          "duration": 0.20267836875,
          "durationTicks": 227,
          "midi": 58,
          "name": "A#3",
          "ticks": 44160,
          "time": 39.428532000000004,
          "velocity": 0.5039370078740157
        },
        {
          "duration": 0.2026783687499929,
          "durationTicks": 227,
          "midi": 62,
          "name": "D4",
          "ticks": 44400,
          "time": 39.64281750000001,
          "velocity": 0.5039370078740157
        },
        {
          "duration": 0.20267836875,
          "durationTicks": 227,
          "midi": 60,
          "name": "C4",
          "ticks": 44640,
          "time": 39.857103,
          "velocity": 0.5039370078740157
        },
        {
          "duration": 0.20267836875,
          "durationTicks": 227,
          "midi": 54,
          "name": "F#3",
          "ticks": 44880,
          "time": 40.071388500000005,
          "velocity": 0.5039370078740157
        },
        {
          "duration": 0.20267836875,
          "durationTicks": 227,
          "midi": 58,
          "name": "A#3",
          "ticks": 45120,
          "time": 40.285674,
          "velocity": 0.5039370078740157
        },
        {
          "duration": 0.20267836875,
          "durationTicks": 227,
          "midi": 50,
          "name": "D3",
          "ticks": 45360,
          "time": 40.4999595,
          "velocity": 0.5039370078740157
        },
        {
          "duration": 0.2026783687499929,
          "durationTicks": 227,
          "midi": 57,
          "name": "A3",
          "ticks": 45600,
          "time": 40.714245000000005,
          "velocity": 0.5039370078740157
        },
        {
          "duration": 0.20267836875,
          "durationTicks": 227,
          "midi": 50,
          "name": "D3",
          "ticks": 45840,
          "time": 40.9285305,
          "velocity": 0.5039370078740157
        },
        {
          "duration": 0.4062495937500046,
          "durationTicks": 455,
          "midi": 29,
          "name": "F1",
          "ticks": 46080,
          "time": 41.142816,
          "velocity": 0.5039370078740157
        },
        {
          "duration": 0.4062495937500046,
          "durationTicks": 455,
          "midi": 41,
          "name": "F2",
          "ticks": 46080,
          "time": 41.142816,
          "velocity": 0.5039370078740157
        },
        {
          "duration": 0.20267836875,
          "durationTicks": 227,
          "midi": 41,
          "name": "F2",
          "ticks": 46560,
          "time": 41.571387,
          "velocity": 0.5039370078740157
        },
        {
          "duration": 0.20267836875,
          "durationTicks": 227,
          "midi": 48,
          "name": "C3",
          "ticks": 46800,
          "time": 41.785672500000004,
          "velocity": 0.5039370078740157
        },
        {
          "duration": 0.2026783687499929,
          "durationTicks": 227,
          "midi": 53,
          "name": "F3",
          "ticks": 47040,
          "time": 41.99995800000001,
          "velocity": 0.5039370078740157
        },
        {
          "duration": 0.20267836875,
          "durationTicks": 227,
          "midi": 57,
          "name": "A3",
          "ticks": 47280,
          "time": 42.2142435,
          "velocity": 0.5039370078740157
        },
        {
          "duration": 0.20267836875,
          "durationTicks": 227,
          "midi": 60,
          "name": "C4",
          "ticks": 47520,
          "time": 42.428529000000005,
          "velocity": 0.5039370078740157
        },
        {
          "duration": 0.20267836875,
          "durationTicks": 227,
          "midi": 53,
          "name": "F3",
          "ticks": 47760,
          "time": 42.6428145,
          "velocity": 0.5039370078740157
        },
        {
          "duration": 0.20267836875,
          "durationTicks": 227,
          "midi": 58,
          "name": "A#3",
          "ticks": 48000,
          "time": 42.8571,
          "velocity": 0.5039370078740157
        },
        {
          "duration": 0.20267836875,
          "durationTicks": 227,
          "midi": 53,
          "name": "F3",
          "ticks": 48240,
          "time": 43.071385500000005,
          "velocity": 0.5039370078740157
        },
        {
          "duration": 0.20267836875,
          "durationTicks": 227,
          "midi": 57,
          "name": "A3",
          "ticks": 48480,
          "time": 43.285671,
          "velocity": 0.5039370078740157
        },
        {
          "duration": 0.20267836875,
          "durationTicks": 227,
          "midi": 53,
          "name": "F3",
          "ticks": 48720,
          "time": 43.4999565,
          "velocity": 0.5039370078740157
        },
        {
          "duration": 0.2026783687499929,
          "durationTicks": 227,
          "midi": 40,
          "name": "E2",
          "ticks": 48960,
          "time": 43.714242000000006,
          "velocity": 0.5039370078740157
        },
        {
          "duration": 0.20267836875,
          "durationTicks": 227,
          "midi": 43,
          "name": "G2",
          "ticks": 49200,
          "time": 43.9285275,
          "velocity": 0.5039370078740157
        },
        {
          "duration": 0.20267836875,
          "durationTicks": 227,
          "midi": 46,
          "name": "A#2",
          "ticks": 49440,
          "time": 44.142813000000004,
          "velocity": 0.5039370078740157
        },
        {
          "duration": 0.2026783687499929,
          "durationTicks": 227,
          "midi": 52,
          "name": "E3",
          "ticks": 49680,
          "time": 44.357098500000006,
          "velocity": 0.5039370078740157
        },
        {
          "duration": 0.20267836875,
          "durationTicks": 227,
          "midi": 55,
          "name": "G3",
          "ticks": 49920,
          "time": 44.571384,
          "velocity": 0.5039370078740157
        },
        {
          "duration": 0.20267836875,
          "durationTicks": 227,
          "midi": 58,
          "name": "A#3",
          "ticks": 50160,
          "time": 44.785669500000004,
          "velocity": 0.49606299212598426
        },
        {
          "duration": 0.4062495937499975,
          "durationTicks": 455,
          "midi": 64,
          "name": "E4",
          "ticks": 50400,
          "time": 44.99995500000001,
          "velocity": 0.48031496062992124
        },
        {
          "duration": 0.4062495937499975,
          "durationTicks": 455,
          "midi": 67,
          "name": "G4",
          "ticks": 50400,
          "time": 44.99995500000001,
          "velocity": 0.48031496062992124
        },
        {
          "duration": 0.4062495937499975,
          "durationTicks": 455,
          "midi": 64,
          "name": "E4",
          "ticks": 50880,
          "time": 45.428526000000005,
          "velocity": 0.44881889763779526
        },
        {
          "duration": 0.4062495937499975,
          "durationTicks": 455,
          "midi": 67,
          "name": "G4",
          "ticks": 50880,
          "time": 45.428526000000005,
          "velocity": 0.44881889763779526
        },
        {
          "duration": 0.4062495937500046,
          "durationTicks": 455,
          "midi": 64,
          "name": "E4",
          "ticks": 51360,
          "time": 45.857097,
          "velocity": 0.41732283464566927
        },
        {
          "duration": 0.4062495937500046,
          "durationTicks": 455,
          "midi": 67,
          "name": "G4",
          "ticks": 51360,
          "time": 45.857097,
          "velocity": 0.41732283464566927
        },
        {
          "duration": 0.4062495937500046,
          "durationTicks": 455,
          "midi": 43,
          "name": "G2",
          "ticks": 51840,
          "time": 46.285668,
          "velocity": 0.3858267716535433
        },
        {
          "duration": 0.4062495937500046,
          "durationTicks": 455,
          "midi": 55,
          "name": "G3",
          "ticks": 51840,
          "time": 46.285668,
          "velocity": 0.3858267716535433
        },
        {
          "duration": 0.2026783687499929,
          "durationTicks": 227,
          "midi": 57,
          "name": "A3",
          "ticks": 52320,
          "time": 46.714239000000006,
          "velocity": 0.3858267716535433
        },
        {
          "duration": 0.20267836875,
          "durationTicks": 227,
          "midi": 55,
          "name": "G3",
          "ticks": 52560,
          "time": 46.9285245,
          "velocity": 0.3858267716535433
        },
        {
          "duration": 0.4062495937500046,
          "durationTicks": 455,
          "midi": 58,
          "name": "A#3",
          "ticks": 52800,
          "time": 47.142810000000004,
          "velocity": 0.3858267716535433
        },
        {
          "duration": 0.4062495937500046,
          "durationTicks": 455,
          "midi": 55,
          "name": "G3",
          "ticks": 53280,
          "time": 47.571381,
          "velocity": 0.3858267716535433
        },
        {
          "duration": 0.2026783687499929,
          "durationTicks": 227,
          "midi": 57,
          "name": "A3",
          "ticks": 53760,
          "time": 47.99995200000001,
          "velocity": 0.3858267716535433
        },
        {
          "duration": 0.20267836875,
          "durationTicks": 227,
          "midi": 55,
          "name": "G3",
          "ticks": 54000,
          "time": 48.2142375,
          "velocity": 0.3858267716535433
        },
        {
          "duration": 0.4062495937499975,
          "durationTicks": 455,
          "midi": 58,
          "name": "A#3",
          "ticks": 54240,
          "time": 48.428523000000006,
          "velocity": 0.3858267716535433
        },
        {
          "duration": 0.4062495937500046,
          "durationTicks": 455,
          "midi": 42,
          "name": "F#2",
          "ticks": 54720,
          "time": 48.857094000000004,
          "velocity": 0.3858267716535433
        },
        {
          "duration": 0.4062495937500046,
          "durationTicks": 455,
          "midi": 54,
          "name": "F#3",
          "ticks": 54720,
          "time": 48.857094000000004,
          "velocity": 0.3858267716535433
        },
        {
          "duration": 0.20267836875,
          "durationTicks": 227,
          "midi": 57,
          "name": "A3",
          "ticks": 55200,
          "time": 49.285665,
          "velocity": 0.3858267716535433
        },
        {
          "duration": 0.20267836875,
          "durationTicks": 227,
          "midi": 54,
          "name": "F#3",
          "ticks": 55440,
          "time": 49.499950500000004,
          "velocity": 0.3858267716535433
        },
        {
          "duration": 0.4062495937499975,
          "durationTicks": 455,
          "midi": 58,
          "name": "A#3",
          "ticks": 55680,
          "time": 49.71423600000001,
          "velocity": 0.3858267716535433
        },
        {
          "duration": 0.4062495937500046,
          "durationTicks": 455,
          "midi": 54,
          "name": "F#3",
          "ticks": 56160,
          "time": 50.142807000000005,
          "velocity": 0.3858267716535433
        },
        {
          "duration": 0.4062495937500046,
          "durationTicks": 455,
          "midi": 60,
          "name": "C4",
          "ticks": 56160,
          "time": 50.142807000000005,
          "velocity": 0.3858267716535433
        },
        {
          "duration": 0.20267836875,
          "durationTicks": 227,
          "midi": 58,
          "name": "A#3",
          "ticks": 56640,
          "time": 50.571378,
          "velocity": 0.3858267716535433
        },
        {
          "duration": 0.20267836875,
          "durationTicks": 227,
          "midi": 54,
          "name": "F#3",
          "ticks": 56880,
          "time": 50.785663500000005,
          "velocity": 0.3858267716535433
        },
        {
          "duration": 0.4062495937500046,
          "durationTicks": 455,
          "midi": 57,
          "name": "A3",
          "ticks": 57120,
          "time": 50.999949,
          "velocity": 0.3858267716535433
        },
        {
          "duration": 0.4062495937499975,
          "durationTicks": 455,
          "midi": 41,
          "name": "F2",
          "ticks": 57600,
          "time": 51.428520000000006,
          "velocity": 0.3858267716535433
        },
        {
          "duration": 0.4062495937499975,
          "durationTicks": 455,
          "midi": 53,
          "name": "F3",
          "ticks": 57600,
          "time": 51.428520000000006,
          "velocity": 0.3858267716535433
        },
        {
          "duration": 0.20267836875,
          "durationTicks": 227,
          "midi": 57,
          "name": "A3",
          "ticks": 58080,
          "time": 51.857091000000004,
          "velocity": 0.3858267716535433
        },
        {
          "duration": 0.2026783687499929,
          "durationTicks": 227,
          "midi": 53,
          "name": "F3",
          "ticks": 58320,
          "time": 52.07137650000001,
          "velocity": 0.3858267716535433
        },
        {
          "duration": 0.4062495937500046,
          "durationTicks": 455,
          "midi": 58,
          "name": "A#3",
          "ticks": 58560,
          "time": 52.285662,
          "velocity": 0.3858267716535433
        },
        {
          "duration": 0.4062495937499975,
          "durationTicks": 455,
          "midi": 53,
          "name": "F3",
          "ticks": 59040,
          "time": 52.71423300000001,
          "velocity": 0.3858267716535433
        },
        {
          "duration": 0.4062495937499975,
          "durationTicks": 455,
          "midi": 60,
          "name": "C4",
          "ticks": 59040,
          "time": 52.71423300000001,
          "velocity": 0.3858267716535433
        },
        {
          "duration": 0.20267836875,
          "durationTicks": 227,
          "midi": 58,
          "name": "A#3",
          "ticks": 59520,
          "time": 53.142804000000005,
          "velocity": 0.3858267716535433
        },
        {
          "duration": 0.2026783687499929,
          "durationTicks": 227,
          "midi": 53,
          "name": "F3",
          "ticks": 59760,
          "time": 53.35708950000001,
          "velocity": 0.3858267716535433
        },
        {
          "duration": 0.4062495937500046,
          "durationTicks": 455,
          "midi": 57,
          "name": "A3",
          "ticks": 60000,
          "time": 53.571375,
          "velocity": 0.3858267716535433
        },
        {
          "duration": 0.4062495937500046,
          "durationTicks": 455,
          "midi": 40,
          "name": "E2",
          "ticks": 60480,
          "time": 53.999946,
          "velocity": 0.3858267716535433
        },
        {
          "duration": 0.4062495937500046,
          "durationTicks": 455,
          "midi": 52,
          "name": "E3",
          "ticks": 60480,
          "time": 53.999946,
          "velocity": 0.3858267716535433
        },
        {
          "duration": 0.2026783687499929,
          "durationTicks": 227,
          "midi": 55,
          "name": "G3",
          "ticks": 60960,
          "time": 54.42851700000001,
          "velocity": 0.3858267716535433
        },
        {
          "duration": 0.20267836875,
          "durationTicks": 227,
          "midi": 52,
          "name": "E3",
          "ticks": 61200,
          "time": 54.6428025,
          "velocity": 0.3858267716535433
        },
        {
          "duration": 0.4062495937499975,
          "durationTicks": 455,
          "midi": 55,
          "name": "G3",
          "ticks": 61440,
          "time": 54.857088000000005,
          "velocity": 0.3858267716535433
        },
        {
          "duration": 0.4062495937499975,
          "durationTicks": 455,
          "midi": 52,
          "name": "E3",
          "ticks": 61920,
          "time": 55.285659,
          "velocity": 0.3858267716535433
        },
        {
          "duration": 0.2026783687499929,
          "durationTicks": 227,
          "midi": 55,
          "name": "G3",
          "ticks": 62400,
          "time": 55.71423000000001,
          "velocity": 0.3858267716535433
        },
        {
          "duration": 0.20267836875,
          "durationTicks": 227,
          "midi": 52,
          "name": "E3",
          "ticks": 62640,
          "time": 55.9285155,
          "velocity": 0.3858267716535433
        },
        {
          "duration": 0.4062495937499975,
          "durationTicks": 455,
          "midi": 55,
          "name": "G3",
          "ticks": 62880,
          "time": 56.142801000000006,
          "velocity": 0.3858267716535433
        },
        {
          "duration": 0.4062495937499975,
          "durationTicks": 455,
          "midi": 43,
          "name": "G2",
          "ticks": 63360,
          "time": 56.571372000000004,
          "velocity": 0.3858267716535433
        },
        {
          "duration": 0.4062495937499975,
          "durationTicks": 455,
          "midi": 55,
          "name": "G3",
          "ticks": 63360,
          "time": 56.571372000000004,
          "velocity": 0.3858267716535433
        },
        {
          "duration": 0.20267836875,
          "durationTicks": 227,
          "midi": 57,
          "name": "A3",
          "ticks": 63840,
          "time": 56.999943,
          "velocity": 0.3858267716535433
        },
        {
          "duration": 0.20267836875,
          "durationTicks": 227,
          "midi": 55,
          "name": "G3",
          "ticks": 64080,
          "time": 57.214228500000004,
          "velocity": 0.3858267716535433
        },
        {
          "duration": 0.40624959374999037,
          "durationTicks": 455,
          "midi": 58,
          "name": "A#3",
          "ticks": 64320,
          "time": 57.42851400000001,
          "velocity": 0.3858267716535433
        },
        {
          "duration": 0.4062495937499975,
          "durationTicks": 455,
          "midi": 55,
          "name": "G3",
          "ticks": 64800,
          "time": 57.857085000000005,
          "velocity": 0.3858267716535433
        },
        {
          "duration": 0.20267836875,
          "durationTicks": 227,
          "midi": 57,
          "name": "A3",
          "ticks": 65280,
          "time": 58.285656,
          "velocity": 0.3858267716535433
        },
        {
          "duration": 0.20267836875,
          "durationTicks": 227,
          "midi": 55,
          "name": "G3",
          "ticks": 65520,
          "time": 58.499941500000006,
          "velocity": 0.3858267716535433
        },
        {
          "duration": 0.40624959374999037,
          "durationTicks": 455,
          "midi": 58,
          "name": "A#3",
          "ticks": 65760,
          "time": 58.71422700000001,
          "velocity": 0.3858267716535433
        },
        {
          "duration": 0.4062495937499975,
          "durationTicks": 455,
          "midi": 42,
          "name": "F#2",
          "ticks": 66240,
          "time": 59.142798000000006,
          "velocity": 0.3858267716535433
        },
        {
          "duration": 0.4062495937499975,
          "durationTicks": 455,
          "midi": 54,
          "name": "F#3",
          "ticks": 66240,
          "time": 59.142798000000006,
          "velocity": 0.3858267716535433
        },
        {
          "duration": 0.20267836875,
          "durationTicks": 227,
          "midi": 57,
          "name": "A3",
          "ticks": 66720,
          "time": 59.571369000000004,
          "velocity": 0.3858267716535433
        },
        {
          "duration": 0.20267836875,
          "durationTicks": 227,
          "midi": 54,
          "name": "F#3",
          "ticks": 66960,
          "time": 59.78565450000001,
          "velocity": 0.3858267716535433
        },
        {
          "duration": 0.4062495937499975,
          "durationTicks": 455,
          "midi": 58,
          "name": "A#3",
          "ticks": 67200,
          "time": 59.99994,
          "velocity": 0.3858267716535433
        },
        {
          "duration": 0.40624959374999037,
          "durationTicks": 455,
          "midi": 54,
          "name": "F#3",
          "ticks": 67680,
          "time": 60.42851100000001,
          "velocity": 0.3858267716535433
        },
        {
          "duration": 0.20267836875,
          "durationTicks": 227,
          "midi": 58,
          "name": "A#3",
          "ticks": 68160,
          "time": 60.857082000000005,
          "velocity": 0.3858267716535433
        },
        {
          "duration": 0.2026783687499929,
          "durationTicks": 227,
          "midi": 54,
          "name": "F#3",
          "ticks": 68400,
          "time": 61.07136750000001,
          "velocity": 0.3858267716535433
        },
        {
          "duration": 0.4062495937499975,
          "durationTicks": 455,
          "midi": 57,
          "name": "A3",
          "ticks": 68640,
          "time": 61.285653,
          "velocity": 0.3858267716535433
        },
        {
          "duration": 0.4062495937499975,
          "durationTicks": 455,
          "midi": 41,
          "name": "F2",
          "ticks": 69120,
          "time": 61.714224,
          "velocity": 0.3858267716535433
        },
        {
          "duration": 0.4062495937499975,
          "durationTicks": 455,
          "midi": 53,
          "name": "F3",
          "ticks": 69120,
          "time": 61.714224,
          "velocity": 0.3858267716535433
        },
        {
          "duration": 0.20267836875,
          "durationTicks": 227,
          "midi": 57,
          "name": "A3",
          "ticks": 69600,
          "time": 62.14279500000001,
          "velocity": 0.3858267716535433
        },
        {
          "duration": 0.20267836875,
          "durationTicks": 227,
          "midi": 53,
          "name": "F3",
          "ticks": 69840,
          "time": 62.3570805,
          "velocity": 0.3858267716535433
        },
        {
          "duration": 0.4062495937499975,
          "durationTicks": 455,
          "midi": 58,
          "name": "A#3",
          "ticks": 70080,
          "time": 62.571366000000005,
          "velocity": 0.3858267716535433
        },
        {
          "duration": 0.4062495937499975,
          "durationTicks": 455,
          "midi": 53,
          "name": "F3",
          "ticks": 70560,
          "time": 62.999937,
          "velocity": 0.3858267716535433
        },
        {
          "duration": 0.2026783687499929,
          "durationTicks": 227,
          "midi": 58,
          "name": "A#3",
          "ticks": 71040,
          "time": 63.42850800000001,
          "velocity": 0.3858267716535433
        },
        {
          "duration": 0.20267836875,
          "durationTicks": 227,
          "midi": 53,
          "name": "F3",
          "ticks": 71280,
          "time": 63.6427935,
          "velocity": 0.3858267716535433
        },
        {
          "duration": 0.4062495937499975,
          "durationTicks": 455,
          "midi": 57,
          "name": "A3",
          "ticks": 71520,
          "time": 63.857079000000006,
          "velocity": 0.3858267716535433
        },
        {
          "duration": 0.40624959374999037,
          "durationTicks": 455,
          "midi": 40,
          "name": "E2",
          "ticks": 72000,
          "time": 64.28565,
          "velocity": 0.3858267716535433
        },
        {
          "duration": 0.40624959374999037,
          "durationTicks": 455,
          "midi": 52,
          "name": "E3",
          "ticks": 72000,
          "time": 64.28565,
          "velocity": 0.3858267716535433
        },
        {
          "duration": 0.20267836875,
          "durationTicks": 227,
          "midi": 55,
          "name": "G3",
          "ticks": 72480,
          "time": 64.71422100000001,
          "velocity": 0.3858267716535433
        },
        {
          "duration": 0.2026783687499858,
          "durationTicks": 227,
          "midi": 52,
          "name": "E3",
          "ticks": 72720,
          "time": 64.92850650000001,
          "velocity": 0.3858267716535433
        },
        {
          "duration": 0.4062495937500046,
          "durationTicks": 455,
          "midi": 55,
          "name": "G3",
          "ticks": 72960,
          "time": 65.142792,
          "velocity": 0.3858267716535433
        },
        {
          "duration": 0.40624959374999037,
          "durationTicks": 455,
          "midi": 52,
          "name": "E3",
          "ticks": 73440,
          "time": 65.571363,
          "velocity": 0.3858267716535433
        },
        {
          "duration": 0.20267836875,
          "durationTicks": 227,
          "midi": 55,
          "name": "G3",
          "ticks": 73920,
          "time": 65.99993400000001,
          "velocity": 0.3858267716535433
        },
        {
          "duration": 0.20267836875,
          "durationTicks": 227,
          "midi": 52,
          "name": "E3",
          "ticks": 74160,
          "time": 66.2142195,
          "velocity": 0.3858267716535433
        },
        {
          "duration": 0.4062495937500046,
          "durationTicks": 455,
          "midi": 55,
          "name": "G3",
          "ticks": 74400,
          "time": 66.428505,
          "velocity": 0.3858267716535433
        },
        {
          "duration": 0.40624959374999037,
          "durationTicks": 455,
          "midi": 43,
          "name": "G2",
          "ticks": 74880,
          "time": 66.857076,
          "velocity": 0.3858267716535433
        },
        {
          "duration": 0.40624959374999037,
          "durationTicks": 455,
          "midi": 55,
          "name": "G3",
          "ticks": 74880,
          "time": 66.857076,
          "velocity": 0.3858267716535433
        },
        {
          "duration": 0.2026783687499858,
          "durationTicks": 227,
          "midi": 57,
          "name": "A3",
          "ticks": 75360,
          "time": 67.28564700000001,
          "velocity": 0.3858267716535433
        },
        {
          "duration": 0.20267836875,
          "durationTicks": 227,
          "midi": 55,
          "name": "G3",
          "ticks": 75600,
          "time": 67.4999325,
          "velocity": 0.3858267716535433
        },
        {
          "duration": 0.4062495937500046,
          "durationTicks": 455,
          "midi": 58,
          "name": "A#3",
          "ticks": 75840,
          "time": 67.714218,
          "velocity": 0.3858267716535433
        },
        {
          "duration": 0.40624959374999037,
          "durationTicks": 455,
          "midi": 55,
          "name": "G3",
          "ticks": 76320,
          "time": 68.14278900000001,
          "velocity": 0.3858267716535433
        },
        {
          "duration": 0.20267836875,
          "durationTicks": 227,
          "midi": 57,
          "name": "A3",
          "ticks": 76800,
          "time": 68.57136,
          "velocity": 0.3858267716535433
        },
        {
          "duration": 0.20267836875,
          "durationTicks": 227,
          "midi": 55,
          "name": "G3",
          "ticks": 77040,
          "time": 68.7856455,
          "velocity": 0.3858267716535433
        },
        {
          "duration": 0.4062495937500046,
          "durationTicks": 455,
          "midi": 58,
          "name": "A#3",
          "ticks": 77280,
          "time": 68.999931,
          "velocity": 0.3858267716535433
        },
        {
          "duration": 0.40624959374999037,
          "durationTicks": 455,
          "midi": 42,
          "name": "F#2",
          "ticks": 77760,
          "time": 69.42850200000001,
          "velocity": 0.3858267716535433
        },
        {
          "duration": 0.40624959374999037,
          "durationTicks": 455,
          "midi": 54,
          "name": "F#3",
          "ticks": 77760,
          "time": 69.42850200000001,
          "velocity": 0.3858267716535433
        },
        {
          "duration": 0.20267836875,
          "durationTicks": 227,
          "midi": 57,
          "name": "A3",
          "ticks": 78240,
          "time": 69.857073,
          "velocity": 0.3858267716535433
        },
        {
          "duration": 0.20267836875,
          "durationTicks": 227,
          "midi": 54,
          "name": "F#3",
          "ticks": 78480,
          "time": 70.0713585,
          "velocity": 0.3858267716535433
        },
        {
          "duration": 0.40624959374999037,
          "durationTicks": 455,
          "midi": 58,
          "name": "A#3",
          "ticks": 78720,
          "time": 70.285644,
          "velocity": 0.3858267716535433
        },
        {
          "duration": 0.40624959374999037,
          "durationTicks": 455,
          "midi": 54,
          "name": "F#3",
          "ticks": 79200,
          "time": 70.71421500000001,
          "velocity": 0.3858267716535433
        },
        {
          "duration": 0.20267836875,
          "durationTicks": 227,
          "midi": 58,
          "name": "A#3",
          "ticks": 79680,
          "time": 71.142786,
          "velocity": 0.3858267716535433
        },
        {
          "duration": 0.20267836875,
          "durationTicks": 227,
          "midi": 54,
          "name": "F#3",
          "ticks": 79920,
          "time": 71.3570715,
          "velocity": 0.3858267716535433
        },
        {
          "duration": 0.40624959374999037,
          "durationTicks": 455,
          "midi": 57,
          "name": "A3",
          "ticks": 80160,
          "time": 71.571357,
          "velocity": 0.3858267716535433
        },
        {
          "duration": 0.40624959374999037,
          "durationTicks": 455,
          "midi": 41,
          "name": "F2",
          "ticks": 80640,
          "time": 71.99992800000001,
          "velocity": 0.3858267716535433
        },
        {
          "duration": 0.40624959374999037,
          "durationTicks": 455,
          "midi": 53,
          "name": "F3",
          "ticks": 80640,
          "time": 71.99992800000001,
          "velocity": 0.3858267716535433
        },
        {
          "duration": 0.20267836875,
          "durationTicks": 227,
          "midi": 57,
          "name": "A3",
          "ticks": 81120,
          "time": 72.428499,
          "velocity": 0.3858267716535433
        },
        {
          "duration": 0.20267836875,
          "durationTicks": 227,
          "midi": 53,
          "name": "F3",
          "ticks": 81360,
          "time": 72.6427845,
          "velocity": 0.3858267716535433
        },
        {
          "duration": 0.40624959374999037,
          "durationTicks": 455,
          "midi": 58,
          "name": "A#3",
          "ticks": 81600,
          "time": 72.85707000000001,
          "velocity": 0.3858267716535433
        },
        {
          "duration": 0.40624959374999037,
          "durationTicks": 455,
          "midi": 53,
          "name": "F3",
          "ticks": 82080,
          "time": 73.28564100000001,
          "velocity": 0.3858267716535433
        },
        {
          "duration": 0.20267836875,
          "durationTicks": 227,
          "midi": 58,
          "name": "A#3",
          "ticks": 82560,
          "time": 73.714212,
          "velocity": 0.3858267716535433
        },
        {
          "duration": 0.20267836875,
          "durationTicks": 227,
          "midi": 53,
          "name": "F3",
          "ticks": 82800,
          "time": 73.9284975,
          "velocity": 0.3858267716535433
        },
        {
          "duration": 0.40624959374999037,
          "durationTicks": 455,
          "midi": 57,
          "name": "A3",
          "ticks": 83040,
          "time": 74.14278300000001,
          "velocity": 0.3858267716535433
        },
        {
          "duration": 0.4062495937500046,
          "durationTicks": 455,
          "midi": 40,
          "name": "E2",
          "ticks": 83520,
          "time": 74.571354,
          "velocity": 0.3858267716535433
        },
        {
          "duration": 0.4062495937500046,
          "durationTicks": 455,
          "midi": 52,
          "name": "E3",
          "ticks": 83520,
          "time": 74.571354,
          "velocity": 0.3858267716535433
        },
        {
          "duration": 0.20267836875,
          "durationTicks": 227,
          "midi": 55,
          "name": "G3",
          "ticks": 84000,
          "time": 74.999925,
          "velocity": 0.3858267716535433
        },
        {
          "duration": 0.20267836875,
          "durationTicks": 227,
          "midi": 52,
          "name": "E3",
          "ticks": 84240,
          "time": 75.21421050000001,
          "velocity": 0.3858267716535433
        },
        {
          "duration": 0.40624959374999037,
          "durationTicks": 455,
          "midi": 55,
          "name": "G3",
          "ticks": 84480,
          "time": 75.42849600000001,
          "velocity": 0.3858267716535433
        },
        {
          "duration": 0.4062495937500046,
          "durationTicks": 455,
          "midi": 52,
          "name": "E3",
          "ticks": 84960,
          "time": 75.857067,
          "velocity": 0.3858267716535433
        },
        {
          "duration": 0.20267836875,
          "durationTicks": 227,
          "midi": 55,
          "name": "G3",
          "ticks": 85440,
          "time": 76.285638,
          "velocity": 0.3858267716535433
        },
        {
          "duration": 0.20267836875,
          "durationTicks": 227,
          "midi": 52,
          "name": "E3",
          "ticks": 85680,
          "time": 76.49992350000001,
          "velocity": 0.3858267716535433
        },
        {
          "duration": 0.40624959374999037,
          "durationTicks": 455,
          "midi": 55,
          "name": "G3",
          "ticks": 85920,
          "time": 76.71420900000001,
          "velocity": 0.5039370078740157
        },
        {
          "duration": 0.20267836875,
          "durationTicks": 227,
          "midi": 39,
          "name": "D#2",
          "ticks": 86400,
          "time": 77.14278,
          "velocity": 0.5039370078740157
        },
        {
          "duration": 0.20267836875,
          "durationTicks": 227,
          "midi": 43,
          "name": "G2",
          "ticks": 86640,
          "time": 77.3570655,
          "velocity": 0.5039370078740157
        },
        {
          "duration": 0.20267836875,
          "durationTicks": 227,
          "midi": 46,
          "name": "A#2",
          "ticks": 86880,
          "time": 77.571351,
          "velocity": 0.5039370078740157
        },
        {
          "duration": 0.20267836875,
          "durationTicks": 227,
          "midi": 51,
          "name": "D#3",
          "ticks": 87120,
          "time": 77.78563650000001,
          "velocity": 0.5039370078740157
        },
        {
          "duration": 0.2026783687499858,
          "durationTicks": 227,
          "midi": 55,
          "name": "G3",
          "ticks": 87360,
          "time": 77.99992200000001,
          "velocity": 0.5039370078740157
        },
        {
          "duration": 0.20267836875,
          "durationTicks": 227,
          "midi": 58,
          "name": "A#3",
          "ticks": 87600,
          "time": 78.2142075,
          "velocity": 0.5039370078740157
        },
        {
          "duration": 0.20267836875,
          "durationTicks": 227,
          "midi": 39,
          "name": "D#2",
          "ticks": 87840,
          "time": 78.428493,
          "velocity": 0.5039370078740157
        },
        {
          "duration": 0.20267836875,
          "durationTicks": 227,
          "midi": 46,
          "name": "A#2",
          "ticks": 88080,
          "time": 78.6427785,
          "velocity": 0.5039370078740157
        },
        {
          "duration": 0.20267836875,
          "durationTicks": 227,
          "midi": 51,
          "name": "D#3",
          "ticks": 88320,
          "time": 78.85706400000001,
          "velocity": 0.5039370078740157
        },
        {
          "duration": 0.20267836875,
          "durationTicks": 227,
          "midi": 55,
          "name": "G3",
          "ticks": 88560,
          "time": 79.07134950000001,
          "velocity": 0.5039370078740157
        },
        {
          "duration": 0.2026783687499858,
          "durationTicks": 227,
          "midi": 51,
          "name": "D#3",
          "ticks": 88800,
          "time": 79.28563500000001,
          "velocity": 0.5039370078740157
        },
        {
          "duration": 0.20267836875,
          "durationTicks": 227,
          "midi": 46,
          "name": "A#2",
          "ticks": 89040,
          "time": 79.4999205,
          "velocity": 0.5039370078740157
        },
        {
          "duration": 0.20267836875,
          "durationTicks": 227,
          "midi": 42,
          "name": "F#2",
          "ticks": 89280,
          "time": 79.714206,
          "velocity": 0.5039370078740157
        },
        {
          "duration": 0.20267836875,
          "durationTicks": 227,
          "midi": 46,
          "name": "A#2",
          "ticks": 89520,
          "time": 79.9284915,
          "velocity": 0.5039370078740157
        },
        {
          "duration": 0.20267836875,
          "durationTicks": 227,
          "midi": 50,
          "name": "D3",
          "ticks": 89760,
          "time": 80.14277700000001,
          "velocity": 0.5039370078740157
        },
        {
          "duration": 0.20267836875,
          "durationTicks": 227,
          "midi": 54,
          "name": "F#3",
          "ticks": 90000,
          "time": 80.35706250000001,
          "velocity": 0.5039370078740157
        },
        {
          "duration": 0.20267836875,
          "durationTicks": 227,
          "midi": 58,
          "name": "A#3",
          "ticks": 90240,
          "time": 80.571348,
          "velocity": 0.5039370078740157
        },
        {
          "duration": 0.20267836875,
          "durationTicks": 227,
          "midi": 62,
          "name": "D4",
          "ticks": 90480,
          "time": 80.7856335,
          "velocity": 0.5039370078740157
        },
        {
          "duration": 0.20267836875,
          "durationTicks": 227,
          "midi": 60,
          "name": "C4",
          "ticks": 90720,
          "time": 80.999919,
          "velocity": 0.5039370078740157
        },
        {
          "duration": 0.20267836875,
          "durationTicks": 227,
          "midi": 54,
          "name": "F#3",
          "ticks": 90960,
          "time": 81.21420450000001,
          "velocity": 0.5039370078740157
        },
        {
          "duration": 0.20267836875,
          "durationTicks": 227,
          "midi": 58,
          "name": "A#3",
          "ticks": 91200,
          "time": 81.42849000000001,
          "velocity": 0.5039370078740157
        },
        {
          "duration": 0.2026783687499858,
          "durationTicks": 227,
          "midi": 50,
          "name": "D3",
          "ticks": 91440,
          "time": 81.64277550000001,
          "velocity": 0.5039370078740157
        },
        {
          "duration": 0.20267836875,
          "durationTicks": 227,
          "midi": 57,
          "name": "A3",
          "ticks": 91680,
          "time": 81.857061,
          "velocity": 0.5039370078740157
        },
        {
          "duration": 0.20267836875,
          "durationTicks": 227,
          "midi": 50,
          "name": "D3",
          "ticks": 91920,
          "time": 82.0713465,
          "velocity": 0.5039370078740157
        },
        {
          "duration": 0.40624959374999037,
          "durationTicks": 455,
          "midi": 29,
          "name": "F1",
          "ticks": 92160,
          "time": 82.285632,
          "velocity": 0.5039370078740157
        },
        {
          "duration": 0.40624959374999037,
          "durationTicks": 455,
          "midi": 41,
          "name": "F2",
          "ticks": 92160,
          "time": 82.285632,
          "velocity": 0.5039370078740157
        },
        {
          "duration": 0.20267836875,
          "durationTicks": 227,
          "midi": 41,
          "name": "F2",
          "ticks": 92640,
          "time": 82.71420300000001,
          "velocity": 0.5039370078740157
        },
        {
          "duration": 0.20267836875,
          "durationTicks": 227,
          "midi": 48,
          "name": "C3",
          "ticks": 92880,
          "time": 82.9284885,
          "velocity": 0.5039370078740157
        },
        {
          "duration": 0.20267836875,
          "durationTicks": 227,
          "midi": 53,
          "name": "F3",
          "ticks": 93120,
          "time": 83.142774,
          "velocity": 0.5039370078740157
        },
        {
          "duration": 0.20267836875,
          "durationTicks": 227,
          "midi": 57,
          "name": "A3",
          "ticks": 93360,
          "time": 83.3570595,
          "velocity": 0.5039370078740157
        },
        {
          "duration": 0.20267836875,
          "durationTicks": 227,
          "midi": 60,
          "name": "C4",
          "ticks": 93600,
          "time": 83.57134500000001,
          "velocity": 0.5039370078740157
        },
        {
          "duration": 0.20267836875,
          "durationTicks": 227,
          "midi": 53,
          "name": "F3",
          "ticks": 93840,
          "time": 83.78563050000001,
          "velocity": 0.5039370078740157
        },
        {
          "duration": 0.2026783687499858,
          "durationTicks": 227,
          "midi": 58,
          "name": "A#3",
          "ticks": 94080,
          "time": 83.99991600000001,
          "velocity": 0.5039370078740157
        },
        {
          "duration": 0.20267836875,
          "durationTicks": 227,
          "midi": 53,
          "name": "F3",
          "ticks": 94320,
          "time": 84.2142015,
          "velocity": 0.5039370078740157
        },
        {
          "duration": 0.20267836875,
          "durationTicks": 227,
          "midi": 57,
          "name": "A3",
          "ticks": 94560,
          "time": 84.428487,
          "velocity": 0.5039370078740157
        },
        {
          "duration": 0.20267836875,
          "durationTicks": 227,
          "midi": 53,
          "name": "F3",
          "ticks": 94800,
          "time": 84.6427725,
          "velocity": 0.5039370078740157
        },
        {
          "duration": 0.20267836875,
          "durationTicks": 227,
          "midi": 40,
          "name": "E2",
          "ticks": 95040,
          "time": 84.85705800000001,
          "velocity": 0.5039370078740157
        },
        {
          "duration": 0.20267836875,
          "durationTicks": 227,
          "midi": 43,
          "name": "G2",
          "ticks": 95280,
          "time": 85.07134350000001,
          "velocity": 0.5039370078740157
        },
        {
          "duration": 0.20267836875,
          "durationTicks": 227,
          "midi": 46,
          "name": "A#2",
          "ticks": 95520,
          "time": 85.285629,
          "velocity": 0.5039370078740157
        },
        {
          "duration": 0.20267836875,
          "durationTicks": 227,
          "midi": 52,
          "name": "E3",
          "ticks": 95760,
          "time": 85.4999145,
          "velocity": 0.5039370078740157
        },
        {
          "duration": 0.20267836875,
          "durationTicks": 227,
          "midi": 55,
          "name": "G3",
          "ticks": 96000,
          "time": 85.7142,
          "velocity": 0.5039370078740157
        },
        {
          "duration": 0.20267836875,
          "durationTicks": 227,
          "midi": 58,
          "name": "A#3",
          "ticks": 96240,
          "time": 85.92848550000001,
          "velocity": 0.5039370078740157
        },
        {
          "duration": 0.20267836875,
          "durationTicks": 227,
          "midi": 40,
          "name": "E2",
          "ticks": 96480,
          "time": 86.14277100000001,
          "velocity": 0.5039370078740157
        },
        {
          "duration": 0.2026783687499858,
          "durationTicks": 227,
          "midi": 43,
          "name": "G2",
          "ticks": 96720,
          "time": 86.35705650000001,
          "velocity": 0.5039370078740157
        },
        {
          "duration": 0.20267836875,
          "durationTicks": 227,
          "midi": 46,
          "name": "A#2",
          "ticks": 96960,
          "time": 86.571342,
          "velocity": 0.5039370078740157
        },
        {
          "duration": 0.20267836875,
          "durationTicks": 227,
          "midi": 52,
          "name": "E3",
          "ticks": 97200,
          "time": 86.7856275,
          "velocity": 0.5039370078740157
        },
        {
          "duration": 0.20267836875,
          "durationTicks": 227,
          "midi": 55,
          "name": "G3",
          "ticks": 97440,
          "time": 86.999913,
          "velocity": 0.5039370078740157
        },
        {
          "duration": 0.20267836875,
          "durationTicks": 227,
          "midi": 58,
          "name": "A#3",
          "ticks": 97680,
          "time": 87.21419850000001,
          "velocity": 0.5039370078740157
        },
        {
          "duration": 0.20267836875,
          "durationTicks": 227,
          "midi": 39,
          "name": "D#2",
          "ticks": 97920,
          "time": 87.42848400000001,
          "velocity": 0.5039370078740157
        },
        {
          "duration": 0.2026783687499858,
          "durationTicks": 227,
          "midi": 43,
          "name": "G2",
          "ticks": 98160,
          "time": 87.64276950000001,
          "velocity": 0.5039370078740157
        },
        {
          "duration": 0.20267836875,
          "durationTicks": 227,
          "midi": 46,
          "name": "A#2",
          "ticks": 98400,
          "time": 87.857055,
          "velocity": 0.5039370078740157
        },
        {
          "duration": 0.20267836875,
          "durationTicks": 227,
          "midi": 51,
          "name": "D#3",
          "ticks": 98640,
          "time": 88.0713405,
          "velocity": 0.5039370078740157
        },
        {
          "duration": 0.20267836875,
          "durationTicks": 227,
          "midi": 55,
          "name": "G3",
          "ticks": 98880,
          "time": 88.28562600000001,
          "velocity": 0.5039370078740157
        },
        {
          "duration": 0.20267836875,
          "durationTicks": 227,
          "midi": 58,
          "name": "A#3",
          "ticks": 99120,
          "time": 88.49991150000001,
          "velocity": 0.5039370078740157
        },
        {
          "duration": 0.2026783687499858,
          "durationTicks": 227,
          "midi": 39,
          "name": "D#2",
          "ticks": 99360,
          "time": 88.71419700000001,
          "velocity": 0.5039370078740157
        },
        {
          "duration": 0.20267836875,
          "durationTicks": 227,
          "midi": 46,
          "name": "A#2",
          "ticks": 99600,
          "time": 88.9284825,
          "velocity": 0.5039370078740157
        },
        {
          "duration": 0.20267836875,
          "durationTicks": 227,
          "midi": 51,
          "name": "D#3",
          "ticks": 99840,
          "time": 89.142768,
          "velocity": 0.5039370078740157
        },
        {
          "duration": 0.20267836875,
          "durationTicks": 227,
          "midi": 55,
          "name": "G3",
          "ticks": 100080,
          "time": 89.3570535,
          "velocity": 0.5039370078740157
        },
        {
          "duration": 0.20267836875,
          "durationTicks": 227,
          "midi": 51,
          "name": "D#3",
          "ticks": 100320,
          "time": 89.57133900000001,
          "velocity": 0.5039370078740157
        },
        {
          "duration": 0.20267836875,
          "durationTicks": 227,
          "midi": 46,
          "name": "A#2",
          "ticks": 100560,
          "time": 89.78562450000001,
          "velocity": 0.5039370078740157
        },
        {
          "duration": 0.2026783687499858,
          "durationTicks": 227,
          "midi": 42,
          "name": "F#2",
          "ticks": 100800,
          "time": 89.99991000000001,
          "velocity": 0.5039370078740157
        },
        {
          "duration": 0.20267836875,
          "durationTicks": 227,
          "midi": 46,
          "name": "A#2",
          "ticks": 101040,
          "time": 90.2141955,
          "velocity": 0.5039370078740157
        },
        {
          "duration": 0.20267836875,
          "durationTicks": 227,
          "midi": 50,
          "name": "D3",
          "ticks": 101280,
          "time": 90.428481,
          "velocity": 0.5039370078740157
        },
        {
          "duration": 0.20267836875,
          "durationTicks": 227,
          "midi": 54,
          "name": "F#3",
          "ticks": 101520,
          "time": 90.64276650000001,
          "velocity": 0.5039370078740157
        },
        {
          "duration": 0.20267836875,
          "durationTicks": 227,
          "midi": 58,
          "name": "A#3",
          "ticks": 101760,
          "time": 90.85705200000001,
          "velocity": 0.5039370078740157
        },
        {
          "duration": 0.20267836875,
          "durationTicks": 227,
          "midi": 62,
          "name": "D4",
          "ticks": 102000,
          "time": 91.07133750000001,
          "velocity": 0.5039370078740157
        },
        {
          "duration": 0.20267836875,
          "durationTicks": 227,
          "midi": 60,
          "name": "C4",
          "ticks": 102240,
          "time": 91.285623,
          "velocity": 0.5039370078740157
        },
        {
          "duration": 0.20267836875,
          "durationTicks": 227,
          "midi": 54,
          "name": "F#3",
          "ticks": 102480,
          "time": 91.4999085,
          "velocity": 0.5039370078740157
        },
        {
          "duration": 0.20267836875,
          "durationTicks": 227,
          "midi": 58,
          "name": "A#3",
          "ticks": 102720,
          "time": 91.714194,
          "velocity": 0.5039370078740157
        },
        {
          "duration": 0.20267836875,
          "durationTicks": 227,
          "midi": 50,
          "name": "D3",
          "ticks": 102960,
          "time": 91.92847950000001,
          "velocity": 0.5039370078740157
        },
        {
          "duration": 0.20267836875,
          "durationTicks": 227,
          "midi": 57,
          "name": "A3",
          "ticks": 103200,
          "time": 92.14276500000001,
          "velocity": 0.5039370078740157
        },
        {
          "duration": 0.2026783687499858,
          "durationTicks": 227,
          "midi": 50,
          "name": "D3",
          "ticks": 103440,
          "time": 92.35705050000001,
          "velocity": 0.5039370078740157
        },
        {
          "duration": 0.4062495937500046,
          "durationTicks": 455,
          "midi": 29,
          "name": "F1",
          "ticks": 103680,
          "time": 92.571336,
          "velocity": 0.5039370078740157
        },
        {
          "duration": 0.4062495937500046,
          "durationTicks": 455,
          "midi": 41,
          "name": "F2",
          "ticks": 103680,
          "time": 92.571336,
          "velocity": 0.5039370078740157
        },
        {
          "duration": 0.20267836875,
          "durationTicks": 227,
          "midi": 41,
          "name": "F2",
          "ticks": 104160,
          "time": 92.99990700000001,
          "velocity": 0.5039370078740157
        },
        {
          "duration": 0.20267836875,
          "durationTicks": 227,
          "midi": 48,
          "name": "C3",
          "ticks": 104400,
          "time": 93.21419250000001,
          "velocity": 0.5039370078740157
        },
        {
          "duration": 0.20267836875,
          "durationTicks": 227,
          "midi": 53,
          "name": "F3",
          "ticks": 104640,
          "time": 93.42847800000001,
          "velocity": 0.5039370078740157
        },
        {
          "duration": 0.20267836875,
          "durationTicks": 227,
          "midi": 57,
          "name": "A3",
          "ticks": 104880,
          "time": 93.6427635,
          "velocity": 0.5039370078740157
        },
        {
          "duration": 0.20267836875,
          "durationTicks": 227,
          "midi": 60,
          "name": "C4",
          "ticks": 105120,
          "time": 93.857049,
          "velocity": 0.5039370078740157
        },
        {
          "duration": 0.20267836875,
          "durationTicks": 227,
          "midi": 53,
          "name": "F3",
          "ticks": 105360,
          "time": 94.0713345,
          "velocity": 0.5039370078740157
        },
        {
          "duration": 0.20267836875,
          "durationTicks": 227,
          "midi": 58,
          "name": "A#3",
          "ticks": 105600,
          "time": 94.28562000000001,
          "velocity": 0.5039370078740157
        },
        {
          "duration": 0.20267836875,
          "durationTicks": 227,
          "midi": 53,
          "name": "F3",
          "ticks": 105840,
          "time": 94.49990550000001,
          "velocity": 0.5039370078740157
        },
        {
          "duration": 0.2026783687499858,
          "durationTicks": 227,
          "midi": 57,
          "name": "A3",
          "ticks": 106080,
          "time": 94.71419100000001,
          "velocity": 0.5039370078740157
        },
        {
          "duration": 0.20267836875,
          "durationTicks": 227,
          "midi": 53,
          "name": "F3",
          "ticks": 106320,
          "time": 94.9284765,
          "velocity": 0.5039370078740157
        },
        {
          "duration": 0.20267836875,
          "durationTicks": 227,
          "midi": 40,
          "name": "E2",
          "ticks": 106560,
          "time": 95.142762,
          "velocity": 0.5039370078740157
        },
        {
          "duration": 0.20267836875,
          "durationTicks": 227,
          "midi": 43,
          "name": "G2",
          "ticks": 106800,
          "time": 95.35704750000001,
          "velocity": 0.5039370078740157
        },
        {
          "duration": 0.20267836875,
          "durationTicks": 227,
          "midi": 46,
          "name": "A#2",
          "ticks": 107040,
          "time": 95.57133300000001,
          "velocity": 0.5039370078740157
        },
        {
          "duration": 0.20267836875,
          "durationTicks": 227,
          "midi": 52,
          "name": "E3",
          "ticks": 107280,
          "time": 95.78561850000001,
          "velocity": 0.5039370078740157
        },
        {
          "duration": 0.2026783687499858,
          "durationTicks": 227,
          "midi": 55,
          "name": "G3",
          "ticks": 107520,
          "time": 95.99990400000002,
          "velocity": 0.5039370078740157
        },
        {
          "duration": 0.20267836875,
          "durationTicks": 227,
          "midi": 58,
          "name": "A#3",
          "ticks": 107760,
          "time": 96.2141895,
          "velocity": 0.5039370078740157
        },
        {
          "duration": 0.20267836875,
          "durationTicks": 227,
          "midi": 55,
          "name": "G3",
          "ticks": 108000,
          "time": 96.428475,
          "velocity": 0.5039370078740157
        },
        {
          "duration": 0.20267836875,
          "durationTicks": 227,
          "midi": 52,
          "name": "E3",
          "ticks": 108240,
          "time": 96.64276050000001,
          "velocity": 0.5039370078740157
        },
        {
          "duration": 0.20267836875,
          "durationTicks": 227,
          "midi": 46,
          "name": "A#2",
          "ticks": 108480,
          "time": 96.85704600000001,
          "velocity": 0.5039370078740157
        },
        {
          "duration": 0.2026783687499858,
          "durationTicks": 227,
          "midi": 43,
          "name": "G2",
          "ticks": 108720,
          "time": 97.07133150000001,
          "velocity": 0.5039370078740157
        },
        {
          "duration": 0.4062495937500046,
          "durationTicks": 455,
          "midi": 40,
          "name": "E2",
          "ticks": 108960,
          "time": 97.285617,
          "velocity": 0.5039370078740157
        },
        {
          "duration": 1.6276769437500036,
          "durationTicks": 1823,
          "midi": 39,
          "name": "D#2",
          "ticks": 109440,
          "time": 97.71418800000001,
          "velocity": 0.5039370078740157
        },
        {
          "duration": 1.6276769437500036,
          "durationTicks": 1823,
          "midi": 51,
          "name": "D#3",
          "ticks": 109440,
          "time": 97.71418800000001,
          "velocity": 0.5039370078740157
        },
        {
          "duration": 0.40624959374999037,
          "durationTicks": 455,
          "midi": 65,
          "name": "F4",
          "ticks": 111360,
          "time": 99.42847200000001,
          "velocity": 0.5984251968503937
        },
        {
          "duration": 0.4062495937500046,
          "durationTicks": 455,
          "midi": 65,
          "name": "F4",
          "ticks": 111840,
          "time": 99.857043,
          "velocity": 0.5984251968503937
        },
        {
          "duration": 0.20267836875,
          "durationTicks": 227,
          "midi": 53,
          "name": "F3",
          "ticks": 112320,
          "time": 100.28561400000001,
          "velocity": 0.5984251968503937
        },
        {
          "duration": 0.20267836875,
          "durationTicks": 227,
          "midi": 65,
          "name": "F4",
          "ticks": 112320,
          "time": 100.28561400000001,
          "velocity": 0.5984251968503937
        },
        {
          "duration": 0.42857099999999093,
          "durationTicks": 480,
          "midi": 63,
          "name": "D#4",
          "ticks": 112560,
          "time": 100.49989950000001,
          "velocity": 0.5984251968503937
        },
        {
          "duration": 0.4062495937500046,
          "durationTicks": 455,
          "midi": 62,
          "name": "D4",
          "ticks": 113280,
          "time": 101.142756,
          "velocity": 0.5984251968503937
        },
        {
          "duration": 0.8133920437499995,
          "durationTicks": 911,
          "midi": 63,
          "name": "D#4",
          "ticks": 113760,
          "time": 101.57132700000001,
          "velocity": 0.5984251968503937
        },
        {
          "duration": 0.4062495937500046,
          "durationTicks": 455,
          "midi": 62,
          "name": "D4",
          "ticks": 114720,
          "time": 102.428469,
          "velocity": 0.5984251968503937
        },
        {
          "duration": 1.6276769437500036,
          "durationTicks": 1823,
          "midi": 55,
          "name": "G3",
          "ticks": 115200,
          "time": 102.85704000000001,
          "velocity": 0.5984251968503937
        },
        {
          "duration": 1.6276769437500036,
          "durationTicks": 1823,
          "midi": 62,
          "name": "D4",
          "ticks": 115200,
          "time": 102.85704000000001,
          "velocity": 0.5984251968503937
        },
        {
          "duration": 0.4062495937500046,
          "durationTicks": 455,
          "midi": 65,
          "name": "F4",
          "ticks": 117120,
          "time": 104.571324,
          "velocity": 0.5984251968503937
        },
        {
          "duration": 0.40624959374999037,
          "durationTicks": 455,
          "midi": 65,
          "name": "F4",
          "ticks": 117600,
          "time": 104.99989500000001,
          "velocity": 0.5984251968503937
        },
        {
          "duration": 0.2026783687499858,
          "durationTicks": 227,
          "midi": 57,
          "name": "A3",
          "ticks": 118080,
          "time": 105.42846600000001,
          "velocity": 0.5984251968503937
        },
        {
          "duration": 0.2026783687499858,
          "durationTicks": 227,
          "midi": 65,
          "name": "F4",
          "ticks": 118080,
          "time": 105.42846600000001,
          "velocity": 0.5984251968503937
        },
        {
          "duration": 0.42857100000000514,
          "durationTicks": 480,
          "midi": 67,
          "name": "G4",
          "ticks": 118320,
          "time": 105.6427515,
          "velocity": 0.5984251968503937
        },
        {
          "duration": 0.20267836875,
          "durationTicks": 227,
          "midi": 63,
          "name": "D#4",
          "ticks": 119280,
          "time": 106.49989350000001,
          "velocity": 0.5984251968503937
        },
        {
          "duration": 1.2205344937499945,
          "durationTicks": 1367,
          "midi": 62,
          "name": "D4",
          "ticks": 119520,
          "time": 106.71417900000002,
          "velocity": 0.5984251968503937
        },
        {
          "duration": 1.6276769437500178,
          "durationTicks": 1823,
          "midi": 46,
          "name": "A#2",
          "ticks": 120960,
          "time": 107.999892,
          "velocity": 0.5039370078740157
        },
        {
          "duration": 1.6276769437500178,
          "durationTicks": 1823,
          "midi": 58,
          "name": "A#3",
          "ticks": 120960,
          "time": 107.999892,
          "velocity": 0.5039370078740157
        },
        {
          "duration": 0.4062495937500046,
          "durationTicks": 455,
          "midi": 65,
          "name": "F4",
          "ticks": 122880,
          "time": 109.71417600000001,
          "velocity": 0.5984251968503937
        },
        {
          "duration": 0.20267836875,
          "durationTicks": 227,
          "midi": 65,
          "name": "F4",
          "ticks": 123360,
          "time": 110.14274700000001,
          "velocity": 0.5984251968503937
        },
        {
          "duration": 0.6098208187499949,
          "durationTicks": 683,
          "midi": 65,
          "name": "F4",
          "ticks": 123600,
          "time": 110.3570325,
          "velocity": 0.5984251968503937
        },
        {
          "duration": 0.4062495937500188,
          "durationTicks": 455,
          "midi": 55,
          "name": "G3",
          "ticks": 123840,
          "time": 110.571318,
          "velocity": 0.5039370078740157
        },
        {
          "duration": 0.4062495937500188,
          "durationTicks": 455,
          "midi": 60,
          "name": "C4",
          "ticks": 123840,
          "time": 110.571318,
          "velocity": 0.5039370078740157
        },
        {
          "duration": 0.4062495937500046,
          "durationTicks": 455,
          "midi": 63,
          "name": "D#4",
          "ticks": 124320,
          "time": 110.99988900000001,
          "velocity": 0.5984251968503937
        },
        {
          "duration": 0.4062495937500046,
          "durationTicks": 455,
          "midi": 62,
          "name": "D4",
          "ticks": 124800,
          "time": 111.42846000000002,
          "velocity": 0.5984251968503937
        },
        {
          "duration": 1.2205344937499945,
          "durationTicks": 1367,
          "midi": 50,
          "name": "D3",
          "ticks": 125280,
          "time": 111.857031,
          "velocity": 0.5984251968503937
        },
        {
          "duration": 1.2205344937499945,
          "durationTicks": 1367,
          "midi": 57,
          "name": "A3",
          "ticks": 125280,
          "time": 111.857031,
          "velocity": 0.5984251968503937
        },
        {
          "duration": 1.2205344937499945,
          "durationTicks": 1367,
          "midi": 63,
          "name": "D#4",
          "ticks": 125280,
          "time": 111.857031,
          "velocity": 0.5984251968503937
        },
        {
          "duration": 2.238390618750003,
          "durationTicks": 2507,
          "midi": 51,
          "name": "D#3",
          "ticks": 126720,
          "time": 113.14274400000001,
          "velocity": 0.5984251968503937
        },
        {
          "duration": 2.238390618750003,
          "durationTicks": 2507,
          "midi": 58,
          "name": "A#3",
          "ticks": 126720,
          "time": 113.14274400000001,
          "velocity": 0.5984251968503937
        },
        {
          "duration": 2.238390618750003,
          "durationTicks": 2507,
          "midi": 62,
          "name": "D4",
          "ticks": 126720,
          "time": 113.14274400000001,
          "velocity": 0.5984251968503937
        },
        {
          "duration": 0.20267836875,
          "durationTicks": 227,
          "midi": 58,
          "name": "A#3",
          "ticks": 129360,
          "time": 115.49988450000001,
          "velocity": 0.5984251968503937
        },
        {
          "duration": 0.4062495937500046,
          "durationTicks": 455,
          "midi": 50,
          "name": "D3",
          "ticks": 129600,
          "time": 115.71417000000001,
          "velocity": 0.5984251968503937
        },
        {
          "duration": 0.4062495937500046,
          "durationTicks": 455,
          "midi": 55,
          "name": "G3",
          "ticks": 129600,
          "time": 115.71417000000001,
          "velocity": 0.5984251968503937
        },
        {
          "duration": 0.4062495937500046,
          "durationTicks": 455,
          "midi": 60,
          "name": "C4",
          "ticks": 129600,
          "time": 115.71417000000001,
          "velocity": 0.5984251968503937
        },
        {
          "duration": 0.6098208187499949,
          "durationTicks": 683,
          "midi": 62,
          "name": "D4",
          "ticks": 130080,
          "time": 116.14274100000002,
          "velocity": 0.5984251968503937
        },
        {
          "duration": 0.20267836875,
          "durationTicks": 227,
          "midi": 58,
          "name": "A#3",
          "ticks": 130800,
          "time": 116.78559750000001,
          "velocity": 0.5984251968503937
        },
        {
          "duration": 0.4062495937500046,
          "durationTicks": 455,
          "midi": 57,
          "name": "A3",
          "ticks": 131040,
          "time": 116.99988300000001,
          "velocity": 0.5984251968503937
        },
        {
          "duration": 0.8133920437499995,
          "durationTicks": 911,
          "midi": 58,
          "name": "A#3",
          "ticks": 131520,
          "time": 117.42845400000002,
          "velocity": 0.6220472440944882
        },
        {
          "duration": 2.0348193937499843,
          "durationTicks": 2279,
          "midi": 38,
          "name": "D2",
          "ticks": 132480,
          "time": 118.28559600000001,
          "velocity": 0.6614173228346457
        },
        {
          "duration": 2.0348193937499843,
          "durationTicks": 2279,
          "midi": 50,
          "name": "D3",
          "ticks": 132480,
          "time": 118.28559600000001,
          "velocity": 0.6614173228346457
        },
        {
          "duration": 0.4062495937500046,
          "durationTicks": 455,
          "midi": 38,
          "name": "D2",
          "ticks": 134880,
          "time": 120.42845100000001,
          "velocity": 0.6299212598425197
        },
        {
          "duration": 0.4062495937500046,
          "durationTicks": 455,
          "midi": 50,
          "name": "D3",
          "ticks": 134880,
          "time": 120.42845100000001,
          "velocity": 0.6299212598425197
        },
        {
          "duration": 0.20267836875,
          "durationTicks": 227,
          "midi": 39,
          "name": "D#2",
          "ticks": 135360,
          "time": 120.85702200000001,
          "velocity": 0.6299212598425197
        },
        {
          "duration": 0.20267836875,
          "durationTicks": 227,
          "midi": 43,
          "name": "G2",
          "ticks": 135600,
          "time": 121.0713075,
          "velocity": 0.6299212598425197
        },
        {
          "duration": 0.20267836875,
          "durationTicks": 227,
          "midi": 46,
          "name": "A#2",
          "ticks": 135840,
          "time": 121.285593,
          "velocity": 0.6299212598425197
        },
        {
          "duration": 0.20267836875,
          "durationTicks": 227,
          "midi": 51,
          "name": "D#3",
          "ticks": 136080,
          "time": 121.49987850000001,
          "velocity": 0.6299212598425197
        },
        {
          "duration": 0.20267836875,
          "durationTicks": 227,
          "midi": 55,
          "name": "G3",
          "ticks": 136320,
          "time": 121.71416400000001,
          "velocity": 0.6299212598425197
        },
        {
          "duration": 0.20267836875,
          "durationTicks": 227,
          "midi": 58,
          "name": "A#3",
          "ticks": 136560,
          "time": 121.92844950000001,
          "velocity": 0.6299212598425197
        },
        {
          "duration": 0.2026783687499858,
          "durationTicks": 227,
          "midi": 39,
          "name": "D#2",
          "ticks": 136800,
          "time": 122.14273500000002,
          "velocity": 0.6299212598425197
        },
        {
          "duration": 0.20267836875,
          "durationTicks": 227,
          "midi": 46,
          "name": "A#2",
          "ticks": 137040,
          "time": 122.3570205,
          "velocity": 0.6299212598425197
        },
        {
          "duration": 0.20267836875,
          "durationTicks": 227,
          "midi": 51,
          "name": "D#3",
          "ticks": 137280,
          "time": 122.571306,
          "velocity": 0.6299212598425197
        },
        {
          "duration": 0.20267836875,
          "durationTicks": 227,
          "midi": 55,
          "name": "G3",
          "ticks": 137520,
          "time": 122.78559150000001,
          "velocity": 0.6299212598425197
        },
        {
          "duration": 0.20267836875,
          "durationTicks": 227,
          "midi": 51,
          "name": "D#3",
          "ticks": 137760,
          "time": 122.99987700000001,
          "velocity": 0.6299212598425197
        },
        {
          "duration": 0.20267836875,
          "durationTicks": 227,
          "midi": 46,
          "name": "A#2",
          "ticks": 138000,
          "time": 123.21416250000001,
          "velocity": 0.6299212598425197
        },
        {
          "duration": 0.20267836875,
          "durationTicks": 227,
          "midi": 42,
          "name": "F#2",
          "ticks": 138240,
          "time": 123.428448,
          "velocity": 0.6299212598425197
        },
        {
          "duration": 0.20267836875,
          "durationTicks": 227,
          "midi": 46,
          "name": "A#2",
          "ticks": 138480,
          "time": 123.6427335,
          "velocity": 0.6299212598425197
        },
        {
          "duration": 0.20267836875,
          "durationTicks": 227,
          "midi": 50,
          "name": "D3",
          "ticks": 138720,
          "time": 123.85701900000001,
          "velocity": 0.6299212598425197
        },
        {
          "duration": 0.20267836875,
          "durationTicks": 227,
          "midi": 54,
          "name": "F#3",
          "ticks": 138960,
          "time": 124.07130450000001,
          "velocity": 0.6299212598425197
        },
        {
          "duration": 0.20267836875,
          "durationTicks": 227,
          "midi": 58,
          "name": "A#3",
          "ticks": 139200,
          "time": 124.28559000000001,
          "velocity": 0.6299212598425197
        },
        {
          "duration": 0.2026783687499858,
          "durationTicks": 227,
          "midi": 62,
          "name": "D4",
          "ticks": 139440,
          "time": 124.49987550000002,
          "velocity": 0.6299212598425197
        },
        {
          "duration": 0.20267836875,
          "durationTicks": 227,
          "midi": 60,
          "name": "C4",
          "ticks": 139680,
          "time": 124.714161,
          "velocity": 0.6299212598425197
        },
        {
          "duration": 0.20267836875,
          "durationTicks": 227,
          "midi": 54,
          "name": "F#3",
          "ticks": 139920,
          "time": 124.9284465,
          "velocity": 0.6299212598425197
        },
        {
          "duration": 0.20267836875,
          "durationTicks": 227,
          "midi": 58,
          "name": "A#3",
          "ticks": 140160,
          "time": 125.14273200000001,
          "velocity": 0.6299212598425197
        },
        {
          "duration": 0.20267836875,
          "durationTicks": 227,
          "midi": 50,
          "name": "D3",
          "ticks": 140400,
          "time": 125.35701750000001,
          "velocity": 0.6299212598425197
        },
        {
          "duration": 0.20267836875,
          "durationTicks": 227,
          "midi": 57,
          "name": "A3",
          "ticks": 140640,
          "time": 125.57130300000001,
          "velocity": 0.6299212598425197
        },
        {
          "duration": 0.2026783687499858,
          "durationTicks": 227,
          "midi": 50,
          "name": "D3",
          "ticks": 140880,
          "time": 125.78558850000002,
          "velocity": 0.6299212598425197
        },
        {
          "duration": 0.4062495937500188,
          "durationTicks": 455,
          "midi": 29,
          "name": "F1",
          "ticks": 141120,
          "time": 125.999874,
          "velocity": 0.6299212598425197
        },
        {
          "duration": 0.4062495937500188,
          "durationTicks": 455,
          "midi": 41,
          "name": "F2",
          "ticks": 141120,
          "time": 125.999874,
          "velocity": 0.6299212598425197
        },
        {
          "duration": 0.20267836875,
          "durationTicks": 227,
          "midi": 41,
          "name": "F2",
          "ticks": 141600,
          "time": 126.42844500000001,
          "velocity": 0.6299212598425197
        },
        {
          "duration": 0.20267836875,
          "durationTicks": 227,
          "midi": 48,
          "name": "C3",
          "ticks": 141840,
          "time": 126.64273050000001,
          "velocity": 0.6299212598425197
        },
        {
          "duration": 0.20267836875,
          "durationTicks": 227,
          "midi": 53,
          "name": "F3",
          "ticks": 142080,
          "time": 126.85701600000002,
          "velocity": 0.6299212598425197
        },
        {
          "duration": 0.20267836875,
          "durationTicks": 227,
          "midi": 57,
          "name": "A3",
          "ticks": 142320,
          "time": 127.0713015,
          "velocity": 0.6299212598425197
        },
        {
          "duration": 0.20267836875,
          "durationTicks": 227,
          "midi": 60,
          "name": "C4",
          "ticks": 142560,
          "time": 127.285587,
          "velocity": 0.6299212598425197
        },
        {
          "duration": 0.20267836875,
          "durationTicks": 227,
          "midi": 53,
          "name": "F3",
          "ticks": 142800,
          "time": 127.49987250000001,
          "velocity": 0.6299212598425197
        },
        {
          "duration": 0.20267836875,
          "durationTicks": 227,
          "midi": 58,
          "name": "A#3",
          "ticks": 143040,
          "time": 127.71415800000001,
          "velocity": 0.6299212598425197
        },
        {
          "duration": 0.2026783687499858,
          "durationTicks": 227,
          "midi": 53,
          "name": "F3",
          "ticks": 143280,
          "time": 127.92844350000001,
          "velocity": 0.6299212598425197
        },
        {
          "duration": 0.20267836875001422,
          "durationTicks": 227,
          "midi": 57,
          "name": "A3",
          "ticks": 143520,
          "time": 128.142729,
          "velocity": 0.6299212598425197
        },
        {
          "duration": 0.2026783687499858,
          "durationTicks": 227,
          "midi": 53,
          "name": "F3",
          "ticks": 143760,
          "time": 128.35701450000002,
          "velocity": 0.6299212598425197
        },
        {
          "duration": 0.20267836875001422,
          "durationTicks": 227,
          "midi": 40,
          "name": "E2",
          "ticks": 144000,
          "time": 128.5713,
          "velocity": 0.6299212598425197
        },
        {
          "duration": 0.2026783687499858,
          "durationTicks": 227,
          "midi": 43,
          "name": "G2",
          "ticks": 144240,
          "time": 128.78558550000002,
          "velocity": 0.6299212598425197
        },
        {
          "duration": 0.2026783687499858,
          "durationTicks": 227,
          "midi": 46,
          "name": "A#2",
          "ticks": 144480,
          "time": 128.999871,
          "velocity": 0.6299212598425197
        },
        {
          "duration": 0.20267836875001422,
          "durationTicks": 227,
          "midi": 52,
          "name": "E3",
          "ticks": 144720,
          "time": 129.2141565,
          "velocity": 0.6299212598425197
        },
        {
          "duration": 0.2026783687499858,
          "durationTicks": 227,
          "midi": 55,
          "name": "G3",
          "ticks": 144960,
          "time": 129.42844200000002,
          "velocity": 0.6299212598425197
        },
        {
          "duration": 0.20267836875001422,
          "durationTicks": 227,
          "midi": 58,
          "name": "A#3",
          "ticks": 145200,
          "time": 129.6427275,
          "velocity": 0.6299212598425197
        },
        {
          "duration": 0.2026783687499858,
          "durationTicks": 227,
          "midi": 40,
          "name": "E2",
          "ticks": 145440,
          "time": 129.85701300000002,
          "velocity": 0.6299212598425197
        },
        {
          "duration": 0.2026783687499858,
          "durationTicks": 227,
          "midi": 43,
          "name": "G2",
          "ticks": 145680,
          "time": 130.0712985,
          "velocity": 0.6299212598425197
        },
        {
          "duration": 0.20267836875001422,
          "durationTicks": 227,
          "midi": 46,
          "name": "A#2",
          "ticks": 145920,
          "time": 130.285584,
          "velocity": 0.6299212598425197
        },
        {
          "duration": 0.2026783687499858,
          "durationTicks": 227,
          "midi": 52,
          "name": "E3",
          "ticks": 146160,
          "time": 130.49986950000002,
          "velocity": 0.6299212598425197
        },
        {
          "duration": 0.20267836875001422,
          "durationTicks": 227,
          "midi": 55,
          "name": "G3",
          "ticks": 146400,
          "time": 130.714155,
          "velocity": 0.6299212598425197
        },
        {
          "duration": 0.2026783687499858,
          "durationTicks": 227,
          "midi": 58,
          "name": "A#3",
          "ticks": 146640,
          "time": 130.92844050000002,
          "velocity": 0.6299212598425197
        },
        {
          "duration": 0.2026783687499858,
          "durationTicks": 227,
          "midi": 39,
          "name": "D#2",
          "ticks": 146880,
          "time": 131.142726,
          "velocity": 0.6299212598425197
        },
        {
          "duration": 0.20267836875001422,
          "durationTicks": 227,
          "midi": 43,
          "name": "G2",
          "ticks": 147120,
          "time": 131.3570115,
          "velocity": 0.6299212598425197
        },
        {
          "duration": 0.2026783687499858,
          "durationTicks": 227,
          "midi": 46,
          "name": "A#2",
          "ticks": 147360,
          "time": 131.57129700000002,
          "velocity": 0.6299212598425197
        },
        {
          "duration": 0.20267836875001422,
          "durationTicks": 227,
          "midi": 51,
          "name": "D#3",
          "ticks": 147600,
          "time": 131.7855825,
          "velocity": 0.6299212598425197
        },
        {
          "duration": 0.2026783687499858,
          "durationTicks": 227,
          "midi": 55,
          "name": "G3",
          "ticks": 147840,
          "time": 131.99986800000002,
          "velocity": 0.6299212598425197
        },
        {
          "duration": 0.20267836875001422,
          "durationTicks": 227,
          "midi": 58,
          "name": "A#3",
          "ticks": 148080,
          "time": 132.2141535,
          "velocity": 0.6299212598425197
        },
        {
          "duration": 0.20267836875001422,
          "durationTicks": 227,
          "midi": 39,
          "name": "D#2",
          "ticks": 148320,
          "time": 132.428439,
          "velocity": 0.6299212598425197
        },
        {
          "duration": 0.2026783687499858,
          "durationTicks": 227,
          "midi": 46,
          "name": "A#2",
          "ticks": 148560,
          "time": 132.6427245,
          "velocity": 0.6299212598425197
        },
        {
          "duration": 0.20267836875001422,
          "durationTicks": 227,
          "midi": 51,
          "name": "D#3",
          "ticks": 148800,
          "time": 132.85701,
          "velocity": 0.6299212598425197
        },
        {
          "duration": 0.2026783687499858,
          "durationTicks": 227,
          "midi": 55,
          "name": "G3",
          "ticks": 149040,
          "time": 133.07129550000002,
          "velocity": 0.6299212598425197
        },
        {
          "duration": 0.20267836875001422,
          "durationTicks": 227,
          "midi": 51,
          "name": "D#3",
          "ticks": 149280,
          "time": 133.285581,
          "velocity": 0.6299212598425197
        },
        {
          "duration": 0.2026783687499858,
          "durationTicks": 227,
          "midi": 46,
          "name": "A#2",
          "ticks": 149520,
          "time": 133.49986650000002,
          "velocity": 0.6299212598425197
        },
        {
          "duration": 0.2026783687499858,
          "durationTicks": 227,
          "midi": 42,
          "name": "F#2",
          "ticks": 149760,
          "time": 133.714152,
          "velocity": 0.6299212598425197
        },
        {
          "duration": 0.20267836875001422,
          "durationTicks": 227,
          "midi": 46,
          "name": "A#2",
          "ticks": 150000,
          "time": 133.9284375,
          "velocity": 0.6299212598425197
        },
        {
          "duration": 0.2026783687499858,
          "durationTicks": 227,
          "midi": 50,
          "name": "D3",
          "ticks": 150240,
          "time": 134.14272300000002,
          "velocity": 0.6299212598425197
        },
        {
          "duration": 0.20267836875001422,
          "durationTicks": 227,
          "midi": 54,
          "name": "F#3",
          "ticks": 150480,
          "time": 134.3570085,
          "velocity": 0.6299212598425197
        },
        {
          "duration": 0.2026783687499858,
          "durationTicks": 227,
          "midi": 58,
          "name": "A#3",
          "ticks": 150720,
          "time": 134.57129400000002,
          "velocity": 0.6299212598425197
        },
        {
          "duration": 0.2026783687499858,
          "durationTicks": 227,
          "midi": 62,
          "name": "D4",
          "ticks": 150960,
          "time": 134.7855795,
          "velocity": 0.6299212598425197
        },
        {
          "duration": 0.20267836875001422,
          "durationTicks": 227,
          "midi": 60,
          "name": "C4",
          "ticks": 151200,
          "time": 134.999865,
          "velocity": 0.6299212598425197
        },
        {
          "duration": 0.2026783687499858,
          "durationTicks": 227,
          "midi": 54,
          "name": "F#3",
          "ticks": 151440,
          "time": 135.21415050000002,
          "velocity": 0.6299212598425197
        },
        {
          "duration": 0.20267836875001422,
          "durationTicks": 227,
          "midi": 58,
          "name": "A#3",
          "ticks": 151680,
          "time": 135.428436,
          "velocity": 0.6299212598425197
        },
        {
          "duration": 0.2026783687499858,
          "durationTicks": 227,
          "midi": 50,
          "name": "D3",
          "ticks": 151920,
          "time": 135.64272150000002,
          "velocity": 0.6299212598425197
        },
        {
          "duration": 0.2026783687499858,
          "durationTicks": 227,
          "midi": 57,
          "name": "A3",
          "ticks": 152160,
          "time": 135.857007,
          "velocity": 0.6299212598425197
        },
        {
          "duration": 0.20267836875001422,
          "durationTicks": 227,
          "midi": 50,
          "name": "D3",
          "ticks": 152400,
          "time": 136.0712925,
          "velocity": 0.6299212598425197
        },
        {
          "duration": 0.4062495937500046,
          "durationTicks": 455,
          "midi": 34,
          "name": "A#1",
          "ticks": 152640,
          "time": 136.28557800000002,
          "velocity": 0.6299212598425197
        },
        {
          "duration": 0.4062495937500046,
          "durationTicks": 455,
          "midi": 46,
          "name": "A#2",
          "ticks": 152640,
          "time": 136.28557800000002,
          "velocity": 0.6299212598425197
        },
        {
          "duration": 0.2026783687499858,
          "durationTicks": 227,
          "midi": 46,
          "name": "A#2",
          "ticks": 153120,
          "time": 136.71414900000002,
          "velocity": 0.6299212598425197
        },
        {
          "duration": 0.20267836875001422,
          "durationTicks": 227,
          "midi": 50,
          "name": "D3",
          "ticks": 153360,
          "time": 136.9284345,
          "velocity": 0.6299212598425197
        },
        {
          "duration": 0.20267836875001422,
          "durationTicks": 227,
          "midi": 53,
          "name": "F3",
          "ticks": 153600,
          "time": 137.14272,
          "velocity": 0.6299212598425197
        },
        {
          "duration": 0.2026783687499858,
          "durationTicks": 227,
          "midi": 58,
          "name": "A#3",
          "ticks": 153840,
          "time": 137.3570055,
          "velocity": 0.6299212598425197
        },
        {
          "duration": 0.20267836875001422,
          "durationTicks": 227,
          "midi": 60,
          "name": "C4",
          "ticks": 154080,
          "time": 137.571291,
          "velocity": 0.6299212598425197
        },
        {
          "duration": 0.2026783687499858,
          "durationTicks": 227,
          "midi": 53,
          "name": "F3",
          "ticks": 154320,
          "time": 137.78557650000002,
          "velocity": 0.6299212598425197
        },
        {
          "duration": 0.20267836875001422,
          "durationTicks": 227,
          "midi": 58,
          "name": "A#3",
          "ticks": 154560,
          "time": 137.999862,
          "velocity": 0.6299212598425197
        },
        {
          "duration": 0.2026783687499858,
          "durationTicks": 227,
          "midi": 53,
          "name": "F3",
          "ticks": 154800,
          "time": 138.21414750000002,
          "velocity": 0.6299212598425197
        },
        {
          "duration": 0.2026783687499858,
          "durationTicks": 227,
          "midi": 57,
          "name": "A3",
          "ticks": 155040,
          "time": 138.428433,
          "velocity": 0.6299212598425197
        },
        {
          "duration": 0.20267836875001422,
          "durationTicks": 227,
          "midi": 53,
          "name": "F3",
          "ticks": 155280,
          "time": 138.6427185,
          "velocity": 0.6299212598425197
        },
        {
          "duration": 0.2026783687499858,
          "durationTicks": 227,
          "midi": 36,
          "name": "C2",
          "ticks": 155520,
          "time": 138.85700400000002,
          "velocity": 0.6299212598425197
        },
        {
          "duration": 0.2026783687499858,
          "durationTicks": 227,
          "midi": 48,
          "name": "C3",
          "ticks": 155520,
          "time": 138.85700400000002,
          "velocity": 0.6299212598425197
        },
        {
          "duration": 0.20267836875001422,
          "durationTicks": 227,
          "midi": 48,
          "name": "C3",
          "ticks": 155760,
          "time": 139.0712895,
          "velocity": 0.6299212598425197
        },
        {
          "duration": 0.2026783687499858,
          "durationTicks": 227,
          "midi": 51,
          "name": "D#3",
          "ticks": 156000,
          "time": 139.28557500000002,
          "velocity": 0.6377952755905512
        },
        {
          "duration": 0.2026783687499858,
          "durationTicks": 227,
          "midi": 55,
          "name": "G3",
          "ticks": 156000,
          "time": 139.28557500000002,
          "velocity": 0.6377952755905512
        },
        {
          "duration": 0.2026783687499858,
          "durationTicks": 227,
          "midi": 48,
          "name": "C3",
          "ticks": 156240,
          "time": 139.4998605,
          "velocity": 0.6456692913385826
        },
        {
          "duration": 0.20267836875001422,
          "durationTicks": 227,
          "midi": 51,
          "name": "D#3",
          "ticks": 156480,
          "time": 139.714146,
          "velocity": 0.6535433070866141
        },
        {
          "duration": 0.20267836875001422,
          "durationTicks": 227,
          "midi": 55,
          "name": "G3",
          "ticks": 156480,
          "time": 139.714146,
          "velocity": 0.6535433070866141
        },
        {
          "duration": 0.2026783687499858,
          "durationTicks": 227,
          "midi": 48,
          "name": "C3",
          "ticks": 156720,
          "time": 139.92843150000002,
          "velocity": 0.6614173228346457
        },
        {
          "duration": 0.20267836875001422,
          "durationTicks": 227,
          "midi": 51,
          "name": "D#3",
          "ticks": 156960,
          "time": 140.142717,
          "velocity": 0.6692913385826772
        },
        {
          "duration": 0.20267836875001422,
          "durationTicks": 227,
          "midi": 55,
          "name": "G3",
          "ticks": 156960,
          "time": 140.142717,
          "velocity": 0.6692913385826772
        },
        {
          "duration": 0.2026783687499858,
          "durationTicks": 227,
          "midi": 48,
          "name": "C3",
          "ticks": 157200,
          "time": 140.35700250000002,
          "velocity": 0.6771653543307087
        },
        {
          "duration": 0.20267836875001422,
          "durationTicks": 227,
          "midi": 51,
          "name": "D#3",
          "ticks": 157440,
          "time": 140.571288,
          "velocity": 0.6850393700787402
        },
        {
          "duration": 0.20267836875001422,
          "durationTicks": 227,
          "midi": 55,
          "name": "G3",
          "ticks": 157440,
          "time": 140.571288,
          "velocity": 0.6850393700787402
        },
        {
          "duration": 0.20267836875001422,
          "durationTicks": 227,
          "midi": 48,
          "name": "C3",
          "ticks": 157680,
          "time": 140.7855735,
          "velocity": 0.6929133858267716
        },
        {
          "duration": 0.2026783687499858,
          "durationTicks": 227,
          "midi": 51,
          "name": "D#3",
          "ticks": 157920,
          "time": 140.99985900000001,
          "velocity": 0.6929133858267716
        },
        {
          "duration": 0.2026783687499858,
          "durationTicks": 227,
          "midi": 55,
          "name": "G3",
          "ticks": 157920,
          "time": 140.99985900000001,
          "velocity": 0.6929133858267716
        },
        {
          "duration": 0.20267836875001422,
          "durationTicks": 227,
          "midi": 48,
          "name": "C3",
          "ticks": 158160,
          "time": 141.2141445,
          "velocity": 0.7007874015748031
        },
        {
          "duration": 0.2026783687499858,
          "durationTicks": 227,
          "midi": 51,
          "name": "D#3",
          "ticks": 158400,
          "time": 141.42843000000002,
          "velocity": 0.7086614173228346
        },
        {
          "duration": 0.2026783687499858,
          "durationTicks": 227,
          "midi": 55,
          "name": "G3",
          "ticks": 158400,
          "time": 141.42843000000002,
          "velocity": 0.7086614173228346
        },
        {
          "duration": 0.20267836875001422,
          "durationTicks": 227,
          "midi": 48,
          "name": "C3",
          "ticks": 158640,
          "time": 141.6427155,
          "velocity": 0.7165354330708661
        },
        {
          "duration": 0.2026783687499858,
          "durationTicks": 227,
          "midi": 51,
          "name": "D#3",
          "ticks": 158880,
          "time": 141.85700100000003,
          "velocity": 0.7244094488188977
        },
        {
          "duration": 0.2026783687499858,
          "durationTicks": 227,
          "midi": 55,
          "name": "G3",
          "ticks": 158880,
          "time": 141.85700100000003,
          "velocity": 0.7244094488188977
        },
        {
          "duration": 0.2026783687499858,
          "durationTicks": 227,
          "midi": 48,
          "name": "C3",
          "ticks": 159120,
          "time": 142.0712865,
          "velocity": 0.7322834645669292
        },
        {
          "duration": 0.20267836875001422,
          "durationTicks": 227,
          "midi": 51,
          "name": "D#3",
          "ticks": 159360,
          "time": 142.285572,
          "velocity": 0.7401574803149606
        },
        {
          "duration": 0.20267836875001422,
          "durationTicks": 227,
          "midi": 55,
          "name": "G3",
          "ticks": 159360,
          "time": 142.285572,
          "velocity": 0.7401574803149606
        },
        {
          "duration": 0.2026783687499858,
          "durationTicks": 227,
          "midi": 48,
          "name": "C3",
          "ticks": 159600,
          "time": 142.49985750000002,
          "velocity": 0.7480314960629921
        },
        {
          "duration": 1.2205344937499945,
          "durationTicks": 1367,
          "midi": 51,
          "name": "D#3",
          "ticks": 159840,
          "time": 142.714143,
          "velocity": 0.7559055118110236
        },
        {
          "duration": 1.2205344937499945,
          "durationTicks": 1367,
          "midi": 55,
          "name": "G3",
          "ticks": 159840,
          "time": 142.714143,
          "velocity": 0.7559055118110236
        },
        {
          "duration": 2.4419618437499935,
          "durationTicks": 2735,
          "midi": 55,
          "name": "G3",
          "ticks": 161280,
          "time": 143.99985600000002,
          "velocity": 0.25984251968503935
        }
      ],
      "endOfTrackTicks": 172802
    }
  ]
}